<svg height="512pt" viewBox="0 -16 512.00046 512" width="512pt" xmlns="http://www.w3.org/2000/svg"><path d="m468.328125 175.769531-34.953125 11.929688v-60.671875c0-70.15625-56.871094-127.027344-127.023438-127.027344-70.15625 0-127.027343 56.871094-127.027343 127.027344v233.058594h254.050781l74.617188-137.316407c7.867187-14.480469 3.851562-32.546875-9.410157-42.324219-8.710937-6.425781-20.015625-8.171874-30.253906-4.675781zm0 0" fill="#ffb3c2"/><path d="m333.351562 274.289062c.796876-139.546874-104.082031-156.636718-153.664062-156.925781-.242188 3.191407-.363281 6.414063-.363281 9.664063v233.058594h156.960937c-1.980468-24.097657-3.121094-52.449219-2.933594-85.796876zm0 0" fill="#ff899f"/><path d="m154.3125 438.484375h270.84375c16.285156 0 29.488281-13.199219 29.488281-29.484375v-29.125c0-16.285156-13.203125-29.488281-29.488281-29.488281h-270.84375zm0 0" fill="#f9ee80"/><path d="m335.550781 350.386719h-181.238281v88.097656h194.070312c-5.277343-20.734375-10.132812-49.242187-12.832031-88.097656zm0 0" fill="#f4e74d"/><path d="m282.300781 284.96875c0 74.039062-60.019531 134.0625-134.058593 134.0625-74.039063 0-134.0625-60.023438-134.0625-134.0625s60.019531-107.660156 134.0625-107.660156c74.039062 0 134.058593 33.621094 134.058593 107.660156zm0 0" fill="#fad989"/><path d="m242.664062 311.976562-25.980468-22.046874c-12.773438-10.839844-31.566406-10.636719-44.101563.472656l-24.339843 21.574218-24.34375-21.574218c-12.535157-11.109375-31.328126-11.3125-44.101563-.472656l-25.980469 22.046874-26.492187-16.484374c-13.863281-8.628907-31.078125 4.347656-26.601563 20.050781l38.144532 133.828125c5.203124 18.253906 21.882812 30.84375 40.863281 30.84375h137.019531c18.980469 0 35.660156-12.589844 40.863281-30.84375l38.144531-133.828125c4.476563-15.703125-12.738281-28.679688-26.601562-20.050781zm0 0" fill="#c2eafb"/><path d="m216.753906 480.210938c18.980469 0 35.65625-12.585938 40.859375-30.84375l38.144531-133.824219c4.476563-15.703125-12.738281-28.679688-26.601562-20.050781l-26.492188 16.484374-25.980468-22.050781c-12.773438-10.835937-31.566406-10.632812-44.101563.476563l-24.339843 21.574218v168.234376zm0 0" fill="#91d4f2"/><path d="m123.898438 290.402344c-12.535157-11.109375-31.328126-11.3125-44.101563-.476563l-25.980469 22.050781 46.1875 168.234376h48.238282v-168.234376zm0 0" fill="#91d4f2"/><path d="m172.582031 290.402344c12.535157-11.109375 31.328125-11.3125 44.101563-.476563l25.980468 22.050781-46.183593 168.234376h-48.238281v-168.234376zm0 0" fill="#59c2e8"/><path d="m272.671875 238.777344c-19.8125-41.980469-68.058594-61.46875-124.429687-61.46875-56.371094 0-104.617188 19.488281-124.433594 61.46875 8.511718 4.867187 34.636718 18.480468 60.773437 18.480468 31.828125 0 31.828125-20.1875 63.65625-20.1875s31.828125 20.1875 63.65625 20.1875c26.136719.003907 52.265625-13.609374 60.777344-18.480468zm0 0" fill="#dd6642"/><path d="m249.96875 197.507812c0 10.164063-8.238281 18.402344-18.398438 18.402344-10.164062 0-18.398437-8.238281-18.398437-18.402344 0-10.160156 8.234375-18.398437 18.398437-18.398437 10.160157 0 18.398438 8.238281 18.398438 18.398437zm0 0" fill="#f9ee80"/><path d="m83.3125 197.507812c0 10.164063-8.238281 18.402344-18.402344 18.402344-10.160156 0-18.398437-8.238281-18.398437-18.402344 0-10.160156 8.238281-18.398437 18.398437-18.398437 10.164063 0 18.402344 8.238281 18.402344 18.398437zm0 0" fill="#ffb3c2"/><path d="m166.640625 177.308594c0 10.160156-8.238281 18.398437-18.398437 18.398437-10.164063 0-18.402344-8.238281-18.402344-18.398437 0-10.164063 8.238281-18.402344 18.402344-18.402344 10.160156 0 18.398437 8.238281 18.398437 18.402344zm0 0" fill="#73da8c"/><g fill="#ff5f7f"><path d="m303.578125 109.230469-13.144531-13.140625c-6.175782-6.175782-6.175782-16.191406 0-22.367188l13.144531-13.144531c6.175781-6.175781 16.1875-6.175781 22.363281 0l13.144532 13.144531c6.175781 6.175782 6.175781 16.191406 0 22.367188l-13.144532 13.140625c-6.175781 6.179687-16.1875 6.179687-22.363281 0zm0 0"/><path d="m359.878906 165.535156-13.144531-13.144531c-6.175781-6.175781-6.175781-16.191406 0-22.367187l13.144531-13.140626c6.175782-6.175781 16.191406-6.175781 22.367188 0l13.140625 13.140626c6.179687 6.175781 6.179687 16.191406 0 22.367187l-13.140625 13.144531c-6.175782 6.175782-16.191406 6.175782-22.367188 0zm0 0"/><path d="m303.578125 221.835938-13.144531-13.144532c-6.175782-6.175781-6.175782-16.191406 0-22.367187l13.144531-13.140625c6.175781-6.175782 16.1875-6.175782 22.363281 0l13.144532 13.140625c6.175781 6.175781 6.175781 16.191406 0 22.367187l-13.144532 13.144532c-6.175781 6.175781-16.1875 6.175781-22.363281 0zm0 0"/></g><path d="m90.738281 400.542969c0-9.351563-9.519531-16.933594-21.261719-16.933594-11.746093 0-21.265624 7.582031-21.265624 16.933594 0 9.351562 9.519531 16.933593 21.265624 16.933593 11.742188 0 21.261719-7.582031 21.261719-16.933593zm0 0" fill="#ffb3c2"/><path d="m248.269531 400.542969c0-9.351563-9.519531-16.933594-21.261719-16.933594-11.746093 0-21.265624 7.582031-21.265624 16.933594 0 9.351562 9.519531 16.933593 21.265624 16.933593 11.742188 0 21.261719-7.582031 21.261719-16.933593zm0 0" fill="#ffb3c2"/><path d="m211.914062 397.6875c-4.269531 0-7.726562-3.457031-7.726562-7.726562v-12.824219c0-4.269531 3.457031-7.726563 7.726562-7.726563 4.265626 0 7.722657 3.457032 7.722657 7.726563v12.824219c0 4.269531-3.457031 7.726562-7.722657 7.726562zm0 0" fill="#454545"/><path d="m84.570312 397.6875c-4.269531 0-7.726562-3.457031-7.726562-7.726562v-12.824219c0-4.269531 3.457031-7.726563 7.726562-7.726563 4.265626 0 7.726563 3.457032 7.726563 7.726563v12.824219c0 4.269531-3.460937 7.726562-7.726563 7.726562zm0 0" fill="#454545"/><path d="m153.519531 382.242188c-1.734375 2.542968-4.253906 2.847656-5.277343 2.847656-1.027344 0-3.589844-.277344-5.277344-2.847656-2.34375-3.566407-7.136719-4.558594-10.699219-2.214844-3.566406 2.34375-4.558594 7.132812-2.21875 10.699218 4.039063 6.148438 10.839844 9.816407 18.195313 9.816407 7.351562 0 14.152343-3.667969 18.191406-9.816407 2.34375-3.566406 1.351562-8.355468-2.214844-10.699218-1.308594-.859375-7.089844-3.082032-10.699219 2.214844zm0 0" fill="#454545"/></svg>