<svg height="512pt" viewBox="0 -47 512.00015 512" width="512pt" xmlns="http://www.w3.org/2000/svg"><path d="m4.5625 173.023438 54.261719-129.296876c11.117187-26.492187 37.046875-43.726562 65.773437-43.726562h262.804688c28.730468 0 54.65625 17.234375 65.773437 43.726562l54.261719 129.296876c9.976562 23.765624 3.21875 51.257812-16.640625 67.691406l-198.519531 164.292968c-21.046875 17.421876-51.507813 17.421876-72.554688 0l-198.519531-164.292968c-19.859375-16.433594-26.617187-43.925782-16.640625-67.691406zm0 0" fill="#8ed7e8"/><path d="m2.648438 213.042969c3.289062 10.570312 9.585937 20.25 18.554687 27.671875l198.519531 164.292968c21.046875 17.421876 51.503906 17.421876 72.554688 0l198.519531-164.292968c8.96875-7.421875 15.265625-17.101563 18.554687-27.671875zm0 0" fill="#7ac1dd"/><path d="m432.972656 288.570312 57.824219-47.855468c8.96875-7.421875 15.265625-17.101563 18.554687-27.671875h-506.703124c3.289062 10.570312 9.585937 20.25 18.554687 27.671875l57.824219 47.855468c116.535156-26.113281 237.410156-26.113281 353.945312 0zm0 0" fill="#61a5ce"/><path d="m166.589844 213.042969h178.820312l-89.410156-213.042969zm0 0" fill="#ccf8ff"/><path d="m509.351562 213.042969c3.996094-12.835938 3.558594-26.988281-1.914062-40.019531l-54.261719-129.296876c-5.1875-12.359374-13.601562-22.703124-24.019531-30.226562l-83.746094 199.542969zm0 0" fill="#abebf4"/><path d="m82.84375 13.5c-10.417969 7.519531-18.832031 17.863281-24.019531 30.226562l-54.261719 129.296876c-5.472656 13.03125-5.910156 27.183593-1.914062 40.019531h163.941406zm0 0" fill="#abebf4"/><path d="m345.410156 213.042969h-178.820312l53.132812 191.964843c21.046875 17.421876 51.503906 17.421876 72.554688 0zm0 0" fill="#8ed7e8"/><path d="m256 163.390625c-15.988281 0-28.949219-12.960937-28.949219-28.949219v-21.046875c0-4.363281 3.539063-7.902343 7.902344-7.902343h42.09375c4.363281 0 7.902344 3.539062 7.902344 7.902343v21.046875c0 15.988282-12.960938 28.949219-28.949219 28.949219zm0 0" fill="#57565c"/><path d="m190.046875 134.441406c0-13.582031-13.824219-24.589844-30.878906-24.589844-17.054688 0-30.878907 11.007813-30.878907 24.589844 0 13.578125 13.824219 24.589844 30.878907 24.589844 17.054687 0 30.878906-11.011719 30.878906-24.589844zm0 0" fill="#ffc7de"/><path d="m383.710938 134.441406c0-13.582031-13.824219-24.589844-30.878907-24.589844-17.050781 0-30.875 11.007813-30.875 24.589844 0 13.578125 13.824219 24.589844 30.875 24.589844 17.054688 0 30.878907-11.011719 30.878907-24.589844zm0 0" fill="#ffc7de"/><path d="m339.089844 120.941406c-4.265625 0-7.726563-3.457031-7.726563-7.726562v-12.824219c0-4.269531 3.460938-7.726563 7.726563-7.726563 4.269531 0 7.726562 3.457032 7.726562 7.726563v12.824219c0 4.269531-3.457031 7.726562-7.726562 7.726562zm0 0" fill="#57565c"/><path d="m172.910156 120.941406c-4.269531 0-7.726562-3.457031-7.726562-7.726562v-12.824219c0-4.269531 3.457031-7.726563 7.726562-7.726563 4.265625 0 7.726563 3.457032 7.726563 7.726563v12.824219c0 4.269531-3.460938 7.726562-7.726563 7.726562zm0 0" fill="#57565c"/><path d="m182.988281 272.285156c48.574219-4.398437 97.449219-4.398437 146.023438 0l16.398437-59.242187h-178.820312zm0 0" fill="#7ac1dd"/></svg>