<svg height="512pt" viewBox="0 -115 512.00001 512" width="512pt" xmlns="http://www.w3.org/2000/svg"><path d="m496.0625 148.1875c-5.726562 0-11.261719-1.664062-16.003906-4.816406-4.308594-2.867188-9.34375-4.378906-14.558594-4.378906s-10.246094 1.511718-14.558594 4.378906c-4.742187 3.152344-10.28125 4.597656-16 4.816406-5.472656.207031-9.898437-.429688-13.117187-1.140625-2.871094 25.679687-24.65625 45.652344-51.101563 45.652344-28.402344 0-51.421875-23.019531-51.421875-51.421875 0-9.84375 2.761719-19.039063 7.558594-26.859375h-94.871094c-1.671875 8.699219-2.546875 17.675781-2.546875 26.859375 0 78.027344 63.253906 141.28125 141.28125 141.28125 75.886719 0 137.804688-59.839844 141.136719-134.910156-6.554687 1.777343-14.429687.539062-15.796875.539062zm0 0" fill="#ffd4a3"/><path d="m370.722656 0c-72.425781 0-132.125 54.5-140.324218 124.71875h91.621093c6.890625-20.269531 26.097657-34.863281 48.703125-34.863281 28.398438 0 51.417969 23.023437 51.417969 51.421875 0 4.96875-.703125 9.769531-2.015625 14.3125 4.578125 1.867187 9.566406 2.898437 14.816406 2.898437 8.023438 0 15.484375-2.40625 21.703125-6.539062 5.332031-3.542969 12.382813-3.542969 17.714844 0 6.214844 4.128906 13.675781 6.539062 21.703125 6.539062 5.402344 0 10.554688-1.101562 15.238281-3.074219.464844-4.652343.699219-9.363281.699219-14.136718 0-78.023438-63.253906-141.277344-141.277344-141.277344zm0 0" fill="#ffb3c2"/><path d="m140.96875 175.859375c-23.535156 27.578125-70.109375 25.167969-106.039062-5.488281-35.925782-30.65625-45.636719-76.273438-22.105469-103.855469 23.535156-27.578125 70.109375-25.167969 106.039062 5.488281 35.929688 30.65625 45.636719 76.273438 22.105469 103.855469zm-97.132812-82.878906c-8.871094 10.398437 1.953124 33.0625 17.558593 46.375 15.601563 13.316406 39.6875 20.4375 48.558594 10.039062 8.875-10.398437-1.949219-33.0625-17.554687-46.378906-15.605469-13.3125-39.6875-20.4375-48.5625-10.035156zm0 0" fill="#eedb00"/><path d="m121.734375 45.636719c-18.089844 0-33.90625 12.347656-38.121094 29.9375-12.953125 54.09375-19.03125 162.558593 140.578125 162.558593 159.613282 0 153.535156-108.464843 140.582032-162.558593-4.214844-17.589844-20.03125-29.9375-38.121094-29.9375zm0 0" fill="#fcf5af"/><path d="m235.945312 237.925781c-11.152343-18.5625-28.394531-38.777343-55-55.363281-48.96875-30.535156-30.726562-99.5625-16.085937-136.925781h-43.125c-18.089844 0-33.90625 12.347656-38.121094 29.9375-12.953125 54.09375-19.027343 162.558593 140.582031 162.558593 4.023438 0 7.933594-.070312 11.75-.207031zm0 0" fill="#f9ee80"/><path d="m366.234375 220.691406h-284.082031c-16.453125 0-26.957032 17.773438-18.792969 32.054688 4.835937 8.453125 12.382813 17.140625 24.15625 24.078125 6.503906 3.832031 13.96875 5.734375 21.523437 5.734375h230.308594c7.550782 0 15.019532-1.902344 21.523438-5.734375 11.773437-6.9375 19.320312-15.625 24.152344-24.078125 8.167968-14.28125-2.335938-32.054688-18.789063-32.054688zm0 0" fill="#c2eafb"/><path d="m120.863281 252.746094c-8.167969-14.28125 2.339844-32.054688 18.789063-32.054688h-57.5c-16.453125 0-26.957032 17.773438-18.792969 32.054688 4.835937 8.453125 12.382813 17.140625 24.15625 24.078125 6.503906 3.832031 13.96875 5.734375 21.523437 5.734375h57.5c-7.550781 0-15.015624-1.902344-21.523437-5.734375-11.773437-6.9375-19.320313-15.625-24.152344-24.078125zm0 0" fill="#91d4f2"/><path d="m131.792969 50.316406v43.582032c0 12.832031 9.976562 23.757812 22.796875 24.210937 13.460937.480469 24.523437-10.289063 24.523437-23.644531v-15.25c0-9.972656 7.664063-18.550782 17.621094-19.019532 10.632813-.5 19.410156 7.972657 19.410156 18.496094 0 0-2.207031 26.628906 23.660157 26.628906 13.070312 0 23.660156-10.59375 23.660156-23.660156v-31.34375c0-13.410156-10.871094-24.28125-24.28125-24.28125h-83.109375c-13.410157 0-24.28125 10.871094-24.28125 24.28125zm0 0" fill="#f2ad9a"/><path d="m166.691406 172.257812c0-9.351562-9.519531-16.929687-21.261718-16.929687-11.746094 0-21.265626 7.578125-21.265626 16.929687 0 9.355469 9.519532 16.933594 21.265626 16.933594 11.742187 0 21.261718-7.578125 21.261718-16.933594zm0 0" fill="#ffb3c2"/><path d="m324.222656 172.257812c0-9.351562-9.519531-16.929687-21.265625-16.929687-11.742187 0-21.261719 7.578125-21.261719 16.929687 0 9.355469 9.519532 16.933594 21.261719 16.933594 11.746094 0 21.265625-7.578125 21.265625-16.933594zm0 0" fill="#ffb3c2"/><g fill="#454545"><path d="m229.472656 153.960938c-1.734375 2.539062-4.253906 2.847656-5.28125 2.847656-1.023437 0-3.585937-.28125-5.277344-2.847656-2.34375-3.566407-7.132812-4.558594-10.699218-2.21875-3.566406 2.34375-4.558594 7.132812-2.214844 10.699218 4.039062 6.148438 10.839844 9.816406 18.191406 9.816406 7.355469 0 14.15625-3.667968 18.195313-9.816406 2.34375-3.566406 1.351562-8.355468-2.214844-10.699218-1.308594-.859376-7.089844-3.082032-10.699219 2.21875zm0 0"/><path d="m162.980469 157.578125c-.960938-.804687-1.917969-1.019531-2.457031-1.019531-.539063 0-1.574219.132812-2.460938 1.019531-3.019531 3.019531-7.910156 3.019531-10.925781 0-3.019531-3.015625-3.019531-7.910156 0-10.925781 3.574219-3.574219 8.328125-5.542969 13.386719-5.542969 5.054687 0 9.808593 1.96875 13.382812 5.542969 3.019531 3.015625 3.019531 7.910156 0 10.925781-1.507812 1.507813-6.046875 4.082031-10.925781 0zm0 0"/><path d="m290.324219 157.578125c-.960938-.804687-1.917969-1.019531-2.457031-1.019531-.539063 0-1.574219.132812-2.460938 1.019531-3.019531 3.019531-7.910156 3.019531-10.925781 0-3.019531-3.015625-3.019531-7.910156 0-10.925781 3.574219-3.574219 8.328125-5.542969 13.386719-5.542969 5.054687 0 9.808593 1.96875 13.382812 5.542969 3.019531 3.015625 3.019531 7.910156 0 10.925781-1.507812 1.507813-6.046875 4.082031-10.925781 0zm0 0"/></g></svg>