<svg id="Capa_1" enable-background="new 0 0 495.117 495.117" height="512" viewBox="0 0 495.117 495.117" width="512" xmlns="http://www.w3.org/2000/svg"><path d="m445.502 345.551-79.477-201.177c-4.804-12.16-16.551-20.15-29.626-20.15h-177.68c-13.075 0-24.822 7.99-29.626 20.15l-79.478 201.177z" fill="#fff1ce"/><ellipse cx="109.69" cy="295.898" fill="#ffa0ab" rx="23.811" ry="18.23"/><ellipse cx="280.915" cy="295.898" fill="#ffa0ab" rx="23.811" ry="18.23"/><path d="m270.747 231.716c6.02 0 11.713 2.864 15.193 7.776 7.524 10.622 13.192 13.337 23.559 16.186 3.822 1.05 7.917.115 10.876-2.523 8.14-7.257 24.798-21.44 30.658-21.44h49.498l-34.505-87.341c-4.804-12.16-16.551-20.15-29.626-20.15h-177.68c-13.075 0-24.822 7.99-29.626 20.15l-34.505 87.341z" fill="#fcd2a5"/><path d="m484.171 372.923 9.4-19.655c4.953-10.355-2.596-22.333-14.075-22.333h-463.875c-11.479 0-19.027 11.978-14.075 22.333l9.4 19.655c5.718 11.956 17.794 19.566 31.047 19.566h411.13c13.254 0 25.33-7.61 31.048-19.566z" fill="#e6f9ff"/><g fill="#333843"><path d="m126.001 284.327c-4.142 0-7.5-3.358-7.5-7.5v-12c0-4.142 3.358-7.5 7.5-7.5s7.5 3.358 7.5 7.5v12c0 4.142-3.357 7.5-7.5 7.5z"/><path d="m191.597 292.132c-8.795 0-17.16-3.809-22.948-10.451-2.721-3.123-2.396-7.86.727-10.582 3.123-2.721 7.86-2.396 10.582.727 2.938 3.372 7.181 5.306 11.639 5.306s8.701-1.934 11.64-5.306c2.722-3.123 7.459-3.448 10.582-.727 3.123 2.722 3.448 7.459.727 10.582-5.789 6.642-14.153 10.451-22.949 10.451z"/><path d="m273.415 283.992c-4.143 0-7.5-3.358-7.5-7.5 0-3.532-2.874-6.406-6.406-6.406s-6.406 2.874-6.406 6.406c0 4.142-3.357 7.5-7.5 7.5-4.142 0-7.5-3.358-7.5-7.5 0-11.803 9.603-21.406 21.406-21.406 11.804 0 21.406 9.603 21.406 21.406 0 4.142-3.357 7.5-7.5 7.5z"/></g><path d="m53.403 330.935h-37.782c-11.479 0-19.027 11.978-14.075 22.333l9.4 19.655c5.718 11.956 17.794 19.566 31.047 19.566h411.13c13.253 0 25.329-7.61 31.048-19.566l3.076-6.431h-398.286c-19.638 0-35.558-15.919-35.558-35.557z" fill="#c1f1ff"/><path d="m348.92 102.628c14.917 0 28.32 9.116 33.801 22.99l21.748 55.048c4.961 12.557-4.294 26.165-17.796 26.165h-17.195c-7.029 0-12.727 5.698-12.727 12.727v14.694c0 15.584-12.751 28.335-28.335 28.335-15.584 0-28.335-12.751-28.335-28.335v-14.694c0-7.029-5.698-12.727-12.727-12.727h-178.91c-13.502 0-22.757-13.607-17.796-26.165l21.747-55.048c5.481-13.874 18.884-22.99 33.801-22.99z" fill="#ffbe74"/></svg>