<svg height="512pt" viewBox="0 0 512.00105 512" width="512pt" xmlns="http://www.w3.org/2000/svg"><path d="m182.902344 148.9375-172.984375 172.984375c-13.222657 13.222656-13.222657 34.660156 0 47.882813l132.277343 132.277343c13.222657 13.222657 34.65625 13.222657 47.878907 0l172.988281-172.988281zm0 0" fill="#ff5f7f"/><path d="m142.195312 502.082031c13.222657 13.222657 34.65625 13.222657 47.878907 0l172.988281-172.988281-20.605469-20.601562-172.984375 172.984374c-13.222656 13.222657-34.660156 13.222657-47.882812 0zm0 0" fill="#f4375c"/><path d="m453.097656 229.488281c9.058594-2.6875 16.140625-9.773437 18.832032-18.832031 2.6875-9.058594 9.769531-16.140625 18.828124-18.832031 9.058594-2.6875 16.144532-9.769531 18.832032-18.828125v-.007813c2.828125-9.519531 3.171875-19.601562 1.011718-29.292969l-.210937-.9375c-2.40625-10.78125-9.589844-19.882812-19.519531-24.726562-7.28125-3.554688-13.164063-9.4375-16.714844-16.714844l-2.1875-4.480468c-3.550781-7.277344-9.433594-13.160157-16.710938-16.714844l-4.480468-2.183594c-7.277344-3.550781-13.164063-9.433594-16.714844-16.714844l-2.183594-4.476562c-3.554687-7.28125-9.4375-13.164063-16.714844-16.714844l-4.480468-2.1875c-7.277344-3.550781-13.160156-9.433594-16.714844-16.714844-4.84375-9.929687-13.945312-17.113281-24.726562-19.519531l-.933594-.207031c-9.695313-2.164063-19.78125-1.816406-29.304688 1.007812-9.054687 2.6875-16.140625 9.773438-18.828125 18.832032-2.6875 9.058593-9.773437 16.140624-18.832031 18.832031-9.058594 2.6875-16.140625 9.769531-18.832031 18.828125-2.6875 9.058594-9.769531 16.144531-18.828125 18.832031s-16.144532 9.773437-18.832032 18.832031l-4.308593 14.519532 45.332031 115.042968 115.042969 45.332032 14.523437-4.308594c9.054688-2.6875 16.140625-9.773438 18.828125-18.832032 2.6875-9.058593 9.769531-16.144531 18.828125-18.832031zm0 0" fill="#e1966d"/><path d="m510.597656 143.699219-.207031-.9375c-2.40625-10.78125-9.589844-19.882813-19.519531-24.730469-.984375-.476562-1.933594-1.007812-2.863282-1.566406.742188 1.832031 1.34375 3.734375 1.78125 5.695312l.207032.933594c2.164062 9.691406 1.816406 19.773438-1.007813 29.292969l-.003906.007812c-2.6875 9.054688-9.769531 16.140625-18.828125 18.828125s-16.144531 9.773438-18.832031 18.832032c-2.6875 9.054687-9.773438 16.140624-18.832031 18.828124-9.054688 2.6875-16.140626 9.773438-18.828126 18.832032-2.6875 9.054687-9.773437 16.140625-18.832031 18.828125l-14.519531 4.308593-100.265625-39.503906 5.824219 14.777344 115.042968 45.332031 14.523438-4.308593c9.054688-2.6875 16.140625-9.773438 18.828125-18.832032s9.773437-16.140625 18.832031-18.828125c9.058594-2.691406 16.140625-9.773437 18.832032-18.832031 2.6875-9.058594 9.769531-16.140625 18.828124-18.828125 9.058594-2.6875 16.144532-9.773437 18.832032-18.832031v-.003906c2.824218-9.519532 3.171875-19.601563 1.007812-29.292969zm0 0" fill="#d77c40"/><path d="m329.976562 97.398438c-1.980468 0-3.957031-.753907-5.464843-2.265626-3.015625-3.015624-3.015625-7.90625 0-10.925781l8.355469-8.355469c3.019531-3.019531 7.910156-3.019531 10.925781 0 3.019531 3.015626 3.019531 7.90625 0 10.925782l-8.355469 8.355468c-1.507812 1.507813-3.484375 2.265626-5.460938 2.265626zm0 0" fill="#333941"/><path d="m422.328125 189.75c-1.976563 0-3.953125-.753906-5.460937-2.265625-3.019532-3.015625-3.019532-7.90625 0-10.925781l8.355468-8.355469c3.015625-3.015625 7.910156-3.015625 10.925782 0 3.015624 3.015625 3.015624 7.910156 0 10.925781l-8.355469 8.355469c-1.511719 1.511719-3.488281 2.265625-5.464844 2.265625zm0 0" fill="#333941"/><path d="m386.785156 154.433594c-7.589844 0-14.996094-3.097656-20.558594-8.664063-6.019531-6.015625-9.152343-14.1875-8.601562-22.417969.289062-4.257812 3.96875-7.480468 8.230469-7.191406 4.257812.285156 7.476562 3.96875 7.1875 8.226563-.253907 3.78125 1.246093 7.59375 4.109375 10.457031 2.867187 2.867188 6.679687 4.363281 10.460937 4.109375 4.257813-.289063 7.941407 2.933594 8.226563 7.191406.285156 4.257813-2.933594 7.941407-7.191406 8.226563-.621094.042968-1.246094.0625-1.863282.0625zm0 0" fill="#333941"/><path d="m400.917969 271.457031-160.378907-160.375c-7.441406-7.445312-19.511718-7.445312-26.953124 0l-42.886719 42.882813c-8.019531 8.023437-4.847657 21.675781 5.886719 25.335937 14.679687 5.011719 26.210937 16.542969 31.222656 31.222657 5.011718 14.679687 16.539062 26.210937 31.222656 31.222656 14.679688 5.011718 26.210938 16.542968 31.21875 31.222656 5.011719 14.679688 16.542969 26.210938 31.222656 31.21875 14.679688 5.011719 26.210938 16.542969 31.222656 31.222656 3.664063 10.734375 17.316407 13.90625 25.335938 5.886719l42.882812-42.886719c7.445313-7.441406 7.445313-19.507812.003907-26.953125zm0 0" fill="#e9e9e9"/><path d="m400.917969 271.457031-20.605469-20.601562c7.445312 7.441406 7.445312 19.511719 0 26.957031l-42.882812 42.882812c-2.75 2.75-6.160157 4.179688-9.605469 4.449219 1.988281 3.195313 3.628906 6.632813 4.871093 10.269531 3.664063 10.734376 17.316407 13.90625 25.335938 5.882813l42.882812-42.882813c7.445313-7.445312 7.445313-19.511718.003907-26.957031zm0 0" fill="#d3d2d8"/><g fill="#f3c13b"><path d="m133.859375 305.652344c-8.890625 8.097656-12.777344 20.910156-8.898437 33.121094 3.882812 12.207031 14.457031 20.421874 26.390624 21.898437 8.886719-8.097656 12.777344-20.910156 8.894532-33.121094-3.882813-12.207031-14.457032-20.421875-26.386719-21.898437zm0 0"/><path d="m206.367188 378.164062c-8.09375 8.886719-20.910157 12.777344-33.117188 8.894532-12.210938-3.878906-20.421875-14.457032-21.898438-26.386719 8.09375-8.890625 20.910157-12.777344 33.117188-8.898437 12.210938 3.882812 20.421875 14.457031 21.898438 26.390624zm0 0"/><path d="m92.347656 347.164062c-8.890625 8.097657-12.777344 20.910157-8.898437 33.117188 3.882812 12.210938 14.457031 20.425781 26.390625 21.898438 8.886718-8.09375 12.777344-20.90625 8.894531-33.117188-3.882813-12.207031-14.457031-20.421875-26.386719-21.898438zm0 0"/><path d="m164.855469 419.675781c-8.09375 8.886719-20.910157 12.777344-33.117188 8.894531-12.207031-3.882812-20.421875-14.457031-21.898437-26.390624 8.097656-8.886719 20.910156-12.777344 33.117187-8.894532 12.210938 3.882813 20.421875 14.457032 21.898438 26.390625zm0 0"/></g><path d="m109.828125 409.898438c-1.976563 0-3.953125-.757813-5.460937-2.265626-3.019532-3.015624-3.019532-7.910156 0-10.925781l87.351562-87.351562c3.015625-3.019531 7.910156-3.019531 10.925781 0 3.015625 3.015625 3.015625 7.90625 0 10.925781l-87.351562 87.351562c-1.507813 1.507813-3.488281 2.265626-5.464844 2.265626zm0 0" fill="#f3e64d"/><path d="m227.703125 284.296875c-11.277344-4.171875-24.445313-1.738281-33.503906 7.320313-9.058594 9.058593-11.492188 22.226562-7.320313 33.5 11.277344 4.175781 24.445313 1.738281 33.503906-7.320313 9.058594-9.058594 11.492188-22.222656 7.320313-33.5zm0 0" fill="#f3c13b"/></svg>