<svg height="512pt" viewBox="-39 0 512 512.00134" width="512pt" xmlns="http://www.w3.org/2000/svg"><path d="m119.929688 193.90625v-11.90625c0-6.503906 5.128906-11.847656 11.628906-12.117188l290.335937-11.960937c6.886719-.285156 12.628907 5.222656 12.628907 12.117187v35.828126c0 6.894531-5.742188 12.402343-12.628907 12.117187l-290.335937-11.960937c-6.5-.269532-11.628906-5.617188-11.628906-12.117188zm0 0" fill="#d2996f"/><path d="m286.824219 180.453125c-22.617188-.554687-36.847657 15.6875-44.003907 30.152344l16.808594.691406c5.53125-8.347656 14.132813-15.855469 26.121094-15.855469.234375 0 .472656.003906.707031.007813 10.238281.25 22.371094 6.085937 31.4375 18.25l18.03125.742187c-9.664062-17.960937-26.882812-33.445312-49.101562-33.988281zm0 0" fill="#c47b46"/><path d="m434.519531 182.101562c-37.390625 5.320313-47.289062-7.550781-51.78125-22.566406l-15.359375.632813c2.371094 9.175781 6.480469 19.90625 15.890625 27.582031 8.632813 7.042969 20.398438 10.542969 35.640625 10.542969 4.84375 0 10.050782-.363281 15.609375-1.070313zm0 0" fill="#c47b46"/><path d="m330.84375 512h-230.835938c-7.023437 0-13.699218-3.058594-18.289062-8.375l-22.199219-25.730469c-38.394531-44.496093-59.519531-101.3125-59.519531-160.082031 0-6.617188 5.363281-11.980469 11.980469-11.980469h406.894531c6.617188 0 11.980469 5.363281 11.980469 11.980469 0 58.769531-21.125 115.585938-59.519531 160.082031l-22.203126 25.730469c-4.589843 5.316406-11.265624 8.375-18.289062 8.375zm0 0" fill="#fcf2d0"/><path d="m160.285156 305.832031h-148.304687c-6.617188 0-11.980469 5.363281-11.980469 11.980469 0 58.769531 21.125 115.585938 59.519531 160.082031l22.203125 25.730469c4.585938 5.320312 11.261719 8.375 18.285156 8.375h105.597657c-35.703125-39.09375-59.40625-149.226562-45.320313-206.167969zm0 0" fill="#f2d98d"/><path d="m51.113281 467.574219c2.703125 3.503906 5.5 6.953125 8.40625 10.320312l22.203125 25.730469c4.585938 5.320312 11.261719 8.375 18.285156 8.375h230.835938c7.027344 0 13.699219-3.054688 18.289062-8.375l22.203126-25.730469c2.90625-3.367187 5.699218-6.8125 8.40625-10.320312-62.871094 1.457031-86.667969 12.417969-164.3125 12.417969-77.648438 0-101.445313-10.960938-164.316407-12.417969zm0 0" fill="#a3defe"/><path d="m51.113281 467.574219c2.703125 3.503906 5.5 6.953125 8.40625 10.320312l22.203125 25.730469c4.585938 5.320312 11.261719 8.375 18.285156 8.375h105.597657c-7.449219-8.15625-14.371094-19.410156-20.542969-32.625-54.910156-2.332031-80.097656-10.550781-133.949219-11.800781zm0 0" fill="#7acefa"/><path d="m228.460938 152.589844h-84.167969c-16.699219 0-30.234375 13.535156-30.234375 30.234375v123.007812h144.636718v-123.007812c0-16.699219-13.539062-30.234375-30.234374-30.234375zm0 0" fill="#fcf2d0"/><g fill="#f2d98d"><path d="m178.875 152.589844h15v153.242187h-15zm0 0"/><path d="m142.71875 152.589844h15v153.242187h-15zm0 0"/><path d="m215.035156 152.589844h15v153.242187h-15zm0 0"/></g><path d="m341.46875 279.203125-59.292969 59.292969c-4.039062 4.042968-10.59375 4.042968-14.632812 0l-30.269531-30.265625c-4.039063-4.042969-4.039063-10.59375 0-14.636719l59.292968-59.292969c4.042969-4.042969 10.59375-4.042969 14.636719 0l30.265625 30.265625c4.042969 4.042969 4.042969 10.597656 0 14.636719zm0 0" fill="#89d47f"/><path d="m284.222656 246.644531-46.949218 46.949219c-4.042969 4.042969-4.042969 10.59375 0 14.636719l30.265624 30.265625c4.042969 4.042968 10.597657 4.042968 14.636719 0l23.074219-23.074219c-12.632812-11.628906-21.972656-46.261719-21.027344-68.777344zm0 0" fill="#5ec783"/><path d="m86.070312 102.523438c16.875-5.601563 34.851563 4.78125 38.4375 22.191406.453126 2.199218 1.601563 4.191406 3.28125 5.683594 13.285157 11.808593 13.285157 32.570312 0 44.382812-1.679687 1.488281-2.828124 3.484375-3.28125 5.679688-3.585937 17.414062-21.5625 27.796874-38.4375 22.191406-2.128906-.707032-4.429687-.707032-6.558593 0-16.875 5.601562-34.851563-4.777344-38.4375-22.191406-.453125-2.195313-1.601563-4.191407-3.28125-5.679688-13.285157-11.8125-13.285157-32.574219 0-44.382812 1.679687-1.492188 2.828125-3.484376 3.28125-5.683594 3.585937-17.410156 21.5625-27.792969 38.4375-22.191406 2.128906.707031 4.429687.707031 6.558593 0zm0 0" fill="#eda1ab"/><path d="m81.050781 181.054688c-15.867187 0-28.773437-12.910157-28.773437-28.777344 0-13.519532 11-24.519532 24.519531-24.519532 6.59375 0 12.6875 2.992188 16.71875 8.214844 2.53125 3.277344 1.925781 7.988282-1.351563 10.519532-3.277343 2.53125-7.988281 1.929687-10.519531-1.351563-1.171875-1.515625-2.9375-2.382813-4.847656-2.382813-5.25 0-9.519531 4.269532-9.519531 9.519532 0 7.597656 6.179687 13.777344 13.773437 13.777344 10.53125 0 19.097657-8.566407 19.097657-19.097657 0-4.140625 3.355468-7.5 7.5-7.5 4.140624 0 7.5 3.359375 7.5 7.5 0 18.800781-15.296876 34.097657-34.097657 34.097657zm0 0" fill="#e3748e"/><path d="m418.875 305.832031h-406.894531c-6.617188 0-11.980469 5.363281-11.980469 11.980469 0 22.40625 3.082031 44.53125 9.007812 65.796875 48.476563-1.96875 52.816407-14.601563 96.570313-14.601563 47.453125 0 48.546875 14.859376 109.847656 14.859376 61.304688 0 62.398438-14.859376 109.851563-14.859376 43.753906 0 48.09375 12.632813 96.566406 14.601563 5.929688-21.265625 9.011719-43.386719 9.011719-65.796875 0-6.617188-5.363281-11.980469-11.980469-11.980469zm0 0" fill="#8eafe2"/><path d="m179.144531 439.804688c0-9.332032-9.5-16.898438-21.21875-16.898438-11.714843 0-21.214843 7.566406-21.214843 16.898438 0 9.328124 9.5 16.894531 21.214843 16.894531 11.71875 0 21.21875-7.566407 21.21875-16.894531zm0 0" fill="#eda1ab"/><path d="m294.144531 439.804688c0-9.332032-9.5-16.898438-21.21875-16.898438-11.714843 0-21.214843 7.566406-21.214843 16.898438 0 9.328124 9.5 16.894531 21.214843 16.894531 11.71875 0 21.21875-7.566407 21.21875-16.894531zm0 0" fill="#eda1ab"/><path d="m180.390625 428.917969c-4.144531 0-7.5-3.359375-7.5-7.5 0-1.433594-1.164063-2.597657-2.597656-2.597657-1.433594 0-2.601563 1.164063-2.601563 2.597657 0 4.140625-3.355468 7.5-7.5 7.5-4.140625 0-7.5-3.359375-7.5-7.5 0-9.703125 7.894532-17.597657 17.601563-17.597657 9.703125 0 17.597656 7.894532 17.597656 17.597657 0 4.140625-3.355469 7.5-7.5 7.5zm0 0" fill="#4e5660"/><path d="m270.660156 428.917969c-4.140625 0-7.5-3.359375-7.5-7.5 0-1.433594-1.164062-2.597657-2.597656-2.597657s-2.601562 1.164063-2.601562 2.597657c0 4.140625-3.355469 7.5-7.5 7.5-4.140626 0-7.5-3.359375-7.5-7.5 0-9.703125 7.898437-17.597657 17.601562-17.597657s17.597656 7.894532 17.597656 17.597657c0 4.140625-3.355468 7.5-7.5 7.5zm0 0" fill="#4e5660"/><path d="m215.425781 445.601562c-6.273437 0-12.238281-2.714843-16.363281-7.453124-2.722656-3.121094-2.398438-7.859376.726562-10.582032 3.121094-2.71875 7.859376-2.394531 10.582032.726563 1.277344 1.464843 3.121094 2.308593 5.054687 2.308593 1.9375 0 3.78125-.839843 5.058594-2.308593 2.722656-3.125 7.460937-3.449219 10.582031-.726563 3.125 2.722656 3.449219 7.460938.726563 10.582032-4.128907 4.734374-10.09375 7.453124-16.367188 7.453124zm0 0" fill="#4e5660"/><path d="m169.863281 242.878906-8.417969-8.417968c-4.601562-4.597657-4.75-12.003907-.347656-16.789063l196.84375-213.757813c4.667969-5.074218 12.621094-5.238281 17.496094-.363281l25.335938 25.335938c4.871093 4.875 4.710937 12.828125-.363282 17.496093l-213.757812 196.84375c-4.78125 4.402344-12.191406 4.25-16.789063-.347656zm0 0" fill="#d2996f"/><path d="m211.097656 182.566406c7.769532 0 15.21875-1.164062 22.234375-4.765625 12.015625-6.164062 20.925781-18.789062 23.835938-33.777343 1.859375-9.558594 1.234375-19.410157-1.644531-28.890626l-12.519532 13.59375c.398438 4.171876.234375 8.351563-.558594 12.4375-2.042968 10.503907-8.007812 19.210938-15.960937 23.292969-5.503906 2.824219-11.839844 3.40625-19.164063 3.019531l-12.746093 13.84375c5.640625.691407 11.160156 1.246094 16.523437 1.246094zm0 0" fill="#c47b46"/><path d="m333.195312 60.507812c-21.054687 16.699219-25.707031 50.070313-25.71875 71.457032l15.863282-14.613282c1.730468-16.304687 6.722656-35.214843 19.179687-45.09375 8.6875-6.894531 20.492188-8.535156 35.171875-4.953124l12.847656-11.832032c-23.574218-8.144531-42.851562-6.460937-57.34375 5.035156zm0 0" fill="#c47b46"/><path d="m11.980469 305.832031c-6.617188 0-11.980469 5.363281-11.980469 11.980469 0 22.40625 3.082031 44.53125 9.007812 65.796875 48.476563-1.96875 52.8125-14.601563 96.570313-14.601563 25.230469 0 37.355469 4.203126 52.390625 8.132813-2.890625-26.652344-2.453125-52.027344 2.316406-71.304687h-148.304687zm0 0" fill="#6a96d7"/></svg>