<?xml version="1.0" encoding="iso-8859-1"?>
<!-- Generator: Adobe Illustrator 19.0.0, SVG Export Plug-In . SVG Version: 6.00 Build 0)  -->
<svg version="1.1" id="Capa_1" xmlns="http://www.w3.org/2000/svg" xmlns:xlink="http://www.w3.org/1999/xlink" x="0px" y="0px"
	 viewBox="0 0 512.001 512.001" style="enable-background:new 0 0 512.001 512.001;" xml:space="preserve">
<path style="fill:#FD6F71;" d="M42.493,104.593C61.301,73.246,114.242,47.472,256,47.472s194.699,25.774,213.507,57.121v167.358
	H42.493V104.593z"/>
<path style="fill:#E34B4C;" d="M97.779,66.028c-29.889,10.192-46.4,23.755-55.287,38.565v167.358h55.287V66.028z"/>
<path style="fill:#C86D5C;" d="M14.754,21.001h37.365c8.149,0,14.754,6.606,14.754,14.754v249.256l-33.437,21.943L0,285.012V35.756
	C0,27.607,6.606,21.001,14.754,21.001z"/>
<path style="fill:#E34B4C;" d="M414.221,66.028v205.923h55.287V104.593C460.622,89.783,444.11,76.22,414.221,66.028z"/>
<path style="fill:#C86D5C;" d="M497.246,21.001h-37.365c-8.149,0-14.754,6.606-14.754,14.754v249.256l33.437,21.943L512,285.012
	V35.756C512,27.607,505.394,21.001,497.246,21.001z"/>
<path style="fill:#EFEDEE;" d="M256,169.296c0-16.322-12.729-29.826-29.025-30.743c-33.823-1.903-91.154-2.525-138.756,9.929
	c-18.751,4.906-31.794,21.901-31.794,41.282v77.832L256,244.609l36.571-47.369L256,169.296z"/>
<path style="fill:#D2D2D2;" d="M285.025,138.553c33.823-1.903,91.154-2.525,138.756,9.929c18.751,4.906,31.794,21.901,31.794,41.282
	v77.832L256,244.609v-75.313C256,152.975,268.729,139.47,285.025,138.553z"/>
<g>
	<path style="fill:#3A484A;" d="M176.738,108.155c-4.267,0-7.726-3.459-7.726-7.726V86.083c0-4.267,3.459-7.726,7.726-7.726
		c4.267,0,7.726,3.459,7.726,7.726v14.345C184.464,104.695,181.005,108.155,176.738,108.155z"/>
	<path style="fill:#3A484A;" d="M335.262,108.155c-4.267,0-7.726-3.459-7.726-7.726V86.083c0-4.267,3.459-7.726,7.726-7.726
		c4.267,0,7.726,3.459,7.726,7.726v14.345C342.988,104.695,339.529,108.155,335.262,108.155z"/>
	<path style="fill:#3A484A;" d="M256,115.812c-9.854,0-19.104-4.118-25.38-11.297c-2.809-3.213-2.481-8.093,0.731-10.902
		c3.213-2.809,8.094-2.481,10.902,0.731c3.342,3.822,8.352,6.014,13.746,6.014c5.395,0,10.406-2.192,13.747-6.014
		c2.808-3.214,7.689-3.542,10.902-0.731c3.213,2.808,3.541,7.689,0.731,10.902C275.105,111.694,265.854,115.812,256,115.812z"/>
</g>
<path style="fill:#C86D5C;" d="M256,313.225L0,341.437v75.233l8.637,61.44C9.676,485.502,16.001,491,23.465,491h19.943
	c7.465,0,13.789-5.498,14.828-12.89l8.637-61.44h378.253l8.637,61.44c1.039,7.392,7.364,12.89,14.828,12.89h19.943
	c7.465,0,13.789-5.498,14.828-12.89l8.637-61.44v-75.233L256,313.225z"/>
<path style="fill:#FD6F71;" d="M0,285.012c0,0,9.405-54.335,256-54.335s256,54.335,256,54.335l-33.437,28.213H33.437L0,285.012z"/>
<rect y="285.01" style="fill:#AD4F3D;" width="512" height="56.424"/>
<g>
</g>
<g>
</g>
<g>
</g>
<g>
</g>
<g>
</g>
<g>
</g>
<g>
</g>
<g>
</g>
<g>
</g>
<g>
</g>
<g>
</g>
<g>
</g>
<g>
</g>
<g>
</g>
<g>
</g>
</svg>
