<?xml version="1.0" encoding="iso-8859-1"?>
<!-- Generator: Adobe Illustrator 21.0.0, SVG Export Plug-In . SVG Version: 6.00 Build 0)  -->
<svg version="1.1" id="Capa_1" xmlns="http://www.w3.org/2000/svg" xmlns:xlink="http://www.w3.org/1999/xlink" x="0px" y="0px"
	 viewBox="0 0 512 512" style="enable-background:new 0 0 512 512;" xml:space="preserve">
<g>
	<path style="fill:#3A484A;" d="M308.556,512c-33.115,0-60.055-26.94-60.055-60.056V60.056C248.501,35.212,228.29,15,203.446,15
		c-24.843,0-45.055,20.212-45.055,45.056v91.709c0,4.143-3.358,7.5-7.5,7.5s-7.5-3.357-7.5-7.5V60.056
		C143.391,26.94,170.331,0,203.446,0s60.055,26.94,60.055,60.056v391.889c0,24.844,20.211,45.056,45.055,45.056
		c24.843,0,45.055-20.212,45.055-45.056V218c0-4.143,3.358-7.5,7.5-7.5s7.5,3.357,7.5,7.5v233.944
		C368.611,485.06,341.671,512,308.556,512z"/>
	<path style="fill:#3A484A;" d="M150.891,301.798c-4.142,0-7.5-3.357-7.5-7.5V179.766c0-4.143,3.358-7.5,7.5-7.5s7.5,3.357,7.5,7.5
		v114.532C158.391,298.44,155.033,301.798,150.891,301.798z"/>
</g>
<path style="fill:#EFEDEE;" d="M340.981,176.311h40.261c3.197,0,5.788,2.591,5.788,5.788v29.816c0,3.196-2.591,5.788-5.788,5.788
	h-40.261c-3.196,0-5.788-2.591-5.788-5.788v-29.816C335.193,178.902,337.785,176.311,340.981,176.311z"/>
<path style="fill:#D4D2D3;" d="M355.193,211.915v-29.816c0-3.196,2.591-5.788,5.788-5.788h-20c-3.196,0-5.788,2.591-5.788,5.788
	v29.816c0,3.196,2.591,5.788,5.788,5.788h20C357.785,217.702,355.193,215.111,355.193,211.915z"/>
<path style="fill:#3A484A;" d="M361.111,7.5L361.111,7.5c19.861,0,35.961,16.1,35.961,35.961v136.834
	c0,3.196-2.591,5.788-5.788,5.788h-60.347c-3.196,0-5.788-2.591-5.788-5.788V43.461C325.15,23.6,341.251,7.5,361.111,7.5z"/>
<path style="fill:#313D40;" d="M355.15,180.296V43.461c0-14.505,8.593-26.996,20.961-32.682c-4.567-2.1-9.644-3.279-15-3.279l0,0
	c-19.861,0-35.961,16.1-35.961,35.961v136.834c0,3.196,2.591,5.788,5.788,5.788h30C357.741,186.083,355.15,183.492,355.15,180.296z"
	/>
<path style="fill:#EFEDEE;" d="M171.021,335.689H130.76c-3.196,0-5.788-2.591-5.788-5.788v-29.816c0-3.197,2.591-5.788,5.788-5.788
	h40.261c3.196,0,5.788,2.591,5.788,5.788v29.816C176.809,333.098,174.217,335.689,171.021,335.689z"/>
<path style="fill:#D4D2D3;" d="M144.972,329.902v-29.816c0-3.197,2.591-5.788,5.788-5.788h-20c-3.196,0-5.788,2.591-5.788,5.788
	v29.816c0,3.197,2.591,5.788,5.788,5.788h20C147.564,335.689,144.972,333.098,144.972,329.902z"/>
<path style="fill:#3A484A;" d="M150.891,504.5L150.891,504.5c-19.861,0-35.961-16.1-35.961-35.961V331.704
	c0-3.197,2.591-5.788,5.788-5.788h60.347c3.196,0,5.788,2.591,5.788,5.788v136.834C186.852,488.4,170.751,504.5,150.891,504.5z"/>
<g>
	<path style="fill:#313D40;" d="M144.929,468.539V331.704c0-3.197,2.591-5.788,5.788-5.788h-30c-3.197,0-5.788,2.591-5.788,5.788
		v136.834c0,19.861,16.1,35.961,35.961,35.961l0,0c5.356,0,10.433-1.18,15-3.279C153.522,495.534,144.929,483.044,144.929,468.539z"
		/>
	<rect x="325.151" y="134.95" style="fill:#313D40;" width="71.92" height="15"/>
	<rect x="325.151" y="89.29" style="fill:#313D40;" width="71.92" height="15"/>
	<rect x="325.151" y="43.63" style="fill:#313D40;" width="71.92" height="15"/>
	<rect x="114.931" y="362.05" style="fill:#313D40;" width="71.92" height="15"/>
	<rect x="114.931" y="407.71" style="fill:#313D40;" width="71.92" height="15"/>
	<rect x="114.931" y="453.37" style="fill:#313D40;" width="71.92" height="15"/>
</g>
<g>
</g>
<g>
</g>
<g>
</g>
<g>
</g>
<g>
</g>
<g>
</g>
<g>
</g>
<g>
</g>
<g>
</g>
<g>
</g>
<g>
</g>
<g>
</g>
<g>
</g>
<g>
</g>
<g>
</g>
</svg>
