<svg height="511pt" viewBox="-74 0 511 511.99987" width="511pt" xmlns="http://www.w3.org/2000/svg"><path d="m358.828125 187.261719c-11.269531-21.925781-38.179687-30.5625-60.105469-19.292969l-20.070312 10.316406-10.316406-20.070312c-11.269532-21.925782-38.179688-30.5625-60.105469-19.292969s-30.5625 38.179687-19.292969 60.105469l10.316406 20.070312 38.449219 74.800782c1.308594 2.539062 4.421875 3.539062 6.964844 2.234374l74.800781-38.449218 20.070312-10.316406c21.921876-11.269532 30.5625-38.179688 19.289063-60.105469zm0 0" fill="#f46262"/><path d="m363.054688 215.574219c-4.675782-1.851563-9.761719-2.878907-15.085938-2.878907h-152.003906l3.289062 6.40625 38.449219 74.796876c1.308594 2.539062 4.421875 3.542968 6.964844 2.234374l74.800781-38.449218 20.070312-10.316406c12.851563-6.605469 21.128907-18.589844 23.515626-31.792969zm0 0" fill="#d65b5b"/><path d="m228.855469 180.476562c-6.359375-14.269531-14.925781-27.339843-25.265625-38.792968-18.445313 12.476562-25.089844 37.042968-14.652344 57.34375l10.316406 20.074218 35.4375 68.941407 35.121094-15.648438zm0 0" fill="#d65b5b"/><path d="m89.949219 78.425781-27.601563-61.949219-49.464844 22.042969 27.601563 61.945313c11.144531 25.011718 13.132813 53.144531 5.613281 79.472656-7.519531 26.328125-5.53125 54.464844 5.613282 79.472656l28.375 63.6875 148.914062-66.355468-28.375-63.683594c-11.144531-25.011719-30.734375-45.300782-55.339844-57.316406-24.601562-12.015626-44.191406-32.304688-55.335937-57.316407zm0 0" fill="#5aaa4f"/><path d="m51.710938 259.410156 28.378906 63.6875 148.914062-66.355468-19.628906-44.046876h-167.726562c.101562 15.984376 3.460937 31.898438 10.0625 46.714844zm0 0" fill="#4a994a"/><path d="m74.972656 167.074219c7.515625-26.328125 5.527344-54.464844-5.613281-79.472657l-27.605469-61.949218-28.871094 12.867187 27.601563 61.945313c11.144531 25.011718 13.132813 53.144531 5.613281 79.472656-7.515625 26.328125-5.53125 54.464844 5.613282 79.472656l28.378906 63.6875 28.871094-12.867187-28.378907-63.683594c-11.140625-25.011719-13.128906-53.144531-5.609375-79.472656zm0 0" fill="#4a994a"/><path d="m113.945312 186.664062c-2.046874-19.707031-3.488281-51.339843 5.558594-68.109374-12.539062-11.015626-22.664062-24.664063-29.554687-40.128907l-27.601563-61.949219-49.464844 22.042969 27.601563 61.945313c6.890625 15.464844 10.269531 32.121094 10.078125 48.808594 18.515625 4.488281 41.074219 26.710937 54.355469 41.410156 3.367187 3.726562 9.546875.976562 9.027343-4.019532zm0 0" fill="#ffde55"/><path d="m75.992188 163.175781c6.261718-25.191406 3.960937-51.792969-6.632813-75.574219l-27.605469-61.949218-28.871094 12.867187 27.601563 61.945313c6.890625 15.464844 10.269531 32.121094 10.078125 48.808594 8.078125 1.957031 16.921875 7.289062 25.429688 13.902343zm0 0" fill="#ffcd00"/><path d="m72.324219 33.769531-53.257813 23.734375c-3.199218 1.425782-6.949218-.011718-8.375-3.214844l-9.640625-21.628906c-1.425781-3.203125.011719-6.953125 3.210938-8.378906l53.261719-23.730469c3.199218-1.425781 6.949218.011719 8.375 3.210938l9.640624 21.632812c1.425782 3.199219-.011718 6.949219-3.214843 8.375zm0 0" fill="#b2785b"/><path d="m39.5625 41.425781-9.640625-21.632812c-1.425781-3.199219.015625-6.949219 3.214844-8.375l-28.871094 12.863281c-3.203125 1.425781-4.640625 5.175781-3.214844 8.378906l9.640625 21.628906c1.425782 3.203126 5.175782 4.640626 8.375 3.214844l28.871094-12.867187c-3.199219 1.425781-6.949219-.011719-8.375-3.210938zm0 0" fill="#935b45"/><path d="m288.128906 512h-211.980468c-5.769532 0-10.65625-4.25-11.460938-9.960938l-31.089844-220.714843h297.082032l-31.089844 220.714843c-.804688 5.710938-5.691406 9.960938-11.460938 9.960938zm0 0" fill="#d8d7da"/><path d="m330.679688 281.324219h-297.082032l11.398438 80.90625 19.691406 139.808593c.804688 5.710938 5.691406 9.960938 11.460938 9.960938h61.8125c-5.769532 0-10.65625-4.25-11.460938-9.960938l-19.695312-139.808593h212.480468zm0 0" fill="#c6c5ca"/><path d="m347.96875 331.324219h-331.660156c-5.65625 0-10.242188-4.585938-10.242188-10.242188v-67.238281c0-5.65625 4.585938-10.242188 10.242188-10.242188h331.660156c5.65625 0 10.242188 4.585938 10.242188 10.242188v67.238281c0 5.65625-4.585938 10.242188-10.242188 10.242188zm0 0" fill="#eaeaea"/><path d="m320.785156 279.738281h-252.90625v-25.894531c0-5.65625 4.585938-10.242188 10.242188-10.242188h-61.8125c-5.65625 0-10.242188 4.585938-10.242188 10.242188v67.238281c0 5.65625 4.585938 10.242188 10.242188 10.242188h61.8125c-5.65625 0-10.242188-4.585938-10.242188-10.242188v-25.890625h252.90625c4.269532 0 7.726563-3.460937 7.726563-7.726562 0-4.269532-3.457031-7.726563-7.726563-7.726563zm0 0" fill="#d8d7da"/><g fill="#444346"><path d="m182.140625 475.570312c-9.78125 0-18.890625-5.273437-23.769531-13.757812-2.0625-3.59375-.824219-8.175781 2.765625-10.242188 3.589843-2.066406 8.175781-.828124 10.238281 2.765626 2.210938 3.84375 6.335938 6.234374 10.765625 6.234374 4.425781 0 8.550781-2.390624 10.761719-6.234374 2.0625-3.59375 6.648437-4.828126 10.238281-2.765626 3.589844 2.066407 4.828125 6.648438 2.765625 10.242188-4.878906 8.488281-13.988281 13.757812-23.765625 13.757812zm0 0"/><path d="m247.75 445.410156c-4.140625 0-7.5-3.359375-7.5-7.5v-11.699218c0-4.140626 3.359375-7.5 7.5-7.5 4.144531 0 7.5 3.359374 7.5 7.5v11.699218c0 4.140625-3.355469 7.5-7.5 7.5zm0 0"/><path d="m116.527344 445.410156c-4.140625 0-7.5-3.359375-7.5-7.5v-11.699218c0-4.140626 3.359375-7.5 7.5-7.5s7.5 3.359374 7.5 7.5v11.699218c0 4.140625-3.359375 7.5-7.5 7.5zm0 0"/></g><path d="m253.601562 467.523438h-11.699218c-4.140625 0-7.5-3.359376-7.5-7.5 0-4.140626 3.359375-7.5 7.5-7.5h11.699218c4.140626 0 7.5 3.359374 7.5 7.5 0 4.140624-3.359374 7.5-7.5 7.5zm0 0" fill="#f46262"/><path d="m122.375 467.523438h-11.695312c-4.144532 0-7.5-3.359376-7.5-7.5 0-4.140626 3.355468-7.5 7.5-7.5h11.695312c4.144531 0 7.5 3.359374 7.5 7.5 0 4.140624-3.355469 7.5-7.5 7.5zm0 0" fill="#f46262"/></svg>