<svg height="512pt" viewBox="0 -24 512.00046 512" width="512pt" xmlns="http://www.w3.org/2000/svg"><path d="m2.203125 158.070312h345.335937l1.535157-10.300781c5.40625-36.285156-22.703125-68.890625-59.386719-68.890625h-229.632812c-36.683594 0-64.792969 32.605469-59.386719 68.890625zm0 0" fill="#b0f0ef"/><path d="m29.074219 338.445312 5.074219 34.0625c5.414062 36.339844 36.613281 63.234376 73.351562 63.234376h134.742188c36.734374 0 67.9375-26.894532 73.351562-63.234376l5.074219-34.0625zm0 0" fill="#b0f0ef"/><path d="m161.710938 338.445312c-19.242188 35.488282-32.894532 60.84375-23.058594 97.296876h103.589844c36.738281 0 67.9375-26.894532 73.351562-63.234376l5.074219-34.0625zm0 0" fill="#76e7e7"/><path d="m240.007812 113.128906c0 35.976563-29.164062 65.136719-65.136718 65.136719s-65.132813-29.160156-65.132813-65.136719c0-35.972656 29.160157-113.128906 65.132813-113.128906s65.136718 77.15625 65.136718 113.128906zm0 0" fill="#ffaa75"/><path d="m109.734375 113.128906c0 35.972656 29.164063 65.136719 65.136719 65.136719s65.136718-29.160156 65.136718-65.136719c0-9.332031-1.964843-21.4375-5.5-34.25h-119.273437c-3.535156 12.808594-5.5 24.917969-5.5 34.25zm0 0" fill="#ff8c42"/><path d="m174.871094 255.605469c-8.535156 0-15.453125-6.917969-15.453125-15.453125v-123.773438c0-8.535156 6.917969-15.453125 15.453125-15.453125s15.453125 6.917969 15.453125 15.453125v123.773438c0 8.535156-6.917969 15.453125-15.453125 15.453125zm0 0" fill="#516980"/><path d="m30.609375 348.746094h288.523437l29.941407-200.980469h-348.40625zm0 0" fill="#ffb3c2"/><path d="m337.277344 226.960938c-51.625-8.671876-122.015625-8.515626-145.058594 48.78125-12.121094 30.144531-25.386719 52.988281-36.058594 73.003906h162.972656zm0 0" fill="#ff899f"/><path d="m357.835938 463.558594s-99.863282 8.136718-148.007813-57.921875c-12.460937-17.097657-5.214844-41.546875 14.558594-49.078125 18.839843-7.179688 48.1875-11.847656 92.4375-4.507813-1.113281 2.304688 41.011719 111.507813 41.011719 111.507813zm0 0" fill="#996acc"/><path d="m357.835938 463.558594s-97.542969 6.4375-123.234376-138.683594c-3.757812-21.21875 15.5-39.140625 36.414063-33.929688 27.851563 6.941407 63.6875 25.957032 86.820313 75.660157zm0 0" fill="#b18cd9"/><path d="m357.835938 463.558594s99.867187 8.136718 148.003906-57.921875c12.460937-17.097657 5.21875-41.546875-14.554688-49.078125-18.839844-7.179688-48.1875-11.847656-92.4375-4.507813 1.113282 2.304688-41.011718 111.507813-41.011718 111.507813zm0 0" fill="#996acc"/><path d="m357.835938 463.558594s97.542968 6.4375 123.234374-138.683594c3.757813-21.21875-15.503906-39.140625-36.414062-33.929688-27.851562 6.941407-63.6875 25.957032-86.820312 75.660157zm0 0" fill="#b18cd9"/><path d="m418.148438 403.246094c0 33.308594-27.003907 60.3125-60.3125 60.3125-33.3125 0-60.316407-27.003906-60.316407-60.3125 0-33.3125 27.003907-154.988282 60.316407-154.988282 33.308593 0 60.3125 121.675782 60.3125 154.988282zm0 0" fill="#c7aee4"/><path d="m117.371094 248.96875c0-9.351562-9.523438-16.933594-21.265625-16.933594-11.742188 0-21.265625 7.582032-21.265625 16.933594s9.523437 16.929688 21.265625 16.929688c11.742187 0 21.265625-7.578126 21.265625-16.929688zm0 0" fill="#ffdee4"/><path d="m274.902344 248.96875c0-9.351562-9.523438-16.933594-21.265625-16.933594-11.742188 0-21.265625 7.582032-21.265625 16.933594s9.523437 16.929688 21.265625 16.929688c11.742187 0 21.265625-7.578126 21.265625-16.929688zm0 0" fill="#ffdee4"/><g fill="#454545"><path d="m180.148438 230.667969c-1.730469 2.539062-4.253907 2.847656-5.277344 2.847656-1.023438 0-3.589844-.28125-5.277344-2.847656-2.34375-3.566407-7.132812-4.558594-10.699219-2.21875-3.566406 2.34375-4.558593 7.136719-2.214843 10.703125 4.035156 6.144531 10.839843 9.816406 18.191406 9.816406 7.355468 0 14.15625-3.671875 18.195312-9.816406 2.339844-3.566406 1.347656-8.359375-2.21875-10.703125-1.308594-.855469-7.089844-3.082031-10.699218 2.21875zm0 0"/><path d="m113.660156 234.285156c-.960937-.804687-1.921875-1.019531-2.460937-1.019531-.539063 0-1.570313.132813-2.457031 1.019531-3.019532 3.019532-7.914063 3.019532-10.925782 0-3.019531-3.015625-3.019531-7.910156-.003906-10.925781 3.578125-3.578125 8.332031-5.542969 13.386719-5.542969 5.058593 0 9.8125 1.96875 13.386719 5.542969 3.015624 3.015625 3.015624 7.910156 0 10.925781-1.507813 1.507813-6.050782 4.082032-10.925782 0zm0 0"/><path d="m241 234.285156c-.960938-.804687-1.917969-1.019531-2.457031-1.019531-.539063 0-1.574219.132813-2.460938 1.019531-3.015625 3.019532-7.910156 3.019532-10.925781 0-3.015625-3.015625-3.015625-7.910156 0-10.925781 3.574219-3.578125 8.332031-5.542969 13.386719-5.542969 5.054687 0 9.8125 1.96875 13.386719 5.542969 3.015624 3.015625 3.015624 7.910156-.003907 10.925781-1.503906 1.507813-6.046875 4.082032-10.925781 0zm0 0"/></g></svg>