<svg height="512pt" viewBox="0 -30 512.00032 512" width="512pt" xmlns="http://www.w3.org/2000/svg"><path d="m426.464844 213.230469c0 117.765625-95.46875 213.234375-213.234375 213.234375-117.761719 0-213.230469-95.46875-213.230469-213.234375 0-117.761719 95.46875-213.230469 213.230469-213.230469 117.765625 0 213.234375 95.46875 213.234375 213.230469zm0 0" fill="#91d4f2"/><path d="m364.582031 213.230469c0 83.589843-67.761719 151.351562-151.351562 151.351562-83.585938 0-151.347657-67.761719-151.347657-151.351562 0-83.585938 67.761719-151.347657 151.347657-151.347657 83.589843 0 151.351562 67.761719 151.351562 151.347657zm0 0" fill="#59c2e8"/><path d="m287.445312 213.335938c-16.449218-24.078126-49.300781-30.265626-73.375-13.816407-14.378906 9.824219-22.367187 25.492188-22.96875 41.652344-.277343 7.429687-4.71875 14.171875-11.421874 17.378906-8.667969 4.152344-16.023438 11.257813-20.382813 20.820313-8.925781 19.570312-1.582031 43.136718 16.867187 54.191406 6.457032 3.871094 13.472657 5.828125 20.429688 6.074219 8.21875.289062 15.429688 5.78125 18.066406 13.574219 5.796875 17.140624 20.148438 30.921874 39.109375 35.128906 28.851563 6.40625 57.433594-11.792969 63.835938-40.644532 6.375-28.738281-14.589844-111.5625-30.160157-134.359374zm0 0" fill="#b0f0ef"/><path d="m509.9375 333.714844c-19.46875 49.230468-58.53125 88.292968-107.761719 107.761718-14.351562 5.675782-30.691406-.730468-37.347656-14.652343-21.980469-45.953125-73.828125-97.804688-119.785156-119.78125-13.921875-6.660157-20.328125-23-14.652344-37.351563 19.46875-49.226562 58.53125-88.292968 107.761719-107.761718 14.347656-5.675782 30.691406.734374 37.347656 14.652343 21.980469 45.957031 73.828125 97.808594 119.785156 119.785157 13.921875 6.65625 20.328125 23 14.652344 37.347656zm0 0" fill="#f4e74d"/><path d="m318.25 277.988281c-19.054688-12.753906-28.941406-35.410156-25.503906-58.078125 4.300781-28.347656 15.136718-42.789062 15.136718-42.789062-34.855468 21.558594-62.214843 53.9375-77.492187 92.570312-5.675781 14.347656.730469 30.691406 14.652344 37.347656 45.957031 21.980469 97.804687 73.828126 119.785156 119.785157 6.65625 13.921875 22.996094 20.328125 37.347656 14.652343 9.1875-3.632812 18.019531-7.949218 26.4375-12.886718-4.917969-10.566406-9.726562-23.398438-14.003906-38.96875-13.566406-49.328125-64.5625-90.359375-96.359375-111.632813zm0 0" fill="#eedb00"/><path d="m192.222656 417.066406c0 19.292969-15.640625 34.933594-34.9375 34.933594-19.292968 0-34.933594-15.640625-34.933594-34.933594 0-19.292968 15.640626-34.933594 34.933594-34.933594 19.296875 0 34.9375 15.640626 34.9375 34.933594zm0 0" fill="#b0f0ef"/><path d="m155.730469 149.890625c0-9.351563-9.519531-16.933594-21.265625-16.933594-11.742188 0-21.261719 7.582031-21.261719 16.933594s9.519531 16.933594 21.261719 16.933594c11.746094 0 21.265625-7.582031 21.265625-16.933594zm0 0" fill="#ffb3c2"/><path d="m313.261719 149.890625c0-9.351563-9.519531-16.933594-21.265625-16.933594-11.742188 0-21.261719 7.582031-21.261719 16.933594s9.519531 16.933594 21.261719 16.933594c11.746094 0 21.265625-7.582031 21.265625-16.933594zm0 0" fill="#ffb3c2"/><path d="m276.90625 147.035156c-4.269531 0-7.726562-3.457031-7.726562-7.726562v-12.824219c0-4.269531 3.457031-7.726563 7.726562-7.726563 4.265625 0 7.722656 3.457032 7.722656 7.726563v12.824219c0 4.269531-3.457031 7.726562-7.722656 7.726562zm0 0" fill="#454545"/><path d="m149.5625 147.035156c-4.269531 0-7.726562-3.457031-7.726562-7.726562v-12.824219c0-4.269531 3.457031-7.726563 7.726562-7.726563 4.265625 0 7.722656 3.457032 7.722656 7.726563v12.824219c0 4.269531-3.457031 7.726562-7.722656 7.726562zm0 0" fill="#454545"/><path d="m218.507812 131.589844c-1.730468 2.542968-4.25 2.847656-5.277343 2.847656-1.023438 0-3.585938-.277344-5.277344-2.847656-2.34375-3.566406-7.132813-4.558594-10.699219-2.214844s-4.558594 7.132812-2.214844 10.699219c4.039063 6.148437 10.839844 9.816406 18.191407 9.816406 7.355469 0 14.15625-3.667969 18.195312-9.816406 2.34375-3.566407 1.351563-8.355469-2.214843-10.699219-1.308594-.859375-7.089844-3.082031-10.703126 2.214844zm0 0" fill="#454545"/><g fill="#eedb00"><path d="m389.304688 265.628906c0 8.535156-6.917969 15.453125-15.453126 15.453125-8.535156 0-15.453124-6.917969-15.453124-15.453125s6.917968-15.453125 15.453124-15.453125c8.535157 0 15.453126 6.917969 15.453126 15.453125zm0 0"/><path d="m441.917969 301.703125c0 8.535156-6.917969 15.453125-15.453125 15.453125s-15.453125-6.917969-15.453125-15.453125 6.917969-15.453125 15.453125-15.453125 15.453125 6.917969 15.453125 15.453125zm0 0"/><path d="m462.71875 364.582031c0 8.535157-6.917969 15.453125-15.453125 15.453125-8.53125 0-15.449219-6.917968-15.449219-15.453125 0-8.535156 6.917969-15.453125 15.449219-15.453125 8.535156 0 15.453125 6.917969 15.453125 15.453125zm0 0"/></g></svg>