<svg id="Capa_1" enable-background="new 0 0 512 512" height="512" viewBox="0 0 512 512" width="512" xmlns="http://www.w3.org/2000/svg"><g><g fill="#fbf1cf"><path d="m300.957 363.964c4.927-21.323 24.591-37.005 47.695-35.707 23.435 1.316 42.378 20.425 43.505 43.87 1.135 23.604-15.444 43.544-37.59 47.702-3.969.745-7.382 3.371-8.851 7.133-7.027 17.992-24.992 30.504-45.727 29.339-23.435-1.316-42.378-20.425-43.505-43.87-1.25-25.994 18.981-47.544 44.473-48.467z"/><circle cx="460.646" cy="367.019" r="24.36"/><path d="m166.061 378.821c0 32.161-26.747 58.075-59.211 56.71-28.766-1.21-52.33-24.23-54.19-52.961-.259-4.004-.099-7.925.438-11.724.868-6.141-2.939-12.066-8.986-13.442-25.942-5.904-45.126-29.569-44.07-57.534 1.08-28.602 23.73-52.194 52.267-54.391 4.08-.314 8.075-.192 11.946.322 5.977.793 11.636-2.99 13.054-8.85 6.02-24.881 28.422-43.362 55.153-43.362 31.348 0 56.761 25.413 56.761 56.761z"/></g><path d="m135.726 303.087c-45.07-13.174-48.59-76.761-29.69-102.966-14.209 7.495-24.856 20.836-28.726 36.831-1.418 5.86-7.077 9.643-13.054 8.85-3.872-.514-7.866-.636-11.946-.322-28.537 2.197-51.188 25.79-52.267 54.392-1.056 27.964 18.129 51.63 44.07 57.533 6.047 1.376 9.854 7.302 8.986 13.442-.537 3.799-.697 7.72-.438 11.724 1.86 28.731 25.424 51.752 54.19 52.962 27.37 1.151 50.675-17.089 57.315-42.115-31.034-14.302-45.967-59.541-28.44-90.331z" fill="#f5e2a2"/><path d="m496.24 41.598 9.164 9.164c8.795 8.795 8.795 23.054 0 31.849l-177.09 177.09-41.014-41.012 177.09-177.09c8.795-8.796 23.055-8.796 31.85-.001z" fill="#e0b799"/><path d="m328.313 259.702 38.538-38.538c-3.151-9.171-8.407-17.846-15.787-25.226-7.166-7.165-15.865-12.533-25.236-15.778l-38.528 38.529z" fill="#d1986f"/><ellipse cx="307.807" cy="239.195" fill="#eed076" rx="40.571" ry="43.371" transform="matrix(.707 -.707 .707 .707 -78.982 287.713)"/><path d="m279.119 267.883c-16.938-16.938-17.824-43.512-1.98-59.356 1.673-1.673 3.471-3.147 5.358-4.448l60.426 60.426c-1.301 1.888-2.775 3.686-4.448 5.358-15.844 15.844-42.419 14.958-59.356-1.98z" fill="#eda749"/><path d="m302.954 376.584c-13.644 13.643-57.241 61.401-76.608 95.344-4.195 7.353-15.117 6.553-18.03-1.396-6.12-16.7-8.078-32.046-8.662-41.707-.337-5.569-5.217-9.765-10.776-9.298-9.41.791-23.605 1.404-36.409-.384-12.737-1.779-22.832-11.873-24.61-24.61-1.788-12.804-1.175-27-.384-36.409.468-5.559-3.729-10.439-9.298-10.776-9.661-.584-25.007-2.543-41.707-8.662-7.949-2.913-8.748-13.835-1.395-18.03 33.943-19.367 81.701-62.964 95.344-76.608l24.199-24.199c18.968-18.968 49.72-18.968 68.688 0l63.848 63.847c18.968 18.968 18.968 49.72 0 68.688z" fill="#eed076"/><path d="m183.973 230.493-13.555 13.555c-13.643 13.643-61.401 57.24-95.344 76.608-7.353 4.196-6.554 15.118 1.395 18.031 16.7 6.12 32.046 8.078 41.707 8.662 5.569.337 9.765 5.217 9.298 10.776-.791 9.41-1.404 23.606.384 36.41 1.779 12.737 11.873 22.832 24.61 24.61 12.804 1.788 27 1.175 36.409.384 5.56-.467 10.44 3.729 10.776 9.298.584 9.661 2.543 25.007 8.662 41.707 2.913 7.949 13.835 8.749 18.03 1.395 5.847-10.247 13.907-21.753 22.68-33.199-69.747-36.451-81.687-138.103-65.052-208.237z" fill="#eda749"/><path d="m130.703 279.915c17.739-14.919 32.937-29.089 39.715-35.867l24.199-24.199c.943-.943 1.923-1.826 2.921-2.675l132.29 132.29c-.849.998-1.732 1.978-2.675 2.921l-24.199 24.199c-6.778 6.778-20.948 21.975-35.867 39.715z" fill="#8daee1"/><path d="m183.973 230.493-13.555 13.555c-6.778 6.778-21.975 20.948-39.715 35.867l49.822 49.822c-5.531-33.822-3.634-69.386 3.448-99.244z" fill="#6a95d6"/><circle cx="54.462" cy="125.8" fill="#fbf1cf" r="36.558"/><g><g fill="#fff"><ellipse cx="258.965" cy="369.025" rx="16.827" ry="21.131" transform="matrix(.707 -.707 .707 .707 -185.09 291.197)"/><ellipse cx="177.977" cy="288.036" rx="16.827" ry="21.131" transform="matrix(.707 -.707 .707 .707 -151.545 210.213)"/></g><g fill="#4e5660"><path d="m261.712 356.363c-1.919 0-3.838-.731-5.303-2.196-2.93-2.929-2.93-7.678-.001-10.607l6.107-6.108c2.928-2.93 7.677-2.931 10.607-.001 2.93 2.929 2.93 7.678.001 10.606l-6.107 6.108c-1.464 1.466-3.385 2.198-5.304 2.198z"/><path d="m198.139 292.79c-1.92 0-3.839-.732-5.304-2.197-2.929-2.929-2.929-7.678.001-10.607l6.108-6.107c2.929-2.929 7.678-2.928 10.606.001 2.929 2.929 2.929 7.678-.001 10.606l-6.108 6.107c-1.464 1.465-3.383 2.197-5.302 2.197z"/><path d="m237.406 332.812c-6.141 0-12.052-2.429-16.42-6.796-4.744-4.746-7.201-11.311-6.742-18.015.283-4.134 3.867-7.256 7.995-6.97 4.133.283 7.253 3.862 6.97 7.995-.163 2.378.706 4.704 2.384 6.383 1.678 1.677 4.008 2.548 6.382 2.383 4.134-.267 7.712 2.837 7.995 6.97s-2.837 7.712-6.97 7.995c-.532.037-1.065.055-1.594.055z"/></g></g></g></svg>