<?xml version="1.0" encoding="iso-8859-1"?>
<!-- Generator: Adobe Illustrator 19.0.0, SVG Export Plug-In . SVG Version: 6.00 Build 0)  -->
<svg version="1.1" id="Capa_1" xmlns="http://www.w3.org/2000/svg" xmlns:xlink="http://www.w3.org/1999/xlink" x="0px" y="0px"
	 viewBox="0 0 512 512" style="enable-background:new 0 0 512 512;" xml:space="preserve">
<path style="fill:#69BFE2;" d="M362.722,81.715H149.278c-15.669,0-30.696,6.224-41.775,17.304L5,201.521
	c-6.667,6.667-6.667,17.476,0,24.143l40,40c6.667,6.667,17.476,6.667,24.143,0L124.806,210v199.338
	c0,11.569,9.378,20.947,20.947,20.947h225.348c8.887,0,16.092-7.205,16.092-16.092V210l55.663,55.664
	c6.667,6.667,17.476,6.667,24.143,0l40-40c6.667-6.667,6.667-17.476,0-24.143L404.498,99.019
	C393.418,87.939,378.391,81.715,362.722,81.715z"/>
<path style="fill:#FFFFFF;" d="M202.086,270.664h-10.839c-11.55,0-20.914-9.363-20.914-20.914v-34.097
	c0-3.693,2.993-6.686,6.686-6.686h39.294c3.693,0,6.686,2.993,6.686,6.686v34.097C223,261.3,213.636,270.664,202.086,270.664z"/>
<path style="fill:#445258;" d="M223,231.361h-52.667v-15.708c0-3.693,2.993-6.686,6.686-6.686h39.294
	c3.693,0,6.686,2.993,6.686,6.686L223,231.361L223,231.361z"/>
<path style="opacity:0.2;fill:#FFFFFF;enable-background:new    ;" d="M259.985,334.055c-42.868-14.337-94.113-21.78-135.178-6.277
	v81.56c0,11.569,9.378,20.947,20.947,20.947h225.348c8.887,0,16.092-7.205,16.092-16.092v-87.997
	C342.658,337.105,296.401,346.234,259.985,334.055z"/>
<path style="opacity:0.1;enable-background:new    ;" d="M124.806,400.199v9.139c0,11.569,9.378,20.947,20.947,20.947h225.348
	c8.888,0,16.092-7.205,16.092-16.092v-13.994H124.806z"/>
<path style="opacity:0.1;enable-background:new    ;" d="M343.416,230.492V346.4c0,12.337,4.901,24.168,13.624,32.892l30.148,30.148
	c0-0.034,0.005-0.067,0.005-0.102V219.287h-32.572C348.433,219.287,343.416,224.303,343.416,230.492z"/>
<g>
	<path style="opacity:0.2;fill:#FFFFFF;enable-background:new    ;" d="M22.072,184.449L5,201.521
		c-6.667,6.667-6.667,17.476,0,24.143l40,40c6.667,6.667,17.476,6.667,24.143,0l17.072-17.072L22.072,184.449z"/>
	<path style="opacity:0.2;fill:#FFFFFF;enable-background:new    ;" d="M489.928,184.449L507,201.521
		c6.667,6.667,6.667,17.476,0,24.143l-40,40c-6.667,6.667-17.476,6.667-24.143,0l-17.072-17.072L489.928,184.449z"/>
</g>
<path style="opacity:0.1;enable-background:new    ;" d="M180.556,81.715c0,41.666,33.777,75.444,75.444,75.444
	s75.444-33.777,75.444-75.444H180.556z"/>
<path style="fill:#445258;" d="M215.741,81.715c0,22.235,18.025,40.259,40.259,40.259s40.259-18.025,40.259-40.259H215.741z"/>
<path style="fill:#FDBA6D;" d="M477.864,344.151l-41.415-41.414v-63.968v-32.672c0-6.188-5.017-11.205-11.205-11.205h-70.622
	c-6.188,0-11.205,5.017-11.205,11.205v32.672v83.235c0,12.337,4.901,24.168,13.624,32.892l55.039,55.039
	c9.083,9.083,20.988,13.624,32.892,13.624s23.809-4.541,32.892-13.624C496.029,391.768,496.029,362.317,477.864,344.151z"/>
<g style="opacity:0.1;">
	<path d="M380.456,272.45c-1.919,0-3.839-0.732-5.304-2.196l-5.967-5.967c-2.929-2.93-2.929-7.678,0-10.607
		c2.93-2.928,7.678-2.928,10.608,0l5.967,5.967c2.929,2.93,2.929,7.678,0,10.607C384.295,271.718,382.375,272.45,380.456,272.45z"/>
	<path d="M408.255,320.22c-1.919,0-3.839-0.732-5.304-2.196c-2.929-2.93-2.929-7.678,0-10.607l9.822-9.822
		c2.93-2.928,7.678-2.928,10.608,0c2.929,2.93,2.929,7.678,0,10.607l-9.822,9.822C412.094,319.487,410.174,320.22,408.255,320.22z"
		/>
	<path d="M417.626,371.264c-1.919,0-3.839-0.732-5.304-2.196l-7.082-7.082c-2.929-2.93-2.929-7.678,0-10.607
		c2.93-2.928,7.678-2.928,10.608,0l7.082,7.082c2.929,2.93,2.929,7.678,0,10.607C421.465,370.531,419.545,371.264,417.626,371.264z"
		/>
</g>
<g>
	<path style="fill:#D674B6;" d="M349.436,298.425c-2.051,0-4.06,0.174-6.019,0.495v23.083c0,12.337,4.901,24.168,13.624,32.892
		l11.919,11.919c10.48-6.529,17.459-18.15,17.459-31.406C386.418,314.983,369.861,298.425,349.436,298.425z"/>
	<path style="fill:#D674B6;" d="M425.243,194.891h-70.622c-6.189,0-11.205,5.017-11.205,11.205v29.268h93.032v-29.268
		C436.448,199.907,431.432,194.891,425.243,194.891z"/>
</g>
<g style="opacity:0.1;">
	<rect x="364.19" y="194.89" width="15" height="40.474"/>
	<rect x="400.68" y="194.89" width="15" height="40.474"/>
</g>
<path style="fill:#D674B6;" d="M488.714,361.214c-3.495-0.775-7.122-1.196-10.85-1.196c-27.568,0-49.917,22.349-49.917,49.917
	c0,3.728,0.422,7.355,1.196,10.85c5.105,1.844,10.466,2.774,15.829,2.774c11.904,0,23.809-4.541,32.892-13.624
	C491.038,396.759,494.649,377.651,488.714,361.214z"/>
<g>
</g>
<g>
</g>
<g>
</g>
<g>
</g>
<g>
</g>
<g>
</g>
<g>
</g>
<g>
</g>
<g>
</g>
<g>
</g>
<g>
</g>
<g>
</g>
<g>
</g>
<g>
</g>
<g>
</g>
</svg>
