<svg height="512pt" viewBox="0 -73 512.00056 512" width="512pt" xmlns="http://www.w3.org/2000/svg"><path d="m451.421875 49.265625h-43.097656v-27.71875c0-11.898437 9.648437-21.546875 21.546875-21.546875 11.902344 0 21.550781 9.648438 21.550781 21.546875zm0 0" fill="#6a829a"/><path d="m490.390625 102.484375h-121.035156v-35.804687c0-15.746094 12.765625-28.511719 28.507812-28.511719h64.015625c15.746094 0 28.511719 12.765625 28.511719 28.511719zm0 0" fill="#889cb0"/><path d="m504.117188 223.734375c0-48.003906 3.644531-82.671875 7.457031-105.800781 3.175781-19.292969-11.746094-36.8125-31.300781-36.8125h-100.804688c-19.550781 0-34.476562 17.519531-31.296875 36.8125 3.808594 23.128906 7.453125 57.796875 7.453125 105.800781 0 48.007813-3.644531 82.675781-7.453125 105.804687-3.179687 19.292969 11.746094 36.8125 31.296875 36.8125h100.804688c19.554687 0 34.476562-17.519531 31.300781-36.8125-3.8125-23.128906-7.457031-57.796874-7.457031-105.804687zm0 0" fill="#f9ee80"/><path d="m408.324219 139.375c-8.148438-51.996094 27.667969-57.75 39.445312-58.253906h-68.300781c-19.550781 0-34.476562 17.519531-31.296875 36.8125 3.808594 23.128906 7.453125 57.796875 7.453125 105.800781s-3.644531 82.675781-7.453125 105.804687c-3.179687 19.292969 11.746094 36.808594 31.296875 36.808594h65.035156c9.769532-78.707031-27.714844-172.949218-36.179687-226.972656zm0 0" fill="#eedb00"/><path d="m422.121094 276.210938h-381.128906c-22.636719 0-40.992188-18.351563-40.992188-40.992188s18.355469-40.996094 40.992188-40.996094h381.128906c22.640625 0 40.996094 18.355469 40.996094 40.996094s-18.355469 40.992188-40.996094 40.992188zm0 0" fill="#889cb0"/><path d="m0 235.21875c0 22.640625 18.355469 40.992188 40.992188 40.992188h167.035156c-2.992188-11.558594-5.582032-26.222657-5.582032-42.421876 0-38.417968 29.113282-39.566406 29.113282-39.566406h-190.566406c-22.636719 0-40.992188 18.355469-40.992188 40.996094zm0 0" fill="#6a829a"/><path d="m121.109375 298.070312h-47.011719c-16.027344 0-29.019531-12.992187-29.019531-29.019531v-67.667969c0-16.023437 12.988281-29.019531 29.019531-29.019531h47.011719zm0 0" fill="#76e7d6"/><path d="m342.007812 298.070312h47.011719c16.027344 0 29.019531-12.992187 29.019531-29.019531v-67.667969c0-16.023437-12.992187-29.019531-29.019531-29.019531h-47.011719zm0 0" fill="#76e7d6"/><path d="m126.582031 366.347656c-18.140625 0-32.84375-14.703125-32.84375-32.84375v-196.570312c0-18.140625 14.703125-32.847656 32.84375-32.847656s32.847657 14.707031 32.847657 32.847656v196.570312c0 18.140625-14.707032 32.84375-32.847657 32.84375zm0 0" fill="#a7b6c5"/><path d="m336.53125 366.347656c-18.140625 0-32.84375-14.703125-32.84375-32.84375v-196.570312c0-18.140625 14.703125-32.847656 32.84375-32.847656s32.847656 14.707031 32.847656 32.847656v196.570312c0 18.140625-14.703125 32.84375-32.847656 32.84375zm0 0" fill="#a7b6c5"/><g fill="#454545"><path d="m280.394531 247.929688c-4.265625 0-7.726562-3.457032-7.726562-7.726563v-12.824219c0-4.269531 3.460937-7.726562 7.726562-7.726562 4.269531 0 7.726563 3.457031 7.726563 7.726562v12.824219c0 4.269531-3.457032 7.726563-7.726563 7.726563zm0 0"/><path d="m182.71875 247.929688c-4.265625 0-7.726562-3.457032-7.726562-7.726563v-12.824219c0-4.269531 3.460937-7.726562 7.726562-7.726562 4.269531 0 7.726562 3.457031 7.726562 7.726562v12.824219c0 4.269531-3.457031 7.726563-7.726562 7.726563zm0 0"/><path d="m236.835938 232.484375c-1.730469 2.542969-4.253907 2.847656-5.277344 2.847656-1.023438 0-3.589844-.277343-5.277344-2.847656-2.34375-3.566406-7.136719-4.558594-10.699219-2.214844-3.566406 2.34375-4.558593 7.132813-2.21875 10.699219 4.039063 6.148438 10.839844 9.816406 18.195313 9.816406 7.355468 0 14.152344-3.667968 18.191406-9.816406 2.34375-3.566406 1.351562-8.355469-2.214844-10.699219-1.308594-.859375-7.089844-3.082031-10.699218 2.214844zm0 0"/></g></svg>