<svg height="512pt" viewBox="0 -72 512 512" width="512pt" xmlns="http://www.w3.org/2000/svg"><path d="m282.34375 15.578125c-16.355469 9.210937-36.332031 9.210937-52.691406 0-46.320313-26.085937-106.105469-19.414063-145.535156 20.019531-137.921876 137.921875 48.21875 271.925782 133.367187 322.554688 23.746094 14.125 53.28125 14.125 77.03125 0 85.148437-50.628906 271.289063-184.632813 133.367187-322.554688-39.429687-39.433594-99.214843-46.105468-145.539062-20.019531zm0 0" fill="#fb695b"/><path d="m194.472656 245.195312c23.882813-44.484374 62.890625-15.71875 62.890625-15.71875l-75.125-99.421874s-32.835937 40.996093-32.835937 43.113281c-48.453125-113.757813 17.179687-172.488281 17.910156-173.136719-30.175781.683594-60.167969 12.539062-83.199219 35.566406-137.917969 137.921875 48.21875 271.925782 133.367188 322.554688-13.554688-37.746094-35.566407-89.570313-23.007813-112.957032zm0 0" fill="#f54432"/><path d="m288.679688 253.695312c-4.546876 0-8.90625-1.808593-12.121094-5.023437l-92.246094-92.246094-66.226562 66.230469c-3.214844 3.214844-7.574219 5.019531-12.121094 5.019531h-88.824219c-9.46875 0-17.140625-7.671875-17.140625-17.136719 0-9.464843 7.671875-17.140624 17.140625-17.140624h81.726563l73.328124-73.328126c6.691407-6.691406 17.542969-6.691406 24.238282 0l92.246094 92.246094 64.910156-64.910156c3.285156-3.285156 7.75-5.058594 12.414062-5.015625 4.648438.078125 9.0625 2.042969 12.234375 5.445313l43.34375 46.453124h73.277344c9.46875 0 17.140625 7.675782 17.140625 17.140626 0 9.464843-7.671875 17.136718-17.140625 17.136718h-80.726563c-4.753906 0-9.292968-1.972656-12.53125-5.445312l-36.320312-38.929688-64.480469 64.480469c-3.214843 3.21875-7.574219 5.023437-12.121093 5.023437zm0 0" fill="#76e7e7"/></svg>