<svg height="512pt" viewBox="-39 0 512 512" width="512pt" xmlns="http://www.w3.org/2000/svg"><path d="m258.523438 470.910156c0 22.691406-18.394532 41.089844-41.089844 41.089844-22.695313 0-41.089844-18.398438-41.089844-41.089844 0-22.695312 18.394531-41.09375 41.089844-41.09375 22.695312 0 41.089844 18.398438 41.089844 41.09375zm0 0" fill="#bebfc0"/><path d="m251.652344 493.65625c-41.378906 9.265625-64.503906-25.246094-44.941406-62.417969-17.492188 4.71875-30.367188 20.6875-30.367188 39.667969 0 22.695312 18.394531 41.09375 41.089844 41.09375 14.28125 0 26.855468-7.289062 34.21875-18.34375zm0 0" fill="#a9aaab"/><path d="m352.945312 217.433594c0-75.484375-61.714843-136.550782-137.441406-135.5-73.652344 1.027344-133.476562 61.640625-133.582031 135.296875-.050781 34.953125 13.128906 66.824219 34.8125 90.882812 15.992187 17.746094 25.175781 40.582031 25.175781 64.472657v20.492187h151.046875v-19.640625c0-23.867188 8.554688-47.09375 24.636719-64.730469 21.960938-24.082031 35.351562-56.113281 35.351562-91.273437zm0 0" fill="#f8e47c"/><path d="m237.078125 393.078125c-30.519531-8.96875-26.136719-70.378906-67.421875-115.707031-46.109375-50.632813-59.800781-103.9375-36.601562-165.765625-31.078126 24.871093-51.070313 63.070312-51.132813 105.625-.050781 34.953125 13.132813 66.820312 34.8125 90.882812 15.992187 17.746094 25.175781 40.582031 25.175781 64.472657v20.488281h95.167969zm0 0" fill="#edd35f"/><path d="m191.109375 400.578125c-4.140625 0-7.5-3.359375-7.5-7.5 0-18.089844-4.417969-51.742187-10.113281-68.019531-1.367188-3.910156.691406-8.1875 4.601562-9.554688 3.914063-1.367187 8.1875.691406 9.558594 4.601563 6.269531 17.917969 10.957031 53.304687 10.957031 72.972656-.003906 4.140625-3.359375 7.5-7.503906 7.5zm0 0" fill="#fff"/><path d="m239.894531 400.578125c-4.140625 0-7.5-3.359375-7.5-7.5 0-19.671875 4.6875-55.058594 10.957031-72.972656 1.371094-3.910157 5.648438-5.96875 9.558594-4.601563 3.910156 1.367188 5.96875 5.644532 4.601563 9.554688-5.695313 16.277344-10.117188 49.929687-10.117188 68.015625 0 4.144531-3.359375 7.503906-7.5 7.503906zm0 0" fill="#fff"/><path d="m261.394531 470.910156h-87.921875c-17.433594 0-31.5625-14.132812-31.5625-31.5625v-46.269531h151.046875v46.269531c0 17.429688-14.132812 31.5625-31.5625 31.5625zm0 0" fill="#495059"/><path d="m169.65625 226.738281c0-12.285156-12.507812-22.246093-27.9375-22.246093s-27.9375 9.960937-27.9375 22.246093c0 12.289063 12.507812 22.25 27.9375 22.25s27.9375-9.960937 27.9375-22.25zm0 0" fill="#eb8d9a"/><path d="m321.085938 226.738281c0-12.285156-12.507813-22.246093-27.9375-22.246093-15.429688 0-27.9375 9.960937-27.9375 22.246093 0 12.289063 12.507812 22.25 27.9375 22.25 15.429687 0 27.9375-9.960937 27.9375-22.25zm0 0" fill="#eb8d9a"/><g fill="#495059"><path d="m164.5625 203.238281c-4.140625 0-7.5-3.359375-7.5-7.5 0-5.886719-4.785156-10.675781-10.671875-10.675781s-10.675781 4.789062-10.675781 10.675781c0 4.140625-3.355469 7.5-7.5 7.5-4.140625 0-7.5-3.359375-7.5-7.5 0-14.160156 11.519531-25.675781 25.675781-25.675781s25.671875 11.519531 25.671875 25.675781c0 4.140625-3.355469 7.5-7.5 7.5zm0 0"/><path d="m306.652344 203.238281c-4.140625 0-7.5-3.359375-7.5-7.5 0-5.886719-4.789063-10.675781-10.675782-10.675781-5.882812 0-10.671874 4.789062-10.671874 10.675781 0 4.140625-3.359376 7.5-7.5 7.5-4.144532 0-7.5-3.359375-7.5-7.5 0-14.160156 11.515624-25.675781 25.671874-25.675781 14.160157 0 25.675782 11.519531 25.675782 25.675781 0 4.140625-3.359375 7.5-7.5 7.5zm0 0"/><path d="m239.957031 209.644531c0-13.917969-10.082031-25.203125-22.523437-25.203125-12.4375 0-22.523438 11.285156-22.523438 25.203125 0 13.921875 10.085938 25.207031 22.523438 25.207031 12.441406 0 22.523437-11.285156 22.523437-25.207031zm0 0"/></g><path d="m217.433594 50.019531c-4.140625 0-7.5-3.359375-7.5-7.5v-35.019531c0-4.140625 3.359375-7.5 7.5-7.5s7.5 3.359375 7.5 7.5v35.019531c0 4.140625-3.359375 7.5-7.5 7.5zm0 0" fill="#f8e47c"/><path d="m93.75 101.25c-1.917969 0-3.839844-.730469-5.304688-2.195312l-24.761718-24.765626c-2.925782-2.925781-2.925782-7.675781 0-10.605468 2.929687-2.925782 7.679687-2.925782 10.605468 0l24.765626 24.761718c2.925781 2.929688 2.925781 7.679688 0 10.609376-1.464844 1.464843-3.386719 2.195312-5.304688 2.195312zm0 0" fill="#edd35f"/><path d="m42.519531 224.933594h-35.019531c-4.140625 0-7.5-3.359375-7.5-7.5s3.359375-7.5 7.5-7.5h35.019531c4.140625 0 7.5 3.359375 7.5 7.5s-3.359375 7.5-7.5 7.5zm0 0" fill="#f8e47c"/><path d="m68.988281 373.378906c-1.917969 0-3.839843-.730468-5.304687-2.195312-2.925782-2.929688-2.925782-7.679688 0-10.605469l24.761718-24.761719c2.929688-2.929687 7.679688-2.929687 10.609376 0 2.925781 2.925782 2.925781 7.675782 0 10.605469l-24.765626 24.761719c-1.460937 1.464844-3.382812 2.195312-5.300781 2.195312zm0 0" fill="#edd35f"/><path d="m341.117188 101.25c-1.917969 0-3.839844-.730469-5.300782-2.195312-2.929687-2.929688-2.929687-7.679688 0-10.609376l24.761719-24.761718c2.929687-2.925782 7.675781-2.925782 10.605469 0 2.929687 2.929687 2.929687 7.679687 0 10.605468l-24.761719 24.765626c-1.464844 1.464843-3.386719 2.195312-5.304687 2.195312zm0 0" fill="#edd35f"/><path d="m427.367188 224.933594h-35.019532c-4.140625 0-7.5-3.359375-7.5-7.5s3.359375-7.5 7.5-7.5h35.019532c4.144531 0 7.5 3.359375 7.5 7.5s-3.355469 7.5-7.5 7.5zm0 0" fill="#f8e47c"/><path d="m365.878906 373.378906c-1.917968 0-3.839844-.730468-5.300781-2.195312l-24.761719-24.761719c-2.929687-2.929687-2.929687-7.679687 0-10.605469 2.925782-2.929687 7.675782-2.929687 10.605469 0l24.761719 24.761719c2.929687 2.929687 2.929687 7.675781 0 10.605469-1.464844 1.464844-3.382813 2.195312-5.304688 2.195312zm0 0" fill="#edd35f"/><path d="m141.910156 420.105469h151.046875v15h-151.046875zm0 0" fill="#41464f"/></svg>