<svg id="Capa_1" enable-background="new 0 0 512 512" height="512" viewBox="0 0 512 512" width="512" xmlns="http://www.w3.org/2000/svg"><path d="m52.111 193.013h46.187v67.543h-46.187z" fill="#4e5660" transform="matrix(0 -1 1 0 -151.58 301.988)"/><path d="m369.27 193.013h46.187v67.543h-46.187z" fill="#4e5660" transform="matrix(0 -1 1 0 165.58 619.148)"/><path d="m171.99 394.136c-43.482 0-78.857-35.375-78.857-78.857v-236.422c0-43.482 35.375-78.857 78.857-78.857h123.588c43.482 0 78.857 35.375 78.857 78.857v236.421c0 43.482-35.375 78.857-78.857 78.857h-123.588z" fill="#8eafe2"/><path d="m171.99 0c-43.482 0-78.857 35.375-78.857 78.857v236.421c0 43.482 35.375 78.857 78.857 78.857h79.025c-48.676-39.128-79.713-150.851-64.67-394.135z" fill="#6a96d7"/><path d="m295.578 34.467h-123.588c-24.516 0-44.39 19.874-44.39 44.39v236.422c0 24.516 19.874 44.39 44.39 44.39h123.589c24.516 0 44.39-19.874 44.39-44.39v-236.422c-.001-24.516-19.875-44.39-44.391-44.39z" fill="#a3defe"/><path d="m259.438 34.467h-87.448c-24.516 0-44.39 19.874-44.39 44.39v87.448z" fill="#7acefa"/><path d="m310.648 463.069h-153.728c-73.182 0-132.721-59.538-132.721-132.721v-144.52c0-9.518 7.715-17.234 17.233-17.234s17.234 7.716 17.234 17.234v144.52c0 54.178 44.077 98.254 98.254 98.254h153.728c54.177 0 98.254-44.077 98.254-98.254v-144.52c0-9.518 7.715-17.234 17.234-17.234 9.518 0 17.233 7.716 17.233 17.234v144.52c0 73.183-59.539 132.721-132.721 132.721z" fill="#6fce91"/><path d="m307.57 463.07 16.021 24.908c6.673 10.374-.775 24.022-13.111 24.022h-153.393c-12.335 0-19.784-13.648-13.111-24.022l16.021-24.908z" fill="#3cb767"/><path d="m339.968 232.089v-125.701l-212.23 212.23c1.709 22.954 20.861 41.051 44.252 41.051h40.399z" fill="#7acefa"/><ellipse cx="160.392" cy="203.051" fill="#fff" rx="27.08" ry="21.565"/><ellipse cx="307.175" cy="203.051" fill="#fff" rx="27.08" ry="21.565"/><g fill="#4e5660"><path d="m176.175 189.526c-4.143 0-7.5-3.358-7.5-7.5v-10.539c0-4.142 3.357-7.5 7.5-7.5s7.5 3.358 7.5 7.5v10.539c0 4.143-3.358 7.5-7.5 7.5z"/><path d="m233.784 196.381c-7.99 0-15.587-3.46-20.843-9.493-2.722-3.123-2.395-7.86.728-10.582 3.122-2.721 7.861-2.395 10.581.728 2.407 2.762 5.882 4.346 9.534 4.346 3.651 0 7.127-1.584 9.534-4.347 2.723-3.123 7.459-3.448 10.582-.726 3.123 2.721 3.448 7.459.727 10.581-5.258 6.034-12.854 9.493-20.843 9.493z"/><path d="m305.641 189.232c-4.143 0-7.5-3.358-7.5-7.5 0-2.599-2.114-4.713-4.713-4.713s-4.713 2.114-4.713 4.713c0 4.142-3.357 7.5-7.5 7.5-4.142 0-7.5-3.358-7.5-7.5 0-10.87 8.843-19.713 19.713-19.713s19.713 8.843 19.713 19.713c0 4.142-3.358 7.5-7.5 7.5z"/></g><path d="m427.565 105.655-9.952 4.659c-9.374 4.388-16.912 11.926-21.3 21.3l-4.659 9.952c-3.967 8.474-16.019 8.474-19.986 0l-4.659-9.952c-4.388-9.374-11.926-16.912-21.3-21.3l-9.952-4.659c-8.474-3.967-8.474-16.019 0-19.986l9.952-4.659c9.374-4.388 16.912-11.926 21.301-21.301l4.659-9.952c3.967-8.474 16.019-8.474 19.986 0l4.659 9.952c4.388 9.375 11.926 16.912 21.301 21.301l9.952 4.659c8.473 3.967 8.473 16.019-.002 19.986z" fill="#f7ef87"/><path d="m484.318 43.357-5.455 2.554c-5.138 2.405-9.269 6.537-11.675 11.675l-2.554 5.455c-2.174 4.645-8.78 4.645-10.954 0l-2.554-5.455c-2.405-5.138-6.537-9.27-11.675-11.675l-5.455-2.554c-4.645-2.174-4.645-8.78 0-10.954l5.455-2.553c5.138-2.405 9.27-6.537 11.675-11.675l2.554-5.455c2.174-4.645 8.78-4.645 10.954 0l2.554 5.455c2.405 5.138 6.537 9.27 11.675 11.675l5.455 2.553c4.644 2.174 4.644 8.78 0 10.954z" fill="#efd176"/></svg>