<svg id="Capa_1" enable-background="new 0 0 512 512" height="512" viewBox="0 0 512 512" width="512" xmlns="http://www.w3.org/2000/svg"><g><g><g><path d="m51.838 225.388c6.931 9.765 15.158 19.612 24.909 29.363 45.681 45.681 93.448 57.905 125.221 60.185 22.089 1.585 40.368-16.694 38.783-38.783-2.28-31.773-14.504-79.54-60.185-125.221l-32.229-15.406-96.499 15.406v74.456z" fill="#6ac65e"/></g></g><path d="m119.604 209.079c-1.92 0-3.839-.732-5.304-2.197l-37.203-37.204c-2.929-2.929-2.929-7.678 0-10.606 2.931-2.929 7.679-2.929 10.607 0l37.203 37.204c2.929 2.929 2.929 7.678 0 10.606-1.465 1.465-3.385 2.197-5.303 2.197z" fill="#98cd64"/><path d="m180.566 150.931c-57.145-57.145-180.566-57.265-180.566 27.276 0 49.425 20 72.1 38.447 72.1 45.267 0 33.016-130.757 142.119-99.376z" fill="#98cd64"/><g><g><path d="m460.163 225.388c-6.931 9.765-15.158 19.612-24.909 29.363-45.681 45.681-93.448 57.905-125.221 60.185-22.089 1.585-40.368-16.694-38.783-38.783 2.28-31.773 14.504-79.54 60.185-125.221l32.229-15.406 96.499 15.406z" fill="#6ac65e"/></g></g><g fill="#98cd64"><path d="m392.397 209.079c-1.919 0-3.839-.732-5.304-2.197-2.929-2.929-2.929-7.677 0-10.606l37.203-37.204c2.93-2.929 7.678-2.93 10.607 0 2.929 2.929 2.929 7.677 0 10.606l-37.203 37.204c-1.465 1.465-3.385 2.197-5.303 2.197z"/><path d="m331.434 150.931c57.145-57.145 180.566-57.265 180.566 27.276 0 49.425-20 72.1-38.447 72.1-45.267 0-33.016-130.757-142.119-99.376z"/><path d="m225.249 31.156c16.258-18.771 45.245-18.771 61.503 0 23.385 27.001 51.567 74.568 51.567 147.009s-28.182 120.008-51.567 147.009c-16.258 18.771-45.245 18.771-61.503 0-23.385-27.001-51.567-74.568-51.567-147.009-.001-72.441 28.182-120.009 51.567-147.009z"/></g><path d="m256 217.659c-4.143 0-7.5-3.358-7.5-7.5v-99.213c0-4.142 3.357-7.5 7.5-7.5s7.5 3.358 7.5 7.5v99.213c0 4.142-3.357 7.5-7.5 7.5z" fill="#6ac65e"/><path d="m422.687 342.979h-333.374c-11.777 0-21.323-9.547-21.323-21.323v-20.655c0-11.777 9.547-21.323 21.323-21.323h333.374c11.777 0 21.323 9.547 21.323 21.323v20.655c0 11.776-9.546 21.323-21.323 21.323z" fill="#fbf1cf"/><path d="m207.311 279.678h-117.998c-11.777 0-21.323 9.547-21.323 21.323v20.655c0 11.777 9.547 21.323 21.323 21.323h129.164c-9.55-11.894-17.732-39.201-11.166-63.301z" fill="#f5e2a2"/><path d="m410.319 342.979h-308.638l19.862 117.129c3.409 20.104 20.825 34.815 41.215 34.815h186.484c20.391 0 37.806-14.711 41.215-34.815z" fill="#e0b799"/><path d="m199.396 342.979h-97.716l19.862 117.129c3.409 20.104 20.825 34.815 41.215 34.815h66.271c-24.174-31.705-32.811-107.119-29.632-151.944z" fill="#d1986f"/><g><g><ellipse cx="174.042" cy="436.717" fill="#fff" rx="30.241" ry="24.082"/><ellipse cx="337.958" cy="436.717" fill="#fff" rx="30.241" ry="24.082"/><path d="m256 411.13c-11.997 0-22.681-8.062-29.401 1.88-6.816 10.085 8.45 25.723 29.401 25.723s36.217-15.638 29.401-25.723c-6.72-9.942-17.404-1.88-29.401-1.88z" fill="#4e5660"/></g><g fill="#4e5660"><path d="m191.666 419.37c-7.281 0-14.207-3.154-19-8.652-2.722-3.122-2.397-7.86.725-10.582 3.124-2.722 7.859-2.397 10.582.725 1.944 2.23 4.748 3.509 7.693 3.509 2.946 0 5.751-1.279 7.693-3.508 2.722-3.122 7.457-3.448 10.582-.727 3.122 2.722 3.448 7.459.727 10.582-4.793 5.499-11.719 8.653-19.002 8.653z"/><path d="m320.334 419.37c-7.283 0-14.209-3.154-19.002-8.653-2.722-3.123-2.396-7.86.727-10.582 3.122-2.721 7.859-2.396 10.582.727 1.942 2.229 4.747 3.508 7.693 3.508 2.945 0 5.749-1.279 7.693-3.509 2.721-3.123 7.459-3.448 10.582-.725 3.122 2.722 3.446 7.46.725 10.582-4.793 5.498-11.719 8.652-19 8.652z"/></g></g></g></svg>