<svg height="511pt" viewBox="-65 1 511 511.99948" width="511pt" xmlns="http://www.w3.org/2000/svg"><path d="m270.816406 126.738281s32.34375 17.414063 79.910156 3.863281c11.78125-3.355468 23.976563 3.730469 26.734376 15.664063.050781.214844 4.914062 21.183594-15.4375 26.09375-24.820313 5.988281-69.734376 10.503906-116.9375-17.964844.582031.949219 25.730468-27.65625 25.730468-27.65625zm0 0" fill="#00c140"/><path d="m284.75 124.964844s18.398438 31.792968 66 45.21875c11.789062 3.328125 18.453125 15.757812 14.539062 27.363281-.070312.207031-6.929687 20.613281-26.832031 14.113281-24.269531-7.921875-64.878906-27.644531-90.121093-76.652344 0 1.117188 36.414062-10.042968 36.414062-10.042968zm0 0" fill="#29ce69"/><path d="m259.503906 132.871094h-136.753906s-316.148438 379.128906 68.375 379.128906c384.527344 0 68.378906-379.128906 68.378906-379.128906zm0 0" fill="#889cb0"/><path d="m292.023438 176.164062c-18.523438-26.507812-32.523438-43.292968-32.523438-43.292968h-136.757812s-238.171876 285.628906-49.617188 361.046875c-21.597656-102.25 8.414062-183.671875 35.558594-232.011719 15.558594-27.714844 43.601562-46.199219 75.195312-49.675781 60.53125-6.65625 108.144532-36.066407 108.144532-36.066407zm0 0" fill="#6a829a"/><path d="m236.703125 29.792969-24.851563-21.949219c-11.839843-10.457031-29.613281-10.457031-41.453124 0l-24.851563 21.949219c-6.730469 5.941406-15.847656 8.398437-24.652344 6.640625l-34.652343-6.914063c-15.144532-3.023437-26.6875 13.363281-18.738282 26.605469l38.8125 64.671875h169.617188l38.8125-64.671875c7.949218-13.242188-3.59375-29.628906-18.738282-26.605469l-34.652343 6.914063c-8.800781 1.757812-17.921875-.699219-24.652344-6.640625zm0 0" fill="#889cb0"/><path d="m187.652344 120.796875c-4.964844-13.507813-12.738282-27.246094-24.890625-38.414063-20.304688-18.660156-27.605469-34.964843-30.015625-46.074218-3.851563.855468-7.882813.917968-11.851563.125l-34.652343-6.914063c-15.144532-3.023437-26.6875 13.363281-18.738282 26.605469l38.8125 64.671875zm0 0" fill="#6a829a"/><path d="m272.128906 157.285156h-162.007812c-13.484375 0-24.414063-10.929687-24.414063-24.414062s10.929688-24.417969 24.414063-24.417969h162.007812c13.484375 0 24.417969 10.929687 24.417969 24.417969 0 13.484375-10.933594 24.414062-24.417969 24.414062zm0 0" fill="#73da8c"/><path d="m142.460938 132.871094c0-13.484375 10.933593-24.417969 24.417968-24.417969h-56.757812c-13.484375 0-24.414063 10.933594-24.414063 24.417969 0 13.480468 10.929688 24.414062 24.414063 24.414062h56.757812c-13.484375 0-24.417968-10.929687-24.417968-24.414062zm0 0" fill="#29ce69"/><g fill="#b9ecc2"><path d="m234.253906 330.484375c-3.980468-1.542969-8.453125.433594-9.996094 4.414063l-3.296874 8.503906-22.789063-39.472656c-1.378906-2.390626-3.929687-3.863282-6.6875-3.863282-2.761719 0-5.3125 1.472656-6.691406 3.863282l-30.859375 53.445312c-2.132813 3.695312-.78125 8.28125 2.828125 10.554688 4.777343 3.011718 9.125-.347657 10.554687-2.828126l24.167969-41.855468 15.941406 27.613281-9.414062-1.605469c-4.203125-.714844-8.195313 2.109375-8.914063 6.316406-.71875 4.207032 2.109375 8.199219 6.316406 8.914063l25.628907 4.371094c2.960937.511719 6.785156-.40625 8.503906-4.824219l9.121094-23.554688c1.539062-3.976562-.4375-8.453124-4.414063-9.992187zm0 0"/><path d="m110.410156 394.667969c.65625 4.214843 4.601563 7.101562 8.820313 6.449219l9.011719-1.398438-22.789063 39.46875c-1.378906 2.390625-1.378906 5.335938 0 7.726562 1.382813 2.390626 3.933594 3.863282 6.691406 3.863282h61.714844c4.265625 0 7.5625-3.460938 7.726563-7.726563.21875-5.636719-4.863282-7.726562-7.726563-7.726562h-48.332031l15.941406-27.609375 3.316406 8.953125c1.484375 4 5.925782 6.042969 9.929688 4.5625 4-1.484375 6.042968-5.929688 4.5625-9.929688l-9.03125-24.378906c-1.039063-2.816406-3.746094-5.671875-8.429688-4.949219l-24.957031 3.875c-4.21875.652344-7.105469 4.601563-6.449219 8.820313zm0 0"/><path d="m229.070312 468.664062c3.324219-2.679687 3.851563-7.539062 1.175782-10.867187l-5.71875-7.105469h45.578125c2.761719 0 5.3125-1.472656 6.691406-3.863281s1.378906-5.335937 0-7.726563l-30.855469-53.445312c-2.132812-3.695312-6.78125-4.816406-10.554687-2.828125-4.992188 2.632813-4.257813 8.078125-2.828125 10.554687l24.164062 41.855469h-31.882812l6.097656-7.347656c2.722656-3.285156 2.269531-8.15625-1.015625-10.878906-3.28125-2.726563-8.152344-2.273438-10.878906 1.011719l-16.597657 20.007812c-1.921874 2.3125-3.039062 6.082031-.074218 9.777344l15.835937 19.679687c2.675781 3.324219 7.539063 3.851563 10.863281 1.175781zm0 0"/></g><path d="m133.625 259.878906c0-9.351562-9.523438-16.933594-21.265625-16.933594s-21.261719 7.582032-21.261719 16.933594c0 9.351563 9.519532 16.933594 21.261719 16.933594s21.265625-7.582031 21.265625-16.933594zm0 0" fill="#ffb3c2"/><path d="m291.15625 259.878906c0-9.351562-9.523438-16.933594-21.265625-16.933594s-21.265625 7.582032-21.265625 16.933594c0 9.351563 9.523438 16.933594 21.265625 16.933594s21.265625-7.582031 21.265625-16.933594zm0 0" fill="#ffb3c2"/><path d="m196.402344 241.578125c-1.730469 2.542969-4.253906 2.847656-5.277344 2.847656s-3.589844-.277343-5.277344-2.847656c-2.34375-3.566406-7.132812-4.558594-10.699218-2.214844-3.566407 2.339844-4.558594 7.132813-2.214844 10.699219 4.035156 6.144531 10.835937 9.816406 18.191406 9.816406s14.15625-3.671875 18.191406-9.816406c2.34375-3.566406 1.351563-8.359375-2.214844-10.699219-1.304687-.859375-7.089843-3.082031-10.699218 2.214844zm0 0" fill="#454545"/><path d="m129.914062 245.195312c-.960937-.804687-1.921874-1.015624-2.460937-1.015624-.535156 0-1.570313.128906-2.457031 1.015624-3.019532 3.019532-7.910156 3.019532-10.925782 0-3.019531-3.015624-3.019531-7.90625-.003906-10.925781 3.578125-3.574219 8.332032-5.542969 13.386719-5.542969 5.058594 0 9.8125 1.96875 13.386719 5.542969 3.019531 3.019531 3.019531 7.910157 0 10.925781-1.507813 1.511719-6.050782 4.085938-10.925782 0zm0 0" fill="#454545"/><path d="m257.253906 245.195312c-.960937-.804687-1.917968-1.015624-2.457031-1.015624s-1.570313.128906-2.460937 1.015624c-3.015626 3.019532-7.910157 3.019532-10.925782 0-3.019531-3.015624-3.019531-7.90625 0-10.925781 3.574219-3.574219 8.328125-5.542969 13.386719-5.542969 5.054687 0 9.808594 1.96875 13.386719 5.542969 3.015625 3.019531 3.015625 7.910157-.003906 10.925781-1.503907 1.511719-6.046876 4.085938-10.925782 0zm0 0" fill="#454545"/></svg>