<svg height="512pt" viewBox="0 -58 512.0001 512" width="512pt" xmlns="http://www.w3.org/2000/svg"><path d="m112.171875 168.671875c0 21.871094-17.730469 39.597656-39.597656 39.597656-21.867188 0-39.59375-17.726562-39.59375-39.597656 0-21.867187 17.726562-39.59375 39.59375-39.59375 21.867187 0 39.597656 17.726563 39.597656 39.59375zm0 0" fill="#fb695b"/><path d="m260.738281 44.390625c0 24.515625-19.875 44.390625-44.390625 44.390625s-44.390625-19.875-44.390625-44.390625 19.875-44.390625 44.390625-44.390625 44.390625 19.875 44.390625 44.390625zm0 0" fill="#eedb00"/><path d="m340.042969 44.390625c0 24.515625-19.875 44.390625-44.390625 44.390625s-44.390625-19.875-44.390625-44.390625 19.875-44.390625 44.390625-44.390625 44.390625 19.875 44.390625 44.390625zm0 0" fill="#f9ee80"/><path d="m78.898438 147.527344c3.460937-11.523438 2.25-24.042969-4.308594-34.128906-17.949219-27.617188-19.160156-59.742188-.828125-78.070313 18.328125-18.328125 50.453125-17.121094 78.070312.832031 10.085938 6.554688 22.605469 7.769532 34.128907 4.304688 22.132812-6.652344 47.117187-1.242188 64.605468 16.246094 25.347656 25.347656 61.503906 89.863281-2.027344 153.394531s-128.050781 27.375-153.394531 2.03125c-17.492187-17.492188-22.902343-42.476563-16.246093-64.609375zm0 0" fill="#00ce8e"/><path d="m250.566406 56.710938c-5.160156-5.160157-10.972656-9.269532-17.175781-12.328126 0 0-39.769531 44.648438-48.242187 110.871094-5.105469 39.921875-39.3125 63.195313-65.679688 75.390625 31.789062 18.421875 80.714844 27.816407 129.066406-20.539062 63.535156-63.53125 27.375-128.046875 2.03125-153.394531zm0 0" fill="#00c172"/><path d="m290.300781 251.867188c7.386719-7.390626 7.386719-19.367188 0-26.753907l-121.527343-121.527343c-7.390626-7.386719-19.367188-7.386719-26.753907 0-7.390625 7.386718-7.390625 19.367187 0 26.753906l121.527344 121.527344c7.386719 7.386718 19.367187 7.386718 26.753906 0zm0 0" fill="#60daa8"/><path d="m290.300781 251.867188c7.386719-7.390626 7.386719-19.367188 0-26.753907l-99.175781-99.175781c-2.574219 9.1875-4.65625 18.992188-5.976562 29.316406-.664063 5.214844-1.828126 10.148438-3.40625 14.808594l81.804687 81.804688c7.386719 7.386718 19.367187 7.386718 26.753906 0zm0 0" fill="#00ce8e"/><path d="m433.101562 147.527344c-3.460937-11.523438-2.25-24.042969 4.308594-34.128906 17.953125-27.617188 19.160156-59.742188.832032-78.070313-18.328126-18.328125-50.457032-17.121094-78.070313.832031-10.085937 6.554688-22.605469 7.769532-34.128906 4.304688-22.136719-6.652344-47.121094-1.242188-64.609375 16.246094-25.34375 25.347656-61.5 89.863281 2.03125 153.394531s128.046875 27.375 153.394531 2.03125c17.488281-17.492188 22.898437-42.476563 16.242187-64.609375zm0 0" fill="#60daa8"/><path d="m221.699219 251.867188c-7.386719-7.390626-7.386719-19.367188 0-26.753907l121.527343-121.527343c7.390626-7.390626 19.367188-7.390626 26.757813 0 7.386719 7.386718 7.386719 19.363281 0 26.753906l-121.527344 121.527344c-7.390625 7.386718-19.371093 7.386718-26.757812 0zm0 0" fill="#b1ecd0"/><path d="m479.019531 168.671875c0 21.871094-17.726562 39.597656-39.59375 39.597656-21.867187 0-39.597656-17.726562-39.597656-39.597656 0-21.867187 17.730469-39.59375 39.597656-39.59375 21.867188 0 39.59375 17.726563 39.59375 39.59375zm0 0" fill="#ff938a"/><path d="m330.300781 396.058594h-148.601562c-38.398438 0-69.527344-31.128906-69.527344-69.527344v-50.445312h287.660156v50.445312c-.003906 38.398438-31.132812 69.527344-69.53125 69.527344zm0 0" fill="#76e7e7"/><path d="m339.535156 276.085938h-227.363281v50.445312c0 38.398438 31.128906 69.527344 69.527344 69.527344h55.539062c3.417969-15.113282 14.960938-28.390625 32.433594-31.976563 37.191406-7.640625 69.417969-28.863281 69.417969-28.863281zm0 0" fill="#2eddda"/><path d="m256 206.339844c-72.402344 0-150.261719-12.925782-207.480469-25.082032-37.464843-7.957031-63.671875 36.265626-38.695312 65.300782 40.539062 47.128906 114.359375 95.996094 246.175781 95.996094s205.636719-48.867188 246.175781-96c24.976563-29.03125-1.234375-73.253907-38.695312-65.296876-57.21875 12.15625-135.078125 25.082032-207.480469 25.082032zm0 0" fill="#b0f0ef"/><path d="m9.824219 246.554688c22.429687 26.078124 55.066406 52.695312 102.058593 71.265624-9.65625-10.472656-16.605468-21.796874-21.582031-32.78125-11.507812-25.394531 2.753907-55.242187 29.808594-61.996093 29.160156-7.28125 51.839844-21.613281 51.839844-21.613281-44.917969-4.867188-88.105469-12.664063-123.429688-20.167969-37.460937-7.960938-63.671875 36.261719-38.695312 65.292969zm0 0" fill="#76e7e7"/><path d="m190.042969 279.023438c0-13.582032-13.824219-24.589844-30.875-24.589844-17.054688 0-30.878907 11.007812-30.878907 24.589844 0 13.578124 13.824219 24.585937 30.878907 24.585937 17.050781 0 30.875-11.007813 30.875-24.585937zm0 0" fill="#fdb2db"/><path d="m383.710938 279.023438c0-13.582032-13.824219-24.589844-30.878907-24.589844-17.050781 0-30.875 11.007812-30.875 24.589844 0 13.578124 13.824219 24.585937 30.875 24.585937 17.054688 0 30.878907-11.007813 30.878907-24.585937zm0 0" fill="#fdb2db"/><g fill="#454545"><path d="m256 275.027344c-10 0-20-3.234375-28.34375-9.707032-3.371094-2.613281-3.984375-7.46875-1.371094-10.839843 2.613282-3.375 7.46875-3.988281 10.839844-1.371094 11.113281 8.621094 26.636719 8.621094 37.75 0 3.367188-2.617187 8.222656-2.003906 10.835938 1.371094 2.617187 3.371093 2.003906 8.222656-1.367188 10.839843-8.34375 6.472657-18.34375 9.707032-28.34375 9.707032zm0 0"/><path d="m178.1875 260.207031c-1.730469-2.542969-4.253906-2.847656-5.277344-2.847656-1.023437 0-3.589844.277344-5.277344 2.847656-2.34375 3.566407-7.132812 4.558594-10.699218 2.214844-3.566406-2.339844-4.558594-7.132813-2.214844-10.699219 4.035156-6.144531 10.835938-9.816406 18.191406-9.816406 7.355469 0 14.15625 3.671875 18.191406 9.816406 2.34375 3.566406 1.351563 8.359375-2.214843 10.699219-1.308594.859375-7.089844 3.082031-10.699219-2.214844zm0 0"/><path d="m344.367188 260.207031c-1.730469-2.542969-4.25-2.847656-5.277344-2.847656-1.023438 0-3.589844.277344-5.277344 2.847656-2.34375 3.566407-7.132812 4.558594-10.699219 2.214844-3.566406-2.339844-4.558593-7.132813-2.214843-10.699219 4.039062-6.144531 10.839843-9.816406 18.191406-9.816406 7.355468 0 14.15625 3.671875 18.195312 9.816406 2.34375 3.566406 1.351563 8.359375-2.214844 10.699219-1.308593.859375-7.089843 3.082031-10.703124-2.214844zm0 0"/></g></svg>