<svg height="512pt" viewBox="-33 0 512 512" width="512pt" xmlns="http://www.w3.org/2000/svg"><g fill="#b0f0ef"><path d="m214.570312 493.09375c-10.492187 0-19-8.507812-19-19v-77.398438c0-10.492187 8.507813-19 19-19 10.492188 0 19 8.507813 19 19v77.398438c0 10.492188-8.507812 19-19 19zm0 0"/><path d="m57.859375 410.523438c-10.496094 0-19-8.503907-19-18.996094v-77.402344c0-10.492188 8.507813-18.996094 19-18.996094s18.996094 8.503906 18.996094 18.996094v77.402344c.003906 10.492187-8.503907 18.996094-18.996094 18.996094zm0 0"/><path d="m131.699219 460.792969c-10.492188 0-18.996094-8.503907-18.996094-18.996094v-57.636719c0-10.492187 8.503906-19 18.996094-19 10.496093 0 19 8.507813 19 19v57.636719c0 10.492187-8.503907 18.996094-19 18.996094zm0 0"/><path d="m57.859375 512c-10.496094 0-19-8.507812-19-19v-24.164062c0-10.492188 8.507813-19 19-19s18.996094 8.507812 18.996094 19v24.164062c.003906 10.492188-8.503907 19-18.996094 19zm0 0"/></g><path d="m415.734375 468.960938h-80.5625v-307.3125c0-44.710938-36.375-81.085938-81.085937-81.085938-44.710938 0-81.085938 36.375-81.085938 81.085938v46.644531h-80.5625v-46.644531c0-89.132813 72.515625-161.648438 161.648438-161.648438 89.132812 0 161.648437 72.515625 161.648437 161.648438zm0 0" fill="#91d4f2"/><path d="m173 161.648438c0-12.558594 2.871094-24.457032 7.988281-35.078126-16.882812 6.570313-45.753906 14.03125-86.894531 11.898438-1.09375 7.570312-1.65625 15.308594-1.65625 23.179688v46.648437h80.5625zm0 0" fill="#59c2e8"/><path d="m179.394531 186.964844h-95.386719c-29.921874 0-54.175781 24.253906-54.175781 54.175781v59.644531h203.738281v-59.644531c0-29.921875-24.257812-54.175781-54.175781-54.175781zm0 0" fill="#c2eafb"/><path d="m179.394531 186.964844h-61.550781c29.921875 0 54.175781 24.253906 54.175781 54.171875v59.644531h61.550781v-59.644531c0-29.917969-24.257812-54.171875-54.175781-54.171875zm0 0" fill="#91d4f2"/><path d="m237.46875 340.792969h-209.496094c-15.449218 0-27.972656-12.523438-27.972656-27.972657 0-15.449218 12.523438-27.972656 27.972656-27.972656h209.496094c15.445312 0 27.96875 12.523438 27.96875 27.972656 0 15.449219-12.523438 27.972657-27.96875 27.972657zm0 0" fill="#99b2e9"/><path d="m237.46875 284.847656h-74.863281c15.449219 0 27.972656 12.523438 27.972656 27.972656 0 15.449219-12.523437 27.972657-27.972656 27.972657h74.863281c15.445312 0 27.96875-12.523438 27.96875-27.972657 0-15.449218-12.523438-27.972656-27.96875-27.972656zm0 0" fill="#7293df"/><path d="m401.367188 505.421875h-51.828126c-16.386718 0-29.667968-13.285156-29.667968-29.667969v-81.5h111.164062v81.5c0 16.382813-13.28125 29.667969-29.667968 29.667969zm0 0" fill="#59c2e8"/><path d="m417.089844 418.542969h-83.273438c-16.195312 0-29.324218-13.128907-29.324218-29.324219 0-16.199219 13.128906-29.328125 29.324218-29.328125h83.273438c16.195312 0 29.328125 13.128906 29.328125 29.328125 0 16.195312-13.132813 29.324219-29.328125 29.324219zm0 0" fill="#7293df"/></svg>