<svg id="Capa_1" enable-background="new 0 0 512 512" height="512" viewBox="0 0 512 512" width="512" xmlns="http://www.w3.org/2000/svg"><g><ellipse cx="152.285" cy="382.423" fill="#fbf1cf" rx="48.632" ry="48.632" transform="matrix(.383 -.924 .924 .383 -259.305 376.769)"/><ellipse cx="85.67" cy="271.403" fill="#fbf1cf" rx="40.08" ry="40.08" transform="matrix(.383 -.924 .924 .383 -197.859 246.691)"/><path d="m45.59 271.404c0 22.135 17.944 40.08 40.08 40.08 11.856 0 22.505-5.151 29.843-13.334-30.011 1.516-55.581-32.62-41.619-65.065-16.388 5.03-28.304 20.281-28.304 38.319z" fill="#f5e2a2"/><path d="m450.759 414.73c2.088-5.691 3.146-11.879 2.933-18.343-.832-25.292-21.389-45.99-46.677-46.964-29.487-1.136-53.175 23.918-50.326 53.337-28.016-.09-50.12 23.189-48.81 50.971 1.176 24.941 21.505 45.176 46.451 46.242 8.507.363 16.552-1.467 23.626-4.964 3.133-1.549 6.882-1.102 9.62 1.071 8.884 7.053 20.288 11.069 32.646 10.463 24.769-1.213 44.881-21.296 46.126-46.064.711-14.143-4.628-27.041-13.651-36.347-2.41-2.485-3.13-6.153-1.938-9.402z" fill="#fbf1cf"/><path d="m397.405 428.242c-16.368-9.632-32.18-42.352-15.321-73.075-16.602 8.935-27.369 27.212-25.395 47.592-28.017-.09-50.121 23.19-48.81 50.972 1.177 24.94 21.505 45.174 46.451 46.24 8.507.364 16.552-1.467 23.626-4.964 3.147-1.556 6.902-1.082 9.653 1.098 8.879 7.037 20.27 11.041 32.613 10.437 11.442-.56 21.885-5.153 29.938-12.369-39.742 2.597-56.824-28.548-48.211-54.192 1.5-4.468-.482-9.348-4.544-11.739z" fill="#f5e2a2"/><path d="m277.299 226.528c-13.072 0-23.669-10.597-23.669-23.669v-119.417c0-37.17 30.241-67.41 67.41-67.41h40.955c13.072 0 23.669 10.597 23.669 23.669s-10.597 23.669-23.669 23.669h-40.955c-11.067 0-20.071 9.004-20.071 20.071v119.417c0 13.073-10.597 23.67-23.67 23.67z" fill="#4e5660"/><path d="m396.914 0h-42.824c-11.076 0-20.055 8.979-20.055 20.055v39.292c0 11.076 8.979 20.055 20.055 20.055h42.824c15.102 0 27.344-12.242 27.344-27.344v-24.714c-.001-15.102-12.243-27.344-27.344-27.344z" fill="#a2ddfd"/><path d="m323.71 439.053h-95.118c-21.995 0-41.743-13.475-49.763-33.956l-14.796-37.785c-8.736-22.309-9.787-46.893-2.987-69.866l37.899-128.043c5.631-19.024 23.106-32.076 42.946-32.076h68.521c19.84 0 37.315 13.052 42.946 32.076l37.899 128.043c6.8 22.973 5.749 47.557-2.987 69.866l-14.796 37.785c-8.02 20.48-27.769 33.956-49.764 33.956z" fill="#a2ddfd"/><path d="m368.155 415.278c-166.4-15.901-149.78-202.331-121.526-277.952h-4.739c-19.839 0-37.315 13.052-42.946 32.076l-37.899 128.043c-6.8 22.973-5.749 47.557 2.987 69.866l14.796 37.785c8.02 20.481 27.768 33.956 49.763 33.956h95.118c18.101.001 34.673-9.13 44.446-23.774z" fill="#7acdf9"/><path d="m276.151 248.718c34.017 0 50.594-32.777 92.897-26.304l-15.691-53.012c-5.631-19.024-23.106-32.076-42.946-32.076h-68.521c-19.839 0-37.315 13.052-42.946 32.076l-15.691 53.012c42.304-6.473 58.881 26.304 92.898 26.304z" fill="#8daee1"/><path d="m246.629 137.326h-4.739c-19.839 0-37.315 13.052-42.946 32.076l-15.691 53.012c19.115-2.925 32.973 2.169 45.566 8.627 1.437-36.294 9.066-70.31 17.81-93.715z" fill="#6a95d6"/><g><g fill="#fff"><ellipse cx="200.917" cy="330.052" rx="27.76" ry="22.107"/><ellipse cx="351.386" cy="330.052" rx="27.76" ry="22.107"/></g><g fill="#4e5660"><path d="m217.096 315.999c-4.143 0-7.5-3.357-7.5-7.5v-10.804c0-4.143 3.357-7.5 7.5-7.5s7.5 3.357 7.5 7.5v10.804c0 4.143-3.358 7.5-7.5 7.5z"/><path d="m276.151 323.026c-8.136 0-15.872-3.523-21.225-9.667-2.721-3.123-2.395-7.86.729-10.582 3.122-2.72 7.86-2.395 10.582.729 2.503 2.873 6.116 4.521 9.914 4.521s7.411-1.647 9.914-4.521c2.722-3.125 7.46-3.448 10.582-.729 3.123 2.722 3.449 7.459.729 10.582-5.353 6.144-13.089 9.667-21.225 9.667z"/><path d="m349.813 315.697c-4.143 0-7.5-3.357-7.5-7.5 0-2.768-2.252-5.02-5.02-5.02s-5.02 2.252-5.02 5.02c0 4.143-3.357 7.5-7.5 7.5-4.142 0-7.5-3.357-7.5-7.5 0-11.039 8.98-20.02 20.02-20.02 11.039 0 20.02 8.98 20.02 20.02 0 4.143-3.358 7.5-7.5 7.5z"/></g></g><path d="m327.513 473.55h-231.305v-25.043c0-24.274 19.678-43.952 43.952-43.952h143.401c24.274 0 43.952 19.678 43.952 43.952z" fill="#4e5660"/><path d="m169.006 404.555h-28.846c-24.274 0-43.952 19.678-43.952 43.952v25.043h82.547c-11.513-18.839-15.067-52.965-9.749-68.995z" fill="#383c43"/><path d="m339.703 473.55h-255.684c-9.489 0-17.182 7.692-17.182 17.182v10.197c0 6.115 4.957 11.071 11.071 11.071h267.905c6.115 0 11.071-4.957 11.071-11.071v-10.197c0-9.489-7.692-17.182-17.181-17.182z" fill="#8daee1"/><path d="m232.353 446.553h-40.983c-4.143 0-7.5-3.357-7.5-7.5s3.357-7.5 7.5-7.5h40.983c4.143 0 7.5 3.357 7.5 7.5 0 4.142-3.358 7.5-7.5 7.5z" fill="#fff"/></g></svg>