<svg id="Capa_1" enable-background="new 0 0 512 512" height="512" viewBox="0 0 512 512" width="512" xmlns="http://www.w3.org/2000/svg"><g><g><path d="m460.491 512h-408.982c-28.448 0-51.509-23.061-51.509-51.509v-336.869l256-61.811 256 61.811v336.869c0 28.448-23.061 51.509-51.509 51.509z" fill="#e9edf5"/></g><g><path d="m61.811 460.491v-245.698c0-28.448 23.061-51.509 51.509-51.509h398.68v-39.662l-256-61.811-256 61.811v336.869c0 28.448 23.061 51.509 51.509 51.509h61.811c-28.448 0-51.509-23.061-51.509-51.509z" fill="#dce1eb"/></g><g><path d="m512 123.622h-512v-72.113c0-28.448 23.061-51.509 51.509-51.509h408.982c28.448 0 51.509 23.061 51.509 51.509z" fill="#f2f6fc"/></g><g><path d="m113.32 0h-61.811c-28.448 0-51.509 23.061-51.509 51.509v72.113h61.811v-72.113c0-28.448 23.061-51.509 51.509-51.509z" fill="#e9edf5"/></g><g><g><circle cx="256" cy="317.811" fill="#fff" r="154.527"/></g></g><g><path d="m235.396 451.734c0-11.379 9.225-20.604 20.604-20.604v-226.64c-11.379 0-20.604-9.225-20.604-20.604s9.225-20.604 20.604-20.604c-85.343 0-154.527 69.184-154.527 154.527s69.184 154.529 154.527 154.529c-11.379 0-20.604-9.225-20.604-20.604z" fill="#f2f6fc"/></g><g><path d="m256 342.535-109.247-54.879c13.235-47.895 57.2-83.166 109.247-83.166s96.011 35.27 109.247 83.164z" fill="#555a66"/></g><g><path d="m365.229 287.616c2.662 9.617 4.091 19.742 4.091 30.195 0 62.485-50.835 113.32-113.32 113.32-52.032 0-95.979-35.252-109.229-83.125 102.353-6.394 116.105-53.996 218.458-60.39z" fill="#69a8ff"/></g><g><circle cx="445.038" cy="61.811" fill="#fff8c5" r="25.755"/></g><g><path d="m445.038 61.811c0-9.531 5.181-17.847 12.877-22.301-3.789-2.193-8.185-3.454-12.877-3.454-14.224 0-25.755 11.531-25.755 25.755s11.531 25.755 25.755 25.755c4.693 0 9.088-1.261 12.877-3.454-7.695-4.454-12.877-12.77-12.877-22.301z" fill="#fff48f"/></g><g><circle cx="352.322" cy="61.811" fill="#ffa4d2" r="25.755"/></g><g><path d="m352.322 61.811c0-9.531 5.181-17.847 12.877-22.301-3.789-2.193-8.185-3.454-12.877-3.454-14.224 0-25.755 11.531-25.755 25.755s11.531 25.755 25.755 25.755c4.693 0 9.088-1.261 12.877-3.454-7.696-4.454-12.877-12.77-12.877-22.301z" fill="#f492c8"/></g><g><path d="m159.678 87.565h-92.716c-14.224 0-25.755-11.531-25.755-25.755 0-14.224 11.531-25.755 25.755-25.755h92.716c14.224 0 25.755 11.531 25.755 25.755 0 14.225-11.531 25.755-25.755 25.755z" fill="#95e8c8"/></g><g><path d="m88.596 61.811c0-14.224 11.531-25.755 25.755-25.755h-47.389c-14.224 0-25.755 11.531-25.755 25.755s11.531 25.755 25.755 25.755h47.388c-14.224-.001-25.754-11.531-25.754-25.755z" fill="#82d9b6"/></g><g><path d="m146.771 287.616c-2.662 9.617-4.091 19.742-4.091 30.195 0 62.485 50.835 113.32 113.32 113.32 52.032 0 95.979-35.252 109.229-83.125-102.353-6.394-116.105-53.996-218.458-60.39z" fill="#82baff"/></g><g><g><g><path d="m202.837 273.716c-4.142 0-7.5-3.358-7.5-7.5v-10.216c0-4.142 3.358-7.5 7.5-7.5s7.5 3.358 7.5 7.5v10.216c0 4.142-3.358 7.5-7.5 7.5z" fill="#f2f6fc"/></g><g><path d="m309.163 273.716c-4.142 0-7.5-3.358-7.5-7.5v-10.216c0-4.142 3.358-7.5 7.5-7.5s7.5 3.358 7.5 7.5v10.216c0 4.142-3.358 7.5-7.5 7.5z" fill="#f2f6fc"/></g><g><path d="m256 279.797c-7.54 0-14.709-3.265-19.67-8.958-2.721-3.123-2.396-7.86.727-10.582 3.123-2.721 7.859-2.396 10.582.727 2.112 2.423 5.16 3.813 8.362 3.813s6.25-1.39 8.362-3.813c2.722-3.123 7.459-3.448 10.582-.727 3.123 2.722 3.448 7.459.727 10.582-4.963 5.693-12.132 8.958-19.672 8.958z" fill="#f2f6fc"/></g></g></g></g></svg>