<svg id="Capa_1" enable-background="new 0 0 512 512" height="512" viewBox="0 0 512 512" width="512" xmlns="http://www.w3.org/2000/svg"><path d="m278.43 0h-44.86c-20.725 0-37.527 16.801-37.527 37.527v32.999c0 6.644 5.386 12.029 12.029 12.029h95.854c6.644 0 12.029-5.386 12.029-12.029v-32.999c.001-20.726-16.8-37.527-37.525-37.527z" fill="#e8899e"/><path d="m234.737 90.055c-4.143 0-7.5-3.358-7.5-7.5v-41.278c0-4.142 3.357-7.5 7.5-7.5s7.5 3.358 7.5 7.5v41.277c0 4.143-3.357 7.501-7.5 7.501z" fill="#e26e7e"/><path d="m277.263 90.055c-4.143 0-7.5-3.358-7.5-7.5v-41.278c0-4.142 3.357-7.5 7.5-7.5s7.5 3.358 7.5 7.5v41.277c0 4.143-3.358 7.501-7.5 7.501z" fill="#e26e7e"/><path d="m363.759 470.214c0 22.474-17.756 41.351-40.226 41.778-10.709.204-20.499-3.701-27.91-10.241-3.589-3.166-8.895-3.197-12.48-.027-7.231 6.393-16.731 10.276-27.143 10.276s-19.912-3.883-27.143-10.276c-3.585-3.17-8.891-3.139-12.48.027-7.412 6.54-17.202 10.445-27.911 10.241-22.47-.427-40.226-19.304-40.226-41.778v-106.558c0-11.055 3.943-21.747 11.121-30.155 6.599-7.73 6.599-19.109 0-26.839-7.178-8.408-11.121-19.1-11.121-30.155v-117.561c0-42.19 34.202-76.391 76.391-76.391h62.736c42.19 0 76.391 34.202 76.391 76.391v117.561c0 11.055-3.943 21.747-11.121 30.155-6.599 7.73-6.599 19.109 0 26.839 7.178 8.408 11.121 19.1 11.121 30.155v106.558z" fill="#a3defe"/><path d="m199.926 86.663c-30.06 10.273-51.685 38.744-51.685 72.284v117.561c0 11.055 3.943 21.747 11.121 30.155 6.599 7.73 6.599 19.109 0 26.839-7.178 8.408-11.121 19.1-11.121 30.155v106.558c0 22.474 17.756 41.351 40.226 41.778 10.709.204 20.499-3.701 27.911-10.241 3.589-3.166 8.895-3.197 12.48-.027 5.337 4.719 11.913 8.063 19.177 9.495-45.292-35.036-62.116-241.056-48.109-424.557z" fill="#7acefa"/><path d="m365.212 166.415h-218.424c-10.82 0-19.592 8.771-19.592 19.592v13.71c0 10.82 8.771 19.592 19.592 19.592h218.423c10.82 0 19.592-8.771 19.592-19.592v-13.71c0-10.82-8.771-19.592-19.591-19.592z" fill="#8eafe2"/><path d="m227.633 166.415h-80.845c-10.82 0-19.592 8.771-19.592 19.592v13.71c0 10.82 8.771 19.592 19.592 19.592h89.724c-8.921-11.353-11.249-35.564-8.879-52.894z" fill="#6a96d7"/><path d="m256 366.775c24.285 0 43.973-19.687 43.973-43.973 0-26.333-25.885-53.757-37.935-65.096-3.397-3.196-8.679-3.196-12.075 0-12.05 11.339-37.935 38.763-37.935 65.096-.001 24.286 19.686 43.973 43.972 43.973z" fill="#fff"/><g fill="#6a96d7"><path d="m258.734 415.002h-72.884c-4.143 0-7.5-3.358-7.5-7.5s3.357-7.5 7.5-7.5h72.884c4.143 0 7.5 3.358 7.5 7.5 0 4.143-3.357 7.5-7.5 7.5z"/><path d="m326.149 415.002h-31.913c-4.142 0-7.5-3.358-7.5-7.5s3.358-7.5 7.5-7.5h31.913c4.143 0 7.5 3.358 7.5 7.5 0 4.143-3.357 7.5-7.5 7.5z"/><path d="m326.149 456.605h-72.884c-4.143 0-7.5-3.358-7.5-7.5s3.357-7.5 7.5-7.5h72.884c4.143 0 7.5 3.358 7.5 7.5s-3.357 7.5-7.5 7.5z"/><path d="m217.764 456.605h-31.913c-4.143 0-7.5-3.358-7.5-7.5s3.357-7.5 7.5-7.5h31.913c4.143 0 7.5 3.358 7.5 7.5s-3.358 7.5-7.5 7.5z"/></g></svg>