<?xml version="1.0" encoding="iso-8859-1"?>
<!-- Generator: Adobe Illustrator 21.0.0, SVG Export Plug-In . SVG Version: 6.00 Build 0)  -->
<svg version="1.1" id="Capa_1" xmlns="http://www.w3.org/2000/svg" xmlns:xlink="http://www.w3.org/1999/xlink" x="0px" y="0px"
	 viewBox="0 0 512.01 512.01" style="enable-background:new 0 0 512.01 512.01;" xml:space="preserve">
<path style="fill:#2FC8B4;" d="M48.335,139.656C21.64,139.656,0,191.748,0,256.005s21.64,116.349,48.335,116.349h415.33V139.656
	H48.335z"/>
<g>
	<path style="fill:#00AE95;" d="M157.227,365.471c-15.46-18.603-25.846-62.594-25.846-109.466s10.386-90.863,25.846-109.466
		l5.719-6.883h-11.594H48.335C21.64,139.656,0,191.748,0,256.005s21.64,116.349,48.335,116.349h103.018h11.594L157.227,365.471z"/>
	<ellipse style="fill:#00AE95;" cx="463.67" cy="256.005" rx="48.34" ry="116.35"/>
	<path style="fill:#00AE95;" d="M419.268,139.656h-75.656c-16.036,24.69-25.784,68.075-25.784,116.349s9.748,91.659,25.784,116.349
		h75.656l-5.72-6.883c-15.46-18.603-25.845-62.594-25.845-109.466s10.386-90.863,25.845-109.466L419.268,139.656z"/>
</g>
<g>
	<path style="fill:#3A484A;" d="M341.477,383.124c-3.202,0-6.237-1.424-8.283-3.887l0,0
		c-19.008-22.875-30.817-70.095-30.817-123.232s11.809-100.357,30.817-123.232l0,0c2.046-2.462,5.082-3.887,8.283-3.887h59.747
		c4.588,0,7.098,5.348,4.165,8.877l-7.292,8.776c-15.46,18.603-25.846,62.594-25.846,109.466s10.386,90.863,25.846,109.466
		l7.292,8.776c2.932,3.529,0.423,8.877-4.165,8.877L341.477,383.124L341.477,383.124z"/>
	<path style="fill:#3A484A;" d="M85.155,383.124c-3.202,0-6.237-1.424-8.283-3.887l0,0c-19.009-22.875-30.818-70.095-30.818-123.232
		s11.809-100.357,30.817-123.232l0,0c2.046-2.462,5.082-3.887,8.283-3.887h59.747c4.588,0,7.098,5.348,4.165,8.877l-7.292,8.776
		c-15.46,18.603-25.845,62.594-25.845,109.466s10.386,90.863,25.845,109.466l7.292,8.776c2.932,3.529,0.423,8.877-4.165,8.877
		L85.155,383.124L85.155,383.124z"/>
</g>
<g>
	<path style="fill:#313D40;" d="M107.777,379.237C88.769,356.362,76.96,309.142,76.96,256.005s11.809-100.357,30.817-123.232
		c2.046-2.462,5.082-3.887,8.283-3.887H85.155c-3.202,0-6.237,1.424-8.283,3.887c-19.009,22.875-30.818,70.095-30.818,123.232
		s11.809,100.357,30.817,123.232c2.046,2.462,5.082,3.887,8.283,3.887h30.905C112.859,383.124,109.823,381.699,107.777,379.237z"/>
	<path style="fill:#313D40;" d="M364.099,379.237c-19.008-22.875-30.817-70.095-30.817-123.232s11.809-100.357,30.817-123.232
		c2.046-2.462,5.082-3.887,8.283-3.887h-30.905c-3.202,0-6.237,1.424-8.283,3.887c-19.008,22.875-30.817,70.095-30.817,123.232
		s11.809,100.357,30.817,123.232c2.046,2.462,5.082,3.887,8.283,3.887h30.905C369.181,383.124,366.145,381.699,364.099,379.237z"/>
</g>
<ellipse style="fill:#029980;" cx="463.67" cy="256.005" rx="12.83" ry="59.08"/>
<g>
	<path style="fill:#3A484A;" d="M209.985,276.935L209.985,276.935c-9.785,0-17.718-7.932-17.718-17.718v-13.288h35.435v13.288
		C227.703,269.002,219.77,276.935,209.985,276.935z"/>
	<path style="fill:#3A484A;" d="M265.295,254.274c-4.143,0-7.5-3.358-7.5-7.5v-11.698c0-4.142,3.357-7.5,7.5-7.5s7.5,3.358,7.5,7.5
		v11.698C272.795,250.916,269.438,254.274,265.295,254.274z"/>
	<path style="fill:#3A484A;" d="M154.676,254.274c-4.143,0-7.5-3.358-7.5-7.5v-11.698c0-4.142,3.357-7.5,7.5-7.5s7.5,3.358,7.5,7.5
		v11.698C162.176,250.916,158.818,254.274,154.676,254.274z"/>
</g>
<g>
	<path style="fill:#EFEDEE;" d="M271.145,276.387h-11.698c-4.143,0-7.5-3.358-7.5-7.5c0-4.142,3.357-7.5,7.5-7.5h11.698
		c4.143,0,7.5,3.358,7.5,7.5C278.645,273.029,275.287,276.387,271.145,276.387z"/>
	<path style="fill:#EFEDEE;" d="M160.524,276.387h-11.698c-4.143,0-7.5-3.358-7.5-7.5c0-4.142,3.357-7.5,7.5-7.5h11.698
		c4.143,0,7.5,3.358,7.5,7.5C168.024,273.029,164.667,276.387,160.524,276.387z"/>
</g>
<g>
</g>
<g>
</g>
<g>
</g>
<g>
</g>
<g>
</g>
<g>
</g>
<g>
</g>
<g>
</g>
<g>
</g>
<g>
</g>
<g>
</g>
<g>
</g>
<g>
</g>
<g>
</g>
<g>
</g>
</svg>
