<svg height="512pt" viewBox="-44 -53 512.00014 512" width="512pt" xmlns="http://www.w3.org/2000/svg"><path d="m93.421875 149.6875 8.691406-99.078125c1.171875-13.363281 10.816407-24.449219 23.886719-27.464844l96.914062-22.351562c13.070313-3.011719 26.59375 2.730469 33.5 14.230469l51.207032 85.265624c6.90625 11.5 5.621094 26.140626-3.179688 36.261719l-65.273437 75.046875c-8.800781 10.121094-23.121094 13.421875-35.464844 8.179688l-91.542969-38.886719c-12.347656-5.242187-19.910156-17.839844-18.738281-31.203125zm0 0" fill="#abebf4"/><path d="m307.621094 100.289062-30.929688-51.503906c-4.089844 1.277344-8.121094 2.777344-12.089844 4.5l-66.820312 29.066406c-33.332031 14.492188-57.964844 42.90625-67.582031 77.953126l-6.945313 25.300781 80.449219 34.171875c12.347656 5.242187 26.664063 1.941406 35.464844-8.179688l65.273437-75.046875c8.800782-10.121093 10.085938-24.761719 3.179688-36.261719zm0 0" fill="#8ed7e8"/><path d="m198.160156 105.628906 43.816406-103.164062c-5.878906-2.496094-12.527343-3.179688-19.0625-1.671875l-96.914062 22.351562c-6.816406 1.574219-12.699219 5.339844-16.9375 10.476563zm0 0" fill="#8ed7e8"/><path d="m206.476562 55.308594-41.824218 9.644531c-8.632813 1.992187-15 9.3125-15.773438 18.136719l-3.75 42.757812c-.773437 8.820313 4.222656 17.140625 12.375 20.601563l39.503906 16.78125c8.152344 3.464843 17.609376 1.28125 23.421876-5.402344l28.164062-32.386719c5.8125-6.683594 6.660156-16.347656 2.101562-23.941406l-22.097656-36.796875c-4.5625-7.589844-13.492187-11.386719-22.121094-9.394531zm0 0" fill="#ccf8ff"/><path d="m250.695312 101.5-20.078124-33.429688-32.835938 14.28125c-21.9375 9.539063-40.121094 25.148438-52.722656 44.667969-.269532 8.394531 4.640625 16.117188 12.441406 19.433594l39.507812 16.777344c8.152344 3.464843 17.605469 1.285156 23.417969-5.398438l28.167969-32.386719c5.8125-6.683593 6.660156-16.351562 2.101562-23.945312zm0 0" fill="#abebf4"/><path d="m.046875 325.019531 11.882813-220.761719c1.082031-20.136718 22.351562-32.652343 40.484374-23.820312l198.742188 96.839844c21.117188 10.292968 22.28125 39.953125 2.03125 51.867187l-208.789062 122.84375c-20.25 11.914063-45.613282-3.511719-44.351563-26.96875zm0 0" fill="#8dc971"/><path d="m251.15625 177.277344-105.382812-51.347656c-6.882813 10.414062-12.171876 21.976562-15.574219 34.375l-23.582031 85.914062c-6.261719 22.8125-5.613282 46.449219 1.460937 68.300781l145.109375-85.375c20.25-11.910156 19.085938-41.574219-2.03125-51.867187zm0 0" fill="#7fb762"/><path d="m25.773438 81.484375c-7.71875 4.542969-13.304688 12.707031-13.847657 22.773437l-11.878906 220.761719c-.664063 12.328125 6.027344 22.433594 15.460937 27.523438l85.789063-142.691407zm0 0" fill="#9ad880"/><path d="m25.773438 81.484375c7.722656-4.539063 17.578124-5.464844 26.640624-1.046875l198.742188 96.839844c11.097656 5.40625 16.6875 16.167968 16.550781 26.886718l-166.402343 5.683594zm0 0" fill="#b2e59c"/><path d="m267.707031 204.164062c.136719-10.71875-5.449219-21.480468-16.550781-26.886718l-105.382812-51.351563c-6.882813 10.417969-12.171876 21.980469-15.574219 34.378907l-13.453125 49.015624zm0 0" fill="#9ad880"/><path d="m74.042969 277.199219 99.371093-58.464844c9.695313-5.703125 9.136719-19.902344-.972656-24.828125l-88.71875-43.226562c-11.464844-5.589844-24.917968 2.324218-25.605468 15.0625l-5.300782 98.546874c-.605468 11.230469 11.535156 18.613282 21.226563 12.910157zm0 0" fill="#c8efb9"/><path d="m172.441406 193.90625-45.394531-22.121094-20.429687 74.433594c-1.230469 4.480469-2.1875 8.992188-2.890626 13.515625l69.6875-41c9.695313-5.703125 9.136719-19.902344-.972656-24.828125zm0 0" fill="#b2e59c"/><path d="m246.753906 403.074219c-15.121094-4.152344-28.503906-13.441407-37.675781-26.160157l-42.632813-59.117187c-12.148437-16.84375-15.964843-37.996094-10.464843-58.03125l23.578125-85.914063c5.5-20.035156 19.582031-36.273437 38.632812-44.558593l66.828125-29.066407c14.378907-6.253906 30.632813-7.414062 45.753907-3.265624 15.125 4.152343 28.503906 13.445312 37.679687 26.164062l42.628906 59.117188c12.148438 16.847656 15.964844 37.996093 10.464844 58.027343l-23.582031 85.914063c-5.496094 20.03125-19.574219 36.269531-38.621094 44.554687l-66.835938 29.070313c-14.382812 6.257812-30.628906 7.417968-45.753906 3.265625zm0 0" fill="#dfaeff"/><path d="m512 411.316406c-.527344-.230468-1.125-.40625-1.789062-.53125.59375.179688 1.1875.367188 1.789062.53125zm0 0" fill="#dfaeff"/><g fill="#cf92ff"><path d="m331.71875 97.90625c-15.125-4.148438-31.375-2.992188-45.753906 3.265625l-66.828125 29.066406c-7.074219 3.074219-13.460938 7.25-18.980469 12.308594l89.550781 108.414063zm0 0"/><path d="m157.339844 298.410156c2.160156 7.1875 5.527344 14.058594 10.050781 20.328125l42.632813 59.117188c8.808593 12.214843 21.671874 20.652343 36.054687 25.03125l43.628906-151.921875zm0 0"/><path d="m397.964844 326.183594 23.582031-85.910156c3.457031-12.597657 3.230469-25.636719-.433594-37.769532l-132.347656 47.515625 90.222656 107.789063c9-8.476563 15.605469-19.335938 18.976563-31.625zm0 0"/></g><path d="m304.730469 145.550781-66.832031 29.070313c-5.238282 2.277344-9.164063 6.804687-10.675782 12.3125l-23.578125 85.914062c-1.511719 5.507813-.449219 11.40625 2.890625 16.039063l42.628906 59.113281c5.375 7.449219 15.210938 10.148438 23.632813 6.488281l66.832031-29.070312c5.238282-2.28125 9.164063-6.808594 10.675782-12.316407l23.578124-85.910156c1.511719-5.511718.449219-11.40625-2.890624-16.039062l-42.628907-59.117188c-5.371093-7.449218-15.210937-10.148437-23.632812-6.484375zm0 0" fill="#eac2ff"/><path d="m330.292969 42.917969 4.054687 7.410156c4.042969 7.390625 10.121094 13.46875 17.511719 17.511719l7.410156 4.054687c7.582031 4.144531 7.582031 15.039063 0 19.1875l-7.410156 4.050781c-7.390625 4.042969-13.46875 10.121094-17.511719 17.511719l-4.054687 7.410157c-4.144531 7.585937-15.039063 7.585937-19.183594 0l-4.054687-7.410157c-4.042969-7.390625-10.121094-13.46875-17.511719-17.511719l-7.410157-4.050781c-7.582031-4.148437-7.582031-15.042969 0-19.1875l7.410157-4.054687c7.390625-4.042969 13.46875-10.121094 17.511719-17.511719l4.054687-7.410156c4.144531-7.585938 15.039063-7.585938 19.183594 0zm0 0" fill="#ffeb99"/><path d="m168.710938 189.207031 3.28125 6.007813c3.277343 5.988281 8.203124 10.910156 14.191406 14.1875l6.003906 3.285156c6.144531 3.359375 6.144531 12.183594 0 15.546875l-6.003906 3.28125c-5.988282 3.277344-10.914063 8.203125-14.191406 14.191406l-3.28125 6.003907c-3.363282 6.144531-12.1875 6.144531-15.546876 0l-3.285156-6.003907c-3.273437-5.988281-8.199218-10.914062-14.1875-14.191406l-6.003906-3.28125c-6.148438-3.363281-6.148438-12.1875 0-15.546875l6.003906-3.285156c5.988282-3.277344 10.914063-8.199219 14.1875-14.1875l3.285156-6.007813c3.359376-6.140625 12.183594-6.140625 15.546876 0zm0 0" fill="#ffeb99"/></svg>