<svg height="512pt" viewBox="0 0 512.00036 512" width="512pt" xmlns="http://www.w3.org/2000/svg"><path d="m193.773438 512c-7.898438 0-14.984376-5.523438-16.664063-13.558594-7.769531-37.195312 1.851563-99.582031 3.941406-109.511718 1.941407-9.207032 10.980469-15.101563 20.191407-13.160157 9.207031 1.941407 15.101562 10.980469 13.160156 20.191407-2.441406 11.582031-9.890625 66.980468-3.929688 95.511718 1.925782 9.210938-3.984375 18.242188-13.195312 20.164063-1.175782.246093-2.347656.363281-3.503906.363281zm0 0" fill="#efd176"/><path d="m297.109375 512c-1.15625 0-2.328125-.117188-3.503906-.363281-9.210938-1.925781-15.121094-10.953125-13.195313-20.164063 5.960938-28.539062-1.484375-83.929687-3.929687-95.511718-1.941407-9.207032 3.949219-18.246094 13.160156-20.191407 9.203125-1.941406 18.246094 3.949219 20.1875 13.160157 2.097656 9.929687 11.714844 72.304687 3.941406 109.511718-1.675781 8.035156-8.765625 13.558594-16.660156 13.558594zm0 0" fill="#efd176"/><path d="m405.820312 330.300781c-32.902343 0-54.800781-14.621093-75.605468-31.328125-7.339844-5.894531-8.515625-16.617187-2.621094-23.957031 5.890625-7.339844 16.617188-8.511719 23.957031-2.621094 25.769531 20.691407 46.355469 32.949219 95.652344 15.484375 8.875-3.144531 18.609375 1.5 21.753906 10.371094s-1.5 18.609375-10.371093 21.753906c-20.492188 7.257813-37.773438 10.296875-52.765626 10.296875zm0 0" fill="#efd176"/><path d="m95.4375 332.429688c-1.09375 0-2.183594-.027344-3.277344-.082032-25.589844-1.257812-49.523437-16.839844-71.132812-46.3125-5.566406-7.589844-3.925782-18.253906 3.664062-23.820312s18.253906-3.921875 23.820313 3.667968c15.242187 20.785157 30.492187 31.695313 45.324219 32.425782 17.386718.867187 33.238281-12.582032 43.480468-24 6.28125-7.007813 17.054688-7.59375 24.0625-1.3125 7.007813 6.285156 7.59375 17.058594 1.308594 24.0625-20.800781 23.199218-43.984375 35.371094-67.25 35.371094zm0 0" fill="#efd176"/><path d="m198.59375 68.65625c23.976562 23.976562 28.082031 61.304688 28.492188 80.460938.148437 6.960937-5.539063 12.652343-12.5 12.503906-19.160157-.410156-56.484376-4.519532-80.460938-28.496094s-28.085938-61.300781-28.492188-80.457031c-.152343-6.960938 5.539063-12.652344 12.5-12.503907 19.15625.410157 56.484376 4.519532 80.460938 28.492188zm0 0" fill="#8ee2cf"/><path d="m180.734375 122.769531c-1.917969 0-3.835937-.730469-5.300781-2.195312l-28.753906-28.757813c-2.929688-2.925781-2.929688-7.675781 0-10.605468 2.925781-2.929688 7.675781-2.929688 10.605468 0l28.753906 28.757812c2.929688 2.925781 2.929688 7.675781 0 10.605469-1.464843 1.464843-3.382812 2.195312-5.304687 2.195312zm0 0" fill="#6fce91"/><path d="m292.289062 68.65625c-23.976562 23.976562-28.085937 61.304688-28.492187 80.460938-.152344 6.960937 5.539063 12.652343 12.5 12.503906 19.15625-.410156 56.484375-4.519532 80.460937-28.496094 23.976563-23.976562 28.082032-61.300781 28.492188-80.457031.148438-6.960938-5.542969-12.652344-12.503906-12.503907-19.15625.410157-56.480469 4.519532-80.457032 28.492188zm0 0" fill="#8ee2cf"/><path d="m310.144531 122.769531c-1.917969 0-3.835937-.730469-5.300781-2.195312-2.929688-2.929688-2.929688-7.679688 0-10.605469l28.753906-28.757812c2.929688-2.929688 7.675782-2.929688 10.605469 0 2.929687 2.929687 2.929687 7.679687 0 10.605468l-28.753906 28.757813c-1.464844 1.464843-3.382813 2.195312-5.304688 2.195312zm0 0" fill="#6fce91"/><path d="m291.027344 80.8125c0 33.90625-23.488282 63.207031-36.746094 77.039062-4.816406 5.027344-12.867188 5.027344-17.679688 0-13.257812-13.832031-36.746093-43.132812-36.746093-77.039062s23.488281-63.207031 36.746093-77.042969c4.816407-5.027343 12.863282-5.027343 17.679688 0 13.257812 13.835938 36.746094 43.136719 36.746094 77.042969zm0 0" fill="#8ee2cf"/><path d="m245.441406 108.644531c-4.140625 0-7.5-3.355469-7.5-7.5v-40.664062c0-4.144531 3.359375-7.5 7.5-7.5s7.5 3.355469 7.5 7.5v40.664062c0 4.144531-3.359375 7.5-7.5 7.5zm0 0" fill="#6fce91"/><path d="m245.441406 130.140625c70.335938 0 120.617188 55.398437 127.355469 139.28125 7.011719 87.261719-25.8125 152.351563-127.355469 152.351563-101.542968 0-134.367187-65.089844-127.355468-152.351563 6.738281-83.882813 57.019531-139.28125 127.355468-139.28125zm0 0" fill="#f7ef87"/><path d="m203.394531 137.453125c-47.757812 17.628906-80.007812 65.980469-85.308593 131.96875-6.992188 87.019531 25.640624 151.980469 126.519531 152.34375-122.445313-74.914063-89.613281-210.078125-41.210938-284.3125zm0 0" fill="#efd176"/><path d="m206.027344 322.824219c0-13.214844-13.449219-23.925781-30.042969-23.925781-16.589844 0-30.042969 10.710937-30.042969 23.925781 0 13.210937 13.453125 23.921875 30.042969 23.921875 16.59375 0 30.042969-10.710938 30.042969-23.921875zm0 0" fill="#eda1ab"/><path d="m368.871094 322.824219c0-13.214844-13.453125-23.925781-30.042969-23.925781-16.59375 0-30.042969 10.710937-30.042969 23.925781 0 13.210937 13.449219 23.921875 30.042969 23.921875 16.589844 0 30.042969-10.710938 30.042969-23.921875zm0 0" fill="#eda1ab"/><path d="m181.007812 302.074219c-4.144531 0-7.5-3.359375-7.5-7.5v-12.894531c0-4.140626 3.355469-7.5 7.5-7.5 4.140626 0 7.5 3.359374 7.5 7.5v12.894531c0 4.140625-3.359374 7.5-7.5 7.5zm0 0" fill="#4e5660"/><path d="m281.628906 304.441406c0-14.96875-10.84375-27.105468-24.222656-27.105468s-24.222656 12.136718-24.222656 27.105468 10.84375 27.105469 24.222656 27.105469 24.222656-12.136719 24.222656-27.105469zm0 0" fill="#4e5660"/><path d="m333.804688 302.074219c-4.144532 0-7.5-3.359375-7.5-7.5v-12.894531c0-4.140626 3.355468-7.5 7.5-7.5 4.144531 0 7.5 3.359374 7.5 7.5v12.894531c0 4.140625-3.359376 7.5-7.5 7.5zm0 0" fill="#4e5660"/><g fill="#efd176"><path d="m257.808594 237.480469c-1.921875 0-3.839844-.734375-5.304688-2.199219l-7.0625-7.0625-7.0625 7.0625c-2.929687 2.929688-7.679687 2.929688-10.605468 0-2.929688-2.929688-2.929688-7.675781 0-10.605469l12.363281-12.367187c2.929687-2.925782 7.679687-2.925782 10.605469 0l12.367187 12.367187c2.929687 2.929688 2.929687 7.679688 0 10.605469-1.464844 1.464844-3.382813 2.199219-5.300781 2.199219zm0 0"/><path d="m328.503906 237.480469c-1.917968 0-3.839844-.734375-5.300781-2.199219l-7.0625-7.0625-7.066406 7.0625c-2.929688 2.929688-7.675781 2.929688-10.605469 0s-2.929688-7.675781 0-10.605469l12.367188-12.367187c2.929687-2.925782 7.679687-2.925782 10.605468 0l12.367188 12.367187c2.929687 2.929688 2.929687 7.675781 0 10.605469-1.464844 1.464844-3.382813 2.199219-5.304688 2.199219zm0 0"/><path d="m187.109375 237.480469c-1.921875 0-3.839844-.734375-5.304687-2.199219l-7.0625-7.0625-7.0625 7.0625c-2.925782 2.929688-7.675782 2.929688-10.605469 0-2.929688-2.929688-2.929688-7.675781 0-10.605469l12.367187-12.367187c1.40625-1.40625 3.3125-2.195313 5.300782-2.195313 1.988281 0 3.898437.789063 5.304687 2.195313l12.363281 12.367187c2.929688 2.929688 2.929688 7.675781 0 10.605469-1.460937 1.464844-3.382812 2.199219-5.300781 2.199219zm0 0"/><path d="m293.15625 382.414062c-1.921875 0-3.839844-.734374-5.304688-2.199218l-7.0625-7.0625-7.0625 7.0625c-2.929687 2.929687-7.675781 2.929687-10.609374 0-2.925782-2.929688-2.925782-7.675782.003906-10.605469l12.363281-12.367187c1.40625-1.40625 3.316406-2.195313 5.304687-2.195313 1.988282 0 3.894532.789063 5.304688 2.195313l12.363281 12.367187c2.929688 2.929687 2.929688 7.679687 0 10.605469-1.464843 1.464844-3.382812 2.199218-5.300781 2.199218zm0 0"/><path d="m222.457031 382.414062c-1.917969 0-3.839843-.734374-5.300781-2.199218l-7.0625-7.0625-7.066406 7.0625c-2.925782 2.929687-7.675782 2.929687-10.605469 0-2.929687-2.929688-2.929687-7.675782 0-10.605469l12.367187-12.367187c2.929688-2.929688 7.679688-2.929688 10.605469 0l12.367188 12.367187c2.929687 2.929687 2.929687 7.679687 0 10.605469-1.464844 1.464844-3.382813 2.199218-5.304688 2.199218zm0 0"/></g><path d="m478.878906 243.832031h-54.570312c-7.691406 0-13.921875 6.230469-13.921875 13.917969s6.234375 13.917969 13.921875 13.917969h54.570312c7.6875 0 13.917969-6.230469 13.917969-13.917969s-6.230469-13.917969-13.917969-13.917969zm0 0" fill="#6a96d7"/><path d="m471.574219 315.398438v-43.726563h-39.964844v43.726563c0 9.101562-2.542969 18.023437-7.339844 25.753906l-24.316406 39.207031c-6.324219 10.195313 1.007813 23.371094 13.003906 23.371094h77.269531c12 0 19.332032-13.175781 13.007813-23.371094l-24.320313-39.207031c-4.796874-7.730469-7.339843-16.652344-7.339843-25.753906zm0 0" fill="#8eafe2"/><path d="m68.488281 204.605469h-54.566406c-7.691406 0-13.921875 6.230469-13.921875 13.917969 0 7.691406 6.230469 13.921874 13.917969 13.921874h54.570312c7.6875 0 13.917969-6.234374 13.917969-13.921874.003906-7.6875-6.230469-13.917969-13.917969-13.917969zm0 0" fill="#6a96d7"/><path d="m412.957031 403.730469h77.269531c2.757813 0 5.265626-.703125 7.421876-1.898438-28.363282-9.46875-59.363282-47.34375-66.300782-81.671875-.726562 7.425782-3.121094 14.617188-7.078125 20.992188l-24.320312 39.207031c-6.320313 10.195313 1.011719 23.371094 13.007812 23.371094zm0 0" fill="#6a96d7"/><path d="m478.914062 341.152344c-.726562-1.171875-1.386718-2.382813-2.007812-3.605469-15.132812 2.832031-32.953125-2.007813-48.71875-4.269531-1.070312 2.726562-2.363281 5.367187-3.917969 7.875l-24.320312 39.207031c-6.320313 10.195313 1.011719 23.371094 13.007812 23.371094h77.269531c11.996094 0 19.328126-13.175781 13.003907-23.371094zm0 0" fill="#f7ef87"/><path d="m489.675781 145.453125c-3.433593-.453125-6.753906-.21875-9.847656.578125-2.414063.617188-4.929687-.476562-6.222656-2.601562-4.523438-7.417969-12.6875-12.375-22.011719-12.375-9.328125 0-17.488281 4.957031-22.015625 12.375-1.292969 2.125-3.808594 3.21875-6.222656 2.601562-3.097657-.796875-6.417969-1.03125-9.855469-.578125-11.652344 1.527344-20.917969 11.019531-22.164062 22.710937-1.65625 15.503907 10.453124 28.605469 25.617187 28.605469 2.167969 0 4.269531-.269531 6.28125-.773437 2.15625-.542969 4.425781.277344 5.621094 2.15625l15.386719 24.109375c.867187 1.359375 2.894531 1.226562 3.578124-.234375l1.917969-4.09375c.734375-1.574219 2.972657-1.574219 3.707031 0l1.917969 4.09375c.683594 1.460937 2.710938 1.59375 3.578125.234375l15.386719-24.109375c1.195313-1.878906 3.464844-2.699219 5.621094-2.15625 2.011719.503906 4.113281.773437 6.28125.773437 15.167969 0 27.277343-13.105469 25.617187-28.613281-1.25-11.6875-10.515625-21.179688-22.171875-22.703125zm0 0" fill="#efd176"/><path d="m412.957031 403.730469h77.269531c2.757813 0 5.265626-.703125 7.421876-1.898438-24.457032-8.164062-50.875-37.453125-62.132813-67.375-2.480469-.429687-4.925781-.832031-7.328125-1.179687-1.070312 2.726562-2.363281 5.367187-3.917969 7.875l-24.320312 39.207031c-6.320313 10.195313 1.011719 23.371094 13.007812 23.371094zm0 0" fill="#efd176"/><path d="m41.203125 338.734375c-13.175781 0-23.859375-10.683594-23.859375-23.859375v-82.429688h47.722656v82.429688c0 13.175781-10.683594 23.859375-23.863281 23.859375zm0 0" fill="#8eafe2"/><path d="m41.203125 338.734375c12.320313 0 22.457031-9.339844 23.722656-21.320313-25.964843-8.84375-30.460937-46.359374-31.523437-84.96875h-16.058594v82.429688c0 13.175781 10.683594 23.859375 23.859375 23.859375zm0 0" fill="#6a96d7"/><path d="m41.203125 338.734375c13.179687 0 23.863281-10.683594 23.863281-23.859375v-50.628906c-17.78125 4.316406-35.800781-3.820313-47.722656-2.527344v53.15625c0 13.175781 10.683594 23.859375 23.859375 23.859375zm0 0" fill="#8ee2cf"/><path d="m41.203125 338.734375c12.320313 0 22.457031-9.339844 23.722656-21.320313-18.816406-6.410156-26.359375-27.875-29.488281-53.902343-6.8125-1.183594-13.011719-2.34375-18.09375-1.792969v53.15625c0 13.175781 10.683594 23.859375 23.859375 23.859375zm0 0" fill="#6fce91"/></svg>