<svg height="512pt" viewBox="0 0 512 512.00072" width="512pt" xmlns="http://www.w3.org/2000/svg"><path d="m331.929688 512c-2.355469 0-4.75-.488281-7.035157-1.527344-8.582031-3.890625-12.382812-14-8.492187-22.582031 14.519531-32.023437 3.207031-68.773437-2.230469-86.4375-1.273437-4.136719-2.277344-7.402344-2.863281-10.179687-1.945313-9.222657 3.953125-18.269532 13.175781-20.210938 9.226563-1.949219 18.269531 3.953125 20.210937 13.171875.265626 1.261719 1.191407 4.269531 2.089844 7.183594 6.671875 21.671875 20.550782 66.765625.691406 110.5625-2.851562 6.296875-9.054687 10.019531-15.546874 10.019531zm0 0" fill="#efd176"/><path d="m172.496094 483.378906c-5.476563 0-11.191406-.507812-17.140625-1.527344-9.285157-1.59375-15.523438-10.414062-13.933594-19.699218 1.59375-9.285156 10.417969-15.523438 19.699219-13.933594 13.933594 2.390625 24.566406.699219 32.503906-5.160156 15.871094-11.722656 19.347656-38.535156 21.015625-51.417969.390625-3.011719.699219-5.390625 1.125-7.40625 1.941406-9.21875 10.996094-15.117187 20.210937-13.171875 9.222657 1.941406 15.117188 10.992188 13.175782 20.210938-.148438.699218-.4375 2.945312-.671875 4.75-2.097657 16.195312-7.011719 54.121093-34.585938 74.480468-11.601562 8.566406-25.476562 12.875-41.398437 12.875zm0 0" fill="#efd176"/><path d="m75.796875 416.148438c-8.070313 0-15.246094-5.75-16.757813-13.972657-1.707031-9.265625 4.417969-18.160156 13.683594-19.871093 41.199219-7.59375 53.601563-33.191407 66.730469-60.289063 6.171875-12.738281 12.003906-24.773437 20.800781-34.808594 6.214844-7.085937 16.992188-7.789062 24.078125-1.582031 7.085938 6.210938 7.792969 16.992188 1.582031 24.078125-5.757812 6.566406-10.613281 16.582031-15.75 27.191406-13.957031 28.796875-33.066406 68.238281-91.253906 78.96875-1.046875.191407-2.089844.285157-3.113281.285157zm0 0" fill="#efd176"/><path d="m406.621094 294.75c-18.832032 0-38.382813-4.953125-55.820313-14.523438-8.261719-4.53125-11.28125-14.902343-6.75-23.164062 4.535157-8.257812 14.902344-11.285156 23.164063-6.746094 7.050781 3.867188 32.097656 15.847656 58.464844 7.535156 17.246093-5.4375 31.167968-18.699218 41.386718-39.417968 4.167969-8.449219 14.398438-11.921875 22.847656-7.753906 8.453126 4.167968 11.925782 14.394531 7.757813 22.847656-14.292969 28.976562-35.640625 48.640625-61.734375 56.867187-9.265625 2.921875-19.1875 4.355469-29.316406 4.355469zm0 0" fill="#efd176"/><path d="m183.261719 76.027344c27.808593 19.472656 38.351562 55.558594 42.082031 74.375 1.359375 6.839844-3.261719 13.4375-10.152344 14.503906-18.957031 2.925781-56.476562 5.363281-84.285156-14.105469-27.808594-19.472656-38.347656-55.5625-42.082031-74.378906-1.355469-6.835937 3.265625-13.4375 10.15625-14.5 18.957031-2.925781 56.476562-5.363281 84.28125 14.105469zm0 0" fill="#8ee2cf"/><path d="m173.753906 132.589844c-1.484375 0-2.984375-.4375-4.296875-1.355469l-33.347656-23.351563c-3.394531-2.378906-4.21875-7.054687-1.84375-10.445312 2.375-3.394531 7.054687-4.21875 10.445313-1.84375l33.351562 23.351562c3.394531 2.378907 4.21875 7.054688 1.839844 10.445313-1.457032 2.085937-3.785156 3.199219-6.148438 3.199219zm0 0" fill="#6fce91"/><path d="m275.644531 59.738281c-19.472656 27.808594-17.03125 65.324219-14.105469 84.285157 1.0625 6.886718 7.664063 11.511718 14.5 10.152343 18.820313-3.734375 54.90625-14.273437 74.378907-42.082031 19.46875-27.808594 17.03125-65.324219 14.105469-84.28125-1.0625-6.890625-7.664063-11.511719-14.503907-10.15625-18.816406 3.734375-54.902343 14.273438-74.375 42.082031zm0 0" fill="#8ee2cf"/><path d="m301.347656 110.089844c-1.484375 0-2.984375-.4375-4.296875-1.355469-3.390625-2.375-4.214843-7.050781-1.839843-10.445313l23.351562-33.347656c2.375-3.394531 7.050781-4.21875 10.445312-1.84375 3.394532 2.375 4.21875 7.050782 1.839844 10.445313l-23.351562 33.351562c-1.457032 2.082031-3.785156 3.195313-6.148438 3.195313zm0 0" fill="#6fce91"/><path d="m276.511719 71.941406c5.898437 33.429688-12.167969 66.402344-22.835938 82.347656-3.875 5.792969-11.808593 7.191407-17.433593 3.074219-15.476563-11.335937-43.726563-36.140625-49.621094-69.574219-5.894532-33.429687 12.171875-66.402343 22.835937-82.347656 3.875-5.792968 11.808594-7.191406 17.433594-3.074218 15.476563 11.339843 43.726563 36.140624 49.621094 69.574218zm0 0" fill="#8ee2cf"/><path d="m235.09375 107.414062c-3.570312 0-6.734375-2.558593-7.378906-6.199218l-7.066406-40.09375c-.722657-4.078125 2.003906-7.96875 6.082031-8.6875s7.96875 2.003906 8.6875 6.085937l7.070312 40.09375c.71875 4.078125-2.003906 7.96875-6.082031 8.6875-.441406.078125-.878906.113281-1.3125.113281zm0 0" fill="#6fce91"/><path d="m240.140625 128.503906c69.351563-12.226562 128.554687 33.648438 149.785156 115.1875 22.082031 84.816406 1.035157 154.699219-99.082031 172.351563-100.117188 17.652343-143.796875-40.816407-152.054688-128.070313-7.9375-83.882812 32.003907-147.238281 101.351563-159.46875zm0 0" fill="#f7ef87"/><g fill="#efd176"><path d="m199.957031 143.023438c-44.023437 25.683593-67.414062 78.960937-61.167969 144.949218 8.234376 87.011719 51.699219 145.390625 151.226563 128.207032-133.75-52.574219-124.875-191.550782-90.058594-273.15625zm0 0"/><path d="m245.300781 236.589844c-1.484375 0-2.984375-.441406-4.296875-1.355469-3.390625-2.378906-4.214844-7.054687-1.839844-10.449219l10.042969-14.339844c2.375-3.394531 7.050781-4.21875 10.445313-1.839843l14.339844 10.039062c3.394531 2.378907 4.21875 7.054688 1.84375 10.445313-2.375 3.394531-7.050782 4.21875-10.445313 1.84375l-8.199219-5.742188-5.738281 8.199219c-1.460937 2.085937-3.789063 3.199219-6.152344 3.199219zm0 0"/><path d="m315.007812 224.296875c-1.484374 0-2.984374-.4375-4.296874-1.355469-3.390626-2.375-4.21875-7.050781-1.839844-10.445312l10.039062-14.339844c1.140625-1.628906 2.882813-2.742188 4.84375-3.085938 1.960938-.34375 3.972656.101563 5.601563 1.242188l14.34375 10.042969c3.394531 2.375 4.21875 7.050781 1.839843 10.445312-2.375 3.390625-7.046874 4.21875-10.445312 1.84375l-8.195312-5.742187-5.742188 8.199218c-1.457031 2.082032-3.785156 3.195313-6.148438 3.195313zm0 0"/><path d="m175.59375 248.878906c-1.484375 0-2.984375-.4375-4.292969-1.355468-3.394531-2.375-4.21875-7.050782-1.84375-10.445313l10.042969-14.339844c2.378906-3.394531 7.050781-4.21875 10.445312-1.84375l14.34375 10.042969c3.390626 2.375 4.21875 7.050781 1.839844 10.445312-2.375 3.390626-7.050781 4.21875-10.445312 1.839844l-8.195313-5.738281-5.742187 8.195313c-1.460938 2.085937-3.785156 3.199218-6.152344 3.199218zm0 0"/><path d="m305.351562 373.34375c-1.484374 0-2.984374-.441406-4.296874-1.355469-3.394532-2.378906-4.21875-7.054687-1.839844-10.449219l10.042968-14.339843c2.375-3.390625 7.050782-4.21875 10.445313-1.839844l14.339844 10.039063c3.390625 2.375 4.21875 7.054687 1.84375 10.445312-2.378907 3.394531-7.050781 4.222656-10.445313 1.84375l-8.199218-5.742188-5.742188 8.199219c-1.457031 2.085938-3.785156 3.199219-6.148438 3.199219zm0 0"/><path d="m235.644531 385.632812c-1.484375 0-2.984375-.4375-4.292969-1.355468-3.394531-2.375-4.21875-7.050782-1.84375-10.445313l10.042969-14.339843c2.375-3.394532 7.050781-4.21875 10.445313-1.84375l14.34375 10.042968c3.390625 2.375 4.214844 7.050782 1.839844 10.445313s-7.050782 4.21875-10.445313 1.84375l-8.199219-5.742188-5.738281 8.199219c-1.460937 2.082031-3.789063 3.195312-6.152344 3.195312zm0 0"/></g><path d="m222.277344 325.464844c-2.3125-13.113282-17.535156-21.394532-34.003906-18.488282-16.464844 2.902344-27.941407 15.886719-25.628907 29 2.3125 13.113282 17.535157 21.390626 34 18.488282 16.46875-2.902344 27.941407-15.886719 25.632813-29zm0 0" fill="#eda1ab"/><path d="m324.292969 307.457031c2.3125 13.113281 17.535156 21.390625 34.003906 18.488281 16.464844-2.902343 27.941406-15.886718 25.628906-29-2.3125-13.113281-17.535156-21.390624-34-18.488281-16.46875 2.902344-27.941406 15.886719-25.632812 29zm0 0" fill="#eda1ab"/><path d="m208.117188 320.359375c-1.953126 1.546875-4.539063 2.003906-6.90625 1.214844-13.421876-4.460938-30.632813-16.386719-32.757813-28.441407-1.601563-9.082031 4.460937-17.738281 13.542969-19.339843 5.863281-1.035157 11.546875 1.128906 15.273437 5.234375 2.097657-5.128906 6.695313-9.109375 12.558594-10.140625 9.082031-1.601563 17.742187 4.460937 19.34375 13.542969 2.125 12.050781-9.972656 29.144531-21.054687 37.929687zm0 0" fill="#e26e7e"/><path d="m335.859375 297.832031c2.363281.789063 4.949219.332031 6.902344-1.214843 11.085937-8.785157 23.179687-25.878907 21.054687-37.929688-1.601562-9.082031-10.261718-15.144531-19.339844-13.542969-5.863281 1.035157-10.464843 5.011719-12.5625 10.144531-3.722656-4.105468-9.410156-6.269531-15.273437-5.238281-9.078125 1.601563-15.140625 10.261719-13.542969 19.34375 2.125 12.050781 19.339844 23.976563 32.761719 28.4375zm0 0" fill="#e26e7e"/><path d="m295.890625 295.390625c-2.855469-16.179687-14.605469-16.007813-28.707031-13.519531-14.097656 2.484375-25.199219 6.34375-22.347656 22.523437 2.855468 16.179688 16.59375 27.28125 30.695312 24.792969 14.09375-2.484375 23.210938-17.617188 20.359375-33.796875zm0 0" fill="#4e5660"/><path d="m422.429688 447.453125c1.203124 4.035156 4.34375 7.171875 8.378906 8.375 22.90625 6.835937 58.300781 7.007813 72.925781-7.617187 11.019531-11.019532 11.019531-28.886719 0-39.910157-7.113281-7.113281-17.082031-9.628906-26.21875-7.554687 2.070313-9.136719-.441406-19.105469-7.558594-26.222656-11.019531-11.019532-28.886719-11.019532-39.90625 0-14.628906 14.628906-14.453125 50.019531-7.621093 72.929687zm0 0" fill="#e26e7e"/><path d="m489.214844 456.589844c-41.257813-10.511719-43.742188-65.3125-35.21875-90.015625-8.488282-1.207031-17.417969 1.421875-23.945313 7.953125-14.628906 14.625-14.453125 50.015625-7.621093 72.925781 1.203124 4.035156 4.34375 7.171875 8.378906 8.378906 17.121094 5.105469 41.21875 6.488281 58.40625.757813zm0 0" fill="#d9495d"/><path d="m89.9375 283.921875c-1.210938 4.054687-4.359375 7.203125-8.414062 8.410156-23 6.863281-58.539063 7.039063-73.222657-7.648437-11.066406-11.066406-11.066406-29.007813 0-40.070313 7.144531-7.144531 17.152344-9.667969 26.328125-7.589843-2.082031-9.171876.441406-19.183594 7.585938-26.328126 11.066406-11.0625 29.007812-11.0625 40.070312 0 14.6875 14.6875 14.511719 50.226563 7.652344 73.226563zm0 0" fill="#e26e7e"/><path d="m81.523438 292.335938c2.179687-.652344 4.085937-1.878907 5.582031-3.488282-34.878907-13.515625-46.664063-49.8125-44.265625-78.714844-.203125.191407-.421875.363282-.625.5625-7.140625 7.144532-9.667969 17.15625-7.585938 26.328126-9.175781-2.078126-19.183594.445312-26.328125 7.589843-11.066406 11.0625-11.066406 29.003907 0 40.070313 14.683594 14.6875 50.222657 14.511718 73.222657 7.652344zm0 0" fill="#d9495d"/></svg>