<svg height="512pt" viewBox="-33 0 512 512.00081" width="512pt" xmlns="http://www.w3.org/2000/svg"><path d="m347.785156 329.257812c-20.117187 0-41.003906-5.292968-59.636718-15.515624-8.824219-4.84375-12.050782-15.925782-7.207032-24.75 4.84375-8.828126 15.925782-12.050782 24.746094-7.210938 7.53125 4.136719 34.296875 16.933594 62.464844 8.054688 18.421875-5.808594 33.300781-19.976563 44.21875-42.113282 4.449218-9.03125 15.382812-12.738281 24.410156-8.289062 9.027344 4.453125 12.738281 15.382812 8.285156 24.414062-15.269531 30.957032-38.074218 51.96875-65.953125 60.757813-9.902343 3.121093-20.503906 4.652343-31.328125 4.652343zm0 0" fill="#efd176"/><path d="m101.152344 81.230469c29.710937 20.800781 40.96875 59.359375 44.960937 79.460937 1.449219 7.304688-3.488281 14.359375-10.851562 15.496094-20.253907 3.125-60.339844 5.730469-90.046875-15.070312-29.710938-20.804688-40.972656-59.363282-44.960938-79.464844-1.449218-7.304688 3.488282-14.359375 10.847656-15.496094 20.257813-3.125 60.339844-5.730469 90.050782 15.074219zm0 0" fill="#8ee2cf"/><path d="m90.992188 141.148438c-1.484376 0-2.984376-.441407-4.292969-1.359376l-35.632813-24.949218c-3.394531-2.375-4.21875-7.050782-1.84375-10.445313s7.050782-4.214843 10.445313-1.839843l35.632812 24.949218c3.394531 2.375 4.21875 7.054688 1.839844 10.445313-1.457031 2.082031-3.785156 3.199219-6.148437 3.199219zm0 0" fill="#6fce91"/><path d="m199.851562 63.824219c-20.804687 29.710937-18.199218 69.792969-15.070312 90.050781 1.136719 7.359375 8.1875 12.296875 15.492188 10.847656 20.105468-3.988281 58.660156-15.25 79.464843-44.960937 20.804688-29.707031 18.199219-69.792969 15.070313-90.046875-1.136719-7.363282-8.1875-12.300782-15.492188-10.851563-20.105468 3.992188-58.660156 15.25-79.464844 44.960938zm0 0" fill="#8ee2cf"/><path d="m227.3125 117.109375c-1.484375 0-2.984375-.441406-4.292969-1.355469-3.394531-2.378906-4.21875-7.054687-1.84375-10.445312l24.953125-35.632813c2.375-3.394531 7.050782-4.21875 10.445313-1.839843 3.390625 2.375 4.214843 7.050781 1.839843 10.445312l-24.949218 35.628906c-1.460938 2.085938-3.785156 3.199219-6.152344 3.199219zm0 0" fill="#6fce91"/><path d="m200.78125 76.863281c6.296875 35.714844-13.003906 70.945313-24.398438 87.980469-4.140624 6.191406-12.621093 7.683594-18.628906 3.28125-16.53125-12.109375-46.71875-38.609375-53.015625-74.328125-6.300781-35.71875 13.003907-70.945313 24.398438-87.980469 4.136719-6.191406 12.617187-7.6875 18.625-3.285156 16.535156 12.113281 46.71875 38.613281 53.019531 74.332031zm0 0" fill="#8ee2cf"/><path d="m156.527344 114.25c-3.570313 0-6.734375-2.5625-7.378906-6.199219l-7.550782-42.835937c-.71875-4.082032 2.003906-7.972656 6.082032-8.6875 4.085937-.726563 7.96875 2.003906 8.691406 6.082031l7.550781 42.835937c.71875 4.082032-2.003906 7.96875-6.082031 8.6875-.441406.078126-.878906.117188-1.3125.117188zm0 0" fill="#6fce91"/><path d="m161.921875 137.292969c74.09375-13.0625 137.347656 35.949219 160.03125 123.066406 23.589844 90.617187 1.105469 165.28125-105.863281 184.140625-106.964844 18.863281-153.632813-43.605469-162.457032-136.828125-8.480468-89.621094 34.195313-157.3125 108.289063-170.378906zm0 0" fill="#f7ef87"/><g fill="#efd176"><path d="m118.988281 152.804688c-47.035156 27.445312-72.027343 84.367187-65.355469 154.867187 8.800782 92.964844 55.238282 155.335937 161.574219 136.976563-142.898437-56.171876-133.417969-204.652344-96.21875-291.84375zm0 0"/><path d="m168.734375 259.636719c-1.484375 0-2.984375-.4375-4.296875-1.355469-3.390625-2.375-4.214844-7.054688-1.839844-10.445312l10.730469-15.324219c1.140625-1.628907 2.882813-2.738281 4.839844-3.082031 1.957031-.347657 3.976562.101562 5.605469 1.242187l15.320312 10.726563c3.394531 2.378906 4.21875 7.054687 1.84375 10.445312-2.375 3.394531-7.054688 4.21875-10.445312 1.84375l-9.179688-6.429688-6.425781 9.179688c-1.460938 2.085938-3.789063 3.199219-6.152344 3.199219zm0 0"/><path d="m243.207031 246.503906c-1.484375 0-2.984375-.4375-4.292969-1.355468-3.394531-2.375-4.21875-7.050782-1.84375-10.445313l10.730469-15.324219c2.375-3.394531 7.050781-4.214844 10.445313-1.839844l15.320312 10.730469c3.394532 2.375 4.21875 7.050781 1.84375 10.445313-2.375 3.394531-7.054687 4.21875-10.445312 1.839844l-9.179688-6.425782-6.429687 9.179688c-1.457031 2.082031-3.785157 3.195312-6.148438 3.195312zm0 0"/><path d="m94.261719 272.769531c-1.488281 0-2.988281-.441406-4.296875-1.359375-3.394532-2.375-4.21875-7.050781-1.84375-10.441406l10.730468-15.324219c1.140626-1.628906 2.882813-2.738281 4.839844-3.085937 1.957032-.34375 3.976563.101562 5.605469 1.242187l15.324219 10.730469c3.390625 2.375 4.214844 7.054688 1.839844 10.445312-2.375 3.394532-7.054688 4.21875-10.445313 1.84375l-9.179687-6.429687-6.425782 9.179687c-1.457031 2.082032-3.785156 3.199219-6.148437 3.199219zm0 0"/><path d="m231.589844 398.371094c-1.484375 0-2.984375-.441406-4.292969-1.359375-3.394531-2.375-4.21875-7.050781-1.84375-10.445313l10.730469-15.320312c1.140625-1.628906 2.882812-2.742188 4.839844-3.085938 1.957031-.34375 3.976562.101563 5.605468 1.242188l15.324219 10.730468c3.390625 2.375 4.214844 7.050782 1.839844 10.445313s-7.050781 4.214844-10.445313 1.839844l-9.179687-6.425781-6.425781 9.179687c-1.460938 2.082031-3.785157 3.199219-6.152344 3.199219zm0 0"/><path d="m157.117188 411.5c-1.484376 0-2.984376-.4375-4.292969-1.355469-3.394531-2.375-4.21875-7.054687-1.84375-10.445312l10.730469-15.324219c2.375-3.394531 7.050781-4.21875 10.445312-1.839844l15.320312 10.730469c3.394532 2.375 4.21875 7.050781 1.84375 10.441406-2.375 3.394531-7.054687 4.21875-10.445312 1.84375l-9.179688-6.425781-6.429687 9.179688c-1.457031 2.082031-3.785156 3.195312-6.148437 3.195312zm0 0"/></g><path d="m139.53125 328.988281c-2.46875-14.011719-18.734375-22.855469-36.328125-19.753906s-29.851563 16.972656-27.382813 30.984375 18.734376 22.855469 36.328126 19.753906c17.59375-3.101562 29.851562-16.972656 27.382812-30.984375zm0 0" fill="#eda1ab"/><path d="m248.523438 309.757812c2.472656 14.007813 18.734374 22.851563 36.328124 19.75 17.59375-3.101562 29.855469-16.972656 27.382813-30.980468-2.46875-14.011719-18.734375-22.855469-36.324219-19.753906-17.59375 3.101562-29.855468 16.972656-27.386718 30.984374zm0 0" fill="#eda1ab"/><path d="m121.789062 313.519531c-3.574218 0-6.738281-2.558593-7.378906-6.199219l-1.984375-11.25c-.71875-4.078124 2.003907-7.96875 6.082031-8.6875 4.085938-.722656 7.96875 2.003907 8.691407 6.082032l1.984375 11.25c.71875 4.078125-2.003906 7.972656-6.085938 8.691406-.4375.078125-.878906.113281-1.308594.113281zm0 0" fill="#4e5660"/><path d="m257.328125 289.621094c-3.574219 0-6.738281-2.558594-7.378906-6.199219l-1.984375-11.25c-.71875-4.078125 2.003906-7.96875 6.085937-8.6875 4.082031-.722656 7.96875 2.003906 8.6875 6.082031l1.984375 11.25c.71875 4.082032-2.007812 7.96875-6.085937 8.6875-.4375.078125-.878907.117188-1.308594.117188zm0 0" fill="#4e5660"/><path d="m186.917969 310.574219c-7.164063 0-14.179688-2.445313-19.84375-7.023438-3.222657-2.601562-3.726563-7.324219-1.121094-10.546875 2.601563-3.222656 7.324219-3.722656 10.546875-1.121094 3.730469 3.015626 8.574219 4.269532 13.285156 3.4375 4.714844-.828124 8.835938-3.664062 11.3125-7.773437 2.136719-3.546875 6.746094-4.691406 10.292969-2.554687 3.546875 2.140624 4.691406 6.75 2.554687 10.296874-4.71875 7.824219-12.574218 13.222657-21.554687 14.804688-1.820313.320312-3.652344.480469-5.472656.480469zm0 0" fill="#4e5660"/><path d="m110.257812 187.328125-29.039062 5.117187c-12.199219 2.152344-19.308594 15.003907-14.644531 26.484376l2.929687 7.214843c4.925782 12.132813 17.65625 19.171875 30.546875 16.898438l9.820313-1.730469c12.890625-2.273438 22.445312-13.242188 22.925781-26.328125l.285156-7.78125c.453125-12.382813-10.621093-22.027344-22.824219-19.875zm0 0" fill="#4e5660"/><path d="m125.648438 198.773438c-3.175782 0-6.121094-2.03125-7.140626-5.214844-1.265624-3.945313.910157-8.167969 4.851563-9.429688 10.710937-3.429687 25.484375-7.808594 44.839844-11.21875 19.351562-3.414062 34.734375-4.355468 45.972656-4.796875 4.132813-.160156 7.625 3.066407 7.789063 7.203125.160156 4.136719-3.0625 7.625-7.203126 7.785156-10.761718.421876-25.488281 1.320313-43.953124 4.578126-18.46875 3.257812-32.609376 7.445312-42.867188 10.730468-.761719.246094-1.53125.363282-2.289062.363282zm0 0" fill="#e26e7e"/><path d="m95.308594 250.957031c-14.121094 0-27.3125-8.585937-32.753906-21.988281l-2.929688-7.21875c-3.078125-7.578125-2.574219-16.03125 1.386719-23.191406 3.960937-7.15625 10.851562-12.078125 18.90625-13.496094l29.039062-5.121094c8.058594-1.425781 16.21875.847656 22.386719 6.21875s9.535156 13.144532 9.234375 21.316406l-.285156 7.785157c-.609375 16.503906-12.855469 30.566406-29.121094 33.4375l-9.820313 1.730469c-2.019531.355468-4.042968.527343-6.042968.527343zm16.253906-56.246093-29.039062 5.121093c-3.574219.628907-6.632813 2.8125-8.386719 5.988281-1.757813 3.175782-1.980469 6.925782-.617188 10.285157l2.929688 7.21875c3.574219 8.792969 12.949219 13.972656 22.296875 12.332031l9.820312-1.730469c9.347656-1.648437 16.386719-9.730469 16.734375-19.214843l.285157-7.785157c.132812-3.625-1.359376-7.070312-4.097657-9.453125-2.734375-2.386718-6.355469-3.390625-9.925781-2.761718zm0 0" fill="#e26e7e"/><path d="m227.582031 166.640625 29.039063-5.121094c12.199218-2.152343 23.277344 7.496094 22.820312 19.875l-.285156 7.785157c-.480469 13.082031-10.035156 24.050781-22.925781 26.324218l-9.820313 1.730469c-12.890625 2.273437-25.621094-4.765625-30.546875-16.894531l-2.929687-7.21875c-4.664063-11.476563 2.449218-24.332032 14.648437-26.480469zm0 0" fill="#4e5660"/><path d="m241.667969 225.148438c-14.121094 0-27.3125-8.585938-32.753907-21.988282l-2.929687-7.21875c-3.078125-7.578125-2.574219-16.03125 1.386719-23.1875 3.957031-7.160156 10.851562-12.082031 18.90625-13.5l29.039062-5.121094c8.054688-1.421874 16.214844.847657 22.386719 6.21875 6.167969 5.375 9.535156 13.144532 9.234375 21.316407l-.289062 7.785156c-.605469 16.503906-12.851563 30.566406-29.117188 33.4375l-9.820312 1.730469c-2.015626.355468-4.039063.527344-6.042969.527344zm-12.785157-51.125c-3.574218.632812-6.628906 2.8125-8.386718 5.988281-1.753906 3.175781-1.980469 6.925781-.613282 10.285156l2.929688 7.21875c3.570312 8.792969 12.949219 13.976563 22.296875 12.332031l9.820313-1.730468c9.347656-1.648438 16.382812-9.730469 16.730468-19.214844l.289063-7.785156c.132812-3.625-1.363281-7.070313-4.097657-9.453126-2.738281-2.382812-6.355468-3.386718-9.929687-2.757812zm0 0" fill="#e26e7e"/><path d="m147.273438 441.917969c-1.566407 0-3.160157-.203125-4.75-.632813-57.296876-15.421875-72.675782-38.65625-94.109376-87.992187-4.011718-9.234375.21875-19.972657 9.453126-23.984375 9.230468-4.011719 19.96875.222656 23.980468 9.457031 17.707032 40.753906 26.074219 55.453125 70.152344 67.320313 9.722656 2.617187 15.480469 12.617187 12.863281 22.339843-2.1875 8.132813-9.550781 13.492188-17.589843 13.492188zm0 0" fill="#f7ef87"/><path d="m406.96875 512h-350.742188c-8.898437 0-16.109374-7.210938-16.109374-16.109375v-26.1875c0-8.894531 7.210937-16.109375 16.109374-16.109375h350.738282c8.898437 0 16.113281 7.214844 16.113281 16.109375v26.1875c0 8.898437-7.210937 16.109375-16.109375 16.109375zm0 0" fill="#e1b89a"/><path d="m56.226562 453.59375c-8.898437 0-16.109374 7.210938-16.109374 16.109375v26.1875c0 8.894531 7.210937 16.109375 16.109374 16.109375h159.777344c-17.289062-11.886719-23.550781-42.160156-13.445312-58.40625zm0 0" fill="#d2996f"/><path d="m337.539062 325.433594h-140.539062c-7.890625 0-14.285156 6.398437-14.285156 14.289062v85.882813h169.109375v-85.882813c0-7.894531-6.394531-14.289062-14.285157-14.289062zm0 0" fill="#c6c6c6"/><path d="m341.679688 453.59375h-158.964844v-27.988281h169.109375v17.839843c0 5.605469-4.539063 10.148438-10.144531 10.148438zm0 0" fill="#9aa3b1"/><path d="m124.742188 453.59375h57.972656v-27.988281h-57.972656c-5.605469 0-10.148438 4.542969-10.148438 10.148437v7.691406c0 5.605469 4.542969 10.148438 10.148438 10.148438zm0 0" fill="#c6c6c6"/><path d="m285.804688 375.519531c0 10.238281-8.296876 18.539063-18.535157 18.539063s-18.539062-8.300782-18.539062-18.539063 8.300781-18.535156 18.539062-18.535156 18.535157 8.296875 18.535157 18.535156zm0 0" fill="#fff"/></svg>