<svg height="512pt" viewBox="0 0 512 512" width="512pt" xmlns="http://www.w3.org/2000/svg"><path d="m203.371094 512c-7.898438 0-14.980469-5.523438-16.660156-13.558594-7.773438-37.195312 1.84375-99.582031 3.9375-109.511718 1.941406-9.210938 10.984374-15.101563 20.191406-13.160157 9.207031 1.941407 15.097656 10.980469 13.15625 20.1875-2.441406 11.582031-9.886719 66.984375-3.925782 95.511719 1.925782 9.214844-3.980468 18.242188-13.195312 20.167969-1.175781.246093-2.347656.363281-3.503906.363281zm0 0" fill="#efd176"/><path d="m306.707031 512c-1.15625 0-2.328125-.117188-3.503906-.363281-9.214844-1.925781-15.121094-10.953125-13.195313-20.167969 5.960938-28.527344-1.488281-83.929688-3.929687-95.511719-1.9375-9.207031 3.953125-18.246093 13.160156-20.1875 9.207031-1.9375 18.25 3.949219 20.191407 13.160157 2.09375 9.929687 11.710937 72.316406 3.9375 109.511718-1.679688 8.035156-8.765626 13.558594-16.660157 13.558594zm0 0" fill="#efd176"/><path d="m442.253906 353.398438c-46.582031 0-91.152344-30.085938-106.839844-59.75-4.398437-8.320313-1.222656-18.628907 7.097657-23.03125 8.320312-4.398438 18.628906-1.222657 23.03125 7.097656 5.6875 10.753906 21.148437 25.605468 42.863281 34.542968 12.941406 5.328126 38.304688 12.484376 62.761719.558594 8.457031-4.128906 18.660156-.613281 22.785156 7.847656 4.125 8.457032.609375 18.660157-7.847656 22.785157-14.25 6.953125-29.15625 9.949219-43.851563 9.949219zm0 0" fill="#efd176"/><path d="m99.015625 332.183594c-.941406 0-1.882813-.019532-2.828125-.046875-20.890625-.691407-51.464844-9.25-78.488281-46.101563-5.5625-7.589844-3.921875-18.253906 3.667969-23.820312 7.585937-5.5625 18.253906-3.925782 23.816406 3.664062 14.980468 20.429688 33.003906 31.5625 52.128906 32.191406 18.039062.5625 36.457031-8.132812 49.238281-23.347656 6.054688-7.207031 16.800781-8.144531 24.007813-2.089844 7.207031 6.054688 8.140625 16.804688 2.089844 24.007813-18.8125 22.394531-46.15625 35.542969-73.632813 35.542969zm0 0" fill="#efd176"/><path d="m208.191406 68.65625c23.976563 23.976562 28.082032 61.304688 28.492188 80.460938.148437 6.960937-5.539063 12.652343-12.5 12.503906-19.160156-.410156-56.484375-4.519532-80.460938-28.496094-23.976562-23.976562-28.082031-61.300781-28.492187-80.457031-.148438-6.960938 5.542969-12.652344 12.503906-12.503907 19.15625.410157 56.480469 4.519532 80.457031 28.492188zm0 0" fill="#8ee2cf"/><path d="m190.332031 122.769531c-1.917969 0-3.835937-.730469-5.300781-2.195312l-28.753906-28.753907c-2.929688-2.929687-2.929688-7.679687-.003906-10.605468 2.929687-2.929688 7.679687-2.929688 10.609374 0l28.753907 28.753906c2.929687 2.925781 2.929687 7.675781 0 10.605469-1.464844 1.460937-3.382813 2.195312-5.304688 2.195312zm0 0" fill="#6fce91"/><path d="m301.886719 68.65625c-23.976563 23.976562-28.082031 61.304688-28.492188 80.460938-.152343 6.960937 5.539063 12.652343 12.5 12.503906 19.160157-.410156 56.484375-4.519532 80.460938-28.496094 23.976562-23.976562 28.082031-61.300781 28.492187-80.457031.148438-6.960938-5.542968-12.652344-12.503906-12.503907-19.15625.410157-56.480469 4.519532-80.457031 28.492188zm0 0" fill="#8ee2cf"/><path d="m319.742188 122.769531c-1.917969 0-3.839844-.730469-5.304688-2.195312-2.925781-2.929688-2.925781-7.679688.003906-10.605469l28.753906-28.753906c2.925782-2.929688 7.675782-2.929688 10.605469 0 2.929688 2.929687 2.929688 7.675781 0 10.605468l-28.753906 28.753907c-1.464844 1.460937-3.386719 2.195312-5.304687 2.195312zm0 0" fill="#6fce91"/><path d="m300.625 80.8125c0 33.90625-23.488281 63.207031-36.746094 77.039062-4.816406 5.027344-12.863281 5.027344-17.679687 0-13.257813-13.832031-36.746094-43.132812-36.746094-77.039062s23.488281-63.207031 36.746094-77.042969c4.816406-5.027343 12.863281-5.027343 17.679687 0 13.257813 13.835938 36.746094 43.136719 36.746094 77.042969zm0 0" fill="#8ee2cf"/><path d="m255.039062 108.644531c-4.144531 0-7.5-3.355469-7.5-7.5v-40.664062c0-4.144531 3.355469-7.5 7.5-7.5 4.144532 0 7.5 3.355469 7.5 7.5v40.664062c0 4.140625-3.355468 7.5-7.5 7.5zm0 0" fill="#6fce91"/><path d="m255.039062 130.140625c70.335938 0 120.617188 55.394531 127.355469 139.28125 7.011719 87.261719-25.8125 152.351563-127.355469 152.351563-101.542968 0-134.367187-65.089844-127.355468-152.351563 6.738281-83.886719 57.019531-139.28125 127.355468-139.28125zm0 0" fill="#f7ef87"/><g fill="#efd176"><path d="m212.992188 137.453125c-47.757813 17.628906-80.007813 65.980469-85.308594 131.96875-6.992188 87.019531 25.636718 151.980469 126.515625 152.34375-122.441407-74.914063-89.609375-210.078125-41.207031-284.3125zm0 0"/><path d="m242.671875 237.476562c-1.917969 0-3.839844-.730468-5.304687-2.195312-2.925782-2.929688-2.925782-7.679688.003906-10.605469l12.363281-12.367187c2.929687-2.929688 7.679687-2.925782 10.609375 0l12.363281 12.367187c2.929688 2.929688 2.929688 7.675781 0 10.605469-2.929687 2.929688-7.675781 2.929688-10.605469 0l-7.0625-7.0625-7.0625 7.0625c-1.464843 1.464844-3.382812 2.195312-5.304687 2.195312zm0 0"/><path d="m313.371094 237.476562c-1.921875 0-3.839844-.730468-5.304688-2.195312-2.929687-2.929688-2.929687-7.679688 0-10.605469l12.367188-12.367187c2.925781-2.929688 7.675781-2.925782 10.605468 0l12.363282 12.367187c2.929687 2.929688 2.929687 7.675781 0 10.605469-2.929688 2.929688-7.675782 2.929688-10.605469 0l-7.0625-7.0625-7.0625 7.0625c-1.464844 1.464844-3.382813 2.195312-5.300781 2.195312zm0 0"/><path d="m171.976562 237.476562c-1.921874 0-3.839843-.730468-5.304687-2.195312-2.929687-2.929688-2.929687-7.679688 0-10.605469l12.367187-12.367187c2.929688-2.929688 7.679688-2.925782 10.605469 0l12.367188 12.367187c2.925781 2.929688 2.925781 7.675781 0 10.605469-2.933594 2.929688-7.679688 2.929688-10.609375 0l-7.0625-7.0625-7.0625 7.0625c-1.464844 1.464844-3.382813 2.195312-5.300782 2.195312zm0 0"/><path d="m302.753906 382.410156c-1.921875 0-3.839844-.730468-5.304687-2.195312l-7.0625-7.0625-7.0625 7.0625c-2.929688 2.925781-7.675781 2.925781-10.605469 0-2.929688-2.929688-2.929688-7.679688 0-10.609375l12.363281-12.363281c1.410157-1.40625 3.316407-2.195313 5.304688-2.195313 1.992187 0 3.898437.789063 5.304687 2.195313l12.367188 12.367187c2.925781 2.925781 2.925781 7.675781-.003906 10.605469-1.460938 1.464844-3.382813 2.195312-5.300782 2.195312zm0 0"/><path d="m232.054688 382.410156c-1.917969 0-3.835938-.730468-5.300782-2.195312l-7.0625-7.0625-7.0625 7.0625c-2.929687 2.925781-7.679687 2.925781-10.609375 0-2.925781-2.929688-2.925781-7.679688 0-10.609375l12.367188-12.363281c1.40625-1.40625 3.3125-2.195313 5.304687-2.195313 1.988282 0 3.898438.789063 5.304688 2.195313l12.363281 12.367187c2.929687 2.925781 2.929687 7.675781 0 10.605469-1.464844 1.464844-3.382813 2.195312-5.304687 2.195312zm0 0"/></g><path d="m203.320312 317.367188c0-13.300782-13.539062-24.082032-30.238281-24.082032-16.703125 0-30.242187 10.78125-30.242187 24.082032 0 13.300781 13.539062 24.082031 30.242187 24.082031 16.699219 0 30.238281-10.78125 30.238281-24.082031zm0 0" fill="#eda1ab"/><path d="m367.238281 317.367188c0-13.300782-13.539062-24.082032-30.242187-24.082032-16.699219 0-30.238282 10.78125-30.238282 24.082032 0 13.300781 13.539063 24.082031 30.238282 24.082031 16.703125 0 30.242187-10.78125 30.242187-24.082031zm0 0" fill="#eda1ab"/><path d="m190.703125 300.84375c-4.140625 0-7.5-3.355469-7.5-7.5v-10.679688c0-4.140624 3.359375-7.5 7.5-7.5 4.144531 0 7.5 3.359376 7.5 7.5v10.679688c0 4.144531-3.355469 7.5-7.5 7.5zm0 0" fill="#4e5660"/><path d="m319.371094 300.84375c-4.140625 0-7.5-3.355469-7.5-7.5v-10.679688c0-4.140624 3.359375-7.5 7.5-7.5 4.144531 0 7.5 3.359376 7.5 7.5v10.679688c0 4.144531-3.355469 7.5-7.5 7.5zm0 0" fill="#4e5660"/><path d="m190.703125 279.125c-5.4375 0-10.769531-1.476562-15.414063-4.265625-3.550781-2.132813-4.703124-6.738281-2.570312-10.289063 2.136719-3.554687 6.742188-4.703124 10.292969-2.570312 4.628906 2.78125 10.761719 2.78125 15.390625 0 3.546875-2.128906 8.15625-.980469 10.289062 2.570312 2.132813 3.550782.984375 8.15625-2.566406 10.289063-4.648438 2.789063-9.980469 4.265625-15.421875 4.265625zm0 0" fill="#4e5660"/><path d="m271.996094 309.046875c-.945313 0-1.90625-.179687-2.835938-.558594-9.710937-3.972656-24.441406-3.996093-30.847656-3.996093-.035156 0-.074219 0-.113281 0h-.121094c-4.144531 0-7.5-3.355469-7.5-7.5 0-4.140626 3.355469-7.5 7.5-7.5h.121094.132812c7.886719 0 24.078125.027343 36.507813 5.109374 3.832031 1.566407 5.671875 5.945313 4.101562 9.78125-1.1875 2.90625-3.988281 4.664063-6.945312 4.664063zm0 0" fill="#4e5660"/><path d="m461.910156 242.414062c-8.992187 0-16.285156-7.289062-16.285156-16.28125v-30.230468c0-11.851563 8.398438-22.242188 19.96875-24.703125 8.820312-1.878907 14.722656-10.132813 13.722656-19.195313-.878906-7.941406-7.539062-14.542968-15.5-15.359375-5.414062-.550781-10.492187 1.234375-14.289062 5.03125-6.359375 6.363281-16.671875 6.363281-23.03125.003907-6.359375-6.359376-6.363282-16.671876-.003906-23.03125 10.699218-10.703126 25.503906-15.960938 40.644531-14.40625 23.25 2.382812 41.988281 20.960937 44.550781 44.1875 2.621094 23.726562-11.511719 45.523437-33.492188 53.019531v24.679687c0 8.996094-7.289062 16.285156-16.285156 16.285156zm0 0" fill="#4e5660"/><path d="m461.910156 288.96875c-8.992187 0-16.285156-7.292969-16.285156-16.285156v-2.113282c0-8.992187 7.292969-16.285156 16.285156-16.285156 8.996094 0 16.285156 7.292969 16.285156 16.285156v2.113282c0 8.992187-7.289062 16.285156-16.285156 16.285156zm0 0" fill="#9aa3b1"/><path d="m50.070312 211.53125c-1.726562 0-3.464843-.085938-5.207031-.265625-23.25-2.378906-41.984375-20.960937-44.550781-44.183594-2.621094-23.730469 11.507812-45.523437 33.488281-53.019531v-24.679688c0-8.996093 7.292969-16.285156 16.285157-16.285156 8.996093 0 16.285156 7.289063 16.285156 16.285156v30.226563c0 11.855469-8.398438 22.242187-19.96875 24.703125-8.820313 1.878906-14.71875 10.132812-13.71875 19.195312.878906 7.941407 7.539062 14.542969 15.496094 15.359376 5.414062.554687 10.496093-1.234376 14.292968-5.035157 6.359375-6.359375 16.671875-6.359375 23.03125 0s6.359375 16.671875 0 23.03125c-9.46875 9.46875-22.15625 14.667969-35.433594 14.667969zm0 0" fill="#4e5660"/><path d="m50.085938 61.226562c-8.992188 0-16.285157-7.292968-16.285157-16.285156v-2.113281c0-8.992187 7.292969-16.28125 16.285157-16.28125 8.996093 0 16.285156 7.289063 16.285156 16.28125v2.113281c0 8.992188-7.289063 16.285156-16.285156 16.285156zm0 0" fill="#9aa3b1"/></svg>