<svg height="512pt" viewBox="0 -94 512.00133 512" width="512pt" xmlns="http://www.w3.org/2000/svg"><path d="m428.824219 292.3125h-387.234375v-216.738281c0-25.242188 20.464844-45.710938 45.710937-45.710938h295.816407c25.242187 0 45.707031 20.464844 45.707031 45.710938zm0 0" fill="#6a829a"/><path d="m238.15625 178.839844c27.832031 10.28125 66.816406 22.929687 109 31.265625 40.375 7.984375 66.035156 17.6875 81.667969 25.460937v-159.992187c0-25.242188-20.464844-45.710938-45.707031-45.710938h-187.292969v88.109375c0 27.144532 16.871093 51.460938 42.332031 60.867188zm0 0" fill="#516980"/><path d="m73.953125 270.402344v-194.828125c0-7.359375 5.988281-13.347657 13.347656-13.347657h295.816407c7.359374 0 13.34375 5.988282 13.34375 13.347657v194.828125zm0 0" fill="#00c5fd"/><path d="m383.117188 62.226562h-187.292969v55.746094c0 27.144532 16.871093 51.460938 42.335937 60.867188 27.832032 10.28125 66.8125 22.929687 109 31.269531 19.785156 3.910156 36.03125 8.234375 49.304688 12.542969v-147.078125c-.003906-7.359375-5.988282-13.347657-13.347656-13.347657zm0 0" fill="#00b4fd"/><path d="m2.078125 293.785156 6.839844 11.988282c6.195312 10.855468 17.734375 17.558593 30.234375 17.558593h392.109375c12.5 0 24.039062-6.703125 30.234375-17.558593l6.839844-11.988282c5.949218-10.421875-1.578126-23.382812-13.578126-23.382812h-439.101562c-12 0-19.523438 12.960937-13.578125 23.382812zm0 0" fill="#a7b6c5"/><path d="m56.941406 305.773438-6.839844-11.988282c-5.949218-10.421875 1.578126-23.382812 13.578126-23.382812h-48.023438c-12 0-19.523438 12.960937-13.578125 23.382812l6.839844 11.988282c6.195312 10.855468 17.734375 17.558593 30.234375 17.558593h48.023437c-12.5 0-24.039062-6.703125-30.234375-17.558593zm0 0" fill="#889cb0"/><path d="m181.867188 270.402344 9.015624 11.257812c5.390626 6.734375 13.546876 10.652344 22.171876 10.652344h44.304687c8.625 0 16.78125-3.917969 22.171875-10.652344l9.015625-11.257812zm0 0" fill="#6a829a"/><path d="m479.542969 0h-217.382813c-17.925781 0-32.460937 14.53125-32.460937 32.460938v70.136718c0 17.925782 14.53125 32.457032 32.460937 32.457032h73.15625c4.421875 0 7.636719 4.273437 6.328125 8.496093-1.070312 3.457031-2.410156 6.980469-4.097656 10.390625-3.773437 7.632813 3.84375 15.964844 11.800781 12.929688 10.421875-3.976563 21.847656-10.285156 31.109375-20.148438 6.886719-7.332031 16.367188-11.667968 26.425781-11.667968h72.660157c17.925781 0 32.457031-14.53125 32.457031-32.457032v-70.136718c0-17.929688-14.53125-32.460938-32.457031-32.460938zm0 0" fill="#76e7e7"/><g fill="#f4e74d"><path d="m298.835938 42.546875 4.960937 10.046875 11.085937 1.609375c6.8125.992187 9.535157 9.367187 4.601563 14.175781l-8.019531 7.816406 1.894531 11.042969c1.164063 6.789063-5.960937 11.964844-12.058594 8.761719l-9.914062-5.214844-9.917969 5.214844c-6.09375 3.203125-13.21875-1.972656-12.054688-8.761719l1.894532-11.042969-8.023438-7.816406c-4.929687-4.808594-2.210937-13.183594 4.605469-14.175781l11.085937-1.609375 4.957032-10.046875c3.050781-6.175781 11.855468-6.175781 14.902344 0zm0 0"/><path d="m378.300781 42.546875 4.957031 10.046875 11.085938 1.609375c6.816406.992187 9.535156 9.367187 4.605469 14.175781l-8.023438 7.816406 1.894531 11.042969c1.164063 6.789063-5.960937 11.964844-12.054687 8.761719l-9.917969-5.214844-9.914062 5.214844c-6.09375 3.203125-13.21875-1.972656-12.054688-8.761719l1.890625-11.042969-8.019531-7.816406c-4.933594-4.808594-2.210938-13.183594 4.605469-14.175781l11.082031-1.609375 4.960938-10.046875c3.046874-6.175781 11.855468-6.175781 14.902343 0zm0 0"/><path d="m457.765625 42.546875 4.957031 10.046875 11.085938 1.609375c6.816406.992187 9.539062 9.367187 4.605468 14.175781l-8.023437 7.816406 1.894531 11.042969c1.164063 6.789063-5.960937 11.964844-12.054687 8.761719l-9.917969-5.214844-9.914062 5.214844c-6.09375 3.203125-13.21875-1.972656-12.054688-8.761719l1.890625-11.042969-8.019531-7.816406c-4.933594-4.808594-2.210938-13.183594 4.605468-14.175781l11.085938-1.609375 4.957031-10.046875c3.046875-6.175781 11.855469-6.175781 14.902344 0zm0 0"/></g><path d="m177.707031 216.925781c0-9.351562-9.519531-16.933593-21.265625-16.933593-11.742187 0-21.261718 7.582031-21.261718 16.933593 0 9.351563 9.519531 16.933594 21.261718 16.933594 11.746094 0 21.265625-7.582031 21.265625-16.933594zm0 0" fill="#fdb2db"/><path d="m335.238281 216.925781c0-9.351562-9.523437-16.933593-21.265625-16.933593-11.742187 0-21.265625 7.582031-21.265625 16.933593 0 9.351563 9.523438 16.933594 21.265625 16.933594 11.742188 0 21.265625-7.582031 21.265625-16.933594zm0 0" fill="#fdb2db"/><path d="m240.484375 198.625c-1.730469 2.542969-4.253906 2.847656-5.277344 2.847656-1.023437 0-3.589843-.277344-5.277343-2.847656-2.34375-3.566406-7.132813-4.558594-10.699219-2.214844-3.566407 2.339844-4.558594 7.132813-2.214844 10.699219 4.035156 6.144531 10.835937 9.816406 18.191406 9.816406s14.15625-3.671875 18.191407-9.816406c2.34375-3.566406 1.351562-8.359375-2.214844-10.699219-1.308594-.859375-7.089844-3.085937-10.699219 2.214844zm0 0" fill="#454545"/><path d="m173.996094 202.242188c-.960938-.804688-1.921875-1.015626-2.460938-1.015626-.539062 0-1.570312.128907-2.457031 1.015626-3.019531 3.019531-7.914063 3.019531-10.925781.003906-3.019532-3.019532-3.019532-7.910156-.003906-10.929688 3.578124-3.574218 8.332031-5.542968 13.386718-5.542968 5.058594 0 9.8125 1.96875 13.386719 5.542968 3.015625 3.019532 3.015625 7.910156 0 10.929688-1.507813 1.503906-6.050781 4.078125-10.925781-.003906zm0 0" fill="#454545"/><path d="m301.339844 202.242188c-.960938-.804688-1.921875-1.015626-2.460938-1.015626-.539062 0-1.570312.128907-2.457031 1.015626-3.019531 3.019531-7.914063 3.019531-10.929687.003906-3.015626-3.019532-3.015626-7.910156 0-10.929688 3.574218-3.574218 8.332031-5.542968 13.386718-5.542968 5.054688 0 9.808594 1.96875 13.386719 5.542968 3.015625 3.019532 3.015625 7.910156-.003906 10.929688-1.503907 1.503906-6.046875 4.078125-10.921875-.003906zm0 0" fill="#454545"/></svg>