<svg id="Capa_1" enable-background="new 0 0 512 512" height="512" viewBox="0 0 512 512" width="512" xmlns="http://www.w3.org/2000/svg"><g><path d="m133.436 281h-28.735c-13.315 0-24.109 10.794-24.109 24.109v33.707h76.954v-33.707c0-13.315-10.795-24.109-24.11-24.109z" fill="#eda1ab"/><path d="m378.564 281h28.735c13.315 0 24.109 10.794 24.109 24.109v33.707h-76.954v-33.707c0-13.315 10.795-24.109 24.11-24.109z" fill="#8daee1"/><path d="m256 364.615c-14.248 0-25.798-11.55-25.798-25.798v-231.458c0-30.748-25.015-55.763-55.763-55.763s-55.763 25.015-55.763 55.763v34.706c0 14.248-11.55 25.798-25.798 25.798s-25.798-11.55-25.798-25.798v-34.706c0-59.198 48.161-107.359 107.359-107.359s107.359 48.161 107.359 107.359v231.457c0 14.248-11.55 25.799-25.798 25.799z" fill="#a2ddfd"/><path d="m230.202 237.916v100.901c0 14.248 11.55 25.798 25.798 25.798s25.798-11.55 25.798-25.798v-100.901z" fill="#7acdf9"/><path d="m303.376 338.816v-42.33c0-10.728-8.697-19.424-19.425-19.424h-55.902c-10.728 0-19.425 8.697-19.425 19.424v42.33z" fill="#4e5660"/><path d="m114.994 103.75h-44.233c-10.073 0-19.185 5.977-23.199 15.216l-11.652 26.825c-7.256 16.704 4.987 35.37 23.199 35.37h67.539c18.211 0 30.455-18.667 23.199-35.37l-11.653-26.826c-4.014-9.238-13.127-15.215-23.2-15.215z" fill="#4e5660"/><path d="m466.351 338.816c16.526 0 27.793 16.654 21.751 32.035-39.474 100.484-126.509 141.149-232.102 141.149s-192.628-40.665-232.102-141.148c-6.042-15.382 5.225-32.035 21.751-32.035h420.702z" fill="#fbf1cf"/><path d="m45.649 338.817c-16.526 0-27.793 16.654-21.751 32.035 39.474 100.483 126.509 141.148 232.102 141.148 11.062 0 21.917-.453 32.539-1.367-101.971-19.255-115.471-108.334-106.639-171.816z" fill="#f5e2a2"/><g><g fill="#eda1ab"><ellipse cx="169.913" cy="448.893" rx="31.765" ry="25.296"/><ellipse cx="342.087" cy="448.893" rx="31.765" ry="25.296"/></g><g fill="#4e5660"><path d="m188.425 431.731c-4.142 0-7.5-3.358-7.5-7.5v-12.362c0-4.142 3.358-7.5 7.5-7.5s7.5 3.358 7.5 7.5v12.362c0 4.142-3.358 7.5-7.5 7.5z"/><path d="m256 439.772c-8.996 0-17.55-3.896-23.47-10.688-2.721-3.123-2.396-7.86.727-10.582 3.123-2.721 7.859-2.397 10.582.726 3.07 3.524 7.503 5.544 12.162 5.544s9.091-2.02 12.162-5.544c2.722-3.123 7.458-3.448 10.582-.726 3.122 2.722 3.448 7.459.726 10.582-5.921 6.792-14.475 10.688-23.471 10.688z"/><path d="m340.288 431.386c-4.142 0-7.5-3.358-7.5-7.5 0-3.764-3.062-6.826-6.826-6.826s-6.826 3.062-6.826 6.826c0 4.142-3.358 7.5-7.5 7.5s-7.5-3.358-7.5-7.5c0-12.035 9.791-21.826 21.826-21.826s21.826 9.791 21.826 21.826c0 4.142-3.358 7.5-7.5 7.5z"/></g></g></g></svg>