<svg id="Capa_1" enable-background="new 0 0 512 512" height="512" viewBox="0 0 512 512" width="512" xmlns="http://www.w3.org/2000/svg"><path d="m469.8 277.918h-172.748c-23.306 0-42.2-18.893-42.2-42.2v-172.748c0-23.306 18.893-42.2 42.2-42.2h172.748c23.306 0 42.2 18.893 42.2 42.2v172.748c0 23.306-18.893 42.2-42.2 42.2z" fill="#a3defe"/><path d="m380.795 232.706c-7.66-13.267-20.112-22.299-34.565-25.504-3.269-.725-5.893-3.134-6.906-6.324-19.001-59.851-22.93-132.301-18.354-180.107h-23.918c-23.306 0-42.2 18.893-42.2 42.2v172.748c0 23.306 18.893 42.2 42.2 42.2h109.846z" fill="#7acefa"/><ellipse cx="148.254" cy="281.941" fill="#6fce91" rx="148.254" ry="148.254" transform="matrix(.707 -.707 .707 .707 -155.94 187.41)"/><path d="m296.508 281.941c0-17.255-2.958-33.816-8.377-49.218-.091-.008-.104-.01-.195-.018l-81.232 140.699c-7.438 12.883-22.521 19.268-36.954 15.667-147.604-36.834-118.76-171.285-92.98-237.033-46.371 25.572-77.59 75.242-76.754 132.133 1.179 80.253 66.907 145.454 147.167 146.021 82.37.581 149.325-66.015 149.325-148.251z" fill="#3cb767"/><ellipse cx="303.958" cy="155.841" fill="#fff" rx="29.406" ry="23.417"/><ellipse cx="463.346" cy="155.841" fill="#fff" rx="29.406" ry="23.417"/><g fill="#4e5660"><path d="m321.095 140.511c-4.142 0-7.5-3.358-7.5-7.5v-11.444c0-4.142 3.358-7.5 7.5-7.5s7.5 3.358 7.5 7.5v11.444c0 4.142-3.358 7.5-7.5 7.5z"/><path d="m383.652 147.955c-8.488 0-16.561-3.676-22.147-10.086-2.721-3.123-2.396-7.86.727-10.582 3.123-2.721 7.861-2.396 10.582.727 2.736 3.141 6.687 4.941 10.838 4.941s8.102-1.801 10.838-4.941c2.722-3.123 7.459-3.447 10.582-.727 3.122 2.722 3.448 7.459.727 10.582-5.587 6.41-13.659 10.086-22.147 10.086z"/><path d="m461.68 140.192c-4.142 0-7.5-3.358-7.5-7.5 0-3.177-2.585-5.762-5.762-5.762s-5.762 2.585-5.762 5.762c0 4.142-3.358 7.5-7.5 7.5s-7.5-3.358-7.5-7.5c0-11.448 9.313-20.762 20.762-20.762 11.448 0 20.762 9.314 20.762 20.762 0 4.142-3.358 7.5-7.5 7.5z"/></g><path d="m94.372 294.607c0 13.857-14.106 25.091-31.507 25.091s-31.507-11.233-31.507-25.091c0-13.857 14.106-25.091 31.507-25.091 17.4 0 31.507 11.234 31.507 25.091z" fill="#fff"/><path d="m202.137 294.607c0 13.857 14.106 25.091 31.507 25.091s31.507-11.233 31.507-25.091c0-13.857-14.106-25.091-31.507-25.091s-31.507 11.234-31.507 25.091z" fill="#fff"/><path d="m173.657 275.329c0-15.699-11.373-17.174-25.402-17.174s-25.403 1.475-25.403 17.174 11.373 28.425 25.403 28.425c14.029 0 25.402-12.726 25.402-28.425z" fill="#4e5660"/><path d="m68.132 272.152c-4.142 0-7.5-3.358-7.5-7.5v-12.866c0-4.142 3.358-7.5 7.5-7.5s7.5 3.358 7.5 7.5v12.866c0 4.142-3.358 7.5-7.5 7.5z" fill="#4e5660"/><path d="m228.376 272.152c-4.142 0-7.5-3.358-7.5-7.5v-12.866c0-4.142 3.358-7.5 7.5-7.5s7.5 3.358 7.5 7.5v12.866c0 4.142-3.357 7.5-7.5 7.5z" fill="#4e5660"/><path d="m307.356 243.918-115.776 200.53c-12.004 20.792 3.001 46.782 27.009 46.782h231.552c24.008 0 39.014-25.99 27.009-46.782l-115.776-200.53c-12.003-20.792-42.013-20.792-54.018 0z" fill="#f7ef87"/><path d="m309.193 241.116c-.646.892-1.268 1.816-1.837 2.802l-115.776 200.53c-12.004 20.792 3.001 46.782 27.009 46.782h96.222c-41.311-51.384-23.044-188.147-5.618-250.114z" fill="#efd176"/><ellipse cx="256.118" cy="421.901" fill="#eda1ab" rx="28.872" ry="22.992"/><ellipse cx="412.614" cy="421.901" fill="#eda1ab" rx="28.872" ry="22.992"/><path d="m272.944 407.268c-4.142 0-7.5-3.358-7.5-7.5v-11.803c0-4.142 3.358-7.5 7.5-7.5s7.5 3.358 7.5 7.5v11.803c0 4.142-3.358 7.5-7.5 7.5z" fill="#4e5660"/><path d="m395.788 407.268c-4.142 0-7.5-3.358-7.5-7.5v-11.803c0-4.142 3.358-7.5 7.5-7.5s7.5 3.358 7.5 7.5v11.803c0 4.142-3.358 7.5-7.5 7.5z" fill="#4e5660"/><path d="m334.366 414.294c-8.374 0-16.337-3.626-21.848-9.95-2.721-3.123-2.396-7.86.727-10.582 3.123-2.721 7.86-2.397 10.582.727 2.661 3.054 6.502 4.805 10.539 4.805s7.878-1.751 10.539-4.805c2.721-3.123 7.458-3.447 10.582-.727 3.123 2.722 3.448 7.459.727 10.582-5.511 6.324-13.475 9.95-21.848 9.95z" fill="#4e5660"/></svg>