<svg height="511pt" viewBox="-8 0 511 511.99961" width="511pt" xmlns="http://www.w3.org/2000/svg"><path d="m398.125 107.4375c0-59.335938-67.25-107.4375-150.210938-107.4375-82.960937 0-150.210937 48.101562-150.210937 107.4375s67.25 107.4375 150.210937 107.4375c82.960938 0 150.210938-48.101562 150.210938-107.4375zm0 0" fill="#2eddda"/><path d="m431.96875 40.40625c-42.976562-26.5625-96.429688-24.597656-141.910156.226562-26.355469 14.382813-57.933594 14.382813-84.289063 0-45.484375-24.824218-98.933593-26.789062-141.910156-.226562-67.539063 41.75-83.621094 138.140625-35.929687 215.296875 8.445312 13.664063 18.328124 25.804687 29.242187 36.304687 21.484375 20.664063 34.6875 48.410157 38.46875 77.980469 4.527344 35.398438 15.238281 79.152344 39.226563 121.28125 12.097656 21.253907 40.027343 27.238281 59.851562 12.917969 13.183594-9.519531 19.574219-25.910156 16.191406-41.820312-6.992187-32.882813-10.960937-86.28125 37.003906-86.28125 47.964844 0 43.996094 53.398437 37.003907 86.28125-3.382813 15.90625 3.007812 32.300781 16.191406 41.820312 19.824219 14.320312 47.753906 8.335938 59.851563-12.917969 23.988281-42.128906 34.699218-85.882812 39.226562-121.28125 3.78125-29.570312 16.984375-57.316406 38.46875-77.980469 10.914062-10.5 20.796875-22.640624 29.238281-36.304687 47.695313-77.15625 31.609375-173.546875-35.925781-215.296875zm0 0" fill="#b0f0ef"/><path d="m389.890625 23.832031c-33.015625-6.617187-68.335937-.390625-99.832031 16.800781-26.355469 14.382813-57.933594 14.382813-84.289063 0-45.484375-24.824218-98.933593-26.789062-141.910156-.226562-67.539063 41.75-83.621094 138.140625-35.929687 215.296875 8.445312 13.664063 18.328124 25.804687 29.242187 36.304687 21.484375 20.664063 34.6875 48.410157 38.46875 77.980469 4.527344 35.398438 15.238281 79.152344 39.226563 121.28125 12.097656 21.253907 40.027343 27.238281 59.851562 12.917969 0 0-33.800781-32.664062-29.894531-157.976562 1.3125-42.1875-4.226563-80.21875-11.105469-112.566407-11.800781-55.480469 25.476562-109.414062 81.519531-118.1875 126.675781-19.832031 154.550781-91.367187 154.652344-91.625zm0 0" fill="#76e7e7"/><path d="m181.957031 204.085938c0-13.578126-13.824219-24.589844-30.875-24.589844-17.054687 0-30.878906 11.011718-30.878906 24.589844 0 13.582031 13.824219 24.589843 30.878906 24.589843 17.050781 0 30.875-11.007812 30.875-24.589843zm0 0" fill="#fdb2db"/><path d="m375.625 204.085938c0-13.578126-13.824219-24.589844-30.878906-24.589844-17.050782 0-30.875 11.011718-30.875 24.589844 0 13.582031 13.824218 24.589843 30.875 24.589843 17.054687 0 30.878906-11.007812 30.878906-24.589843zm0 0" fill="#fdb2db"/><g fill="#454545"><path d="m331.003906 190.589844c-4.265625 0-7.726562-3.460938-7.726562-7.726563v-12.828125c0-4.265625 3.460937-7.726562 7.726562-7.726562 4.269532 0 7.726563 3.460937 7.726563 7.726562v12.828125c0 4.265625-3.457031 7.726563-7.726563 7.726563zm0 0"/><path d="m164.824219 190.589844c-4.269531 0-7.726563-3.460938-7.726563-7.726563v-12.828125c0-4.265625 3.457032-7.726562 7.726563-7.726562 4.265625 0 7.726562 3.460937 7.726562 7.726562v12.828125c0 4.265625-3.460937 7.726563-7.726562 7.726563zm0 0"/><path d="m269.402344 197.859375c0-14.054687-9.621094-25.445313-21.488282-25.445313-11.867187 0-21.488281 11.390626-21.488281 25.445313 0 14.050781 9.621094 25.441406 21.488281 25.441406 11.867188 0 21.488282-11.390625 21.488282-25.441406zm0 0"/></g></svg>