<svg height="512pt" viewBox="0 -8 512 512" width="512pt" xmlns="http://www.w3.org/2000/svg"><path d="m239.359375 143.566406c0-112.285156-56.714844-129.035156-119.679687-129.035156-29.433594 0-55.65625-2.152344-75.242188-4.445312-21.144531-2.476563-40.0625 13.148437-41.632812 34.382812-1.546876 20.871094-2.804688 52.25-2.804688 99.097656zm0 0" fill="#596673"/><path d="m511.503906 39.269531c0 21.6875-17.578125 39.265625-39.265625 39.265625s-39.269531-17.578125-39.269531-39.265625 17.582031-39.269531 39.269531-39.269531 39.265625 17.582031 39.265625 39.269531zm0 0" fill="#e5ca61"/><path d="m272.636719 143.570312c0-63.96875 53.582031-115.816406 119.675781-115.816406 63.605469 0 115.636719 48.011719 119.453125 108.644532zm0 0" fill="#f9db69"/><path d="m0 143.566406h30.90625c0-46.847656 1.257812-78.226562 2.800781-99.097656 1.160157-15.660156 11.757813-28.257812 25.722657-32.808594-5.003907-.46875-10-.992187-14.988282-1.578125-20.851562-2.433593-40.089844 13.460938-41.636718 34.386719-.320313 4.289062-.59375 8.585938-.832032 12.882812-1.140625 20.300782-1.972656 48.152344-1.972656 86.214844zm0 0" fill="#4b5866"/><path d="m119.679688 76.695312c-119.035157 0-119.679688 66.871094-119.679688 66.871094 0 63.964844 53.582031 115.820313 119.679688 115.820313 66.097656 0 119.679687-51.855469 119.679687-115.820313 0 0-.644531-66.871094-119.679687-66.871094zm0 0" fill="#fac4ae"/><path d="m119.699219 259.386719c2.757812 0 5.511719-.101563 8.265625-.28125 2.394531-.15625 4.785156-.378907 7.167968-.679688-58.796874-7.335937-104.226562-55.960937-104.226562-114.859375 0-17.789062.179688-33.339844.492188-46.941406-31.128907 19.710938-31.398438 46.941406-31.398438 46.941406 0 16.429688 3.617188 32.777344 10.570312 47.664063 3.585938 7.667969 8.03125 14.9375 13.207032 21.632812 21.824218 28.242188 56.65625 46.523438 95.921875 46.523438zm0 0" fill="#e2b09a"/><path d="m407.75 28.710938c-2.445312-.304688-4.914062-.535157-7.40625-.695313-2.671875-.175781-5.351562-.265625-8.03125-.265625-66.09375 0-119.675781 51.851562-119.675781 115.820312l30.917969-.925781c.472656-58.480469 45.714843-106.628906 104.195312-113.933593zm0 0" fill="#e5ca61"/><path d="m512 143.570312c0 31.984376-13.390625 60.9375-35.058594 81.890626-21.65625 20.964843-51.585937 33.929687-84.628906 33.929687-66.09375 0-119.675781-51.859375-119.675781-115.820313 0 0 38.652343-47.808593 89.199219-47.808593 36.632812 0 66.136718-5.351563 79.601562-8.292969 4.679688-1.019531 9.511719.804688 12.332031 4.679688 8.40625 11.550781 28.523438 35.140624 57.996094 44.25.164063 2.367187.234375 4.761718.234375 7.171874zm0 0" fill="#fac4ae"/><path d="m396.921875 259.304688c3.335937-.128907 7.5625-1.289063 10.84375-.875-58.796875-7.335938-104.222656-55.964844-104.222656-114.859376 0-10.53125 1.457031-20.730468 4.179687-30.425781-21.539062 13.671875-35.085937 30.425781-35.085937 30.425781 0 32.980469 14.246093 62.742188 37.105469 83.835938 22.332031 20.609375 52.234374 31.984375 82.570312 31.984375 1.535156 0 3.074219-.03125 4.609375-.085937zm0 0" fill="#e2b09a"/><path d="m176.707031 159.214844c-4.265625 0-7.726562-3.457032-7.726562-7.726563v-11.085937c0-4.265625 3.460937-7.726563 7.726562-7.726563s7.726563 3.460938 7.726563 7.726563v11.085937c0 4.269531-3.460938 7.726563-7.726563 7.726563zm0 0" fill="#464c51"/><path d="m184.257812 177.574219h-15.101562c-4.265625 0-7.726562-3.457031-7.726562-7.726563 0-4.265625 3.460937-7.726562 7.726562-7.726562h15.101562c4.265626 0 7.726563 3.460937 7.726563 7.726562 0 4.269532-3.460937 7.726563-7.726563 7.726563zm0 0" fill="#ff7f85"/><path d="m62.652344 159.214844c-4.265625 0-7.726563-3.457032-7.726563-7.726563v-11.085937c0-4.265625 3.460938-7.726563 7.726563-7.726563s7.726562 3.460938 7.726562 7.726563v11.085937c0 4.269531-3.460937 7.726563-7.726562 7.726563zm0 0" fill="#464c51"/><path d="m70.203125 177.574219h-15.101563c-4.265624 0-7.726562-3.457031-7.726562-7.726563 0-4.265625 3.460938-7.726562 7.726562-7.726562h15.101563c4.269531 0 7.726563 3.460937 7.726563 7.726562 0 4.269532-3.457032 7.726563-7.726563 7.726563zm0 0" fill="#ff7f85"/><path d="m119.679688 174.890625c-6.207032 0-12.042969-2.609375-16.019532-7.15625-2.804687-3.214844-2.480468-8.09375.734375-10.902344 3.214844-2.808593 8.09375-2.480469 10.902344.730469 1.039063 1.191406 2.636719 1.871094 4.382813 1.871094 1.746093 0 3.34375-.679688 4.382812-1.871094 2.808594-3.210938 7.6875-3.539062 10.902344-.730469 3.210937 2.808594 3.539062 7.6875.730468 10.902344-3.972656 4.546875-9.808593 7.15625-16.015624 7.15625zm0 0" fill="#464c51"/><path d="m335.289062 159.214844c-4.265624 0-7.726562-3.457032-7.726562-7.726563v-11.085937c0-4.265625 3.460938-7.726563 7.726562-7.726563 4.269532 0 7.726563 3.460938 7.726563 7.726563v11.085937c0 4.269531-3.457031 7.726563-7.726563 7.726563zm0 0" fill="#464c51"/><path d="m342.839844 177.574219h-15.101563c-4.265625 0-7.726562-3.457031-7.726562-7.726563 0-4.265625 3.460937-7.726562 7.726562-7.726562h15.101563c4.269531 0 7.726562 3.460937 7.726562 7.726562 0 4.269532-3.457031 7.726563-7.726562 7.726563zm0 0" fill="#ff7f85"/><path d="m449.34375 159.214844c-4.265625 0-7.726562-3.457032-7.726562-7.726563v-11.085937c0-4.265625 3.460937-7.726563 7.726562-7.726563s7.726562 3.460938 7.726562 7.726563v11.085937c0 4.269531-3.460937 7.726563-7.726562 7.726563zm0 0" fill="#464c51"/><path d="m456.894531 177.574219h-15.101562c-4.269531 0-7.726563-3.457031-7.726563-7.726563 0-4.265625 3.457032-7.726562 7.726563-7.726562h15.101562c4.265625 0 7.726563 3.460937 7.726563 7.726562 0 4.269532-3.460938 7.726563-7.726563 7.726563zm0 0" fill="#ff7f85"/><path d="m392.316406 174.890625c-6.203125 0-12.042968-2.609375-16.015625-7.15625-2.808593-3.214844-2.480469-8.09375.730469-10.902344 3.214844-2.808593 8.09375-2.480469 10.902344.730469 1.039062 1.191406 2.636718 1.871094 4.382812 1.871094s3.34375-.679688 4.382813-1.871094c2.808593-3.210938 7.6875-3.539062 10.902343-.730469 3.214844 2.808594 3.539063 7.6875.730469 10.902344-3.972656 4.546875-9.8125 7.15625-16.015625 7.15625zm0 0" fill="#464c51"/><path d="m91.714844 360.3125c0-88.101562 73.695312-159.777344 164.28125-159.777344 90.589844 0 164.285156 71.675782 164.285156 159.777344zm0 0" fill="#e98f5e"/><path d="m271.449219 201.246094c-5.085938-.464844-10.238281-.710938-15.453125-.710938-90.585938 0-164.28125 71.675782-164.28125 159.777344h30.902344c0-83.03125 65.46875-151.464844 148.832031-159.066406zm0 0" fill="#de8250"/><path d="m429.570312 360.3125c0 18.703125-15.164062 33.867188-33.867187 33.867188-18.707031 0-33.867187-15.164063-33.867187-33.867188s15.160156-33.867188 33.867187-33.867188c18.703125 0 33.867187 15.164063 33.867187 33.867188zm0 0" fill="#e2b09a"/><path d="m255.996094 280.421875c-83.472656-41.085937-117.066406 1.792969-129.222656 28.449219-6.75 15.859375-10.480469 33.226562-10.480469 51.441406 0 74.667969 62.546875 135.195312 139.703125 135.195312 77.160156 0 139.707031-60.527343 139.707031-135.195312 0-18.214844-3.734375-35.582031-10.480469-51.441406-12.15625-26.65625-45.75-69.535156-129.226562-28.449219zm0 0" fill="#fac4ae"/><path d="m147.199219 360.3125c0-18.214844 3.734375-35.582031 10.480469-51.441406 7.394531-16.210938 22.714843-38.417969 52.363281-44.097656-50.585938-8.253907-73.644531 23-83.269531 44.097656-2.457032 5.773437-4.507813 11.746094-6.128907 17.886718-1.363281-.199218-2.804687-.3125-4.347656-.3125-18.707031 0-33.867187 15.164063-33.867187 33.867188s15.160156 33.867188 33.867187 33.867188c1.539063 0 2.980469-.113282 4.335937-.3125 15.421876 58.433593 70.179688 101.640624 135.363282 101.640624 5.226562 0 10.378906-.285156 15.453125-.828124-69.882813-7.441407-124.25-64.753907-124.25-134.367188zm0 0" fill="#e2b09a"/><path d="m322.566406 377.289062c-4.265625 0-7.726562-3.460937-7.726562-7.726562v-12.941406c0-4.269532 3.460937-7.726563 7.726562-7.726563s7.726563 3.457031 7.726563 7.726563v12.941406c0 4.265625-3.460938 7.726562-7.726563 7.726562zm0 0" fill="#464c51"/><path d="m331.378906 396.3125h-17.628906c-4.265625 0-7.722656-3.457031-7.722656-7.726562 0-4.265626 3.457031-7.726563 7.722656-7.726563h17.632812c4.265626 0 7.726563 3.460937 7.726563 7.726563 0 4.269531-3.460937 7.726562-7.730469 7.726562zm0 0" fill="#ff7f85"/><path d="m189.429688 377.289062c-4.265626 0-7.726563-3.460937-7.726563-7.726562v-12.941406c0-4.269532 3.460937-7.726563 7.726563-7.726563 4.265624 0 7.726562 3.457031 7.726562 7.726563v12.941406c0 4.265625-3.460938 7.726562-7.726562 7.726562zm0 0" fill="#464c51"/><path d="m198.246094 396.3125h-17.628906c-4.269532 0-7.726563-3.457031-7.726563-7.726562 0-4.265626 3.457031-7.726563 7.726563-7.726563h17.628906c4.265625 0 7.726562 3.460937 7.726562 7.726563 0 4.269531-3.460937 7.726562-7.726562 7.726562zm0 0" fill="#ff7f85"/><path d="m255.996094 395.582031c-6.867188 0-13.328125-2.882812-17.722656-7.910156-2.808594-3.210937-2.480469-8.09375.734374-10.902344 3.210938-2.804687 8.09375-2.480469 10.902344.734375 1.457032 1.667969 3.675782 2.625 6.085938 2.625 2.414062 0 4.632812-.957031 6.089844-2.625 2.808593-3.214844 7.691406-3.539062 10.902343-.734375 3.214844 2.808594 3.542969 7.691407.734375 10.902344-4.394531 5.027344-10.855468 7.910156-17.726562 7.910156zm0 0" fill="#464c51"/></svg>