<?xml version="1.0" encoding="iso-8859-1"?>
<!-- Generator: Adobe Illustrator 19.0.0, SVG Export Plug-In . SVG Version: 6.00 Build 0)  -->
<svg version="1.1" id="Capa_1" xmlns="http://www.w3.org/2000/svg" xmlns:xlink="http://www.w3.org/1999/xlink" x="0px" y="0px"
	 viewBox="0 0 512 512" style="enable-background:new 0 0 512 512;" xml:space="preserve">
<circle style="fill:#51D7F7;" cx="256" cy="174.018" r="148.871"/>
<polygon style="fill:#DA5B65;" points="268.5,69.452 443.163,129.851 268.5,190.252 256,138.444 "/>
<polygon style="fill:#C0344A;" points="294.255,78.358 268.5,69.452 256,138.444 268.5,190.252 294.255,181.345 "/>
<path style="fill:#3A484A;" d="M256,56.951c-6.903,0-12.5,5.596-12.5,12.5v218.489h25V69.452
	C268.5,62.548,262.903,56.951,256,56.951z"/>
<g>
	<path style="fill:#EFEDEE;" d="M187.738,106.442c0.005-0.259,0.02-0.516,0.02-0.776c0-21.547-17.468-39.014-39.014-39.014
		c-12.347,0-23.347,5.742-30.495,14.693c-3.981-1.617-8.33-2.516-12.892-2.516c-18.794,0-34.046,15.126-34.268,33.866
		c-4.833-3.969-11.017-6.353-17.758-6.353c-15.462,0-27.997,12.534-27.997,27.997c0,15.462,12.534,27.997,27.997,27.997h132.14
		c15.462,0,27.997-12.534,27.997-27.997C213.467,119.642,202.138,107.598,187.738,106.442z"/>
	<path style="fill:#EFEDEE;" d="M325.722,235.515c-0.005-0.285-0.022-0.569-0.022-0.855c0-23.752,19.255-43.007,43.007-43.007
		c13.611,0,25.736,6.329,33.616,16.198c4.389-1.783,9.183-2.773,14.211-2.773c20.717,0,37.531,16.673,37.775,37.333
		c5.327-4.376,12.144-7.004,19.576-7.004c17.044,0,30.862,13.818,30.862,30.862c0,17.044-13.818,30.862-30.862,30.862H328.222
		c-17.044,0-30.862-13.818-30.862-30.862C297.36,250.065,309.848,236.789,325.722,235.515z"/>
</g>
<path style="fill:#C76D5F;" d="M54.53,410.362C21.27,452.153,0,486.853,0,486.853h512c0,0-21.27-34.7-54.53-76.49l-146.439-53.335
	H171.407L54.53,410.362z"/>
<path style="fill:#AF4E42;" d="M41.207,486.853c0.001-0.001,21.27-34.701,54.53-76.49c7.857-9.866,16.383-20.128,25.456-30.421
	l-66.664,30.421c-10.25,12.877-20.137,26.046-29.672,39.461C9.16,471.908,0.001,486.852,0,486.853H41.207z"/>
<path style="fill:#EFEDEE;" d="M457.47,410.362c-8.09,6.72-18,10.07-27.92,10.07c-10.33,0-20.66-3.64-28.93-10.92
	c-8.26-7.28-18.59-10.91-28.92-10.91c-10.331,0-20.66,3.63-28.93,10.91c-8.27,7.28-18.59,10.92-28.92,10.92
	c-10.33,0-20.66-3.64-28.93-10.92c-8.26-7.28-18.59-10.91-28.92-10.91c-10.331,0-20.66,3.63-28.92,10.91
	c-8.27,7.28-18.6,10.92-28.93,10.92s-20.65-3.64-28.92-10.92c-8.27-7.28-18.6-10.91-28.93-10.91s-20.66,3.63-28.92,10.91
	c-8.27,7.28-18.6,10.92-28.93,10.92c-9.92,0-19.83-3.35-27.92-10.07c50.37-63.25,128.22-142.73,201.47-142.73
	S407.1,347.112,457.47,410.362z"/>
<path style="fill:#D4D2D3;" d="M80.342,379.54c-9.206,10.428-17.852,20.828-25.812,30.822c8.09,6.72,18,10.07,27.92,10.07
	c1.899,0,3.797-0.126,5.684-0.372c2.461-3.182,4.99-6.415,7.604-9.698c45.669-57.347,113.928-128.034,180.867-140.73
	c-0.996-0.189-1.991-0.361-2.986-0.524c-0.354-0.058-0.708-0.111-1.062-0.166c-5.476-0.847-11.013-1.31-16.555-1.31
	c-18.313,0-36.912,4.968-55.299,13.407c-14.401,6.61-27.952,14.967-40.797,24.217c-16.672,12.006-32.826,26.078-48.049,40.983
	c-2.046,2.004-4.075,4.023-6.087,6.053C97.023,361.121,88.576,370.236,80.342,379.54z"/>
<g>
	<path style="fill:#3A484A;" d="M201.82,348.597c-4.268,0-7.726-3.459-7.726-7.726v-9.806c0-4.267,3.458-7.726,7.726-7.726
		c4.268,0,7.726,3.459,7.726,7.726v9.806C209.546,345.137,206.087,348.597,201.82,348.597z"/>
	<path style="fill:#3A484A;" d="M310.18,348.597c-4.268,0-7.726-3.459-7.726-7.726v-9.806c0-4.267,3.458-7.726,7.726-7.726
		c4.268,0,7.726,3.459,7.726,7.726v9.806C317.907,345.137,314.448,348.597,310.18,348.597z"/>
	<path style="fill:#3A484A;" d="M256,355.843c-8.634,0-16.742-3.612-22.248-9.91c-2.809-3.213-2.481-8.094,0.732-10.902
		c3.212-2.808,8.094-2.48,10.901,0.732c2.571,2.941,6.44,4.628,10.614,4.628c4.174,0,8.042-1.686,10.613-4.628
		c2.808-3.214,7.69-3.541,10.901-0.732c3.213,2.808,3.542,7.689,0.732,10.902C272.741,352.231,264.633,355.843,256,355.843z"/>
</g>
<g>
</g>
<g>
</g>
<g>
</g>
<g>
</g>
<g>
</g>
<g>
</g>
<g>
</g>
<g>
</g>
<g>
</g>
<g>
</g>
<g>
</g>
<g>
</g>
<g>
</g>
<g>
</g>
<g>
</g>
</svg>
