<svg height="512pt" viewBox="0 -70 512.00061 512" width="512pt" xmlns="http://www.w3.org/2000/svg"><path d="m128.472656 208.511719s-41.828125 22.328125-93.910156-11.035157c-16.515625-10.578124-37.777344 3.417969-34.15625 22.691407 6.125 32.582031 21.226562 71.242187 56.800781 91.570312 74.429688 42.53125 142.597657 1.921875 142.597657 1.921875.289062-.996094-71.332032-105.148437-71.332032-105.148437zm0 0" fill="#9ad880"/><path d="m439.75 38.878906c-43.773438-44.082031-110.9375-50.675781-161.714844-19.789062-15.0625 9.160156-33.925781 9.558594-48.945312.324218-50.710938-31.179687-117.980469-24.800781-161.917969 19.132813-51.398437 51.398437-51.398437 134.730469 0 186.128906l120.222656 120.21875c36.398438 36.398438 95.410157 36.398438 131.808594 0l119.210937-119.210937c51.433594-51.433594 52.59375-135.195313 1.335938-186.804688zm0 0" fill="#ff929f"/><path d="m348.273438 321.863281c-43.359376-19.941406-54.164063-77.359375-19.503907-110.171875 11.546875-10.929687 28.542969-19.789062 53.410157-23.671875 46.210937-7.210937 76.558593-22.554687 95.464843-36.289062 13.234375-9.609375 31.851563-1.046875 33.242188 15.25 3.855469 45.191406.1875 114.632812-51.84375 144.089843-47.839844 27.082032-85.078125 22.609376-110.769531 10.792969zm0 0" fill="#b2e59c"/><path d="m510.886719 166.980469c-.695313-8.15625-5.707031-14.375-12.199219-17.347657-11.800781 26.042969-39.34375 67.859376-99.644531 90.167969-44.503907 16.46875-70.164063 34.011719-84.816407 47.8125 6.488282 14.441407 18.050782 26.890625 34.046876 34.25 25.691406 11.816407 62.929687 16.289063 110.769531-10.792969 52.03125-29.457031 55.699219-98.898437 51.84375-144.089843zm0 0" fill="#9ad880"/><path d="m166.019531 167.179688c-41.945312-81.097657 10.976563-131.792969 48.269531-155.605469-48.425781-21.796875-107.335937-12.804688-147.117187 26.972656-51.398437 51.398437-51.398437 134.730469 0 186.128906l120.222656 120.21875c36.398438 36.398438 95.410157 36.398438 131.808594 0 0 0-108.863281-92.03125-153.183594-177.714843zm0 0" fill="#ff737d"/><path d="m253.109375 173.5625c-15.988281 0-28.949219-12.960938-28.949219-28.949219v-21.046875c0-4.367187 3.539063-7.902344 7.902344-7.902344h42.09375c4.363281 0 7.902344 3.535157 7.902344 7.902344v21.046875c0 15.988281-12.960938 28.949219-28.949219 28.949219zm0 0" fill="#57565c"/><path d="m187.15625 144.613281c0-13.582031-13.824219-24.589843-30.878906-24.589843-17.054688 0-30.878906 11.007812-30.878906 24.589843 0 13.578125 13.824218 24.589844 30.878906 24.589844 17.054687 0 30.878906-11.011719 30.878906-24.589844zm0 0" fill="#ffd9e8"/><path d="m380.820312 144.613281c0-13.582031-13.824218-24.589843-30.878906-24.589843-17.050781 0-30.875 11.007812-30.875 24.589843 0 13.578125 13.824219 24.589844 30.875 24.589844 17.054688 0 30.878906-11.011719 30.878906-24.589844zm0 0" fill="#ffd9e8"/><g fill="#57565c"><path d="m336.203125 131.113281c-4.269531 0-7.726563-3.457031-7.726563-7.726562v-12.824219c0-4.269531 3.457032-7.726562 7.726563-7.726562 4.265625 0 7.722656 3.457031 7.722656 7.726562v12.824219c0 4.269531-3.457031 7.726562-7.722656 7.726562zm0 0"/><path d="m170.019531 131.113281c-4.269531 0-7.726562-3.457031-7.726562-7.726562v-12.824219c0-4.269531 3.457031-7.726562 7.726562-7.726562 4.265625 0 7.726563 3.457031 7.726563 7.726562v12.824219c0 4.269531-3.460938 7.726562-7.726563 7.726562zm0 0"/></g></svg>