<svg height="511pt" viewBox="-65 0 511 511.99997" width="511pt" xmlns="http://www.w3.org/2000/svg"><path d="m111.097656 51.769531s24.078125-51.769531 63.808594-51.769531c39.734375 0 89.09375 75.386719 89.09375 75.386719l-83.246094 73.164062zm0 0" fill="#00a65b"/><path d="m104.480469 174.207031c6.808593-35.757812 32.164062-50.375 53.148437-56.316406 17.828125-5.050781 32.480469-17.988281 39.140625-35.277344 17.261719-44.800781 50.09375-73.640625 81.335938-67.691406 31.242187 5.949219 51.175781 44.835937 50.765625 92.847656-.160156 18.527344 8.710937 35.945313 23.4375 47.191407 17.332031 13.242187 35.539062 36.152343 28.730468 71.910156-3.300781 17.335937-12.078124 32.171875-24.082031 42.910156-9.699219 8.679688-14.867187 21.308594-14.6875 34.320312.203125 14.730469-3.492187 30.042969-11.441406 43.96875-11.03125 19.320313-28.03125 32.085938-46.1875 36.785157-16.25 4.210937-30.109375 14.804687-38.507813 29.339843l-19.457031 33.6875-59.859375-11.398437-5.714844-38.480469c-2.46875-16.605468-11.464843-31.550781-25.03125-41.4375-15.15625-11.046875-26.277343-29.164062-29.433593-51.1875-2.277344-15.871094-.085938-31.46875 5.515625-45.09375 4.949218-12.039062 4.785156-25.683594-1.046875-37.316406-7.214844-14.402344-9.925781-31.425781-6.625-48.761719zm0 0" fill="#00ce8e"/><path d="m297.039062 136.0625c-55.894531-75.855469-67.703124-103.597656-67.765624-103.746094-13.054688 12.039063-24.464844 29.4375-32.503907 50.296875-6.660156 17.289063-21.3125 30.226563-39.140625 35.277344-20.984375 5.941406-46.339844 20.5625-53.148437 56.316406-3.300781 17.335938-.589844 34.359375 6.628906 48.757813 5.832031 11.636718 5.992187 25.28125 1.046875 37.320312-5.601562 13.625-7.796875 29.21875-5.519531 45.09375 3.160156 22.023438 14.277343 40.140625 29.433593 51.1875 13.566407 9.886719 22.566407 24.832032 25.03125 41.4375l5.714844 38.480469 59.859375 11.398437 19.457031-33.6875c8.398438-14.539062 22.257813-25.128906 38.507813-29.339843 14.53125-3.761719 28.316406-12.683594 38.898437-26.003907-4.421874-21.429687-10.820312-45.761718-8.484374-79.183593 5.003906-71.558594 38.027343-67.546875-18.015626-143.605469zm0 0" fill="#00c172"/><path d="m278.523438 174.207031c-6.808594-35.757812-32.160157-50.375-53.148438-56.316406-17.828125-5.050781-32.480469-17.988281-39.140625-35.277344-17.261719-44.800781-50.09375-73.640625-81.335937-67.691406-31.242188 5.949219-51.175782 44.835937-50.765626 92.847656.160157 18.527344-8.710937 35.945313-23.4375 47.191407-17.332031 13.242187-35.539062 36.152343-28.730468 71.910156 3.300781 17.335937 12.078125 32.171875 24.082031 42.910156 9.699219 8.679688 14.867187 21.308594 14.6875 34.320312-.203125 14.730469 3.492187 30.042969 11.441406 43.96875 11.03125 19.320313 28.03125 32.085938 46.1875 36.785157 16.25 4.210937 30.109375 14.804687 38.507813 29.339843l19.457031 33.6875 59.859375-11.398437 5.714844-38.480469c2.464844-16.605468 11.464844-31.550781 25.03125-41.4375 15.15625-11.046875 26.273437-29.164062 29.433594-51.1875 2.277343-15.871094.082031-31.46875-5.519532-45.09375-4.945312-12.039062-4.785156-25.683594 1.046875-37.316406 7.21875-14.402344 9.929688-31.425781 6.628907-48.761719zm0 0" fill="#60daa8"/><path d="m233.722656 460.773438c4.457032 23.410156-10.90625 46-34.316406 50.457031s-46-10.90625-50.457031-34.3125c-4.457031-23.410157-36.9375-297.246094-13.527344-301.703125 23.410156-4.457032 93.839844 262.148437 98.300781 285.558594zm0 0" fill="#b1ecd0"/></svg>