<svg height="512pt" viewBox="0 0 512 512" width="512pt" xmlns="http://www.w3.org/2000/svg"><path d="m242.042969 158.65625c-3.878907-15.214844-18.832031-25.296875-34.390625-23.152344-12.761719 1.757813-22.4375 10.839844-25.742188 22.207032-1.539062 5.289062-5.234375 9.6875-10.320312 11.808593-9.132813 3.8125-16.933594 10.992188-21.335938 20.925781-8.058594 18.167969-1.402344 39.875 15.453125 50.40625 20.027344 12.511719 46.097657 5.292969 57.011719-15.195312 3.550781-6.667969 5.035156-13.882812 4.683594-20.917969-.296875-5.894531 1.703125-11.714843 5.964844-15.792969 7.835937-7.492187 11.582031-18.890624 8.675781-30.289062zm0 0" fill="#a7b6c5"/><path d="m371.03125 291.949219h-230.0625c-15.515625 0-28.089844-12.574219-28.089844-28.089844v-15.71875c0-15.515625 12.574219-28.089844 28.089844-28.089844h230.0625c15.515625 0 28.089844 12.574219 28.089844 28.089844v15.71875c0 15.515625-12.574219 28.089844-28.089844 28.089844zm0 0" fill="#ffe0b7"/><path d="m371.03125 220.050781h-49.875v71.898438h49.875c15.515625 0 28.089844-12.574219 28.089844-28.089844v-15.71875c0-15.515625-12.574219-28.089844-28.089844-28.089844zm0 0" fill="#fab658"/><path d="m256 0c-141.386719 0-256 114.613281-256 256s114.613281 256 256 256 256-114.613281 256-256-114.613281-256-256-256zm-183.886719 256c0-50.855469 20.503907-98.558594 57.601563-133.667969 34.378906-32.539062 80.234375-50.535156 127.566406-50.214843 22.136719.148437 43.660156 4.1875 63.785156 11.785156 19.042969 7.191406 24.347656 31.613281 9.957032 46.003906l-201.117188 201.117188c-14.390625 14.390624-38.8125 9.085937-46.003906-9.957032-7.746094-20.515625-11.789063-42.480468-11.789063-65.066406zm313.914063 130.027344c-34.730469 34.734375-80.910156 53.859375-130.027344 53.859375-22.585938 0-44.550781-4.042969-65.066406-11.789063-19.042969-7.191406-24.347656-31.613281-9.957032-46.003906l201.117188-201.117188c14.390625-14.390624 38.8125-9.085937 46 9.957032 7.75 20.515625 11.792969 42.480468 11.792969 65.066406 0 49.117188-19.125 95.296875-53.859375 130.027344zm0 0" fill="#fb695b"/><path d="m300.972656 478.179688c-150.578125 0-272.644531-122.066407-272.644531-272.640626 0-33.433593 6.054687-65.519531 17.066406-95.117187-28.597656 41.320313-45.394531 91.519531-45.394531 145.578125 0 141.386719 114.613281 256 256 256 64.617188 0 123.683594-23.976562 168.730469-63.46875-37.128907 18.9375-79.222657 29.648438-123.757813 29.648438zm0 0" fill="#f54432"/><path d="m149.378906 220.050781h-8.410156c-15.515625 0-28.089844 12.574219-28.089844 28.089844v15.71875c0 15.515625 12.574219 28.089844 28.089844 28.089844h8.410156zm0 0" fill="#889cb0"/></svg>