<?xml version="1.0" encoding="iso-8859-1"?>
<!-- Generator: Adobe Illustrator 19.0.0, SVG Export Plug-In . SVG Version: 6.00 Build 0)  -->
<svg version="1.1" id="Capa_1" xmlns="http://www.w3.org/2000/svg" xmlns:xlink="http://www.w3.org/1999/xlink" x="0px" y="0px"
	 viewBox="0 0 512.001 512.001" style="enable-background:new 0 0 512.001 512.001;" xml:space="preserve">
<path style="fill:#69BFE2;" d="M491.178,430.376H20.822C9.322,430.376,0,421.054,0,409.554V136.498
	c0-11.5,9.322-20.822,20.822-20.822h470.357c11.5,0,20.822,9.322,20.822,20.822v273.057
	C512,421.054,502.678,430.376,491.178,430.376z"/>
<path style="fill:#445258;" d="M97.097,477.309H57.393c-5.375,0-9.924-3.968-10.654-9.293l-5.158-37.639h71.327l-5.158,37.639
	C107.021,473.34,102.472,477.309,97.097,477.309z"/>
<polygon style="opacity:0.1;enable-background:new    ;" points="41.581,430.376 43.882,447.167 110.607,447.167 112.908,430.376 
	"/>
<path style="fill:#445258;" d="M414.903,477.309h39.704c5.375,0,9.924-3.968,10.654-9.293l5.158-37.639h-71.327l5.158,37.639
	C404.979,473.34,409.528,477.309,414.903,477.309z"/>
<polygon style="opacity:0.1;enable-background:new    ;" points="470.418,430.376 468.118,447.167 401.393,447.167 399.092,430.376 
	"/>
<g>
	<path style="fill:#FDBA6D;" d="M0,370.292v39.262c0,11.499,9.322,20.822,20.822,20.822h39.262
		C60.084,397.193,33.183,370.292,0,370.292z"/>
	<path style="fill:#FDBA6D;" d="M0,175.76v-39.262c0-11.5,9.322-20.822,20.822-20.822h39.262C60.084,148.859,33.183,175.76,0,175.76
		z"/>
	<path style="fill:#FDBA6D;" d="M512,370.292v39.262c0,11.499-9.322,20.822-20.822,20.822h-39.262
		C451.916,397.193,478.817,370.292,512,370.292z"/>
	<path style="fill:#FDBA6D;" d="M512,175.76v-39.262c0-11.5-9.322-20.822-20.822-20.822h-39.262
		C451.916,148.859,478.817,175.76,512,175.76z"/>
</g>
<path style="fill:#445258;" d="M361.716,115.676h-30.145v-40.42c0-5.745-4.674-10.419-10.419-10.419H190.848
	c-5.745,0-10.419,4.674-10.419,10.419v40.419h-30.145V75.256c0-22.367,18.197-40.564,40.564-40.564h130.304
	c22.367,0,40.564,18.197,40.564,40.564L361.716,115.676L361.716,115.676z"/>
<rect x="91.5" y="115.68" style="opacity:0.1;enable-background:new    ;" width="45.525" height="314.7"/>
<rect x="374.98" y="115.68" style="opacity:0.1;enable-background:new    ;" width="45.525" height="314.7"/>
<path style="fill:#FFFFFF;" d="M345.906,396.201l-68.135-24.799c-14.584-5.308-22.104-21.434-16.795-36.018l11.733-32.235
	c5.308-14.584,21.434-22.103,36.018-16.795l68.135,24.799c14.584,5.308,22.103,21.434,16.795,36.018l-11.733,32.235
	C376.616,393.988,360.49,401.508,345.906,396.201z"/>
<path style="fill:#D674B6;" d="M352.305,376.799l-66.964-24.373c-4.31-1.569-6.532-6.334-4.964-10.644l11.307-31.065
	c1.569-4.31,6.334-6.532,10.644-4.963l66.964,24.373c4.31,1.569,6.532,6.334,4.963,10.644l-11.307,31.065
	C361.38,376.145,356.615,378.368,352.305,376.799z"/>
<path style="fill:#FFFFFF;" d="M63.201,179.893c-25.216,9.521-42.884,34.42-41.557,63.261c1.527,33.191,28.628,60.036,61.831,61.27
	c29.231,1.087,54.304-17.335,63.272-43.273c1.318-3.813,0.335-8.046-2.558-10.859l-70.075-68.141
	C71.225,179.342,66.971,178.469,63.201,179.893z"/>
<path style="fill:#97D68F;" d="M77.074,197.072c-20.021,4.097-35.081,21.811-35.081,43.043c0,24.265,19.671,43.936,43.936,43.936
	c21.232,0,38.946-15.06,43.043-35.081L77.074,197.072z"/>
<path style="opacity:0.05;enable-background:new    ;" d="M144.189,250.292L97.94,205.32l-13.072-9.797
	c-2.889-2.809-6.731-0.472-6.862,0.45l0.007-0.011c-0.395,2.908-0.608,5.874-0.608,8.891c0,36.156,28.844,65.554,64.774,66.49
	c1.801-3.238,3.34-6.642,4.568-10.193C148.065,257.339,147.081,253.104,144.189,250.292z"/>
<path style="fill:#E5E5E5;" d="M144.189,250.292l-70.075-68.141c-2.889-2.809-7.143-3.682-10.913-2.258
	c-0.24,0.091-0.474,0.192-0.713,0.285c2.998-1.059,4.895,1.501,4.763,2.422l0.007-0.011c-0.395,2.908-0.608,5.874-0.608,8.891
	c0,36.746,29.789,66.535,66.535,66.535c3.629,0,7.189-0.292,10.66-0.852c1.191-0.197,3.296,1.454,3.19,2.905
	C147.844,256.556,146.811,252.841,144.189,250.292z"/>
<g>
	<path style="fill:#445258;" d="M176.679,198.842c-4.142,0-7.5-3.358-7.5-7.5v-13.529c0-4.142,3.358-7.5,7.5-7.5s7.5,3.358,7.5,7.5
		v13.529C184.179,195.484,180.821,198.842,176.679,198.842z"/>
	<path style="fill:#445258;" d="M256,224.515L256,224.515c-12.612,0-22.836-10.224-22.836-22.836v-16.728
		c0-3.365,2.728-6.093,6.093-6.093h33.486c3.365,0,6.093,2.728,6.093,6.093v16.728C278.836,214.291,268.612,224.515,256,224.515z"/>
	<path style="fill:#445258;" d="M335.321,198.842c-4.142,0-7.5-3.358-7.5-7.5v-13.529c0-4.142,3.358-7.5,7.5-7.5s7.5,3.358,7.5,7.5
		v13.529C342.821,195.484,339.463,198.842,335.321,198.842z"/>
</g>
<path style="opacity:0.1;enable-background:new    ;" d="M491.178,115.676h-30.042c11.499,0,20.822,9.322,20.822,20.822v273.057
	c0,11.499-9.322,20.822-20.822,20.822h30.042c11.5,0,20.822-9.322,20.822-20.822V136.498
	C512,124.998,502.678,115.676,491.178,115.676z"/>
<rect x="150.28" y="97.87" style="opacity:0.1;enable-background:new    ;" width="30.14" height="17.806"/>
<rect x="331.57" y="97.87" style="opacity:0.1;enable-background:new    ;" width="30.14" height="17.806"/>
<g>
</g>
<g>
</g>
<g>
</g>
<g>
</g>
<g>
</g>
<g>
</g>
<g>
</g>
<g>
</g>
<g>
</g>
<g>
</g>
<g>
</g>
<g>
</g>
<g>
</g>
<g>
</g>
<g>
</g>
</svg>
