<?xml version="1.0" encoding="iso-8859-1"?>
<!-- Generator: Adobe Illustrator 21.0.0, SVG Export Plug-In . SVG Version: 6.00 Build 0)  -->
<svg version="1.1" id="Capa_1" xmlns="http://www.w3.org/2000/svg" xmlns:xlink="http://www.w3.org/1999/xlink" x="0px" y="0px"
	 viewBox="0 0 512 512" style="enable-background:new 0 0 512 512;" xml:space="preserve">
<rect x="138.45" y="61.6" style="fill:#EE6B28;" width="235.1" height="87.12"/>
<rect x="138.45" y="61.6" style="fill:#D85319;" width="30.905" height="87.12"/>
<path style="fill:#FF8C4F;" d="M404.773,512H107.227c-9.139,0-16.547-7.409-16.547-16.547V146.784
	c0-9.139,7.409-16.547,16.547-16.547h297.546c9.139,0,16.547,7.409,16.547,16.547v348.669C421.32,504.591,413.912,512,404.773,512z"
	/>
<path style="fill:#EE6B28;" d="M121.585,495.453v-348.67c0-9.139,7.409-16.547,16.547-16.547h-30.905
	c-9.139,0-16.547,7.408-16.547,16.547v348.669c0,9.139,7.409,16.547,16.547,16.547h30.905
	C128.994,512,121.585,504.592,121.585,495.453z"/>
<path style="fill:#FFCE1C;" d="M396.41,90.095H115.59c-5.948,0-10.77-4.822-10.77-10.77V10.77c0-5.948,4.822-10.77,10.77-10.77
	h280.82c5.948,0,10.77,4.822,10.77,10.77v68.555C407.18,85.273,402.358,90.095,396.41,90.095z"/>
<path style="fill:#ECB000;" d="M135.726,79.324V10.77c0-5.948,4.822-10.77,10.77-10.77H115.59c-5.948,0-10.77,4.822-10.77,10.77
	v68.554c0,5.948,4.822,10.77,10.77,10.77h30.905C140.548,90.095,135.726,85.273,135.726,79.324z"/>
<rect x="90.68" y="218.1" style="fill:#FFCE1C;" width="330.64" height="206.04"/>
<rect x="90.68" y="218.1" style="fill:#ECB000;" width="30.905" height="206.04"/>
<path style="fill:#EFEDEE;" d="M312.653,360.048H199.347c-23.9,0-43.274-19.375-43.274-43.274l0,0
	c0-23.9,19.375-43.274,43.274-43.274h113.307c23.9,0,43.274,19.375,43.274,43.274l0,0
	C355.928,340.674,336.553,360.048,312.653,360.048z"/>
<path style="fill:#D4D2D3;" d="M186.978,316.774L186.978,316.774c0-23.9,19.375-43.274,43.274-43.274h-30.905
	c-23.9,0-43.274,19.374-43.274,43.274l0,0c0,23.9,19.375,43.274,43.274,43.274h30.905
	C206.352,360.048,186.978,340.674,186.978,316.774z"/>
<path style="fill:#2FC8B4;" d="M355.928,316.774L355.928,316.774c0-23.9-19.375-43.274-43.274-43.274H256v86.549h56.653
	C336.553,360.048,355.928,340.674,355.928,316.774z"/>
<g>
	<rect x="160.97" style="fill:#ECB000;" width="15" height="90.09"/>
	<rect x="219.32" style="fill:#ECB000;" width="15" height="90.09"/>
	<rect x="277.68" style="fill:#ECB000;" width="15" height="90.09"/>
	<rect x="336.03" style="fill:#ECB000;" width="15" height="90.09"/>
</g>
<g>
</g>
<g>
</g>
<g>
</g>
<g>
</g>
<g>
</g>
<g>
</g>
<g>
</g>
<g>
</g>
<g>
</g>
<g>
</g>
<g>
</g>
<g>
</g>
<g>
</g>
<g>
</g>
<g>
</g>
</svg>
