<?xml version="1.0" encoding="iso-8859-1"?>
<!-- Generator: Adobe Illustrator 21.0.0, SVG Export Plug-In . SVG Version: 6.00 Build 0)  -->
<svg version="1.1" id="Capa_1" xmlns="http://www.w3.org/2000/svg" xmlns:xlink="http://www.w3.org/1999/xlink" x="0px" y="0px"
	 viewBox="0 0 512 512" style="enable-background:new 0 0 512 512;" xml:space="preserve">
<g>
	<path style="fill:#3A484A;" d="M256.001,140.032c-4.143,0-7.5-3.358-7.5-7.5V7.5c0-4.142,3.357-7.5,7.5-7.5s7.5,3.358,7.5,7.5
		v125.032C263.501,136.674,260.144,140.032,256.001,140.032z"/>
	<path style="fill:#3A484A;" d="M332.005,140.032c-2.157,0-4.298-0.925-5.781-2.717l-70.21-84.802l-69.893,84.79
		c-2.634,3.196-7.36,3.651-10.558,1.017c-3.196-2.634-3.651-7.361-1.017-10.558l75.667-91.795c1.423-1.726,3.542-2.727,5.779-2.729
		c0.002,0,0.005,0,0.008,0c2.234,0,4.352,0.996,5.777,2.717l76,91.795c2.642,3.191,2.196,7.918-0.994,10.56
		C335.385,139.467,333.689,140.032,332.005,140.032z"/>
</g>
<path style="fill:#DC5A64;" d="M301.156,512h-90.309c-32.249,0-58.391-26.143-58.391-58.391V158.124
	c0-19.657,15.935-35.592,35.592-35.592h135.909c19.657,0,35.592,15.935,35.592,35.592v295.485
	C359.547,485.857,333.404,512,301.156,512z"/>
<path style="fill:#BF4E57;" d="M183.137,453.609V158.124c0-19.657,15.935-35.592,35.592-35.592h-30.682
	c-19.657,0-35.592,15.935-35.592,35.592v295.485c0,32.249,26.143,58.391,58.391,58.391h30.682
	C209.28,512,183.137,485.857,183.137,453.609z"/>
<rect x="152.451" y="164.19" style="fill:#FFCE1C;" width="207.09" height="76.52"/>
<rect x="152.451" y="164.19" style="fill:#ECB000;" width="30.682" height="76.52"/>
<g>
</g>
<g>
</g>
<g>
</g>
<g>
</g>
<g>
</g>
<g>
</g>
<g>
</g>
<g>
</g>
<g>
</g>
<g>
</g>
<g>
</g>
<g>
</g>
<g>
</g>
<g>
</g>
<g>
</g>
</svg>
