<svg height="512pt" viewBox="0 -42 512 512" width="512pt" xmlns="http://www.w3.org/2000/svg"><path d="m456.394531 0h-400.789062c-21.269531 0-38.511719 17.242188-38.511719 38.515625v328.070313l238.90625 30.65625 238.90625-30.65625v-328.070313c0-21.269531-17.242188-38.515625-38.511719-38.515625zm0 0" fill="#efedee"/><path d="m137.554688 245.394531c-1.664063 0-3.339844-.535156-4.753907-1.640625-3.359375-2.625-3.957031-7.480468-1.328125-10.84375 6.1875-7.917968 12.789063-15.335937 19.621094-22.046875 3.042969-2.992187 7.933594-2.949219 10.925781.097657 2.988281 3.042968 2.945313 7.933593-.097656 10.925781-6.351563 6.242187-12.503906 13.152343-18.277344 20.539062-1.519531 1.949219-3.792969 2.96875-6.089843 2.96875zm40.726562-39.671875c-2.410156 0-4.78125-1.125-6.289062-3.230468-2.484376-3.472657-1.683594-8.296876 1.785156-10.78125 8.320312-5.949219 16.996094-11.039063 25.796875-15.128907 3.871093-1.796875 8.464843-.117187 10.265625 3.753907 1.796875 3.871093.117187 8.464843-3.753906 10.261718-7.933594 3.683594-15.777344 8.285156-23.316407 13.679688-1.363281.976562-2.933593 1.445312-4.488281 1.445312zm51.453125-23.632812c-3.527344 0-6.714844-2.433594-7.527344-6.023438-.945312-4.160156 1.664063-8.296875 5.828125-9.242187 9.75-2.210938 19.820313-3.355469 29.925782-3.410157 4.25-.011718 7.746093 3.417969 7.765624 7.6875.023438 4.265626-3.417968 7.742188-7.683593 7.765626-8.988281.046874-17.933594 1.066406-26.59375 3.027343-.574219.132813-1.148438.195313-1.714844.195313zm56.609375-5.671875c-3.652344 0-6.898438-2.601563-7.589844-6.320313-.773437-4.199218 1.996094-8.226562 6.191406-9.003906 8.972657-1.664062 17.582032-4.25 25.59375-7.695312 3.917969-1.683594 8.460938.128906 10.148438 4.050781 1.683594 3.917969-.128906 8.460937-4.046875 10.148437-9.066406 3.894532-18.78125 6.816406-28.882813 8.6875-.472656.089844-.945312.132813-1.414062.132813zm51.855469-22.449219c-2.34375 0-4.660157-1.066406-6.179688-3.085938-2.566406-3.410156-1.878906-8.253906 1.53125-10.816406 7.023438-5.28125 13.523438-11.472656 19.316407-18.402344 2.738281-3.273437 7.609374-3.710937 10.882812-.972656 3.277344 2.738282 3.710938 7.609375.972656 10.882813-6.554687 7.839843-13.917968 14.851562-21.886718 20.84375-1.390626 1.042969-3.019532 1.550781-4.636719 1.550781zm0 0" fill="#fb7073"/><path d="m234.980469 47.550781c-3.019531-3.019531-7.910157-3.019531-10.925781 0l-16.34375 16.339844-16.339844-16.339844c-3.019532-3.019531-7.910156-3.019531-10.925782 0-3.019531 3.015625-3.019531 7.90625 0 10.925781l16.339844 16.339844-16.339844 16.34375c-3.019531 3.015625-3.019531 7.910156 0 10.925782 1.507813 1.507812 3.484376 2.261718 5.460938 2.261718s3.957031-.753906 5.464844-2.261718l16.339844-16.34375 16.34375 16.34375c1.507812 1.507812 3.484374 2.261718 5.460937 2.261718s3.957031-.753906 5.464844-2.261718c3.015625-3.019532 3.015625-7.910157 0-10.925782l-16.34375-16.34375 16.34375-16.339844c3.015625-3.019531 3.015625-7.910156 0-10.925781zm0 0" fill="#87cde9"/><path d="m307.777344 251.867188c-3.015625-3.015626-7.90625-3.015626-10.925782 0l-16.339843 16.34375-16.34375-16.34375c-3.019531-3.015626-7.910157-3.015626-10.925781 0-3.019532 3.019531-3.019532 7.910156 0 10.925781l16.339843 16.34375-16.339843 16.339843c-3.019532 3.019532-3.019532 7.910157 0 10.925782 1.507812 1.511718 3.484374 2.265625 5.460937 2.265625s3.957031-.753907 5.464844-2.265625l16.34375-16.339844 16.339843 16.339844c1.507813 1.511718 3.488282 2.265625 5.464844 2.265625 1.976563 0 3.953125-.753907 5.460938-2.265625 3.019531-3.015625 3.019531-7.910156 0-10.925782l-16.339844-16.339843 16.339844-16.34375c3.019531-3.015625 3.019531-7.90625 0-10.925781zm0 0" fill="#87cde9"/><path d="m439.609375 235.527344 16.34375-16.34375c3.015625-3.015625 3.015625-7.910156 0-10.925782-3.015625-3.019531-7.910156-3.019531-10.925781 0l-16.34375 16.34375-16.339844-16.34375c-3.019531-3.019531-7.910156-3.015624-10.925781 0-3.019531 3.019532-3.019531 7.910157 0 10.925782l16.339843 16.34375-16.339843 16.339844c-3.019531 3.019531-3.019531 7.910156 0 10.925781 1.507812 1.511719 3.484375 2.265625 5.460937 2.265625 1.976563 0 3.957032-.753906 5.464844-2.265625l16.339844-16.339844 16.34375 16.339844c1.507812 1.511719 3.484375 2.265625 5.460937 2.265625 1.980469 0 3.957031-.753906 5.464844-2.265625 3.015625-3.015625 3.015625-7.910157 0-10.925781zm0 0" fill="#fb7073"/><path d="m110.585938 116.3125c-3.019532-3.015625-7.910157-3.015625-10.925782 0l-16.34375 16.34375-16.34375-16.34375c-3.015625-3.015625-7.910156-3.015625-10.925781 0-3.015625 3.019531-3.015625 7.910156 0 10.925781l16.34375 16.34375-16.34375 16.34375c-3.015625 3.015625-3.015625 7.910157 0 10.925781 1.507813 1.507813 3.484375 2.261719 5.464844 2.261719 1.976562 0 3.953125-.753906 5.460937-2.261719l16.34375-16.34375 16.339844 16.34375c1.507812 1.507813 3.488281 2.261719 5.464844 2.261719 1.976562 0 3.953125-.753906 5.460937-2.261719 3.019531-3.019531 3.019531-7.910156 0-10.925781l-16.339843-16.34375 16.339843-16.339843c3.019531-3.019532 3.019531-7.910157.003907-10.929688zm0 0" fill="#fb7073"/><path d="m17.09375 335.683594v30.902344l238.90625 30.65625 238.90625-30.65625v-30.902344zm0 0" fill="#d9d7d8"/><path d="m494.90625 366.585938h-477.8125c-9.441406 0-17.09375 7.652343-17.09375 17.09375v27.121093c0 9.441407 7.652344 17.09375 17.09375 17.09375h477.8125c9.441406 0 17.09375-7.652343 17.09375-17.09375v-27.121093c0-9.441407-7.652344-17.09375-17.09375-17.09375zm0 0" fill="#bab8b9"/><g fill="#87cde9"><path d="m155.6875 274.671875c0 23.042969-18.679688 41.722656-41.722656 41.722656-23.042969 0-41.722656-18.679687-41.722656-41.722656s18.679687-41.722656 41.722656-41.722656c23.042968 0 41.722656 18.679687 41.722656 41.722656zm0 0"/><path d="m422.503906 88.722656c0 23.042969-18.679687 41.722656-41.722656 41.722656s-41.722656-18.679687-41.722656-41.722656c0-23.039062 18.679687-41.71875 41.722656-41.71875s41.722656 18.679688 41.722656 41.71875zm0 0"/></g></svg>