<?xml version="1.0" encoding="iso-8859-1"?>
<!-- Generator: Adobe Illustrator 21.0.0, SVG Export Plug-In . SVG Version: 6.00 Build 0)  -->
<svg version="1.1" id="Capa_1" xmlns="http://www.w3.org/2000/svg" xmlns:xlink="http://www.w3.org/1999/xlink" x="0px" y="0px"
	 viewBox="0 0 512 512" style="enable-background:new 0 0 512 512;" xml:space="preserve">
<path style="fill:#EFEDEE;" d="M391.225,512h-270.45c-21.22,0-38.778-16.51-40.083-37.69L62.323,176.011
	c-1.114-18.096,9.11-34.986,25.66-42.388l95.467-42.7c46.163-20.647,98.936-20.647,145.099,0l95.467,42.7
	c16.55,7.402,26.775,24.292,25.66,42.388L431.307,474.31C430.003,495.49,412.445,512,391.225,512z"/>
<g>
	<path style="fill:#D4D2D3;" d="M143.534,474.31l-18.369-298.298c-1.114-18.096,9.11-34.986,25.66-42.388l95.467-42.7
		c13.268-5.934,27.083-10.153,41.129-12.676c-34.824-6.256-71.075-2.037-103.97,12.676l-95.467,42.7
		c-16.55,7.402-26.775,24.292-25.66,42.388L80.693,474.31C81.997,495.49,99.555,512,120.775,512h62.841
		C162.396,512,144.838,495.49,143.534,474.31z"/>
	<path style="fill:#D4D2D3;" d="M328.549,90.924c-46.163-20.647-98.936-20.647-145.099,0l-68.73,30.741
		c0.391,80.556,66.04,145.974,146.687,145.974c79.042,0,143.673-62.84,146.583-141.183L328.549,90.924z"/>
</g>
<path style="fill:#3A484A;" d="M120.775,480.766c-4.706,0-8.617-3.679-8.906-8.376l-18.37-298.299
	c-0.314-5.076,2.595-9.881,7.237-11.957l95.467-42.699c18.935-8.469,39.054-12.763,59.797-12.763s40.861,4.294,59.797,12.763
	l95.468,42.699c4.641,2.076,7.55,6.881,7.237,11.955l-18.371,298.3c-0.289,4.697-4.201,8.376-8.906,8.376h-270.45V480.766z"/>
<g>
	<path style="fill:#313D40;" d="M142.774,472.39l-18.369-298.299c-0.314-5.076,2.595-9.881,7.237-11.957l95.467-42.699
		c14.195-6.349,29.055-10.351,44.344-11.957c-5.106-0.536-10.26-0.806-15.453-0.806c-20.742,0-40.861,4.294-59.797,12.763
		l-95.467,42.699c-4.642,2.077-7.551,6.881-7.237,11.957l18.369,298.299c0.289,4.697,4.201,8.376,8.907,8.376h30.905
		C146.975,480.766,143.063,477.087,142.774,472.39z"/>
	<path style="fill:#313D40;" d="M315.797,119.435c-18.935-8.469-39.054-12.763-59.797-12.763s-40.861,4.294-59.797,12.763
		l-77.691,34.749c15.1,64.929,73.437,113.454,142.896,113.454c67.898,0,125.162-46.371,141.807-109.104L315.797,119.435z"/>
</g>
<circle style="fill:#3A484A;" cx="261.41" cy="120.94" r="120.94"/>
<circle style="fill:#EFEDEE;" cx="261.41" cy="120.94" r="92.21"/>
<path style="fill:#D4D2D3;" d="M261.408,49.339c47.441,0,86.508,35.83,91.631,81.905c0.376-3.383,0.576-6.819,0.576-10.302
	c0-50.924-41.282-92.207-92.207-92.207s-92.207,41.282-92.207,92.207c0,3.483,0.2,6.919,0.576,10.302
	C174.9,85.169,213.967,49.339,261.408,49.339z"/>
<circle style="fill:#313D40;" cx="261.41" cy="120.94" r="16.226"/>
<g>
	<path style="fill:#EFEDEE;" d="M256.001,376.704c-9.782,0-18.89-5.272-23.768-13.759c-2.063-3.591-0.825-8.176,2.766-10.24
		s8.175-0.827,10.24,2.765c2.21,3.845,6.333,6.234,10.762,6.234c4.427,0,8.551-2.389,10.762-6.234
		c2.065-3.591,6.651-4.826,10.24-2.763c3.591,2.065,4.828,6.649,2.764,10.241C274.887,371.433,265.781,376.704,256.001,376.704z"/>
	<path style="fill:#EFEDEE;" d="M321.612,346.543c-4.143,0-7.5-3.358-7.5-7.5v-11.698c0-4.142,3.357-7.5,7.5-7.5s7.5,3.358,7.5,7.5
		v11.698C329.112,343.185,325.755,346.543,321.612,346.543z"/>
	<path style="fill:#EFEDEE;" d="M190.389,346.543c-4.143,0-7.5-3.358-7.5-7.5v-11.698c0-4.142,3.357-7.5,7.5-7.5s7.5,3.358,7.5,7.5
		v11.698C197.889,343.185,194.531,346.543,190.389,346.543z"/>
</g>
<g>
	<path style="fill:#DC5A64;" d="M327.461,368.657h-11.698c-4.143,0-7.5-3.358-7.5-7.5s3.357-7.5,7.5-7.5h11.698
		c4.143,0,7.5,3.358,7.5,7.5S331.604,368.657,327.461,368.657z"/>
	<path style="fill:#DC5A64;" d="M196.238,368.657H184.54c-4.143,0-7.5-3.358-7.5-7.5s3.357-7.5,7.5-7.5h11.698
		c4.143,0,7.5,3.358,7.5,7.5S200.381,368.657,196.238,368.657z"/>
</g>
<path style="fill:#3A484A;" d="M261.408,192.748c-4.143,0-7.5-3.358-7.5-7.5v-64.306c0-4.142,3.357-7.5,7.5-7.5s7.5,3.358,7.5,7.5
	v64.306C268.908,189.39,265.551,192.748,261.408,192.748z"/>
<g>
</g>
<g>
</g>
<g>
</g>
<g>
</g>
<g>
</g>
<g>
</g>
<g>
</g>
<g>
</g>
<g>
</g>
<g>
</g>
<g>
</g>
<g>
</g>
<g>
</g>
<g>
</g>
<g>
</g>
</svg>
