<svg id="Capa_1" enable-background="new 0 0 512 512" height="512" viewBox="0 0 512 512" width="512" xmlns="http://www.w3.org/2000/svg"><g><g><path d="m34.203 50.755v60.905h140.59c28.031 0 50.755 22.724 50.755 50.755v40.362h60.905v-40.362c0-61.668-49.992-111.66-111.66-111.66z" fill="#f2f6fc"/></g><g><path d="m144.34 81.207c0-16.819 13.634-30.453 30.453-30.453h-140.59v60.905h140.59c-16.819.001-30.453-13.633-30.453-30.452z" fill="#e9edf5"/></g><g><path d="m34.203 162.414c-16.819 0-30.453-13.634-30.453-30.453v-101.508c0-16.819 13.634-30.453 30.453-30.453 16.819 0 30.453 13.634 30.453 30.453v101.509c-.001 16.818-13.635 30.452-30.453 30.452z" fill="#fff8c5"/></g><g><path d="m34.203 81.207c-16.819 0-30.453-13.634-30.453-30.453v81.207c0 16.819 13.634 30.453 30.453 30.453s30.453-13.634 30.453-30.453v-81.206c-.001 16.818-13.635 30.452-30.453 30.452z" fill="#fff48f"/></g><g><path d="m174.793 202.777c0-22.425 18.179-40.604 40.604-40.604h81.207c22.425 0 40.604 18.179 40.604 40.604 0 22.425-18.179 40.604-40.604 40.604h-81.207c-22.425-.001-40.604-18.18-40.604-40.604z" fill="#fff48f"/></g><g><path d="m467.646 283.984h-423.292c-22.425 0-40.604-18.179-40.604-40.604 0-22.425 18.179-40.604 40.604-40.604h423.293c22.425 0 40.604 18.179 40.604 40.604-.001 22.425-18.18 40.604-40.605 40.604z" fill="#fff8c5"/></g><g><g><path d="m203.616 252.917c-4.143 0-7.5-3.358-7.5-7.5v-10.066c0-4.142 3.357-7.5 7.5-7.5s7.5 3.358 7.5 7.5v10.066c0 4.142-3.357 7.5-7.5 7.5z" fill="#555a66"/></g><g><path d="m308.384 252.917c-4.143 0-7.5-3.358-7.5-7.5v-10.066c0-4.142 3.357-7.5 7.5-7.5s7.5 3.358 7.5 7.5v10.066c0 4.142-3.358 7.5-7.5 7.5z" fill="#555a66"/></g><g><path d="m256 258.909c-7.462 0-14.557-3.231-19.465-8.865-2.722-3.123-2.396-7.86.728-10.582 3.122-2.721 7.859-2.396 10.582.728 2.059 2.363 5.031 3.719 8.155 3.719s6.097-1.355 8.155-3.719c2.722-3.125 7.459-3.449 10.582-.728s3.449 7.458.728 10.582c-4.908 5.634-12.003 8.865-19.465 8.865z" fill="#555a66"/></g></g><g><path d="m134.697 243.38c0-22.425 18.179-40.604 40.604-40.604h-130.947c-22.425 0-40.604 18.179-40.604 40.604 0 22.425 18.179 40.604 40.604 40.604h130.946c-22.424 0-40.603-18.179-40.603-40.604z" fill="#fff48f"/></g><g><g><g><path d="m44.354 512c-4.143 0-7.5-3.358-7.5-7.5v-179.913c0-4.142 3.357-7.5 7.5-7.5s7.5 3.358 7.5 7.5v179.913c0 4.142-3.358 7.5-7.5 7.5z" fill="#82baff"/></g></g><g><g><path d="m114.902 461.246c-4.143 0-7.5-3.358-7.5-7.5v-25.612c0-4.142 3.357-7.5 7.5-7.5s7.5 3.358 7.5 7.5v25.612c0 4.142-3.357 7.5-7.5 7.5z" fill="#82baff"/></g></g><g><g><path d="m114.902 395.03c-4.143 0-7.5-3.358-7.5-7.5v-62.942c0-4.142 3.357-7.5 7.5-7.5s7.5 3.358 7.5 7.5v62.942c0 4.142-3.357 7.5-7.5 7.5z" fill="#82baff"/></g></g><g><g><path d="m326.549 435.633c-4.143 0-7.5-3.358-7.5-7.5v-103.546c0-4.142 3.357-7.5 7.5-7.5s7.5 3.358 7.5 7.5v103.546c0 4.142-3.358 7.5-7.5 7.5z" fill="#82baff"/></g></g><g><g><path d="m397.098 435.633c-4.143 0-7.5-3.358-7.5-7.5v-43.649c0-4.142 3.357-7.5 7.5-7.5s7.5 3.358 7.5 7.5v43.649c0 4.142-3.358 7.5-7.5 7.5z" fill="#82baff"/></g></g><g><g><path d="m397.098 351.381c-4.143 0-7.5-3.358-7.5-7.5v-19.293c0-4.142 3.357-7.5 7.5-7.5s7.5 3.358 7.5 7.5v19.293c0 4.142-3.358 7.5-7.5 7.5z" fill="#82baff"/></g></g><g><g><path d="m185.451 435.633c-4.143 0-7.5-3.358-7.5-7.5v-103.546c0-4.142 3.357-7.5 7.5-7.5s7.5 3.358 7.5 7.5v103.546c0 4.142-3.357 7.5-7.5 7.5z" fill="#82baff"/></g></g><g><g><path d="m256 476.237c-4.143 0-7.5-3.358-7.5-7.5v-144.15c0-4.142 3.357-7.5 7.5-7.5s7.5 3.358 7.5 7.5v144.15c0 4.142-3.357 7.5-7.5 7.5z" fill="#82baff"/></g></g><g><g><path d="m467.646 512c-4.143 0-7.5-3.358-7.5-7.5v-179.913c0-4.142 3.357-7.5 7.5-7.5s7.5 3.358 7.5 7.5v179.913c0 4.142-3.357 7.5-7.5 7.5z" fill="#82baff"/></g></g><g><g><path d="m326.549 512c-4.143 0-7.5-3.358-7.5-7.5v-35.763c0-4.142 3.357-7.5 7.5-7.5s7.5 3.358 7.5 7.5v35.763c0 4.142-3.358 7.5-7.5 7.5z" fill="#82baff"/></g></g></g></g></svg>