<svg height="511pt" viewBox="-69 0 511 511.99998" width="511pt" xmlns="http://www.w3.org/2000/svg"><path d="m286.988281 374.257812c-1.585937 3.878907-8.695312 19.730469-24.753906 35.304688-24.5 23.757812-57.363281 35.804688-97.671875 35.804688-40.292969 0-73.140625-12.035157-97.636719-35.773438-16.054687-15.554688-23.179687-31.398438-24.789062-35.335938h-10.375l9.15625 77c4.121093 34.648438 33.5 60.742188 68.394531 60.742188h110.5c34.890625 0 64.273438-26.09375 68.394531-60.742188l9.15625-77zm0 0" fill="#b0f0ef"/><path d="m128.820312 452.292969-1.277343-10.765625c-23.8125-5.269532-44.113281-15.941406-60.617188-31.933594-16.054687-15.554688-23.179687-31.398438-24.789062-35.335938h-10.375l9.15625 77c4.121093 34.648438 33.5 60.742188 68.394531 60.742188h87.769531c-34.890625 0-64.140625-25.058594-68.261719-59.707031zm0 0" fill="#76e7e7"/><path d="m99.953125 170.503906-15.003906-78.113281c-2.292969-11.933594-10.257813-22.0625-21.3125-27.105469l-50.140625-22.867187c-11.15625-5.089844-16.078125-18.261719-10.988282-29.421875 5.089844-11.160156 18.261719-16.078125 29.421876-10.988282l50.136718 22.867188c24.117188 10.996094 41.5 33.105469 46.5 59.136719l15.003906 78.113281zm0 0" fill="#f9ee80"/><path d="m336.414062 34.285156-15.59375-19.625c-7.464843-9.398437-21.734374-9.398437-29.199218 0l-15.589844 19.625-19.9375-2.691406c-9.578125-1.296875-15.761719 9.84375-9.59375 17.289062l19.394531 23.40625h80.652344l19.394531-23.40625c6.167969-7.445312-.011718-18.585937-9.59375-17.289062zm0 0" fill="#60daa8"/><path d="m372.949219 104.503906c0 36.851563-29.875 90.191406-66.726563 90.191406-36.851562 0-66.726562-53.339843-66.726562-90.191406 0-36.851562 29.871094-46.617187 66.726562-46.617187 36.851563 0 66.726563 9.765625 66.726563 46.617187zm0 0" fill="#fb695b"/><path d="m352.472656 164.78125c-6.101562-14.90625-13.035156-32.171875-27.949218-52.851562-22.632813-31.378907-60.015626-31.148438-80.921876-28.023438-2.65625 5.675781-4.105468 12.480469-4.105468 20.597656 0 36.851563 29.871094 90.191406 66.726562 90.191406 17.957032.003907 34.257813-12.664062 46.25-29.914062zm0 0" fill="#f54432"/><path d="m256.683594 116.796875h-184.242188c-37.9375 0-67.359375 33.128906-62.878906 70.800781l22.496094 189.160156c.003906.015626 27.574218 78.910157 132.503906 78.910157 104.9375 0 132.503906-78.910157 132.503906-78.910157l22.496094-189.160156c4.480469-37.671875-24.945312-70.800781-62.878906-70.800781zm0 0" fill="#ffb3c2"/><path d="m160.210938 116.796875h-87.769532c-37.9375 0-67.359375 33.128906-62.878906 70.800781l22.496094 189.160156c.003906.011719 21.128906 60.460938 96.761718 75.535157l-31.488281-264.695313c-4.480469-37.671875 24.945313-70.800781 62.878907-70.800781zm0 0" fill="#ff899f"/><path d="m107.0625 220.761719c0-9.351563-9.523438-16.933594-21.265625-16.933594s-21.265625 7.582031-21.265625 16.933594c0 9.351562 9.523438 16.933593 21.265625 16.933593s21.265625-7.582031 21.265625-16.933593zm0 0" fill="#ffdee4"/><path d="m264.589844 220.761719c0-9.351563-9.519532-16.933594-21.261719-16.933594-11.746094 0-21.265625 7.582031-21.265625 16.933594 0 9.351562 9.519531 16.933593 21.265625 16.933593 11.742187 0 21.261719-7.582031 21.261719-16.933593zm0 0" fill="#ffdee4"/><g fill="#454545"><path d="m228.234375 217.90625c-4.269531 0-7.726563-3.460938-7.726563-7.726562v-12.828126c0-4.265624 3.457032-7.726562 7.726563-7.726562 4.265625 0 7.726563 3.460938 7.726563 7.726562v12.828126c0 4.265624-3.460938 7.726562-7.726563 7.726562zm0 0"/><path d="m100.890625 217.90625c-4.269531 0-7.726563-3.460938-7.726563-7.726562v-12.828126c0-4.265624 3.457032-7.726562 7.726563-7.726562 4.265625 0 7.726563 3.460938 7.726563 7.726562v12.828126c0 4.265624-3.460938 7.726562-7.726563 7.726562zm0 0"/><path d="m169.839844 202.460938c-1.734375 2.539062-4.253906 2.847656-5.277344 2.847656s-3.589844-.277344-5.277344-2.847656c-2.34375-3.566407-7.136718-4.558594-10.699218-2.214844-3.566407 2.339844-4.558594 7.132812-2.21875 10.699218 4.039062 6.144532 10.839843 9.816407 18.195312 9.816407 7.351562 0 14.152344-3.671875 18.191406-9.816407 2.34375-3.566406 1.351563-8.359374-2.214844-10.699218-1.308593-.859375-7.089843-3.085938-10.699218 2.214844zm0 0"/></g><path d="m133.4375 320.875c0 9.570312-7.753906 17.324219-17.320312 17.324219-9.566407 0-17.324219-7.753907-17.324219-17.324219 0-9.566406 7.757812-17.320312 17.324219-17.320312 9.566406 0 17.320312 7.753906 17.320312 17.320312zm0 0" fill="#ff5f7f"/><path d="m230.328125 320.875c0 9.570312-7.753906 17.324219-17.320313 17.324219-9.566406 0-17.324218-7.753907-17.324218-17.324219 0-9.566406 7.757812-17.320312 17.324218-17.320312 9.566407 0 17.320313 7.753906 17.320313 17.320312zm0 0" fill="#ff5f7f"/><path d="m181.882812 385.453125c0 9.570313-7.753906 17.324219-17.320312 17.324219s-17.324219-7.753906-17.324219-17.324219c0-9.566406 7.757813-17.320313 17.324219-17.320313s17.320312 7.753907 17.320312 17.320313zm0 0" fill="#ff5f7f"/></svg>