<svg height="512pt" viewBox="0 -22 512 512" width="512pt" xmlns="http://www.w3.org/2000/svg"><path d="m473.652344 150.449219-178.851563-137.277344c-22.886719-17.5625-54.714843-17.5625-77.601562 0l-178.851563 137.277344c-24.175781 18.554687-38.347656 47.296875-38.347656 77.773437v174.890625c0 35.539063 28.8125 64.355469 64.355469 64.355469h383.289062c35.542969 0 64.355469-28.816406 64.355469-64.355469v-174.890625c0-30.476562-14.171875-59.21875-38.347656-77.773437zm0 0" fill="#00a5fb"/><path d="m449.734375 326.128906h-387.46875v-231.414062c0-29.148438 23.628906-52.773438 52.773437-52.773438h281.921876c29.144531 0 52.773437 23.625 52.773437 52.773438zm0 0" fill="#b0f0ef"/><path d="m256 215.445312c-103.816406 0-193.734375-49.847656-193.734375-49.847656v160.53125h387.46875v-160.53125s-89.917969 49.847656-193.734375 49.847656zm0 0" fill="#76e7e7"/><path d="m501.855469 184.792969-245.855469 118.96875-245.855469-118.96875c-6.589843 13.335937-10.144531 28.164062-10.144531 43.429687v174.890625c0 35.539063 28.8125 64.355469 64.355469 64.355469h383.289062c35.542969 0 64.355469-28.816406 64.355469-64.355469v-174.890625c0-15.265625-3.554688-30.09375-10.144531-43.429687zm0 0" fill="#00c5fd"/><path d="m363.113281 251.929688-107.113281 51.832031-107.113281-51.832031c-21.597657 27.546874-70.417969 80.003906-148.886719 112.03125v39.152343c0 35.539063 28.8125 64.355469 64.355469 64.355469h383.289062c35.542969 0 64.355469-28.816406 64.355469-64.355469v-39.152343c-78.46875-32.027344-127.289062-84.484376-148.886719-112.03125zm0 0" fill="#00b4fd"/><path d="m211.078125 267.300781-191.722656 181.816407c11.605469 11.351562 27.484375 18.347656 45 18.347656h383.289062c17.515625 0 33.398438-7 45.003907-18.351563l-191.726563-181.8125c-25.1875-23.882812-64.65625-23.882812-89.84375 0zm0 0" fill="#5ad6ff"/><g fill="#454545"><path d="m319.671875 388.34375c-4.269531 0-7.726563-3.457031-7.726563-7.726562v-12.824219c0-4.269531 3.457032-7.726563 7.726563-7.726563 4.265625 0 7.726563 3.457032 7.726563 7.726563v12.824219c0 4.269531-3.460938 7.726562-7.726563 7.726562zm0 0"/><path d="m192.328125 388.34375c-4.265625 0-7.726563-3.457031-7.726563-7.726562v-12.824219c0-4.269531 3.460938-7.726563 7.726563-7.726563 4.269531 0 7.726563 3.457032 7.726563 7.726563v12.824219c0 4.269531-3.460938 7.726562-7.726563 7.726562zm0 0"/><path d="m271.488281 383.238281c0-10.898437-6.933593-19.730469-15.488281-19.730469s-15.488281 8.832032-15.488281 19.730469c0 10.898438 6.933593 19.734375 15.488281 19.734375s15.488281-8.835937 15.488281-19.734375zm0 0"/></g><path d="m261.316406 105.480469c-1.136718-3.085938-4.082031-5.089844-7.394531-5.054688-3.289063.0625-6.179687 2.199219-7.199219 5.328125l-24.671875 75.550782c-.003906.015624-.011719.03125-.015625.050781l-5.675781 17.375c-1.324219 4.058593.890625 8.417969 4.949219 9.746093 4.054687 1.316407 8.417968-.890624 9.742187-4.949218l3.972657-12.167969h41.441406l4.578125 12.4375c1.152343 3.125 3.859375 6.679687 9.921875 4.582031 4.03125-1.394531 6.054687-5.914062 4.582031-9.917968zm-21.246094 70.425781 14.433594-44.203125 16.273438 44.203125zm0 0" fill="#516980"/><path d="m198.3125 100.421875h-61.117188c-4.269531 0-7.726562 3.460937-7.726562 7.726563 0 4.269531 3.457031 7.726562 7.726562 7.726562h22.832032v85.253906c0 4.269532 3.457031 7.726563 7.726562 7.726563 4.269532 0 7.726563-3.457031 7.726563-7.726563v-85.253906h22.832031c4.265625 0 7.726562-3.457031 7.726562-7.726562 0-4.265626-3.460937-7.726563-7.726562-7.726563zm0 0" fill="#516980"/><path d="m358.429688 154.640625 23.171874-42.8125c2.03125-3.753906.636719-8.441406-3.117187-10.472656s-8.441406-.632813-10.472656 3.117187l-18.367188 33.933594-18.371093-33.933594c-2.03125-3.753906-6.71875-5.148437-10.472657-3.117187-3.75 2.03125-5.144531 6.71875-3.113281 10.472656l23.171875 42.8125-23.171875 42.8125c-2.03125 3.753906-.78125 8.734375 3.113281 10.472656 5.378907 2.394531 9.078125-.535156 10.472657-3.117187l18.371093-33.9375 18.367188 33.9375c1.398437 2.582031 5.609375 5.667968 10.472656 3.117187 3.777344-1.984375 5.148437-6.722656 3.117187-10.472656zm0 0" fill="#516980"/></svg>