<svg height="512pt" viewBox="-29 0 512 512.00103" width="512pt" xmlns="http://www.w3.org/2000/svg"><path d="m290.128906 63.667969c-10.097656-27.292969-39.207031-43.226563-67.644531-37.058594-21.679687 4.703125-37.6875 20.503906-43.828125 39.863281-3.613281 11.382813-12.058594 20.507813-22.683594 25.960938-14.261718 7.320312-26.273437 19.34375-33.453125 35.21875-15.75 34.816406-1.832031 76.519531 31.671875 94.894531 36.890625 20.230469 82.851563 5.613281 101.457032-31.683594 5.757812-11.539062 8.199218-23.863281 7.699218-35.894531-.4375-10.398438 3.859375-20.316406 11.507813-27.378906 16.875-15.585938 23.953125-40.457032 15.273437-63.921875zm0 0" fill="#a4e7ff"/><path d="m264.328125 379.144531c-17.914063-17.914062-25.167969-44.863281-19.898437-73.941406 4.769531-26.347656 19.21875-52.679687 40.679687-74.140625s47.792969-35.90625 74.140625-40.679688c29.078125-5.269531 56.027344 1.984376 73.941406 19.898438 17.914063 17.917969 25.167969 44.867188 19.898438 73.945312-4.769532 26.347657-19.21875 52.675782-40.679688 74.136719-21.460937 21.460938-47.789062 35.910157-74.136718 40.683594-29.078126 5.265625-56.03125-1.984375-73.945313-19.902344zm135.496094-135.496093c-17.847657-17.84375-57.191407-3.367188-81.34375 20.785156-24.152344 24.148437-38.628907 63.496094-20.785157 81.34375 17.847657 17.84375 57.195313 3.371094 81.347657-20.78125 24.152343-24.152344 38.625-63.5 20.78125-81.347656zm0 0" fill="#dd6642"/><path d="m12.8125 332.394531c0 74.53125 60.417969 134.949219 134.945312 134.949219h80.761719c74.527344 0 134.949219-60.417969 134.949219-134.949219v-62.5625l-173.972656-10.300781-176.683594 10.300781zm0 0" fill="#e7896e"/><path d="m303.28125 156.089844h-230.285156c-33.238282 0-60.183594 26.945312-60.183594 60.183594l173.460938 12.363281 177.191406-12.363281c0-33.238282-26.945313-60.183594-60.183594-60.183594zm0 0" fill="#e7896e"/><path d="m149.035156 156.089844h-76.039062c-33.238282 0-60.183594 26.945312-60.183594 60.183594h78.480469c8.878906-57.886719 57.742187-60.183594 57.742187-60.183594zm0 0" fill="#dd6642"/><path d="m95.738281 269.832031h-82.925781v62.5625c0 74.53125 60.417969 134.949219 134.945312 134.949219h39.996094c-22.222656-71.910156-74.523437-141.308594-92.015625-197.511719zm0 0" fill="#dd6642"/><path d="m34.183594 424.148438c-29.863282 0-45.4375 35.90625-24.722656 57.414062 16.042968 16.652344 39.597656 30.4375 73.617187 30.4375h210.121094c34.019531 0 57.574219-13.785156 73.613281-30.4375 20.71875-21.507812 5.140625-57.414062-24.71875-57.414062zm0 0" fill="#76e7e7"/><path d="m95.539062 481.5625c-20.714843-21.507812-5.140624-57.414062 24.722657-57.414062h-86.078125c-29.863282 0-45.4375 35.90625-24.722656 57.414062 16.042968 16.652344 39.597656 30.4375 73.617187 30.4375h86.078125c-34.019531 0-57.574219-13.785156-73.617188-30.4375zm0 0" fill="#2eddda"/><path d="m12.8125 216.273438h350.652344v53.558593h-350.652344zm0 0" fill="#60daa8"/><path d="m12.8125 216.273438v53.558593h82.917969c-3.558594-11.429687-5.675781-22.320312-5.804688-32.566406-.101562-7.710937.390625-14.675781 1.359375-20.992187zm0 0" fill="#00ce8e"/><path d="m293.847656 336.582031h-39.261718v-188.464843c0-10.84375 8.789062-19.632813 19.632812-19.632813s19.632812 8.789063 19.632812 19.632813v188.464843zm0 0" fill="#ffe0b7"/><path d="m287.226562 387.339844h-26.019531c-12.53125 0-22.6875-10.160156-22.6875-22.691406v-26.015626c0-12.53125 10.15625-22.691406 22.6875-22.691406h26.019531c12.53125 0 22.691407 10.160156 22.691407 22.691406v26.015626c0 12.53125-10.160157 22.691406-22.691407 22.691406zm0 0" fill="#6a829a"/><path d="m149.757812 33.714844c0 18.617187-15.09375 33.710937-33.714843 33.710937-18.617188 0-33.710938-15.09375-33.710938-33.710937 0-18.621094 15.09375-33.714844 33.710938-33.714844 18.621093 0 33.714843 15.09375 33.714843 33.714844zm0 0" fill="#5ad6ff"/><g fill="#454545"><path d="m197.21875 358.46875c-4.265625 0-7.726562-3.460938-7.726562-7.726562v-12.828126c0-4.265624 3.460937-7.726562 7.726562-7.726562 4.269531 0 7.726562 3.460938 7.726562 7.726562v12.828126c0 4.265624-3.457031 7.726562-7.726562 7.726562zm0 0"/><path d="m69.875 358.46875c-4.265625 0-7.726562-3.460938-7.726562-7.726562v-12.828126c0-4.265624 3.460937-7.726562 7.726562-7.726562 4.269531 0 7.726562 3.460938 7.726562 7.726562v12.828126c0 4.265624-3.457031 7.726562-7.726562 7.726562zm0 0"/><path d="m149.035156 353.363281c0-10.898437-6.933594-19.734375-15.488281-19.734375s-15.488281 8.835938-15.488281 19.734375c0 10.894531 6.933594 19.730469 15.488281 19.730469s15.488281-8.835938 15.488281-19.730469zm0 0"/></g></svg>