<svg id="Capa_1" enable-background="new 0 0 512 512" height="512" viewBox="0 0 512 512" width="512" xmlns="http://www.w3.org/2000/svg"><g><g><path d="m201.182 73.545h65.782v120.6h-65.782z" fill="#e9edf5"/></g><g><path d="m97.028 57.1c0-18.165 14.726-32.891 32.891-32.891h208.308c18.165 0 32.891 14.726 32.891 32.891 0 18.165-14.726 32.891-32.891 32.891h-208.308c-18.165 0-32.891-14.726-32.891-32.891z" fill="#82baff"/></g><g><path d="m167.743 155.772c0-18.165 14.726-32.891 32.891-32.891h66.878c18.165 0 32.891 14.726 32.891 32.891 0 18.165-14.726 32.891-32.891 32.891h-66.878c-18.165 0-32.891-14.725-32.891-32.891z" fill="#69a8ff"/></g><g><path d="m32.891 237.999v109.636h314.655c30.275 0 54.818 24.543 54.818 54.818v64.734c0 11.379 9.225 20.604 20.604 20.604h68.429c11.379 0 20.604-9.225 20.604-20.604v-64.734c0-90.825-73.629-164.454-164.454-164.454z" fill="#e9edf5"/></g><g><path d="m32.891 380.526c-18.165 0-32.891-14.726-32.891-32.891v-109.636c0-18.165 14.726-32.891 32.891-32.891 18.165 0 32.891 14.726 32.891 32.891v109.636c0 18.165-14.726 32.891-32.891 32.891z" fill="#82baff"/></g><g><path d="m32.891 292.817c-18.165 0-32.891-14.725-32.891-32.89v87.709c0 18.165 14.726 32.891 32.891 32.891s32.891-14.726 32.891-32.891v-87.709c0 18.165-14.726 32.89-32.891 32.89z" fill="#69a8ff"/></g><g><circle cx="234.073" cy="292.817" fill="#f2f6fc" r="137.045"/></g><g><path d="m329.68 334.255c-75.688 0-137.045-61.357-137.045-137.045 0-12.645 1.721-24.886 4.926-36.511-57.961 15.983-100.533 69.075-100.533 132.118 0 75.688 61.357 137.045 137.045 137.045 63.043 0 116.136-42.572 132.118-100.534-11.625 3.206-23.866 4.927-36.511 4.927z" fill="#e9edf5"/></g><g><path d="m184.737 57.1c0-18.165 14.726-32.891 32.891-32.891h-87.709c-18.165 0-32.891 14.726-32.891 32.891s14.726 32.891 32.891 32.891h87.709c-18.166 0-32.891-14.726-32.891-32.891z" fill="#69a8ff"/></g><g><g><g><ellipse cx="152.024" cy="301.336" fill="#ffa4d2" rx="30.274" ry="24.109"/></g><g><ellipse cx="316.121" cy="301.336" fill="#ffa4d2" rx="30.274" ry="24.109"/></g><g><path d="m258.481 282.812c0-15.085-10.928-16.502-24.409-16.502-13.48 0-24.409 1.417-24.409 16.502s10.928 27.313 24.409 27.313 24.409-12.229 24.409-27.313z" fill="#555a66"/></g></g><g><path d="m157.085 280.052c-4.142 0-7.5-3.358-7.5-7.5v-12.362c0-4.142 3.358-7.5 7.5-7.5s7.5 3.358 7.5 7.5v12.362c0 4.142-3.357 7.5-7.5 7.5z" fill="#555a66"/></g><g><path d="m311.061 280.052c-4.142 0-7.5-3.358-7.5-7.5v-12.362c0-4.142 3.358-7.5 7.5-7.5s7.5 3.358 7.5 7.5v12.362c0 4.142-3.358 7.5-7.5 7.5z" fill="#555a66"/></g></g></g></svg>