<?xml version="1.0" encoding="iso-8859-1"?>
<!-- Generator: Adobe Illustrator 19.0.0, SVG Export Plug-In . SVG Version: 6.00 Build 0)  -->
<svg version="1.1" id="Capa_1" xmlns="http://www.w3.org/2000/svg" xmlns:xlink="http://www.w3.org/1999/xlink" x="0px" y="0px"
	 viewBox="0 0 512.001 512.001" style="enable-background:new 0 0 512.001 512.001;" xml:space="preserve">
<polygon style="fill:#D2D2D2;" points="256,75.993 38.867,124.401 38.867,460.356 256,486.177 473.135,460.356 473.135,124.401 "/>
<polygon style="fill:#B8B8B8;" points="80.074,460.356 80.074,124.401 276.604,80.586 256,75.993 38.867,124.401 38.867,460.356 
	256,486.178 276.604,483.728 "/>
<path style="fill:#506366;" d="M473.135,51.655v72.746H38.867V51.655C38.867,23.121,61.988,0,90.511,0H421.49
	C450.013,0,473.135,23.121,473.135,51.655z"/>
<path style="fill:#3A484A;" d="M131.718,0H90.511C61.988,0,38.867,23.121,38.867,51.655v72.746h41.207V51.655
	C80.074,23.121,103.195,0,131.718,0z"/>
<path style="fill:#506366;" d="M473.135,460.356c0,28.524-23.12,51.645-51.645,51.645H90.511c-28.524,0-51.645-23.121-51.645-51.645
	H473.135z"/>
<path style="fill:#3A484A;" d="M80.074,460.356H38.867c0,28.524,23.12,51.644,51.645,51.644h41.207
	C103.195,512,80.074,488.88,80.074,460.356z"/>
<circle style="fill:#85E7FF;" cx="203.945" cy="62.202" r="24.982"/>
<circle style="fill:#FD6F71;" cx="115.463" cy="62.202" r="24.982"/>
<path style="fill:#EFEDEE;" d="M399.142,37.216h-88.871c-5.461,0-9.888,4.427-9.888,9.888v30.194c0,5.461,4.427,9.888,9.888,9.888
	h88.871c5.461,0,9.888-4.427,9.888-9.888V47.104C409.029,41.643,404.602,37.216,399.142,37.216z"/>
<circle style="fill:#506366;" cx="256" cy="292.561" r="134.294"/>
<path style="fill:#57D0E6;" d="M353.356,306.755c0.677-4.633,1.02-9.369,1.02-14.189c0-54.331-44.045-98.375-98.375-98.375
	s-98.375,44.045-98.375,98.375c0,4.82,0.343,9.556,1.02,14.189L256,333.714L353.356,306.755z"/>
<path style="fill:#85E7FF;" d="M353.356,306.755c-6.87,47.606-47.845,84.186-97.355,84.186s-90.485-36.581-97.355-84.186l8.87-6.038
	c5.34-3.633,11.513-5.455,17.697-5.455c6.183,0,12.357,1.821,17.697,5.455c5.34,3.633,11.513,5.455,17.697,5.455
	c6.184,0,12.357-1.821,17.697-5.455s11.513-5.455,17.697-5.455c6.183,0,12.357,1.821,17.698,5.455
	c5.34,3.633,11.513,5.455,17.697,5.455c6.183,0,12.357-1.821,17.698-5.455c10.681-7.276,24.714-7.276,35.394,0L353.356,306.755z"/>
<g>
</g>
<g>
</g>
<g>
</g>
<g>
</g>
<g>
</g>
<g>
</g>
<g>
</g>
<g>
</g>
<g>
</g>
<g>
</g>
<g>
</g>
<g>
</g>
<g>
</g>
<g>
</g>
<g>
</g>
</svg>
