<svg height="512pt" viewBox="-21 0 512 512" width="512pt" xmlns="http://www.w3.org/2000/svg"><path d="m157.636719 512c-6.832031 0-13.28125-4.140625-15.894531-10.898438-19.984376-51.65625-8.222657-100.859374 6.515624-119.296874 5.875-7.351563 16.597657-8.550782 23.949219-2.675782 7.351563 5.875 8.546875 16.597656 2.671875 23.949219-6.84375 8.566406-16.953125 45.398437-1.351562 85.730469 3.394531 8.777344-.964844 18.644531-9.746094 22.039062-2.019531.78125-4.097656 1.152344-6.144531 1.152344zm0 0" fill="#efd176"/><path d="m260.949219 512c-1.15625 0-2.328125-.117188-3.503907-.363281-9.210937-1.925781-15.117187-10.953125-13.191406-20.167969 5.960938-28.527344-1.488281-83.929688-3.929687-95.511719-1.941407-9.210937 3.953125-18.246093 13.160156-20.1875 9.203125-1.941406 18.246094 3.949219 20.1875 13.160157 2.097656 9.929687 11.714844 72.316406 3.941406 109.511718-1.679687 8.035156-8.765625 13.558594-16.664062 13.558594zm0 0" fill="#efd176"/><path d="m359.089844 354.097656c-26.007813 0-50.195313-11.527344-65.035156-23.441406-7.339844-5.890625-8.511719-16.617188-2.617188-23.957031 5.890625-7.339844 16.613281-8.511719 23.953125-2.621094 13.632813 10.945313 36.292969 19.632813 56.183594 14.359375 16.386719-4.335938 29.121093-17.730469 37.851562-39.804688 3.460938-8.75 13.363281-13.039062 22.113281-9.578124 8.753907 3.460937 13.039063 13.363281 9.578126 22.113281-16.105469 40.722656-41.960938 55.222656-60.816407 60.21875-7.105469 1.878906-14.222656 2.710937-21.210937 2.710937zm0 0" fill="#efd176"/><path d="m97.078125 334.410156c-2.058594 0-4.15625-.375-6.191406-1.171875-50.308594-19.636719-79.980469-64.824219-90.703125-138.136719-1.363282-9.3125 5.078125-17.964843 14.390625-19.328124 9.328125-1.355469 17.96875 5.082031 19.328125 14.394531 8.921875 60.953125 30.964844 96.328125 69.378906 111.324219 8.765625 3.421874 13.097656 13.304687 9.675781 22.070312-2.625 6.734375-9.0625 10.847656-15.878906 10.847656zm0 0" fill="#efd176"/><path d="m162.433594 68.65625c23.976562 23.976562 28.085937 61.304688 28.492187 80.460938.152344 6.960937-5.539062 12.652343-12.5 12.503906-19.15625-.410156-56.484375-4.519532-80.460937-28.496094-23.976563-23.976562-28.082032-61.300781-28.492188-80.457031-.148437-6.960938 5.542969-12.652344 12.503906-12.503907 19.15625.410157 56.480469 4.519532 80.457032 28.492188zm0 0" fill="#8ee2cf"/><path d="m144.578125 122.769531c-1.917969 0-3.839844-.730469-5.304687-2.195312l-28.753907-28.753907c-2.929687-2.929687-2.929687-7.679687 0-10.609374 2.929688-2.925782 7.675781-2.925782 10.605469 0l28.753906 28.757812c2.929688 2.929688 2.929688 7.675781 0 10.605469-1.460937 1.460937-3.382812 2.195312-5.300781 2.195312zm0 0" fill="#6fce91"/><path d="m256.128906 68.65625c-23.972656 23.976562-28.082031 61.304688-28.492187 80.460938-.148438 6.960937 5.542969 12.652343 12.503906 12.503906 19.15625-.410156 56.484375-4.519532 80.460937-28.496094 23.972657-23.976562 28.082032-61.300781 28.492188-80.457031.148438-6.960938-5.542969-12.652344-12.503906-12.503907-19.15625.410157-56.484375 4.519532-80.460938 28.492188zm0 0" fill="#8ee2cf"/><path d="m273.988281 122.769531c-1.917969 0-3.839843-.730469-5.304687-2.195312-2.929688-2.929688-2.929688-7.679688 0-10.605469l28.753906-28.757812c2.929688-2.925782 7.679688-2.925782 10.609375 0 2.929687 2.929687 2.929687 7.679687 0 10.609374l-28.757813 28.753907c-1.464843 1.460937-3.382812 2.195312-5.300781 2.195312zm0 0" fill="#6fce91"/><path d="m254.867188 80.8125c0 33.90625-23.488282 63.207031-36.742188 77.039062-4.816406 5.027344-12.867188 5.027344-17.683594 0-13.253906-13.832031-36.746094-43.132812-36.746094-77.039062s23.492188-63.207031 36.746094-77.042969c4.816406-5.027343 12.867188-5.027343 17.683594 0 13.253906 13.835938 36.742188 43.136719 36.742188 77.042969zm0 0" fill="#8ee2cf"/><path d="m209.28125 108.644531c-4.140625 0-7.5-3.355469-7.5-7.5v-40.664062c0-4.144531 3.359375-7.5 7.5-7.5 4.144531 0 7.5 3.355469 7.5 7.5v40.664062c0 4.140625-3.355469 7.5-7.5 7.5zm0 0" fill="#6fce91"/><path d="m209.28125 130.140625c70.335938 0 120.617188 55.394531 127.355469 139.28125 7.011719 87.261719-25.8125 152.351563-127.355469 152.351563-101.539062 0-134.363281-65.089844-127.355469-152.351563 6.742188-83.886719 57.019531-139.28125 127.355469-139.28125zm0 0" fill="#f7ef87"/><g fill="#efd176"><path d="m167.238281 137.453125c-47.757812 17.628906-80.007812 65.980469-85.3125 131.96875-6.988281 87.019531 25.640625 151.980469 126.519531 152.339844-122.445312-74.914063-89.609374-210.074219-41.207031-284.308594zm0 0"/><path d="m196.917969 237.476562c-1.921875 0-3.839844-.730468-5.304688-2.195312-2.929687-2.929688-2.929687-7.679688 0-10.605469l12.367188-12.367187c2.929687-2.925782 7.675781-2.925782 10.605469 0l12.363281 12.367187c2.929687 2.929688 2.929687 7.675781 0 10.605469-2.929688 2.929688-7.675781 2.929688-10.605469 0l-7.0625-7.0625-7.0625 7.0625c-1.464844 1.464844-3.382812 2.195312-5.300781 2.195312zm0 0"/><path d="m267.613281 237.476562c-1.917969 0-3.835937-.730468-5.300781-2.195312-2.929688-2.929688-2.929688-7.679688 0-10.605469l12.363281-12.367187c2.929688-2.925782 7.679688-2.925782 10.609375 0l12.363282 12.367187c2.929687 2.929688 2.929687 7.675781 0 10.605469-2.929688 2.929688-7.679688 2.929688-10.605469 0l-7.0625-7.0625-7.0625 7.0625c-1.464844 1.464844-3.386719 2.195312-5.304688 2.195312zm0 0"/><path d="m150.949219 237.476562c-1.917969 0-3.835938-.730468-5.300781-2.195312l-7.0625-7.0625-7.0625 7.0625c-2.929688 2.929688-7.679688 2.929688-10.609376 0-2.925781-2.929688-2.925781-7.675781 0-10.605469l12.367188-12.367187c2.929688-2.925782 7.679688-2.925782 10.605469 0l12.367187 12.367187c2.929688 2.929688 2.929688 7.675781 0 10.605469-1.464844 1.464844-3.382812 2.195312-5.304687 2.195312zm0 0"/><path d="m232.265625 382.410156c-1.921875 0-3.839844-.734375-5.304687-2.195312-2.929688-2.929688-2.929688-7.679688 0-10.609375l12.367187-12.363281c2.929687-2.929688 7.679687-2.929688 10.609375 0l12.363281 12.363281c2.929688 2.929687 2.929688 7.679687 0 10.609375-2.929687 2.925781-7.679687 2.925781-10.605469 0l-7.0625-7.066406-7.0625 7.066406c-1.464843 1.464844-3.386718 2.195312-5.304687 2.195312zm0 0"/><path d="m161.570312 382.410156c-1.921874 0-3.839843-.734375-5.304687-2.195312-2.929687-2.929688-2.929687-7.679688 0-10.609375l12.367187-12.363281c2.929688-2.929688 7.675782-2.929688 10.605469 0l12.363281 12.363281c2.929688 2.929687 2.929688 7.679687 0 10.609375-2.929687 2.925781-7.675781 2.925781-10.605468 0l-7.0625-7.066406-7.0625 7.066406c-1.464844 1.464844-3.382813 2.195312-5.300782 2.195312zm0 0"/></g><path d="m157.566406 317.367188c0-13.300782-13.539062-24.082032-30.242187-24.082032-16.699219 0-30.238281 10.78125-30.238281 24.082032 0 13.300781 13.539062 24.082031 30.238281 24.082031 16.703125 0 30.242187-10.78125 30.242187-24.082031zm0 0" fill="#eda1ab"/><path d="m321.480469 317.367188c0-13.300782-13.539063-24.082032-30.238281-24.082032-16.703126 0-30.242188 10.78125-30.242188 24.082032 0 13.300781 13.539062 24.082031 30.242188 24.082031 16.699218 0 30.238281-10.78125 30.238281-24.082031zm0 0" fill="#eda1ab"/><path d="m144.949219 300.84375c-4.144531 0-7.5-3.359375-7.5-7.5v-10.679688c0-4.140624 3.355469-7.5 7.5-7.5 4.140625 0 7.5 3.359376 7.5 7.5v10.679688c0 4.140625-3.359375 7.5-7.5 7.5zm0 0" fill="#4e5660"/><path d="m273.617188 300.84375c-4.144532 0-7.5-3.359375-7.5-7.5v-10.679688c0-4.140624 3.355468-7.5 7.5-7.5 4.140624 0 7.5 3.359376 7.5 7.5v10.679688c0 4.140625-3.359376 7.5-7.5 7.5zm0 0" fill="#4e5660"/><path d="m230.230469 301.542969c0-14.105469-9.378907-25.539063-20.949219-25.539063-11.566406 0-20.945312 11.433594-20.945312 25.539063s9.378906 25.542969 20.945312 25.542969c11.570312 0 20.949219-11.4375 20.949219-25.542969zm0 0" fill="#4e5660"/><path d="m455.746094 149.609375c0-23.347656-19.652344-42.105469-43.316406-40.636719-20.519532 1.273438-37.109376 18.148438-38.070313 38.683594-.523437 11.210938 3.492187 21.476562 10.363281 29.128906 6.355469 7.078125 10.046875 16.144532 10.046875 25.652344v4.730469h40.515625v-4.722657c0-9.269531 3.261719-18.347656 9.574219-25.136718 6.753906-7.265625 10.886719-16.996094 10.886719-27.699219zm0 0" fill="#f7ef87"/><path d="m415.03125 98.929688c-4.144531 0-7.5-3.359376-7.5-7.5v-10.203126c0-4.144531 3.355469-7.5 7.5-7.5 4.140625 0 7.5 3.355469 7.5 7.5v10.203126c0 4.140624-3.359375 7.5-7.5 7.5zm0 0" fill="#efd176"/><path d="m373.890625 115.96875c-1.917969 0-3.839844-.730469-5.304687-2.195312l-7.214844-7.214844c-2.929688-2.929688-2.929688-7.679688 0-10.609375 2.929687-2.925781 7.679687-2.925781 10.609375 0l7.214843 7.21875c2.929688 2.929687 2.929688 7.675781 0 10.605469-1.464843 1.464843-3.382812 2.195312-5.304687 2.195312zm0 0" fill="#efd176"/><path d="m456.167969 115.96875c-1.917969 0-3.839844-.730469-5.304688-2.195312-2.925781-2.929688-2.925781-7.675782 0-10.605469l7.21875-7.21875c2.929688-2.925781 7.675781-2.925781 10.605469 0 2.929688 2.933593 2.929688 7.679687 0 10.609375l-7.214844 7.214844c-1.464844 1.464843-3.386718 2.195312-5.304687 2.195312zm0 0" fill="#efd176"/><path d="m404.292969 175.757812c-3.035157 0-5.894531-1.855468-7.023438-4.867187l-2.359375-6.28125c-1.453125-3.875.507813-8.199219 4.386719-9.65625 3.875-1.457031 8.203125.507813 9.65625 4.386719l2.359375 6.277344c1.457031 3.878906-.507812 8.203124-4.386719 9.660156-.867187.324218-1.757812.480468-2.632812.480468zm0 0" fill="#efd176"/><path d="m425.769531 175.757812c-.875 0-1.769531-.15625-2.636719-.480468-3.878906-1.457032-5.839843-5.78125-4.386718-9.660156l2.359375-6.277344c1.457031-3.878906 5.777343-5.84375 9.65625-4.386719 3.878906 1.453125 5.84375 5.777344 4.386719 9.65625l-2.359376 6.28125c-1.128906 3.007813-3.984374 4.867187-7.019531 4.867187zm0 0" fill="#efd176"/><path d="m436.875 215.042969c0 22.628906-12.984375 32.433593-21.84375 32.433593s-21.84375-9.804687-21.84375-32.433593zm0 0" fill="#4e5660"/><path d="m438.21875 225.234375h-46.378906c-3.40625 0-6.171875-2.761719-6.171875-6.171875v-17.136719c0-3.410156 2.765625-6.171875 6.171875-6.171875h46.378906c3.410156 0 6.171875 2.761719 6.171875 6.171875v17.136719c0 3.410156-2.761719 6.171875-6.171875 6.171875zm0 0" fill="#c6c6c6"/><path d="m444.390625 219.0625v-12.996094c-7.425781 3.34375-17.78125 6.195313-29.359375 6.195313-11.582031 0-21.9375-2.851563-29.363281-6.195313v12.996094c0 3.410156 2.765625 6.171875 6.175781 6.171875h46.375c3.410156 0 6.171875-2.761719 6.171875-6.171875zm0 0" fill="#9aa3b1"/></svg>