<svg height="512pt" viewBox="-25 0 512 512.00086" width="512pt" xmlns="http://www.w3.org/2000/svg"><path d="m125.707031 512c-9.015625 0-16.609375-7-17.21875-16.128906-2.761719-41.550782 1.226563-93.941406 4.324219-108.621094 1.96875-9.332031 11.128906-15.308594 20.464844-13.335938 9.335937 1.96875 15.304687 11.128907 13.335937 20.464844-2.3125 10.976563-6.1875 61.121094-3.652343 99.199219.632812 9.519531-6.570313 17.75-16.089844 18.382813-.390625.023437-.777344.039062-1.164063.039062zm0 0" fill="#efd176"/><path d="m230.414062 512c-8.199218 0-15.46875-5.855469-16.980468-14.203125-6.296875-34.847656-8.230469-89.570313-3.90625-110.480469 1.933594-9.34375 11.074218-15.347656 20.414062-13.417968 9.34375 1.933593 15.351563 11.074218 13.417969 20.414062-3.152344 15.230469-1.742187 65.167969 4.070313 97.339844 1.695312 9.386718-4.539063 18.375-13.925782 20.070312-1.039062.1875-2.070312.277344-3.089844.277344zm0 0" fill="#efd176"/><path d="m62.675781 308.539062c-1.3125 0-2.644531-.148437-3.976562-.464843-28.265625-6.660157-47.996094-25.273438-55.554688-52.410157-8.949219-32.121093 1.683594-71.074218 25.847657-94.726562 6.820312-6.671875 17.753906-6.554688 24.429687.261719 6.671875 6.816406 6.554687 17.753906-.261719 24.425781-15.328125 15-22.367187 40.558594-16.738281 60.769531 4.144531 14.871094 14.304687 24.308594 30.199219 28.054688 9.285156 2.1875 15.039062 11.488281 12.851562 20.773437-1.871094 7.953125-8.964844 13.316406-16.796875 13.316406zm0 0" fill="#efd176"/><path d="m178.523438 60.484375c19.714843 28.152344 17.246093 66.136719 14.28125 85.332031-1.078126 6.972656-7.761719 11.65625-14.683594 10.28125-19.050782-3.78125-55.585938-14.453125-75.300782-42.605468-19.714843-28.15625-17.246093-66.140626-14.28125-85.335938 1.078126-6.972656 7.757813-11.652344 14.683594-10.28125 19.050782 3.78125 55.585938 14.453125 75.300782 42.609375zm0 0" fill="#8ee2cf"/><path d="m152.5 111.371094c-2.363281 0-4.691406-1.117188-6.148438-3.199219l-23.644531-33.765625c-2.375-3.394531-1.550781-8.070312 1.839844-10.445312 3.394531-2.378907 8.070313-1.550782 10.445313 1.839843l23.644531 33.765625c2.375 3.394532 1.550781 8.070313-1.84375 10.445313-1.308594.917969-2.808594 1.359375-4.292969 1.359375zm0 0" fill="#6fce91"/><path d="m272.054688 76.976562c-28.152344 19.710938-38.824219 56.25-42.605469 75.300782-1.375 6.921875 3.304687 13.605468 10.28125 14.683594 19.195312 2.960937 57.179687 5.429687 85.332031-14.28125 28.152344-19.714844 38.824219-56.253907 42.605469-75.304688 1.375-6.921875-3.304688-13.605469-10.277344-14.679688-19.195313-2.964843-57.179687-5.433593-85.335937 14.28125zm0 0" fill="#8ee2cf"/><path d="m281.683594 134.148438c-2.363282 0-4.691406-1.113282-6.152344-3.199219-2.375-3.390625-1.550781-8.070313 1.84375-10.445313l33.765625-23.640625c3.394531-2.375 8.070313-1.554687 10.445313 1.839844s1.550781 8.070313-1.84375 10.445313l-33.765626 23.644531c-1.308593.914062-2.808593 1.355469-4.292968 1.355469zm0 0" fill="#6fce91"/><path d="m268.65625 88.886719c-5.96875 33.84375-34.574219 58.960937-50.242188 70.4375-5.691406 4.167969-13.726562 2.753906-17.648437-3.113281-10.800781-16.144532-29.089844-49.527344-23.121094-83.375 5.96875-33.847657 34.574219-58.960938 50.242188-70.4375 5.691406-4.171876 13.726562-2.753907 17.652343 3.113281 10.796876 16.144531 29.085938 49.523437 23.117188 83.375zm0 0" fill="#8ee2cf"/><path d="m219.578125 108.660156c-.429687 0-.871094-.039062-1.308594-.117187-4.078125-.71875-6.804687-4.605469-6.085937-8.6875l7.160156-40.59375c.71875-4.078125 4.613281-6.800781 8.6875-6.082031 4.078125.71875 6.800781 4.609374 6.082031 8.6875l-7.15625 40.59375c-.640625 3.636718-3.804687 6.199218-7.378906 6.199218zm0 0" fill="#6fce91"/><path d="m214.464844 130.105469c70.214844 12.378906 110.65625 76.527343 102.617187 161.453125-8.359375 88.339844-52.585937 147.539062-153.949219 129.667968-101.363281-17.875-122.671874-88.628906-100.316406-174.5 21.496094-82.554687 81.4375-129.003906 151.648438-116.621093zm0 0" fill="#f7ef87"/><g fill="#efd176"><path d="m171.207031 130c-50.777343 9.195312-91.480469 51.785156-108.386719 116.726562-22.296874 85.632813-1.160156 156.226563 99.480469 174.34375-109.042969-96.335937-52.476562-225.484374 8.90625-291.070312zm0 0"/><path d="m209.246094 239.441406c-2.367188 0-4.691406-1.113281-6.152344-3.199218l-5.863281-8.375-8.378907 5.867187c-3.390624 2.375-8.070312 1.550781-10.445312-1.84375s-1.550781-8.070313 1.84375-10.445313l14.519531-10.167968c3.394531-2.375 8.070313-1.550782 10.445313 1.84375l10.167968 14.519531c2.375 3.394531 1.550782 8.070313-1.84375 10.445313-1.308593.917968-2.808593 1.355468-4.292968 1.355468zm0 0"/><path d="m279.820312 251.886719c-2.367187 0-4.691406-1.113281-6.152343-3.199219l-5.863281-8.375-8.378907 5.863281c-3.394531 2.378907-8.070312 1.554688-10.445312-1.839843-2.375-3.394532-1.550781-8.070313 1.839843-10.445313l14.523438-10.167969c3.390625-2.375 8.066406-1.550781 10.445312 1.84375l10.167969 14.519532c2.375 3.394531 1.550781 8.070312-1.84375 10.445312-1.308593.914062-2.808593 1.355469-4.292969 1.355469zm0 0"/><path d="m138.671875 227c-2.363281 0-4.691406-1.117188-6.152344-3.199219l-5.863281-8.378906-8.378906 5.867187c-3.390625 2.375-8.070313 1.550782-10.445313-1.84375-2.375-3.390624-1.550781-8.066406 1.84375-10.445312l14.519531-10.164062c3.394532-2.375 8.070313-1.554688 10.445313 1.839843l10.167969 14.523438c2.375 3.390625 1.550781 8.066406-1.84375 10.445312-1.308594.914063-2.808594 1.355469-4.292969 1.355469zm0 0"/><path d="m219.019531 390.34375c-2.363281 0-4.691406-1.113281-6.148437-3.199219l-5.867188-8.375-8.375 5.867188c-3.394531 2.375-8.070312 1.550781-10.445312-1.84375s-1.550782-8.070313 1.839844-10.445313l14.519531-10.167968c1.628906-1.140626 3.648437-1.585938 5.605469-1.242188 1.960937.34375 3.703124 1.453125 4.839843 3.085938l10.167969 14.519531c2.378906 3.394531 1.550781 8.070312-1.839844 10.445312-1.308594.917969-2.808594 1.355469-4.296875 1.355469zm0 0"/><path d="m148.445312 377.898438c-2.363281 0-4.691406-1.113282-6.148437-3.199219l-5.867187-8.375-8.375 5.867187c-3.390626 2.375-8.070313 1.550782-10.445313-1.84375-2.375-3.394531-1.550781-8.070312 1.839844-10.445312l14.523437-10.167969c3.390625-2.375 8.070313-1.550781 10.445313 1.84375l10.164062 14.519531c2.378907 3.394532 1.550781 8.070313-1.839843 10.445313-1.308594.917969-2.808594 1.355469-4.296876 1.355469zm0 0"/></g><path d="m124.878906 291.425781c2.34375-13.273437-9.277344-26.421875-25.949218-29.359375-16.671876-2.9375-32.085938 5.441406-34.425782 18.71875s9.277344 26.421875 25.949219 29.359375c16.675781 2.941407 32.085937-5.441406 34.425781-18.71875zm0 0" fill="#eda1ab"/><path d="m228.109375 309.660156c-2.34375 13.277344 9.277344 26.421875 25.949219 29.363282 16.671875 2.9375 32.085937-5.441407 34.425781-18.71875 2.339844-13.277344-9.277344-26.421876-25.949219-29.363282-16.675781-2.9375-32.085937 5.441406-34.425781 18.71875zm0 0" fill="#eda1ab"/><path d="m116.511719 272.734375c-.433594 0-.871094-.035156-1.3125-.113281-4.078125-.71875-6.800781-4.609375-6.082031-8.6875l1.878906-10.660156c.71875-4.082032 4.605468-6.800782 8.6875-6.085938 4.078125.71875 6.804687 4.609375 6.085937 8.6875l-1.878906 10.660156c-.644531 3.640625-3.808594 6.199219-7.378906 6.199219zm0 0" fill="#4e5660"/><path d="m244.953125 295.382812c-.433594 0-.871094-.035156-1.3125-.113281-4.078125-.71875-6.804687-4.609375-6.082031-8.691406l1.878906-10.660156c.71875-4.078125 4.609375-6.800781 8.6875-6.082031 4.082031.722656 6.804688 4.609374 6.085938 8.691406l-1.882813 10.660156c-.640625 3.636719-3.804687 6.195312-7.375 6.195312zm0 0" fill="#4e5660"/><path d="m196.597656 293.089844c-.433594 0-.871094-.039063-1.3125-.117188l-33.863281-5.96875c-4.078125-.71875-6.800781-4.609375-6.082031-8.691406.71875-4.078125 4.613281-6.800781 8.6875-6.082031l33.863281 5.96875c4.078125.722656 6.804687 4.609375 6.085937 8.691406-.644531 3.636719-3.808593 6.199219-7.378906 6.199219zm0 0" fill="#4e5660"/><path d="m417.421875 124.730469c-4.632813 0-9.101563.703125-13.308594 2.007812-8.835937-6.515625-19.753906-10.375-31.578125-10.375-11.824218 0-22.742187 3.855469-31.578125 10.375-4.207031-1.304687-8.675781-2.007812-13.308593-2.007812-24.792969 0-44.890626 20.097656-44.890626 44.890625 0 24.789062 20.097657 44.886718 44.890626 44.886718 4.632812 0 9.101562-.703124 13.308593-2.007812 8.835938 6.519531 19.753907 10.378906 31.578125 10.378906 11.824219 0 22.742188-3.859375 31.578125-10.378906 4.207031 1.304688 8.675781 2.007812 13.308594 2.007812 24.792969 0 44.890625-20.097656 44.890625-44.886718 0-24.792969-20.097656-44.890625-44.890625-44.890625zm0 0" fill="#a3defe"/><path d="m359.621094 117.941406c-6.839844 1.707032-13.160156 4.734375-18.664063 8.796875-4.207031-1.304687-8.675781-2.007812-13.3125-2.007812-24.789062 0-44.886719 20.097656-44.886719 44.890625 0 24.789062 20.097657 44.886718 44.886719 44.886718 4.636719 0 9.105469-.703124 13.3125-2.007812 8.835938 6.519531 19.753907 10.378906 31.578125 10.378906 8.28125 0 16.117188-1.898437 23.105469-5.273437-54.164063-20.613281-50.207031-75.84375-36.019531-99.664063zm0 0" fill="#7acefa"/><path d="m345.125 169.621094c0 6.90625-5.597656 12.507812-12.507812 12.507812-6.90625 0-12.507813-5.601562-12.507813-12.507812 0-6.910156 5.601563-12.511719 12.507813-12.511719 6.910156 0 12.507812 5.601563 12.507812 12.511719zm0 0" fill="#fff"/><path d="m424.960938 169.621094c0 6.90625-5.601563 12.507812-12.507813 12.507812-6.910156 0-12.511719-5.601562-12.511719-12.507812 0-6.910156 5.601563-12.511719 12.511719-12.511719 6.90625 0 12.507813 5.601563 12.507813 12.511719zm0 0" fill="#fff"/><path d="m385.042969 169.621094c0 6.90625-5.601563 12.507812-12.507813 12.507812-6.910156 0-12.507812-5.601562-12.507812-12.507812 0-6.910156 5.597656-12.511719 12.507812-12.511719 6.90625 0 12.507813 5.601563 12.507813 12.511719zm0 0" fill="#fff"/><path d="m305.914062 456.875c-.996093 0-2.003906-.085938-3.019531-.265625-9.394531-1.65625-15.667969-10.613281-14.011719-20.007813 5.304688-30.089843 4.320313-65.277343-3.015624-107.5625-1.628907-9.398437 4.667968-18.339843 14.070312-19.96875 9.402344-1.632812 18.339844 4.667969 19.96875 14.066407 8.03125 46.292969 9.007812 85.367187 3 119.464843-1.480469 8.378907-8.765625 14.273438-16.992188 14.273438zm0 0" fill="#efd176"/></svg>