<svg height="512pt" viewBox="-31 0 512 512" width="512pt" xmlns="http://www.w3.org/2000/svg"><path d="m176.628906 488.523438c-2.203125 0-4.441406-.429688-6.601562-1.339844-29.097656-12.246094-45.105469-28.59375-47.578125-48.589844-1.738281-14.058594 2.875-35.839844 34.722656-59.773438 7.523437-5.652343 18.207031-4.136718 23.859375 3.390626 5.65625 7.523437 4.140625 18.203124-3.386719 23.859374-16.78125 12.609376-22.042969 22.910157-21.371093 28.339844.820312 6.613282 10.902343 14.597656 26.976562 21.359375 8.675781 3.652344 12.746094 13.640625 9.097656 22.316407-2.746094 6.515624-9.066406 10.4375-15.71875 10.4375zm0 0" fill="#efd176"/><path d="m238.105469 512c-.011719 0-.023438 0-.035157 0-9.414062-.019531-17.023437-7.664062-17.003906-17.078125.066406-31.070313 7.195313-76.539063 27-110.972656 4.691406-8.160157 15.109375-10.964844 23.269532-6.273438 8.15625 4.691407 10.964843 15.109375 6.273437 23.265625-16.492187 28.671875-22.410156 68.585938-22.460937 94.054688-.019532 9.398437-7.648438 17.003906-17.042969 17.003906zm0 0" fill="#efd176"/><path d="m389.15625 403.625c-6.832031 0-13.277344-4.136719-15.894531-10.886719-18.105469-46.730469-45.035157-71.019531-73.367188-93.765625-7.339843-5.890625-8.511719-16.617187-2.617187-23.957031 5.890625-7.335937 16.613281-8.511719 23.953125-2.617187 30.816406 24.738281 62.671875 53.460937 83.8125 108.027343 3.398437 8.773438-.960938 18.644531-9.734375 22.046875-2.023438.78125-4.105469 1.152344-6.152344 1.152344zm0 0" fill="#efd176"/><path d="m70.632812 329.191406c-4.703124 0-9.375-.527344-13.957031-1.609375-37.113281-8.757812-51.171875-47.667969-56.25-70.082031-2.082031-9.179688 3.675781-18.304688 12.851563-20.382812 9.175781-2.078126 18.308594 3.671874 20.386718 12.851562 5.738282 25.320312 16.6875 41.105469 30.839844 44.441406 13.234375 3.125 29.71875-4.539062 41.996094-19.523437 5.964844-7.28125 16.699219-8.347657 23.980469-2.382813 7.28125 5.960938 8.347656 16.699219 2.382812 23.980469-17.148437 20.933594-40.027343 32.707031-62.230469 32.707031zm0 0" fill="#efd176"/><path d="m168.273438 68.660156c23.976562 23.976563 28.085937 61.300782 28.496093 80.457032.148438 6.960937-5.542969 12.652343-12.503906 12.503906-19.15625-.40625-56.484375-4.515625-80.460937-28.492188-23.976563-23.976562-28.082032-61.304687-28.492188-80.460937-.152344-6.960938 5.539062-12.652344 12.5-12.503907 19.160156.410157 56.488281 4.519532 80.460938 28.496094zm0 0" fill="#8ee2cf"/><path d="m150.417969 122.769531c-1.917969 0-3.839844-.730469-5.304688-2.195312l-28.753906-28.753907c-2.929687-2.929687-2.929687-7.679687 0-10.605468 2.929687-2.929688 7.675781-2.929688 10.605469 0l28.757812 28.753906c2.925782 2.929688 2.925782 7.675781 0 10.605469-1.464844 1.464843-3.386718 2.195312-5.304687 2.195312zm0 0" fill="#6fce91"/><path d="m261.972656 68.660156c-23.976562 23.976563-28.085937 61.300782-28.496094 80.457032-.148437 6.960937 5.542969 12.652343 12.503907 12.503906 19.15625-.40625 56.484375-4.515625 80.460937-28.492188 23.976563-23.976562 28.082032-61.304687 28.492188-80.460937.152344-6.960938-5.539063-12.652344-12.5-12.503907-19.160156.410157-56.488282 4.519532-80.460938 28.496094zm0 0" fill="#8ee2cf"/><path d="m279.828125 122.769531c-1.917969 0-3.839844-.730469-5.304687-2.195312-2.929688-2.929688-2.929688-7.679688 0-10.605469l28.753906-28.753906c2.933594-2.929688 7.679687-2.929688 10.609375 0 2.929687 2.925781 2.929687 7.675781 0 10.605468l-28.753907 28.753907c-1.464843 1.464843-3.386718 2.195312-5.304687 2.195312zm0 0" fill="#6fce91"/><path d="m260.710938 80.8125c0 33.90625-23.492188 63.207031-36.746094 77.042969-4.816406 5.027343-12.867188 5.027343-17.683594 0-13.257812-13.835938-36.746094-43.136719-36.746094-77.042969s23.492188-63.207031 36.746094-77.042969c4.816406-5.027343 12.867188-5.027343 17.683594 0 13.257812 13.835938 36.746094 43.136719 36.746094 77.042969zm0 0" fill="#8ee2cf"/><path d="m215.121094 108.644531c-4.140625 0-7.5-3.359375-7.5-7.5v-40.664062c0-4.140625 3.359375-7.5 7.5-7.5 4.144531 0 7.5 3.359375 7.5 7.5v40.664062c0 4.140625-3.355469 7.5-7.5 7.5zm0 0" fill="#6fce91"/><path d="m215.121094 130.144531c70.339844 0 120.617187 55.394531 127.359375 139.28125 7.007812 87.261719-25.816407 152.351563-127.359375 152.351563-101.539063 0-134.363282-65.089844-127.355469-152.351563 6.742187-83.886719 57.019531-139.28125 127.355469-139.28125zm0 0" fill="#f7ef87"/><g fill="#efd176"><path d="m173.074219 137.453125c-47.757813 17.632813-80.007813 65.980469-85.308594 131.972656-6.992187 87.015625 25.640625 151.980469 126.519531 152.34375-122.445312-74.917969-89.609375-210.082031-41.210937-284.316406zm0 0"/><path d="m227.488281 237.480469c-1.917969 0-3.839843-.734375-5.300781-2.199219l-7.066406-7.0625-7.0625 7.0625c-2.929688 2.929688-7.675782 2.929688-10.605469 0-2.929687-2.925781-2.929687-7.675781 0-10.605469l12.367187-12.363281c2.925782-2.929688 7.675782-2.929688 10.605469 0l12.367188 12.363281c2.929687 2.929688 2.929687 7.679688 0 10.605469-1.464844 1.464844-3.386719 2.199219-5.304688 2.199219zm0 0"/><path d="m298.1875 237.480469c-1.921875 0-3.839844-.734375-5.304688-2.199219l-7.0625-7.0625-7.0625 7.0625c-2.929687 2.929688-7.679687 2.929688-10.605468 0-2.929688-2.925781-2.929688-7.675781 0-10.605469l12.367187-12.363281c1.40625-1.410156 3.3125-2.199219 5.300781-2.199219 1.988282 0 3.898438.789063 5.304688 2.199219l12.363281 12.363281c2.929688 2.929688 2.929688 7.679688 0 10.605469-1.464843 1.464844-3.382812 2.199219-5.300781 2.199219zm0 0"/><path d="m156.792969 237.480469c-1.921875 0-3.839844-.734375-5.304688-2.199219l-7.0625-7.0625-7.0625 7.0625c-2.929687 2.929688-7.679687 2.933594-10.605469 0-2.929687-2.925781-2.929687-7.675781 0-10.605469l12.363282-12.363281c1.40625-1.410156 3.3125-2.199219 5.304687-2.199219 1.988281 0 3.894531.789063 5.300781 2.199219l12.367188 12.363281c2.929688 2.929688 2.929688 7.679688 0 10.605469-1.464844 1.464844-3.382812 2.199219-5.300781 2.199219zm0 0"/><path d="m262.839844 382.414062c-1.921875 0-3.839844-.730468-5.304688-2.195312l-7.0625-7.066406-7.0625 7.066406c-2.929687 2.925781-7.679687 2.925781-10.605468 0-2.929688-2.929688-2.929688-7.679688 0-10.609375l12.363281-12.367187c1.40625-1.402344 3.3125-2.195313 5.304687-2.195313 1.988282 0 3.894532.789063 5.304688 2.195313l12.363281 12.367187c2.929687 2.929687 2.929687 7.679687 0 10.605469-1.464844 1.464844-3.382813 2.199218-5.300781 2.199218zm0 0"/><path d="m167.40625 382.414062c-1.917969 0-3.835938-.730468-5.300781-2.195312-2.929688-2.929688-2.929688-7.679688 0-10.609375l12.363281-12.363281c1.410156-1.40625 3.316406-2.199219 5.304688-2.199219 1.988281 0 3.898437.792969 5.304687 2.199219l12.363281 12.363281c2.929688 2.929687 2.929688 7.679687 0 10.609375-2.929687 2.929688-7.675781 2.925781-10.605468 0l-7.0625-7.0625-7.0625 7.0625c-1.464844 1.460938-3.382813 2.195312-5.304688 2.195312zm0 0"/></g><path d="m163.40625 317.371094c0-13.300782-13.539062-24.082032-30.242188-24.082032-16.699218 0-30.238281 10.78125-30.238281 24.082032 0 13.300781 13.539063 24.082031 30.238281 24.082031 16.703126 0 30.242188-10.78125 30.242188-24.082031zm0 0" fill="#eda1ab"/><path d="m327.320312 317.371094c0-13.300782-13.539062-24.082032-30.238281-24.082032-16.703125 0-30.242187 10.78125-30.242187 24.082032 0 13.300781 13.539062 24.082031 30.242187 24.082031 16.699219 0 30.238281-10.78125 30.238281-24.082031zm0 0" fill="#eda1ab"/><path d="m150.789062 300.847656c-4.144531 0-7.5-3.359375-7.5-7.5v-10.679687c0-4.144531 3.355469-7.5 7.5-7.5 4.144532 0 7.5 3.355469 7.5 7.5v10.679687c0 4.140625-3.359374 7.5-7.5 7.5zm0 0" fill="#4e5660"/><path d="m279.457031 300.847656c-4.144531 0-7.5-3.359375-7.5-7.5v-10.679687c0-4.144531 3.355469-7.5 7.5-7.5s7.5 3.355469 7.5 7.5v10.679687c0 4.140625-3.359375 7.5-7.5 7.5zm0 0" fill="#4e5660"/><path d="m215.121094 309.046875c-8.667969 0-16.90625-3.753906-22.613282-10.300781-2.722656-3.121094-2.394531-7.859375.726563-10.582032 3.121094-2.71875 7.859375-2.394531 10.582031.726563 2.855469 3.277344 6.976563 5.15625 11.308594 5.15625 4.328125 0 8.449219-1.878906 11.304688-5.15625 2.722656-3.121094 7.460937-3.445313 10.582031-.726563 3.125 2.722657 3.449219 7.460938.726562 10.582032-5.707031 6.546875-13.945312 10.300781-22.617187 10.300781zm0 0" fill="#4e5660"/><path d="m159.4375 260.734375h-27.570312c-11.578126 0-20.210938 10.679687-17.78125 22.003906l1.523437 7.121094c2.566406 11.964844 13.144531 20.515625 25.382813 20.515625h9.320312c12.242188 0 22.816406-8.550781 25.382812-20.515625l1.527344-7.121094c2.425782-11.324219-6.207031-22.003906-17.785156-22.003906zm0 0" fill="#4e5660"/><path d="m257.289062 274.367188c-.335937 0-.679687-.023438-1.023437-.070313-9.960937-1.359375-23.644531-2.917969-41.144531-2.917969-17.496094 0-31.179688 1.558594-41.144532 2.917969-4.097656.558594-7.882812-2.3125-8.441406-6.417969-.558594-4.105468 2.3125-7.886718 6.417969-8.445312 10.433594-1.421875 24.769531-3.050782 43.167969-3.050782 18.402344 0 32.738281 1.628907 43.171875 3.050782 4.105469.558594 6.976562 4.339844 6.417969 8.445312-.511719 3.761719-3.730469 6.488282-7.421876 6.488282zm0 0" fill="#e26e7e"/><path d="m150.3125 317.875h-9.320312c-15.671876 0-29.429688-11.121094-32.714844-26.441406l-1.527344-7.121094c-1.632812-7.625.238281-15.472656 5.140625-21.535156s12.183594-9.542969 19.980469-9.542969h27.566406c7.796875 0 15.078125 3.480469 19.980469 9.542969 4.898437 6.0625 6.773437 13.910156 5.136719 21.535156l-1.527344 7.121094c-3.285156 15.320312-17.042969 26.441406-32.714844 26.441406zm-18.445312-49.640625c-3.242188 0-6.269532 1.449219-8.3125 3.972656-2.039063 2.523438-2.816407 5.789063-2.136719 8.960938l1.523437 7.117187c1.8125 8.453125 9.402344 14.589844 18.050782 14.589844h9.320312c8.644531 0 16.234375-6.136719 18.046875-14.589844l1.527344-7.121094c.679687-3.167968-.101563-6.433593-2.140625-8.957031-2.039063-2.523437-5.066406-3.972656-8.3125-3.972656zm0 0" fill="#e26e7e"/><path d="m270.808594 260.734375h27.570312c11.578125 0 20.210938 10.679687 17.78125 22.003906l-1.523437 7.121094c-2.566407 11.964844-13.144531 20.515625-25.382813 20.515625h-9.320312c-12.242188 0-22.816406-8.550781-25.382813-20.515625l-1.527343-7.121094c-2.425782-11.324219 6.203124-22.003906 17.785156-22.003906zm0 0" fill="#4e5660"/><path d="m289.253906 317.875h-9.320312c-15.671875 0-29.429688-11.121094-32.714844-26.445312l-1.527344-7.117188c-1.632812-7.625.238282-15.472656 5.140625-21.535156 4.902344-6.0625 12.183594-9.542969 19.980469-9.542969h27.566406c7.796875 0 15.074219 3.480469 19.976563 9.542969 4.902343 6.0625 6.777343 13.910156 5.140625 21.535156l-1.523438 7.117188c-3.289062 15.324218-17.046875 26.445312-32.71875 26.445312zm-18.445312-49.640625c-3.242188 0-6.273438 1.449219-8.3125 3.972656-2.039063 2.523438-2.820313 5.789063-2.140625 8.960938l1.527343 7.117187c1.8125 8.453125 9.402344 14.589844 18.046876 14.589844h9.324218c8.644532 0 16.234375-6.136719 18.046875-14.589844l1.527344-7.121094c.679687-3.171874-.101563-6.4375-2.140625-8.960937-2.039062-2.519531-5.070312-3.96875-8.3125-3.96875zm0 0" fill="#e26e7e"/><path d="m331.753906 266.410156-14.792968 4.332032c-9.457032 2.769531-18.234376-6.007813-15.464844-15.464844l4.332031-14.792969c.667969-2.285156.667969-4.71875 0-7.003906l-4.332031-14.792969c-2.769532-9.457031 6.007812-18.234375 15.464844-15.464844l14.792968 4.332032c2.285156.671874 4.71875.671874 7.003906 0l14.792969-4.332032c9.457031-2.769531 18.234375 6.007813 15.464844 15.464844l-4.332031 14.792969c-.671875 2.285156-.671875 4.71875 0 7.003906l4.332031 14.792969c2.769531 9.457031-6.007813 18.234375-15.464844 15.464844l-14.792969-4.332032c-2.285156-.671875-4.71875-.671875-7.003906 0zm0 0" fill="#a3defe"/><path d="m4.851562 169.699219-4.273437-14.589844c-2.730469-9.324219 5.929687-17.980469 15.25-15.25l14.589844 4.273437c2.257812.664063 4.65625.664063 6.910156 0l14.589844-4.273437c9.324219-2.730469 17.980469 5.925781 15.25 15.25l-4.273438 14.589844c-.660156 2.257812-.660156 4.65625 0 6.910156l4.273438 14.589844c2.730469 9.324219-5.925781 17.980469-15.25 15.25l-14.589844-4.273438c-2.257813-.660156-4.652344-.660156-6.910156 0l-14.589844 4.273438c-9.320313 2.730469-17.980469-5.925781-15.25-15.25l4.273437-14.589844c.664063-2.253906.664063-4.652344 0-6.910156zm0 0" fill="#7acefa"/><path d="m392.550781 154.789062-11.917969-6.519531c-7.617187-4.164062-7.617187-15.105469 0-19.273437l11.917969-6.515625c1.84375-1.007813 3.359375-2.523438 4.367188-4.367188l6.519531-11.917969c4.164062-7.621093 15.105469-7.621093 19.273438 0l6.519531 11.917969c1.007812 1.84375 2.523437 3.359375 4.363281 4.367188l11.921875 6.515625c7.617187 4.167968 7.617187 15.109375 0 19.273437l-11.921875 6.519531c-1.839844 1.007813-3.355469 2.523438-4.363281 4.367188l-6.519531 11.917969c-4.167969 7.617187-15.109376 7.617187-19.273438 0l-6.519531-11.917969c-1.007813-1.84375-2.523438-3.359375-4.367188-4.367188zm0 0" fill="#8eafe2"/></svg>