<svg height="512pt" viewBox="0 -25 512 511" width="512pt" xmlns="http://www.w3.org/2000/svg"><path d="m208.152344 461.84375c-7.148438 0-13.558594-4.996094-15.078125-12.269531-6.949219-33.25 1.59375-87.714844 3.5625-97.0625 1.757812-8.335938 9.945312-13.667969 18.273437-11.910157 8.335938 1.757813 13.667969 9.9375 11.914063 18.273438-2.347657 11.132812-8.945313 58.597656-3.558594 84.386719 1.742187 8.339843-3.601563 16.511719-11.941406 18.253906-1.0625.222656-2.125.328125-3.171875.328125zm0 0" fill="#efd176"/><path d="m301.679688 461.84375c-1.046876 0-2.109376-.105469-3.171876-.328125-8.339843-1.742187-13.683593-9.914063-11.941406-18.253906 5.386719-25.789063-1.210937-73.253907-3.558594-84.386719-1.753906-8.335938 3.578126-16.515625 11.914063-18.273438 8.339844-1.761718 16.515625 3.574219 18.273437 11.910157 1.96875 9.347656 10.511719 63.8125 3.5625 97.0625-1.515624 7.269531-7.929687 12.269531-15.078124 12.269531zm0 0" fill="#efd176"/><path d="m429.625 333.855469c-37.5 0-73.1875-23.292969-101.25-66.371094-4.648438-7.136719-2.632812-16.691406 4.503906-21.34375 7.136719-4.648437 16.691406-2.632813 21.339844 4.507813 13.632812 20.925781 42.257812 55.53125 80.722656 52.125 8.492188-.746094 15.96875 5.523437 16.71875 14.007812s-5.519531 15.96875-14.003906 16.71875c-2.683594.238281-5.363281.355469-8.03125.355469zm0 0" fill="#efd176"/><path d="m76.699219 346.511719c-7.660157 0-14.300781-5.703125-15.285157-13.5-1.0625-8.449219 4.925782-16.164063 13.375-17.226563 35.9375-4.53125 48.003907-22.6875 66.261719-50.175781 3.3125-4.984375 6.734375-10.136719 10.46875-15.433594 4.910157-6.960937 14.535157-8.625 21.492188-3.714843 6.964843 4.910156 8.625 14.53125 3.714843 21.492187-3.484374 4.945313-6.789062 9.917969-9.984374 14.726563-19.613282 29.523437-38.136719 57.414062-88.097657 63.707031-.652343.082031-1.300781.125-1.945312.125zm0 0" fill="#efd176"/><path d="m212.515625 62.640625c21.699219 21.699219 25.417969 55.484375 25.789063 72.820313.136718 6.300781-5.015626 11.453124-11.316407 11.316406-17.339843-.371094-51.121093-4.085938-72.824219-25.789063-21.699218-21.699219-25.417968-55.480469-25.789062-72.820312-.132812-6.300781 5.015625-11.453125 11.316406-11.316407 17.339844.371094 51.125 4.089844 72.824219 25.789063zm0 0" fill="#8ee2cf"/><path d="m196.351562 112.328125c-1.917968 0-3.839843-.730469-5.304687-2.195313l-26.023437-26.027343c-2.929688-2.929688-2.929688-7.675781 0-10.605469 2.929687-2.929688 7.679687-2.929688 10.605468 0l26.027344 26.023438c2.929688 2.929687 2.929688 7.679687 0 10.605468-1.464844 1.464844-3.382812 2.199219-5.304688 2.199219zm0 0" fill="#6fce91"/><path d="m297.316406 62.640625c-21.699218 21.699219-25.417968 55.484375-25.789062 72.820313-.132813 6.300781 5.015625 11.453124 11.316406 11.316406 17.339844-.371094 51.121094-4.085938 72.824219-25.789063 21.699219-21.699219 25.417969-55.480469 25.789062-72.820312.132813-6.300781-5.015625-11.453125-11.316406-11.316407-17.339844.371094-51.125 4.089844-72.824219 25.789063zm0 0" fill="#8ee2cf"/><path d="m313.476562 112.328125c-1.917968 0-3.835937-.730469-5.300781-2.195313-2.929687-2.929687-2.929687-7.679687 0-10.605468l26.023438-26.027344c2.929687-2.929688 7.679687-2.929688 10.605469 0 2.929687 2.929688 2.929687 7.679688 0 10.609375l-26.023438 26.023437c-1.464844 1.460938-3.382812 2.195313-5.304688 2.195313zm0 0" fill="#6fce91"/><path d="m296.175781 73.640625c0 30.6875-21.257812 57.207031-33.257812 69.726563-4.359375 4.550781-11.644531 4.550781-16.003907 0-11.996093-12.519532-33.257812-39.039063-33.257812-69.726563s21.261719-57.207031 33.257812-69.726563c4.359376-4.550781 11.644532-4.550781 16.003907 0 12 12.519532 33.257812 39.039063 33.257812 69.726563zm0 0" fill="#8ee2cf"/><path d="m254.917969 99.542969c-4.144531 0-7.5-3.359375-7.5-7.5v-36.804688c0-4.140625 3.355469-7.5 7.5-7.5 4.140625 0 7.5 3.359375 7.5 7.5v36.804688c0 4.140625-3.359375 7.5-7.5 7.5zm0 0" fill="#6fce91"/><path d="m254.917969 118.289062c63.660156 0 109.164062 50.136719 115.265625 126.058594 6.34375 78.976563-23.363282 137.890625-115.265625 137.890625-91.90625 0-121.613281-58.914062-115.269531-137.890625 6.101562-75.921875 51.609374-126.058594 115.269531-126.058594zm0 0" fill="#f7ef87"/><g fill="#efd176"><path d="m216.863281 124.90625c-43.226562 15.957031-72.414062 59.714844-77.210937 119.441406-6.328125 78.757813 23.203125 137.554688 114.507812 137.882813-110.824218-67.804688-81.105468-190.136719-37.296875-257.324219zm0 0"/><path d="m266.109375 216.148438c-1.921875 0-3.839844-.734376-5.304687-2.199219l-5.890626-5.886719-5.886718 5.886719c-2.929688 2.929687-7.679688 2.929687-10.609375 0-2.925781-2.925781-2.925781-7.675781.003906-10.605469l11.191406-11.191406c1.40625-1.40625 3.3125-2.195313 5.300781-2.195313 1.992188 0 3.898438.789063 5.304688 2.195313l11.191406 11.191406c2.929688 2.929688 2.929688 7.679688 0 10.605469-1.464844 1.464843-3.382812 2.199219-5.300781 2.199219zm0 0"/><path d="m330.09375 216.148438c-1.917969 0-3.835938-.734376-5.300781-2.199219l-5.890625-5.886719-5.886719 5.886719c-2.929687 2.929687-7.679687 2.929687-10.605469 0-2.933594-2.925781-2.933594-7.675781-.003906-10.605469l11.191406-11.191406c1.40625-1.40625 3.316406-2.195313 5.304688-2.195313 1.988281 0 3.894531.789063 5.304687 2.195313l11.191407 11.191406c2.929687 2.929688 2.929687 7.679688 0 10.605469-1.464844 1.464843-3.382813 2.199219-5.304688 2.199219zm0 0"/><path d="m202.121094 216.148438c-1.917969 0-3.839844-.734376-5.300782-2.199219l-5.890624-5.886719-5.890626 5.886719c-2.929687 2.929687-7.675781 2.929687-10.605468 0-2.929688-2.925781-2.929688-7.675781 0-10.605469l11.191406-11.191406c1.40625-1.40625 3.3125-2.195313 5.300781-2.195313 1.992188 0 3.898438.789063 5.304688 2.195313l11.191406 11.191406c2.929687 2.929688 2.929687 7.679688 0 10.605469-1.460937 1.464843-3.382813 2.199219-5.300781 2.199219zm0 0"/><path d="m298.101562 347.324219c-1.917968 0-3.839843-.734375-5.304687-2.199219l-5.886719-5.886719-5.890625 5.886719c-2.929687 2.929688-7.679687 2.929688-10.605469 0-2.929687-2.925781-2.929687-7.675781 0-10.605469l11.191407-11.191406c1.40625-1.40625 3.3125-2.195313 5.304687-2.195313 1.988282 0 3.894532.789063 5.300782 2.195313l11.191406 11.191406c2.929687 2.929688 2.929687 7.679688.003906 10.605469-1.464844 1.464844-3.386719 2.199219-5.304688 2.199219zm0 0"/><path d="m234.113281 347.324219c-1.917969 0-3.835937-.734375-5.304687-2.199219l-5.886719-5.886719-5.890625 5.886719c-2.929688 2.929688-7.675781 2.929688-10.605469 0-2.929687-2.925781-2.929687-7.675781 0-10.605469l11.191407-11.191406c1.40625-1.40625 3.3125-2.195313 5.304687-2.195313 1.988281 0 3.894531.789063 5.304687 2.195313l11.191407 11.191406c2.925781 2.929688 2.925781 7.679688-.003907 10.605469-1.460937 1.464844-3.378906 2.199219-5.300781 2.199219zm0 0"/></g><path d="m208.109375 287.742188c0-12.039063-12.253906-21.796876-27.371094-21.796876-15.117187 0-27.371093 9.757813-27.371093 21.796876 0 12.039062 12.253906 21.796874 27.371093 21.796874 15.117188 0 27.371094-9.757812 27.371094-21.796874zm0 0" fill="#eda1ab"/><path d="m356.464844 287.742188c0-12.039063-12.253906-21.796876-27.371094-21.796876s-27.371094 9.757813-27.371094 21.796876c0 12.039062 12.253906 21.796874 27.371094 21.796874s27.371094-9.757812 27.371094-21.796874zm0 0" fill="#eda1ab"/><path d="m196.691406 273.5c-4.144531 0-7.5-3.359375-7.5-7.5v-9.667969c0-4.140625 3.355469-7.5 7.5-7.5 4.140625 0 7.5 3.359375 7.5 7.5v9.667969c0 4.140625-3.359375 7.5-7.5 7.5zm0 0" fill="#4e5660"/><path d="m313.144531 273.5c-4.144531 0-7.5-3.359375-7.5-7.5v-9.667969c0-4.140625 3.355469-7.5 7.5-7.5 4.140625 0 7.5 3.359375 7.5 7.5v9.667969c0 4.140625-3.359375 7.5-7.5 7.5zm0 0" fill="#4e5660"/><path d="m270.355469 273.421875c0-9.074219-6.910157-16.429687-15.4375-16.429687-8.527344 0-15.441407 7.355468-15.441407 16.429687s6.914063 16.429687 15.441407 16.429687c8.527343 0 15.4375-7.355468 15.4375-16.429687zm0 0" fill="#4e5660"/><path d="m132.957031 391.980469c-5.621093 5.621093-14.734375 5.621093-20.355469 0l-106.449218-106.449219c-5.621094-5.625-5.621094-14.738281 0-20.359375s14.734375-5.621094 20.355468 0l106.449219 106.449219c5.621094 5.621094 5.625 14.738281 0 20.359375zm0 0" fill="#8eafe2"/><path d="m73.910156 290.292969-42.636718 42.636719c-3.832032 3.832031-10.050782 3.832031-13.886719 0l-14.511719-14.515626c-3.832031-3.832031-3.832031-10.050781 0-13.882812l42.636719-42.636719c3.832031-3.832031 10.046875-3.832031 13.882812 0l14.515625 14.515625c3.832032 3.832032 3.832032 10.050782 0 13.882813zm0 0" fill="#4e5660"/><path d="m136.347656 352.734375-42.636718 42.632813c-3.832032 3.835937-10.050782 3.835937-13.882813 0l-14.515625-14.515626c-3.832031-3.832031-3.832031-10.050781 0-13.882812l42.636719-42.636719c3.832031-3.832031 10.050781-3.832031 13.882812 0l14.515625 14.515625c3.832032 3.832032 3.832032 10.050782 0 13.886719zm0 0" fill="#4e5660"/><path d="m379.039062 381.78125c-5.621093-5.621094-5.621093-14.734375 0-20.355469l106.449219-106.449219c5.625-5.625 14.738281-5.625 20.359375 0 5.621094 5.621094 5.621094 14.734376 0 20.355469l-106.449218 106.449219c-5.621094 5.621094-14.734376 5.625-20.359376 0zm0 0" fill="#8eafe2"/><path d="m480.726562 322.734375-42.636718-42.636719c-3.832032-3.835937-3.832032-10.050781 0-13.886718l14.515625-14.511719c3.832031-3.835938 10.050781-3.835938 13.882812 0l42.636719 42.632812c3.832031 3.835938 3.832031 10.050781 0 13.886719l-14.515625 14.511719c-3.832031 3.835937-10.050781 3.835937-13.882813.003906zm0 0" fill="#4e5660"/><path d="m418.289062 385.171875-42.636718-42.636719c-3.832032-3.832031-3.832032-10.050781 0-13.882812l14.515625-14.515625c3.832031-3.832031 10.046875-3.832031 13.882812 0l42.632813 42.636719c3.835937 3.832031 3.835937 10.050781 0 13.882812l-14.511719 14.515625c-3.835937 3.832031-10.050781 3.832031-13.882813 0zm0 0" fill="#4e5660"/><path d="m83.027344 239.410156c15.714844-.464844 24.035156-14.507812 39.488281-19.292968 4.683594-1.449219 6.382813-7.234376 3.203125-10.964844-16.917969-19.859375-30.730469-24.320313-43.492188-24.320313-16.179687 0-29.066406 14.074219-27.09375 30.644531 1.652344 13.882813 13.921876 24.347657 27.894532 23.933594zm0 0" fill="#a3defe"/><path d="m440.765625 176.382812c-11.441406 10.78125-27.253906 6.734376-41.5625 14.28125-4.335937 2.285157-9.628906-.605468-10.019531-5.492187-2.078125-26.003906 4.535156-38.925781 13.558594-47.949219 11.4375-11.441406 30.503906-10.601562 40.828124 2.507813 8.644532 10.988281 7.367188 27.0625-2.804687 36.652343zm0 0" fill="#a3defe"/></svg>