<svg height="512pt" viewBox="0 0 512 512.00025" width="512pt" xmlns="http://www.w3.org/2000/svg"><path d="m180.449219 512c-1.585938 0-3.203125-.21875-4.800781-.679688-9.242188-2.644531-14.585938-12.28125-11.941407-21.523437 10.628907-37.09375 24.671875-69.085937 37-96.15625 3.984375-8.75 14.308594-12.613281 23.050781-8.628906 8.75 3.984375 12.613282 14.304687 8.628907 23.054687-11.808594 25.933594-25.242188 56.519532-35.214844 91.316406-2.1875 7.640626-9.152344 12.617188-16.722656 12.617188zm0 0" fill="#efd176"/><path d="m331.550781 512c-7.570312 0-14.535156-4.976562-16.722656-12.617188-9.972656-34.800781-23.40625-65.382812-35.214844-91.316406-3.984375-8.75-.121093-19.070312 8.625-23.054687 8.746094-3.984375 19.070313-.121094 23.054688 8.628906 12.328125 27.070313 26.371093 59.058594 37 96.15625 2.648437 9.242187-2.699219 18.878906-11.9375 21.527344-1.605469.457031-3.21875.675781-4.804688.675781zm0 0" fill="#efd176"/><path d="m107.828125 317.890625c-34.78125 0-66.730469-7.65625-98.160156-23.265625-8.613281-4.277344-12.125-14.722656-7.847657-23.332031 4.277344-8.609375 14.722657-12.125 23.332032-7.847657 38.085937 18.917969 77.402344 23.957032 123.734375 15.855469 9.476562-1.65625 18.488281 4.675781 20.144531 14.144531s-4.679688 18.488282-14.148438 20.144532c-16.339843 2.859375-31.96875 4.300781-47.054687 4.300781zm0 0" fill="#efd176"/><path d="m404.171875 317.890625c-15.089844 0-30.710937-1.441406-47.054687-4.300781-9.46875-1.65625-15.804688-10.671875-14.148438-20.144532 1.65625-9.464843 10.671875-15.800781 20.144531-14.144531 46.335938 8.101563 85.648438 3.0625 123.734375-15.855469 8.609375-4.277343 19.054688-.761718 23.328125 7.847657 4.277344 8.609375.765625 19.054687-7.84375 23.332031-31.425781 15.609375-63.382812 23.265625-98.160156 23.265625zm0 0" fill="#efd176"/><path d="m208.148438 70.128906c24.488281 24.492188 28.683593 62.617188 29.101562 82.183594.152344 7.109375-5.660156 12.921875-12.769531 12.769531-19.566407-.417969-57.691407-4.613281-82.183594-29.101562-24.488281-24.492188-28.683594-62.617188-29.101563-82.183594-.152343-7.109375 5.660157-12.925781 12.769532-12.773437 19.566406.417968 57.695312 4.617187 82.183594 29.105468zm0 0" fill="#8ee2cf"/><path d="m189.910156 125.242188c-1.921875 0-3.839844-.734376-5.304687-2.199219l-29.371094-29.371094c-2.929687-2.929687-2.929687-7.675781 0-10.605469 2.929687-2.929687 7.675781-2.929687 10.605469 0l29.371094 29.371094c2.929687 2.929688 2.929687 7.679688 0 10.605469-1.464844 1.464843-3.382813 2.199219-5.300782 2.199219zm0 0" fill="#6fce91"/><path d="m303.851562 70.128906c-24.488281 24.492188-28.6875 62.617188-29.105468 82.183594-.152344 7.109375 5.664062 12.921875 12.773437 12.769531 19.566407-.417969 57.691407-4.613281 82.183594-29.101562 24.488281-24.492188 28.683594-62.617188 29.101563-82.183594.152343-7.109375-5.660157-12.925781-12.769532-12.773437-19.570312.417968-57.695312 4.617187-82.183594 29.105468zm0 0" fill="#8ee2cf"/><path d="m322.089844 125.242188c-1.917969 0-3.839844-.734376-5.304688-2.199219-2.925781-2.929688-2.925781-7.675781 0-10.605469l29.371094-29.371094c2.933594-2.929687 7.679688-2.929687 10.609375 0 2.925781 2.929688 2.929687 7.679688 0 10.605469l-29.371094 29.371094c-1.464843 1.464843-3.386719 2.199219-5.304687 2.199219zm0 0" fill="#6fce91"/><path d="m302.5625 82.542969c0 34.632812-23.992188 64.558593-37.53125 78.691406-4.921875 5.136719-13.140625 5.136719-18.0625 0-13.539062-14.132813-37.53125-44.058594-37.53125-78.691406 0-34.632813 23.992188-64.558594 37.53125-78.691407 4.921875-5.136718 13.140625-5.136718 18.0625 0 13.539062 14.132813 37.53125 44.058594 37.53125 78.691407zm0 0" fill="#8ee2cf"/><path d="m256 110.8125c-4.144531 0-7.5-3.359375-7.5-7.5v-41.539062c0-4.140626 3.355469-7.5 7.5-7.5s7.5 3.359374 7.5 7.5v41.539062c0 4.140625-3.355469 7.5-7.5 7.5zm0 0" fill="#6fce91"/><path d="m256 132.929688c71.84375 0 123.199219 56.582031 130.082031 142.265624 7.164063 89.132813-26.363281 155.613282-130.082031 155.613282s-137.246094-66.480469-130.085938-155.613282c6.886719-85.683593 58.242188-142.265624 130.085938-142.265624zm0 0" fill="#f7ef87"/><g fill="#efd176"><path d="m213.050781 140.398438c-48.777343 18.007812-81.71875 67.394531-87.136719 134.796874-7.140624 88.882813 26.191407 155.238282 129.230469 155.605469-125.070312-76.519531-91.53125-214.578125-42.09375-290.402343zm0 0"/><path d="m268.628906 249.558594c-1.917968 0-3.835937-.730469-5.300781-2.199219l-7.328125-7.324219-7.328125 7.324219c-2.929687 2.933594-7.679687 2.929687-10.605469 0-2.929687-2.925781-2.929687-7.675781 0-10.605469l12.632813-12.628906c2.925781-2.929688 7.675781-2.929688 10.601562 0l12.632813 12.628906c2.929687 2.929688 2.929687 7.679688 0 10.605469-1.464844 1.46875-3.382813 2.199219-5.304688 2.199219zm0 0"/><path d="m340.84375 249.558594c-1.921875 0-3.839844-.730469-5.304688-2.199219l-7.328124-7.324219-7.324219 7.324219c-2.929688 2.929687-7.679688 2.933594-10.605469 0-2.933594-2.925781-2.933594-7.675781-.003906-10.605469l12.632812-12.628906c1.40625-1.40625 3.3125-2.195312 5.300782-2.195312 1.992187 0 3.898437.789062 5.304687 2.195312l12.632813 12.628906c2.929687 2.929688 2.929687 7.679688 0 10.605469-1.46875 1.46875-3.386719 2.199219-5.304688 2.199219zm0 0"/><path d="m196.417969 249.558594c-1.921875 0-3.839844-.730469-5.304688-2.199219l-7.324219-7.324219-7.328124 7.324219c-2.929688 2.933594-7.679688 2.929687-10.605469 0-2.929688-2.925781-2.929688-7.675781 0-10.605469l12.628906-12.628906c1.40625-1.40625 3.3125-2.195312 5.304687-2.195312 1.988282 0 3.894532.789062 5.304688 2.195312l12.628906 12.628906c2.929688 2.929688 2.929688 7.679688 0 10.605469-1.464844 1.46875-3.386718 2.199219-5.304687 2.199219zm0 0"/><path d="m304.734375 390.445312c-1.917969 0-3.835937-.734374-5.304687-2.199218l-7.324219-7.324219-7.328125 7.324219c-2.929688 2.929687-7.675782 2.929687-10.605469 0-2.929687-2.929688-2.929687-7.675782 0-10.605469l12.632813-12.628906c1.40625-1.410157 3.3125-2.199219 5.300781-2.199219s3.898437.789062 5.304687 2.199219l12.628906 12.628906c2.929688 2.929687 2.929688 7.675781 0 10.605469-1.464843 1.464844-3.382812 2.199218-5.304687 2.199218zm0 0"/><path d="m232.523438 390.445312c-1.917969 0-3.839844-.734374-5.304688-2.199218l-7.324219-7.324219-7.328125 7.324219c-2.929687 2.929687-7.679687 2.929687-10.605468 0-2.929688-2.929688-2.929688-7.675782-.003907-10.605469l12.632813-12.628906c1.40625-1.410157 3.3125-2.199219 5.304687-2.199219 1.988281 0 3.894531.789062 5.300781 2.199219l12.632813 12.628906c2.929687 2.929687 2.929687 7.675781 0 10.605469-1.464844 1.464844-3.386719 2.199218-5.304687 2.199218zm0 0"/></g><path d="m203.175781 334.613281c0-13.585937-13.832031-24.597656-30.890625-24.597656s-30.886718 11.011719-30.886718 24.597656c0 13.585938 13.828124 24.597657 30.886718 24.597657s30.890625-11.011719 30.890625-24.597657zm0 0" fill="#eda1ab"/><path d="m370.601562 334.613281c0-13.585937-13.828124-24.597656-30.886718-24.597656-17.0625 0-30.890625 11.011719-30.890625 24.597656 0 13.585938 13.828125 24.597657 30.890625 24.597657 17.058594 0 30.886718-11.011719 30.886718-24.597657zm0 0" fill="#eda1ab"/><path d="m283.882812 329.210938c0-6.429688-3.363281-12.398438-8.875-15.710938-5.554687-3.335938-12.054687-5.257812-19.007812-5.257812s-13.453125 1.921874-19.007812 5.257812c-5.511719 3.3125-8.875 9.28125-8.875 15.710938v88.730468c0 15.402344 12.484374 27.882813 27.882812 27.882813 15.402344 0 27.886719-12.484375 27.886719-27.882813v-88.730468zm0 0" fill="#4e5660"/><path d="m219.671875 292.3125c0 16.351562-13.253906 29.609375-29.605469 29.609375-16.351562 0-29.605468-13.257813-29.605468-29.609375 0-16.347656 13.253906-29.605469 29.605468-29.605469 16.351563 0 29.605469 13.257813 29.605469 29.605469zm0 0" fill="#fff"/><path d="m197.535156 292.3125c0 4.128906-3.34375 7.472656-7.46875 7.472656s-7.46875-3.34375-7.46875-7.472656c0-4.125 3.34375-7.46875 7.46875-7.46875s7.46875 3.34375 7.46875 7.46875zm0 0" fill="#4e5660"/><path d="m351.539062 292.3125c0 16.351562-13.253906 29.609375-29.605468 29.609375-16.351563 0-29.605469-13.257813-29.605469-29.609375 0-16.347656 13.253906-29.605469 29.605469-29.605469 16.351562 0 29.605468 13.257813 29.605468 29.605469zm0 0" fill="#fff"/><path d="m329.402344 292.3125c0 4.128906-3.34375 7.472656-7.46875 7.472656s-7.472656-3.34375-7.472656-7.472656c0-4.125 3.347656-7.46875 7.472656-7.46875s7.46875 3.34375 7.46875 7.46875zm0 0" fill="#4e5660"/><path d="m199.121094 171.414062h-28.160156c-11.828126 0-20.644532 10.90625-18.164063 22.472657l1.558594 7.273437c2.621093 12.222656 13.421875 20.957032 25.925781 20.957032h9.519531c12.5 0 23.304688-8.734376 25.925781-20.957032l1.558594-7.273437c2.480469-11.566407-6.335937-22.472657-18.164062-22.472657zm0 0" fill="#4e5660"/><path d="m299.070312 185.175781c-.339843 0-.679687-.023437-1.023437-.070312-10.179687-1.386719-24.15625-2.980469-42.046875-2.980469s-31.867188 1.59375-42.046875 2.980469c-4.101563.554687-7.886719-2.3125-8.445313-6.417969-.558593-4.101562 2.3125-7.882812 6.417969-8.441406 10.648438-1.453125 25.28125-3.121094 44.074219-3.121094s33.425781 1.667969 44.074219 3.121094c4.101562.558594 6.976562 4.339844 6.417969 8.441406-.511719 3.761719-3.730469 6.488281-7.421876 6.488281zm0 0" fill="#e26e7e"/><path d="m189.800781 229.617188h-9.519531c-15.933594 0-29.917969-11.308594-33.257812-26.886719l-1.558594-7.269531c-1.660156-7.738282.242187-15.707032 5.214844-21.863282 4.976562-6.152344 12.371093-9.683594 20.285156-9.683594h28.15625c7.914062 0 15.304687 3.527344 20.28125 9.683594 4.976562 6.15625 6.878906 14.125 5.21875 21.863282l-1.558594 7.269531c-3.34375 15.578125-17.328125 26.886719-33.261719 26.886719zm-18.839843-50.703126c-3.359376 0-6.5 1.5-8.613282 4.113282-2.113281 2.617187-2.921875 6-2.21875 9.289062l1.5625 7.273438c1.863282 8.707031 9.683594 15.027344 18.589844 15.027344h9.519531c8.90625 0 16.726563-6.320313 18.59375-15.027344l1.558594-7.273438c.707031-3.289062-.105469-6.671875-2.214844-9.289062-2.113281-2.613282-5.253906-4.113282-8.617187-4.113282zm0 0" fill="#e26e7e"/><path d="m312.878906 171.414062h28.15625c11.832032 0 20.648438 10.90625 18.167969 22.472657l-1.558594 7.273437c-2.621093 12.222656-13.425781 20.957032-25.925781 20.957032h-9.519531c-12.503907 0-23.304688-8.734376-25.925781-20.957032l-1.558594-7.273437c-2.480469-11.566407 6.335937-22.472657 18.164062-22.472657zm0 0" fill="#4e5660"/><path d="m331.71875 229.617188h-9.519531c-15.933594 0-29.921875-11.308594-33.261719-26.882813l-1.558594-7.273437c-1.660156-7.738282.242188-15.707032 5.21875-21.863282 4.972656-6.152344 12.367188-9.683594 20.28125-9.683594h28.15625c7.914063 0 15.308594 3.527344 20.28125 9.683594 4.976563 6.15625 6.878906 14.125 5.21875 21.863282l-1.5625 7.273437c-3.335937 15.574219-17.324218 26.882813-33.253906 26.882813zm-18.839844-50.703126c-3.359375 0-6.503906 1.5-8.617187 4.113282-2.109375 2.617187-2.921875 6-2.214844 9.289062l1.558594 7.273438c1.867187 8.707031 9.6875 15.027344 18.59375 15.027344h9.519531c8.90625 0 16.726562-6.320313 18.59375-15.027344l1.558594-7.273438c.707031-3.289062-.101563-6.671875-2.214844-9.289062-2.113281-2.613282-5.253906-4.113282-8.617188-4.113282zm0 0" fill="#e26e7e"/><path d="m441.363281 433.128906c-1.917969 0-3.835937-.734375-5.300781-2.199218l-29.214844-29.210938c-2.925781-2.925781-2.925781-7.675781 0-10.605469 2.933594-2.929687 7.679688-2.929687 10.609375 0l29.210938 29.210938c2.929687 2.929687 2.929687 7.679687 0 10.609375-1.464844 1.460937-3.382813 2.195312-5.304688 2.195312zm0 0" fill="#8eafe2"/><path d="m108.183594 206.785156c-1.917969 0-3.839844-.734375-5.304688-2.199218l-18.636718-18.636719c-2.929688-2.929688-2.929688-7.675781 0-10.605469 2.929687-2.929688 7.679687-2.929688 10.605468 0l18.640625 18.636719c2.929688 2.929687 2.929688 7.679687 0 10.609375-1.464843 1.460937-3.386719 2.195312-5.304687 2.195312zm0 0" fill="#8eafe2"/><path d="m70.632812 433.128906c-1.917968 0-3.835937-.734375-5.300781-2.199218-2.929687-2.925782-2.929687-7.675782 0-10.605469l29.210938-29.210938c2.929687-2.929687 7.675781-2.929687 10.605469 0 2.929687 2.929688 2.929687 7.679688 0 10.605469l-29.210938 29.210938c-1.464844 1.464843-3.382812 2.199218-5.304688 2.199218zm0 0" fill="#8eafe2"/><path d="m70.699219 231.894531c-1.921875 0-3.839844-.734375-5.304688-2.199219l-29.132812-29.128906c-2.929688-2.929687-2.929688-7.679687 0-10.605468 2.929687-2.929688 7.679687-2.929688 10.609375 0l29.128906 29.128906c2.929688 2.929687 2.929688 7.679687 0 10.605468-1.464844 1.464844-3.382812 2.199219-5.300781 2.199219zm0 0" fill="#8eafe2"/><path d="m403.816406 206.785156c-1.921875 0-3.839844-.734375-5.304687-2.199218-2.929688-2.925782-2.929688-7.675782 0-10.605469l18.636719-18.636719c2.929687-2.929688 7.679687-2.929688 10.605468 0 2.929688 2.929688 2.929688 7.675781 0 10.605469l-18.636718 18.636719c-1.464844 1.464843-3.382813 2.199218-5.300782 2.199218zm0 0" fill="#8eafe2"/><path d="m441.300781 231.894531c-1.917969 0-3.839843-.734375-5.304687-2.199219-2.925782-2.929687-2.925782-7.675781 0-10.605468l29.132812-29.132813c2.929688-2.929687 7.675782-2.929687 10.605469 0 2.929687 2.929688 2.929687 7.679688 0 10.605469l-29.128906 29.132812c-1.464844 1.464844-3.386719 2.199219-5.304688 2.199219zm0 0" fill="#8eafe2"/></svg>