<svg height="511pt" viewBox="-21 0 511 511.99861" width="511pt" xmlns="http://www.w3.org/2000/svg"><path d="m225.507812 512c-5.691406 0-11.25-2.863281-14.464843-8.058594-20.6875-33.46875-17.863281-84.210937-16.65625-105.878906.113281-2.027344.207031-3.695312.246093-4.929688.3125-9.378906 8.1875-16.738281 17.542969-16.414062 9.375.3125 16.722657 8.164062 16.414063 17.539062-.050782 1.429688-.152344 3.351563-.285156 5.691407-.9375 16.886719-3.433594 61.746093 11.636718 86.128906 4.933594 7.980469 2.464844 18.449219-5.515625 23.378906-2.785156 1.722657-5.871093 2.542969-8.917969 2.542969zm0 0" fill="#efd176"/><path d="m348.753906 486.363281c-.546875 0-1.101562-.023437-1.65625-.078125-9.339844-.90625-16.175781-9.210937-15.269531-18.546875 3.136719-32.359375-8.722656-57.425781-36.253906-76.628906-7.695313-5.367187-9.582031-15.953125-4.214844-23.648437 5.367187-7.695313 15.953125-9.582032 23.648437-4.214844 37.429688 26.105468 54.941407 63.371094 50.636719 107.769531-.851562 8.78125-8.246093 15.347656-16.890625 15.347656zm0 0" fill="#efd176"/><path d="m369.832031 290.300781c-15.308593 0-30.699219-3.808593-44.339843-11.296875-8.226563-4.515625-11.234376-14.839844-6.722657-23.0625 4.515625-8.226562 14.839844-11.234375 23.066407-6.722656 14.691406 8.066406 32.507812 9.386719 47.664062 3.539062 20.027344-7.726562 36.128906-27.796874 46.566406-58.039062 3.0625-8.867188 12.730469-13.574219 21.601563-10.511719 8.867187 3.058594 13.574219 12.730469 10.511719 21.597657-9.625 27.898437-28.972657 64.1875-66.449219 78.648437-10.140625 3.914063-21 5.847656-31.898438 5.847656zm0 0" fill="#efd176"/><path d="m78.914062 346.941406c-25.84375 0-51.058593-11.101562-73.175781-32.269531-6.777343-6.488281-7.011719-17.242187-.523437-24.019531 6.488281-6.777344 17.242187-7.011719 24.015625-.523438 16.617187 15.90625 34.160156 23.582032 52.148437 22.785156 27.492188-1.203124 46.851563-20.9375 52.128906-26.957031 6.183594-7.054687 16.917969-7.761719 23.96875-1.578125 7.054688 6.1875 7.761719 16.917969 1.578126 23.972656-20.078126 22.902344-48.5625 37.296876-76.191407 38.503907-1.316406.058593-2.636719.085937-3.949219.085937zm0 0" fill="#efd176"/><path d="m156.417969 75.695312c27.683593 19.386719 38.179687 55.316407 41.898437 74.050782 1.351563 6.808594-3.253906 13.378906-10.109375 14.441406-18.878906 2.910156-56.230469 5.339844-83.917969-14.046875s-38.183593-55.316406-41.898437-74.050781c-1.351563-6.808594 3.25-13.382813 10.109375-14.4375 18.875-2.917969 56.230469-5.34375 83.917969 14.042968zm0 0" fill="#8ee2cf"/><path d="m146.949219 132.042969c-1.488281 0-2.988281-.4375-4.296875-1.355469l-33.203125-23.25c-3.394531-2.375-4.21875-7.054688-1.84375-10.445312 2.375-3.394532 7.054687-4.21875 10.445312-1.84375l33.207031 23.253906c3.390626 2.375 4.214844 7.050781 1.839844 10.441406-1.457031 2.085938-3.785156 3.199219-6.148437 3.199219zm0 0" fill="#6fce91"/><path d="m248.394531 59.476562c-19.386719 27.6875-16.957031 65.039063-14.042969 83.917969 1.058594 6.855469 7.628907 11.460938 14.4375 10.109375 18.734376-3.71875 54.667969-14.214844 74.054688-41.898437 19.382812-27.6875 16.957031-65.039063 14.042969-83.917969-1.058594-6.859375-7.632813-11.460938-14.4375-10.109375-18.738281 3.71875-54.667969 14.210937-74.054688 41.898437zm0 0" fill="#8ee2cf"/><path d="m273.988281 109.644531c-1.488281 0-2.988281-.441406-4.296875-1.359375-3.394531-2.375-4.21875-7.050781-1.84375-10.445312l23.253906-33.203125c2.375-3.394531 7.050782-4.21875 10.445313-1.84375 3.390625 2.375 4.214844 7.050781 1.839844 10.445312l-23.25 33.207031c-1.460938 2.082032-3.785157 3.199219-6.148438 3.199219zm0 0" fill="#6fce91"/><path d="m249.261719 71.625c5.867187 33.285156-12.121094 66.113281-22.738281 81.992188-3.859376 5.765624-11.757813 7.160156-17.355469 3.058593-15.410157-11.285156-43.539063-35.980469-49.410157-69.269531-5.867187-33.285156 12.121094-66.113281 22.738282-81.988281 3.855468-5.769531 11.757812-7.160157 17.355468-3.058594 15.410157 11.285156 43.539063 35.980469 49.410157 69.265625zm0 0" fill="#8ee2cf"/><path d="m208.019531 106.976562c-3.570312 0-6.734375-2.558593-7.378906-6.199218l-7.039063-39.917969c-.71875-4.078125 2.007813-7.96875 6.085938-8.6875 4.082031-.71875 7.96875 2.003906 8.6875 6.082031l7.039062 39.921875c.71875 4.078125-2.003906 7.96875-6.082031 8.6875-.441406.078125-.878906.113281-1.3125.113281zm0 0" fill="#6fce91"/><path d="m213.046875 127.941406c69.046875-12.175781 127.996094 33.503906 149.132813 114.683594 21.984374 84.449219 1.03125 154.027344-98.652344 171.601562-99.679688 17.578126-143.167969-40.636718-151.390625-127.511718-7.90625-83.515625 31.863281-146.597656 100.910156-158.773438zm0 0" fill="#f7ef87"/><g fill="#efd176"><path d="m173.039062 142.398438c-43.832031 25.570312-67.121093 78.617187-60.902343 144.316406 8.199219 86.632812 51.476562 144.757812 150.570312 127.648437-133.171875-52.34375-124.335937-190.714843-89.667969-271.964843zm0 0"/><path d="m218.183594 235.589844c-1.484375 0-2.984375-.441406-4.292969-1.355469-3.394531-2.378906-4.21875-7.054687-1.84375-10.445313l10-14.28125c2.375-3.390624 7.050781-4.214843 10.445313-1.839843l14.277343 9.996093c3.394531 2.375 4.21875 7.050782 1.84375 10.445313s-7.054687 4.21875-10.445312 1.84375l-8.136719-5.699219-5.695312 8.136719c-1.460938 2.082031-3.789063 3.199219-6.152344 3.199219zm0 0"/><path d="m287.585938 223.351562c-1.488282 0-2.988282-.441406-4.296876-1.355468-3.390624-2.378906-4.214843-7.054688-1.839843-10.445313l10-14.28125c1.140625-1.628906 2.878906-2.738281 4.839843-3.082031 1.957032-.347656 3.972657.101562 5.601563 1.242188l14.28125 9.996093c3.390625 2.378907 4.21875 7.054688 1.839844 10.445313-2.375 3.394531-7.050781 4.21875-10.441407 1.84375l-8.136718-5.695313-5.699219 8.132813c-1.457031 2.085937-3.785156 3.199218-6.148437 3.199218zm0 0"/><path d="m148.78125 247.828125c-1.484375 0-2.984375-.441406-4.292969-1.359375-3.394531-2.375-4.21875-7.050781-1.84375-10.445312l10-14.277344c2.375-3.394532 7.050781-4.21875 10.445313-1.84375l14.277344 10c3.394531 2.375 4.21875 7.050781 1.84375 10.445312-2.375 3.394532-7.050782 4.21875-10.445313 1.84375l-8.136719-5.699218-5.695312 8.136718c-1.460938 2.082032-3.789063 3.199219-6.152344 3.199219zm0 0"/><path d="m277.972656 371.746094c-1.484375 0-2.984375-.4375-4.296875-1.355469-3.390625-2.375-4.21875-7.050781-1.839843-10.445313l9.996093-14.28125c2.378907-3.390624 7.054688-4.214843 10.445313-1.839843l14.28125 10c3.390625 2.375 4.214844 7.050781 1.839844 10.445312-2.375 3.390625-7.050782 4.214844-10.445313 1.839844l-8.132813-5.695313-5.699218 8.132813c-1.457032 2.085937-3.785156 3.199219-6.148438 3.199219zm0 0"/><path d="m208.570312 383.984375c-1.484374 0-2.984374-.441406-4.296874-1.355469-3.390626-2.378906-4.214844-7.054687-1.839844-10.445312l9.996094-14.28125c1.144531-1.628906 2.882812-2.738282 4.84375-3.085938 1.957031-.34375 3.972656.101563 5.601562 1.246094l14.28125 9.996094c3.390625 2.378906 4.21875 7.054687 1.839844 10.445312-2.375 3.394532-7.050782 4.21875-10.445313 1.84375l-8.132812-5.699218-5.699219 8.136718c-1.457031 2.085938-3.785156 3.199219-6.148438 3.199219zm0 0"/></g><path d="m195.53125 325.074219c-2.296875-13.035157-17.429688-21.261719-33.796875-18.375-16.367187 2.882812-27.773437 15.789062-25.476563 28.824219 2.296876 13.035156 17.429688 21.261718 33.796876 18.375 16.367187-2.882813 27.773437-15.789063 25.476562-28.824219zm0 0" fill="#eda1ab"/><path d="m296.933594 307.175781c2.296875 13.035157 17.425781 21.261719 33.796875 18.375 16.367187-2.882812 27.773437-15.789062 25.472656-28.824219-2.296875-13.035156-17.425781-21.261718-33.796875-18.375-16.367188 2.886719-27.773438 15.789063-25.472656 28.824219zm0 0" fill="#eda1ab"/><path d="m266.925781 293.78125c-2.601562-14.765625-13.542969-14.265625-26.742187-11.941406-13.195313 2.328125-23.648438 5.601562-21.046875 20.371094 2.605469 14.765624 15.414062 24.851562 28.609375 22.523437 13.199218-2.328125 21.785156-16.183594 19.179687-30.953125zm0 0" fill="#4e5660"/><path d="m164.539062 311.554688c-3.570312 0-6.734374-2.5625-7.375-6.199219-2.089843-11.851563 5.851563-23.191407 17.703126-25.28125 11.851562-2.089844 23.191406 5.851562 25.28125 17.703125.71875 4.078125-2.003907 7.96875-6.082032 8.6875s-7.96875-2.003906-8.691406-6.082032c-.652344-3.707031-4.203125-6.1875-7.902344-5.539062-3.707031.65625-6.191406 4.203125-5.535156 7.90625.71875 4.078125-2.007812 7.96875-6.085938 8.691406-.441406.074219-.878906.113282-1.3125.113282zm0 0" fill="#4e5660"/><path d="m290.636719 289.320312c-3.574219 0-6.738281-2.5625-7.378907-6.199218-2.089843-11.851563 5.851563-23.191406 17.703126-25.28125 11.847656-2.089844 23.191406 5.851562 25.285156 17.703125.71875 4.078125-2.003906 7.96875-6.085938 8.6875-4.078125.71875-7.96875-2.003907-8.6875-6.082031-.652344-3.707032-4.199218-6.191407-7.90625-5.535157-3.703125.652344-6.1875 4.199219-5.535156 7.902344.71875 4.078125-2.003906 7.96875-6.082031 8.691406-.445313.074219-.882813.113281-1.3125.113281zm0 0" fill="#4e5660"/></svg>