<svg height="512pt" viewBox="-33 0 512 512" width="512pt" xmlns="http://www.w3.org/2000/svg"><path d="m396.035156 149.597656h-39.515625c-8.863281 0-16.046875 7.183594-16.046875 16.046875v53.894531h71.613282v-53.894531c0-8.863281-7.1875-16.046875-16.050782-16.046875zm0 0" fill="#fcf2d0"/><path d="m364.402344 227.039062c-4.140625 0-7.5-3.359374-7.5-7.5v-34.972656c0-4.140625 3.359375-7.5 7.5-7.5 4.144531 0 7.5 3.359375 7.5 7.5v34.972656c0 4.140626-3.355469 7.5-7.5 7.5zm0 0" fill="#f6e3a3"/><path d="m388.152344 227.039062c-4.140625 0-7.5-3.359374-7.5-7.5v-34.972656c0-4.140625 3.359375-7.5 7.5-7.5 4.144531 0 7.5 3.359375 7.5 7.5v34.972656c0 4.140626-3.355469 7.5-7.5 7.5zm0 0" fill="#f6e3a3"/><path d="m421.792969 494.957031h-91.027344c-14.257813 0-25.652344-11.855469-25.085937-26.097656l8.914062-225.207031c.53125-13.46875 11.605469-24.113282 25.085938-24.113282h73.199218c13.480469 0 24.554688 10.644532 25.085938 24.113282l8.914062 225.207031c.5625 14.242187-10.832031 26.097656-25.085937 26.097656zm0 0" fill="#8eafe2"/><path d="m344.980469 219.539062h-5.300781c-13.480469 0-24.554688 10.644532-25.085938 24.113282l-8.914062 225.207031c-.566407 14.242187 10.828124 26.097656 25.085937 26.097656h61.484375c-42.949219-48.636719-56.261719-207.277343-47.269531-275.417969zm0 0" fill="#6a96d7"/><path d="m305.679688 468.855469c-.566407 14.246093 10.828124 26.097656 25.085937 26.097656h91.027344c14.253906 0 25.648437-11.851563 25.085937-26.097656l-.453125-11.402344h-140.296875zm0 0" fill="#fcf2d0"/><path d="m306.128906 457.453125-.449218 11.40625c-.566407 14.242187 10.832031 26.097656 25.085937 26.097656h61.484375c-8.03125-9.09375-15.023438-22.027343-21.03125-37.503906zm0 0" fill="#f6e3a3"/><path d="m135.554688 512c-7.898438 0-14.984376-5.519531-16.664063-13.558594-7.773437-37.199218 1.847656-99.582031 3.941406-109.511718 1.941407-9.210938 10.980469-15.101563 20.1875-13.160157 9.210938 1.941407 15.101563 10.980469 13.160157 20.191407-2.441407 11.578124-9.890626 66.976562-3.929688 95.507812 1.925781 9.214844-3.980469 18.242188-13.191406 20.167969-1.175782.246093-2.351563.363281-3.503906.363281zm0 0" fill="#efd176"/><path d="m238.886719 512c-1.15625 0-2.328125-.117188-3.503907-.363281-9.210937-1.925781-15.117187-10.953125-13.195312-20.164063 5.964844-28.539062-1.484375-83.933594-3.925781-95.511718-1.945313-9.207032 3.949219-18.246094 13.15625-20.191407 9.207031-1.941406 18.25 3.949219 20.1875 13.160157 2.097656 9.929687 11.714843 72.304687 3.945312 109.511718-1.679687 8.035156-8.765625 13.558594-16.664062 13.558594zm0 0" fill="#efd176"/><path d="m140.371094 68.65625c23.976562 23.976562 28.085937 61.304688 28.496094 80.460938.148437 6.960937-5.542969 12.652343-12.503907 12.503906-19.15625-.410156-56.484375-4.519532-80.460937-28.496094-23.976563-23.972656-28.082032-61.300781-28.492188-80.457031-.148437-6.960938 5.542969-12.652344 12.503906-12.503907 19.15625.410157 56.480469 4.519532 80.457032 28.492188zm0 0" fill="#8ee2cf"/><path d="m122.515625 122.769531c-1.917969 0-3.839844-.730469-5.304687-2.195312l-28.753907-28.757813c-2.929687-2.925781-2.929687-7.675781 0-10.605468 2.929688-2.929688 7.679688-2.929688 10.605469 0l28.753906 28.757812c2.929688 2.925781 2.929688 7.675781 0 10.605469-1.460937 1.464843-3.382812 2.195312-5.300781 2.195312zm0 0" fill="#6fce91"/><path d="m234.066406 68.65625c-23.972656 23.976562-28.082031 61.304688-28.492187 80.460938-.148438 6.960937 5.542969 12.652343 12.503906 12.503906 19.15625-.410156 56.480469-4.519532 80.457031-28.496094 23.976563-23.976562 28.085938-61.300781 28.492188-80.457031.152344-6.960938-5.539063-12.652344-12.5-12.503907-19.15625.410157-56.484375 4.519532-80.460938 28.492188zm0 0" fill="#8ee2cf"/><path d="m251.925781 122.769531c-1.917969 0-3.839843-.730469-5.304687-2.195312-2.929688-2.929688-2.929688-7.679688 0-10.605469l28.753906-28.757812c2.929688-2.929688 7.679688-2.929688 10.609375 0 2.929687 2.929687 2.929687 7.679687 0 10.605468l-28.757813 28.757813c-1.464843 1.464843-3.382812 2.195312-5.300781 2.195312zm0 0" fill="#6fce91"/><path d="m232.804688 80.8125c0 33.90625-23.488282 63.207031-36.742188 77.039062-4.816406 5.027344-12.867188 5.027344-17.683594 0-13.253906-13.832031-36.746094-43.132812-36.746094-77.039062s23.492188-63.207031 36.746094-77.042969c4.816406-5.027343 12.867188-5.027343 17.683594 0 13.253906 13.835938 36.742188 43.136719 36.742188 77.042969zm0 0" fill="#8ee2cf"/><path d="m187.21875 108.644531c-4.140625 0-7.5-3.359375-7.5-7.5v-40.664062c0-4.144531 3.359375-7.5 7.5-7.5 4.144531 0 7.5 3.355469 7.5 7.5v40.664062c0 4.140625-3.355469 7.5-7.5 7.5zm0 0" fill="#6fce91"/><path d="m187.21875 130.140625c70.339844 0 120.617188 55.394531 127.355469 139.28125 7.011719 87.261719-25.8125 152.351563-127.355469 152.351563s-134.363281-65.089844-127.355469-152.351563c6.742188-83.886719 57.019531-139.28125 127.355469-139.28125zm0 0" fill="#f7ef87"/><g fill="#efd176"><path d="m145.171875 137.453125c-47.757813 17.628906-80.003906 65.980469-85.308594 131.96875-6.988281 87.019531 25.640625 151.980469 126.519531 152.34375-122.445312-74.914063-89.613281-210.078125-41.210937-284.3125zm0 0"/><path d="m199.585938 237.476562c-1.917969 0-3.839844-.730468-5.304688-2.195312l-7.058594-7.0625-7.066406 7.0625c-2.925781 2.929688-7.675781 2.929688-10.605469 0-2.925781-2.929688-2.925781-7.679688 0-10.605469l12.367188-12.367187c2.929687-2.929688 7.679687-2.929688 10.605469 0l12.367187 12.367187c2.929687 2.929688 2.929687 7.675781 0 10.605469-1.464844 1.464844-3.386719 2.195312-5.304687 2.195312zm0 0"/><path d="m270.28125 237.476562c-1.917969 0-3.835938-.730468-5.300781-2.195312l-7.0625-7.0625-7.0625 7.0625c-2.929688 2.929688-7.679688 2.929688-10.605469 0-2.933594-2.929688-2.933594-7.675781-.003906-10.605469l12.367187-12.367187c1.40625-1.40625 3.3125-2.195313 5.304688-2.195313 1.988281 0 3.894531.789063 5.300781 2.195313l12.367188 12.367187c2.929687 2.929688 2.929687 7.675781 0 10.605469-1.464844 1.464844-3.382813 2.195312-5.304688 2.195312zm0 0"/><path d="m128.886719 237.476562c-1.917969 0-3.835938-.730468-5.300781-2.195312l-7.0625-7.0625-7.0625 7.0625c-2.929688 2.929688-7.679688 2.929688-10.609376 0-2.925781-2.929688-2.925781-7.675781 0-10.605469l12.367188-12.367187c1.40625-1.40625 3.3125-2.195313 5.300781-2.195313 1.992188 0 3.898438.789063 5.304688 2.195313l12.367187 12.367187c2.929688 2.929688 2.929688 7.675781 0 10.605469-1.464844 1.464844-3.382812 2.195312-5.304687 2.195312zm0 0"/><path d="m234.933594 382.410156c-1.917969 0-3.839844-.730468-5.304688-2.195312l-7.0625-7.0625-7.0625 7.0625c-2.929687 2.929687-7.675781 2.929687-10.605468 0-2.929688-2.929688-2.929688-7.679688 0-10.609375l12.367187-12.363281c2.925781-2.929688 7.675781-2.929688 10.605469 0l12.363281 12.363281c2.929687 2.929687 2.929687 7.679687 0 10.609375-1.460937 1.464844-3.382813 2.195312-5.300781 2.195312zm0 0"/><path d="m164.238281 382.410156c-1.921875 0-3.839843-.730468-5.304687-2.195312l-7.0625-7.0625-7.0625 7.0625c-2.929688 2.929687-7.679688 2.929687-10.605469 0-2.929687-2.929688-2.929687-7.679688 0-10.609375l12.363281-12.363281c2.929688-2.929688 7.679688-2.929688 10.609375 0l12.363281 12.363281c2.929688 2.929687 2.929688 7.679687 0 10.609375-1.464843 1.464844-3.382812 2.195312-5.300781 2.195312zm0 0"/></g><path d="m135.503906 317.367188c0-13.300782-13.539062-24.082032-30.242187-24.082032s-30.242188 10.78125-30.242188 24.082032c0 13.300781 13.539063 24.082031 30.242188 24.082031s30.242187-10.78125 30.242187-24.082031zm0 0" fill="#eda1ab"/><path d="m299.417969 317.367188c0-13.300782-13.539063-24.082032-30.238281-24.082032-16.703126 0-30.242188 10.78125-30.242188 24.082032 0 13.300781 13.539062 24.082031 30.242188 24.082031 16.699218 0 30.238281-10.78125 30.238281-24.082031zm0 0" fill="#eda1ab"/><path d="m110.316406 296.433594c-4.140625 0-7.5-3.359375-7.5-7.5v-12.980469c0-4.140625 3.359375-7.5 7.5-7.5 4.144532 0 7.5 3.359375 7.5 7.5v12.980469c0 4.140625-3.355468 7.5-7.5 7.5zm0 0" fill="#4e5660"/><path d="m211.601562 298.863281c0-15.066406-10.917968-16.480469-24.382812-16.480469s-24.382812 1.414063-24.382812 16.480469c0 15.070313 10.917968 27.285157 24.382812 27.285157s24.382812-12.214844 24.382812-27.285157zm0 0" fill="#4e5660"/><path d="m264.121094 296.433594c-4.140625 0-7.5-3.359375-7.5-7.5v-12.980469c0-4.140625 3.359375-7.5 7.5-7.5 4.144531 0 7.5 3.359375 7.5 7.5v12.980469c0 4.140625-3.355469 7.5-7.5 7.5zm0 0" fill="#4e5660"/><path d="m83.375 305.976562c-.015625 0-.03125 0-.050781 0-2.984375.007813-5.878907-1.058593-8.011719-3.148437-4.820312-4.710937-11.414062-7.613281-18.6875-7.613281s-13.863281 2.902344-18.683594 7.613281c-2.136718 2.089844-5.027344 3.15625-8.015625 3.148437-.015625 0-.03125 0-.050781 0-17.550781 0-31.566406 15.132813-29.707031 33.0625 1.398437 13.515626 12.03125 24.519532 25.484375 26.394532 4.929687.6875 9.652344.144531 13.941406-1.328125 4.207031 4.648437 10.269531 7.589843 17.03125 7.589843 6.765625 0 12.828125-2.941406 17.035156-7.589843 4.289063 1.472656 9.011719 2.015625 13.9375 1.328125 13.457032-1.875 24.089844-12.878906 25.488282-26.394532 1.855468-17.929687-12.160157-33.0625-29.710938-33.0625zm0 0" fill="#a3defe"/><path d="m39.59375 364.105469c4.207031 4.648437 10.269531 7.589843 17.03125 7.589843 6.167969 0 11.75-2.449218 15.875-6.40625-21.28125-14.703124-33.078125-45.25-22.914062-69.132812-4.449219 1.214844-8.441407 3.539062-11.644532 6.671875-2.136718 2.085937-5.027344 3.152344-8.015625 3.148437-.015625 0-.03125 0-.050781 0-17.550781 0-31.566406 15.132813-29.710938 33.0625 1.398438 13.511719 12.03125 24.519532 25.488282 26.394532 4.929687.6875 9.652344.144531 13.941406-1.328125zm0 0" fill="#7acefa"/><path d="m104.566406 353.800781-4.78125-4.785156c-4.804687-4.804687-12.59375-4.804687-17.398437 0l-5.546875 5.550781c-1.648438 1.644532-4.320313 1.644532-5.964844 0l-5.550781-5.550781c-4.804688-4.804687-12.59375-4.804687-17.398438 0l-5.546875 5.550781c-1.648437 1.644532-4.316406 1.644532-5.964844 0l-5.546874-5.550781c-4.804688-4.804687-12.59375-4.804687-17.398438 0l-4.785156 4.785156c-2.398438 2.398438-3.746094 5.652344-3.746094 9.046875v24.933594h103.375v-24.933594c0-3.394531-1.347656-6.648437-3.746094-9.046875zm0 0" fill="#fcf2d0"/><path d="m4.9375 387.78125h143.828125c8.261719 0 16.109375-3.640625 21.445313-9.953125 5.335937-6.308594 13.179687-9.949219 21.441406-9.949219h128.082031c15.332031 0 27.761719 12.429688 27.761719 27.761719v8.488281c0 15.332032-12.429688 27.757813-32.304688 27.757813h-293.011718c-7.488282 0-17.242188-9.753907-17.242188-21.785157zm0 0" fill="#e26e7e"/><path d="m280.433594 416.925781c-5.085938 0-10.117188-2.265625-13.476563-6.597656-5.769531-7.433594-4.417969-18.140625 3.015625-23.90625 18.917969-14.679687 29.308594-46.765625 28.09375-68.082031-.539062-9.398438 6.644532-17.449219 16.039063-17.984375 9.386719-.546875 17.449219 6.640625 17.984375 16.039062 1.722656 30.15625-12.136719 74.386719-41.222656 96.953125-3.105469 2.410156-6.785157 3.578125-10.433594 3.578125zm0 0" fill="#efd176"/><path d="m59.476562 448.929688c-5.597656 0-11.082031-2.753907-14.339843-7.808594-.929688-1.441406-2.492188-3.882813-4.152344-6.546875-4.964844-7.996094-2.511719-18.5 5.480469-23.46875 7.996094-4.96875 18.5-2.511719 23.46875 5.480469 1.535156 2.46875 2.984375 4.730468 3.84375 6.066406 5.101562 7.910156 2.824218 18.457031-5.085938 23.558594-2.851562 1.839843-6.054687 2.71875-9.214844 2.71875zm0 0" fill="#efd176"/><path d="m392.699219 293.828125c0-4.132813 19.476562-4.722656 19.476562-13.277344 0-8.558593-20.691406-7.136719-31.402343-14.066406-9.765626-6.316406-23.699219-5.199219-27.832032 6.339844-3.140625 8.769531 2.960938 15.691406 2.960938 21.003906s-6.101563 12.234375-2.960938 21.003906c4.132813 11.535157 18.070313 12.65625 27.832032 6.339844 10.710937-6.929687 31.402343-5.507813 31.402343-14.066406 0-8.554688-19.476562-9.144531-19.476562-13.277344zm0 0" fill="#fff"/><path d="m376.277344 397.921875c-4.140625 0-7.5-3.359375-7.5-7.5v-33.175781c0-4.140625 3.359375-7.5 7.5-7.5 4.144531 0 7.5 3.359375 7.5 7.5v33.175781c0 4.140625-3.355469 7.5-7.5 7.5zm0 0" fill="#4e5660"/><path d="m353.984375 472.320312c-4.140625 0-7.5 3.359376-7.5 7.5v15.132813h15v-15.132813c0-4.140624-3.355469-7.5-7.5-7.5zm0 0" fill="#fcf2d0"/><path d="m398.570312 472.320312c-4.140624 0-7.5 3.359376-7.5 7.5v15.132813h15v-15.132813c0-4.140624-3.355468-7.5-7.5-7.5zm0 0" fill="#f6e3a3"/></svg>