<svg height="511pt" viewBox="0 -15 511.99987 511" width="511pt" xmlns="http://www.w3.org/2000/svg"><path d="m384.648438 331.417969c-13.605469 0-27.679688-4.09375-41.972657-16.054688-7.605469-6.367187-8.613281-17.691406-2.25-25.300781 6.367188-7.605469 17.695313-8.613281 25.300781-2.25 14.375 12.03125 26.222657 8.457031 51.648438-.765625 20.910156-7.585937 46.933594-17.03125 79.238281-12.351563 9.816407 1.421876 16.621094 10.53125 15.199219 20.347657-1.421875 9.816406-10.535156 16.621093-20.347656 15.199219-23.382813-3.386719-42.933594 3.707031-61.835938 10.566406-14.113281 5.121094-29.234375 10.609375-44.980468 10.609375zm0 0" fill="#efd176"/><path d="m90.472656 342.511719c-4.25 0-8.457031-.269531-12.601562-.816407-28.554688-3.753906-54.28125-20.238281-74.394532-47.671874-5.863281-7.996094-4.132812-19.234376 3.863282-25.101563 8-5.863281 19.238281-4.132813 25.105468 3.863281 14.378907 19.613282 31.238282 30.816406 50.109376 33.300782 28.84375 3.792968 52.628906-13.203126 59.230468-18.5 7.734375-6.210938 19.039063-4.976563 25.25 2.757812 6.207032 7.734375 4.972656 19.039062-2.761718 25.25-21.519532 17.277344-48.328126 26.917969-73.800782 26.917969zm0 0" fill="#efd176"/><path d="m204.242188 72.859375c25.269531 25.269531 29.597656 64.609375 30.027343 84.796875.160157 7.339844-5.839843 13.335938-13.175781 13.179688-20.191406-.433594-59.53125-4.761719-84.796875-30.03125-25.269531-25.265626-29.601563-64.605469-30.03125-84.796876-.15625-7.335937 5.839844-13.335937 13.175781-13.175781 20.191406.429688 59.53125 4.761719 84.800782 30.027344zm0 0" fill="#8ee2cf"/><path d="m185.421875 129.484375c-1.917969 0-3.839844-.730469-5.304687-2.195313l-30.304688-30.304687c-2.929688-2.929687-2.929688-7.679687 0-10.605469 2.929688-2.929687 7.679688-2.929687 10.605469 0l30.304687 30.304688c2.929688 2.929687 2.929688 7.675781 0 10.605468-1.460937 1.464844-3.382812 2.195313-5.300781 2.195313zm0 0" fill="#6fce91"/><path d="m302.988281 72.859375c-25.269531 25.269531-29.597656 64.609375-30.027343 84.796875-.160157 7.339844 5.839843 13.335938 13.175781 13.179688 20.191406-.433594 59.53125-4.761719 84.796875-30.03125 25.269531-25.265626 29.601562-64.605469 30.03125-84.796876.15625-7.335937-5.839844-13.335937-13.175782-13.175781-20.191406.429688-59.53125 4.761719-84.800781 30.027344zm0 0" fill="#8ee2cf"/><path d="m321.808594 129.484375c-1.917969 0-3.839844-.730469-5.300782-2.195313-2.929687-2.929687-2.929687-7.679687 0-10.605468l30.304688-30.304688c2.929688-2.929687 7.675781-2.929687 10.605469 0 2.929687 2.929688 2.929687 7.675782 0 10.605469l-30.304688 30.304687c-1.464843 1.464844-3.382812 2.195313-5.304687 2.195313zm0 0" fill="#6fce91"/><path d="m301.660156 85.671875c0 35.734375-24.753906 66.613281-38.726562 81.191406-5.078125 5.300781-13.558594 5.300781-18.636719 0-13.96875-14.578125-38.726563-45.457031-38.726563-81.195312 0-35.734375 24.753907-66.613281 38.726563-81.195313 5.078125-5.296875 13.558594-5.296875 18.636719 0 13.96875 14.582032 38.726562 45.460938 38.726562 81.199219zm0 0" fill="#8ee2cf"/><path d="m253.617188 114.597656c-4.144532 0-7.5-3.355468-7.5-7.5v-42.855468c0-4.144532 3.355468-7.5 7.5-7.5 4.140624 0 7.5 3.355468 7.5 7.5v42.855468c0 4.144532-3.359376 7.5-7.5 7.5zm0 0" fill="#6fce91"/><path d="m156.855469 419.15625c-26.304688-30.046875-41.660157-82.460938-37.464844-134.703125 7.105469-88.410156 60.09375-146.792969 134.226563-146.792969 74.128906 0 127.117187 58.382813 134.222656 146.792969 2.472656 30.8125.226562 58.992187-7.867188 82.859375-9.738281 27.230469 10.277344 43.300781 37.703125 49.316406 17.371094 3.808594 20.128907 27.367188 4.066407 35.007813-74.214844 35.296875-187.558594 55.847656-264.886719-32.480469zm0 0" fill="#f7ef87"/><g fill="#efd176"><path d="m208.269531 145.742188c-49.769531 18.894531-83.328125 69.636718-88.878906 138.710937-4.195313 52.242187 11.160156 104.660156 37.464844 134.707031 38.0625 43.476563 84.855469 60.5625 131.414062 62.503906-176.78125-78.652343-141.675781-241.664062-80-335.921874zm0 0"/><path d="m240.5625 250.535156c-1.917969 0-3.835938-.730468-5.300781-2.195312-2.929688-2.929688-2.929688-7.679688 0-10.609375l13.050781-13.050781c1.40625-1.40625 3.3125-2.199219 5.304688-2.199219 1.988281 0 3.894531.792969 5.300781 2.199219l13.050781 13.050781c2.929688 2.929687 2.929688 7.679687 0 10.609375-2.925781 2.925781-7.675781 2.925781-10.605469 0l-7.746093-7.75-7.75 7.75c-1.464844 1.464844-3.382813 2.195312-5.304688 2.195312zm0 0"/><path d="m341.285156 250.535156c-1.917968 0-3.839844-.734375-5.300781-2.195312l-7.75-7.75-7.75 7.75c-2.929687 2.925781-7.675781 2.925781-10.605469 0-2.929687-2.929688-2.929687-7.679688 0-10.609375l13.050782-13.050781c2.929687-2.929688 7.679687-2.929688 10.609374 0l13.050782 13.050781c2.929687 2.929687 2.929687 7.679687 0 10.609375-1.464844 1.464844-3.382813 2.195312-5.304688 2.195312zm0 0"/><path d="m192.046875 250.535156c-1.917969 0-3.839844-.730468-5.300781-2.195312l-7.75-7.75-7.75 7.75c-2.929688 2.925781-7.675782 2.929687-10.605469 0-2.929687-2.929688-2.929687-7.679688 0-10.609375l13.050781-13.050781c2.929688-2.925782 7.679688-2.925782 10.605469 0l13.054687 13.050781c2.925782 2.929687 2.925782 7.679687 0 10.609375-1.464843 1.460937-3.382812 2.195312-5.304687 2.195312zm0 0"/><path d="m303.902344 403.128906c-1.917969 0-3.839844-.734375-5.304688-2.199218l-7.726562-7.726563-7.730469 7.726563c-2.929687 2.929687-7.679687 2.929687-10.605469 0-2.929687-2.925782-2.929687-7.675782 0-10.605469l13.03125-13.03125c2.929688-2.929688 7.679688-2.929688 10.605469 0l13.035156 13.03125c2.929688 2.929687 2.929688 7.679687 0 10.605469-1.464843 1.464843-3.386719 2.199218-5.304687 2.199218zm0 0"/><path d="m229.394531 403.128906c-1.921875 0-3.839843-.734375-5.304687-2.199218l-7.730469-7.726563-7.726563 7.726563c-2.929687 2.929687-7.679687 2.929687-10.609374 0-2.925782-2.925782-2.925782-7.675782 0-10.605469l13.035156-13.03125c2.929687-2.929688 7.675781-2.929688 10.605468 0l13.03125 13.03125c2.929688 2.929687 2.929688 7.679687 0 10.605469-1.464843 1.464843-3.382812 2.199218-5.300781 2.199218zm0 0"/></g><path d="m199.109375 336.121094c0-14.019532-14.269531-25.382813-31.871094-25.382813-17.601562 0-31.871093 11.363281-31.871093 25.382813 0 14.015625 14.269531 25.378906 31.871093 25.378906 17.601563 0 31.871094-11.363281 31.871094-25.378906zm0 0" fill="#eda1ab"/><path d="m371.863281 336.121094c0-14.019532-14.269531-25.382813-31.871093-25.382813-17.601563 0-31.871094 11.363281-31.871094 25.382813 0 14.015625 14.269531 25.378906 31.871094 25.378906 17.601562 0 31.871093-11.363281 31.871093-25.378906zm0 0" fill="#eda1ab"/><path d="m172.566406 313.652344c-4.140625 0-7.5-3.359375-7.5-7.5v-13.679688c0-4.144531 3.359375-7.5 7.5-7.5s7.5 3.355469 7.5 7.5v13.679688c0 4.140625-3.359375 7.5-7.5 7.5zm0 0" fill="#4e5660"/><path d="m270.535156 316.617188c0-10.453126-7.578125-18.929688-16.917968-18.929688-9.34375 0-16.921876 8.476562-16.921876 18.929688 0 10.457031 7.578126 18.933593 16.921876 18.933593 9.339843 0 16.917968-8.476562 16.917968-18.933593zm0 0" fill="#4e5660"/><path d="m334.664062 313.652344c-4.140624 0-7.5-3.359375-7.5-7.5v-13.679688c0-4.144531 3.359376-7.5 7.5-7.5 4.140626 0 7.5 3.355469 7.5 7.5v13.679688c0 4.140625-3.359374 7.5-7.5 7.5zm0 0" fill="#4e5660"/><path d="m454.367188 378.523438c0-7.957032-7.378907-14.410157-16.480469-14.410157-9.097657 0-16.476563 6.453125-16.476563 14.410157 0 7.957031 7.378906 14.410156 16.476563 14.410156 9.101562 0 16.480469-6.453125 16.480469-14.410156zm0 0" fill="#f7ef87"/><path d="m497.105469 394.179688c-7.539063-7.542969-20.03125-7.277344-27.898438.589843-7.867187 7.867188-8.128906 20.355469-.589843 27.898438 7.542968 7.539062 20.03125 7.277343 27.898437-.589844s8.132813-20.355469.589844-27.898437zm0 0" fill="#f7ef87"/></svg>