<svg height="511pt" viewBox="-9 0 511 511.99981" width="511pt" xmlns="http://www.w3.org/2000/svg"><path d="m228.128906 512c-1.207031 0-2.429687-.125-3.65625-.378906-9.621094-2.011719-15.789062-11.4375-13.777344-21.058594 8.117188-38.851562 44.351563-78.199219 65.28125-93.875 7.867188-5.890625 19.019532-4.289062 24.910157 3.578125 5.890625 7.863281 4.289062 19.015625-3.578125 24.90625-15.128906 11.328125-45.847656 44.277344-51.78125 72.671875-1.753906 8.390625-9.152344 14.15625-17.398438 14.15625zm0 0" fill="#efd176"/><path d="m119.652344 492.34375c-3.125 0-6.292969-.824219-9.164063-2.558594-8.417969-5.070312-11.128906-16.007812-6.054687-24.421875 20.242187-33.578125 42.214844-48.238281 58.261718-58.941406 5.023438-3.351563 9.359376-6.242187 13.015626-9.242187 7.59375-6.238282 18.804687-5.136719 25.042968 2.460937 6.234375 7.59375 5.132813 18.804687-2.460937 25.042969-5.023438 4.121094-10.28125 7.628906-15.851563 11.34375-14.714844 9.816406-31.398437 20.945312-47.53125 47.707031-3.339844 5.539063-9.222656 8.609375-15.257812 8.609375zm0 0" fill="#efd176"/><path d="m396.699219 441.980469c-1.820313 0-3.671875-.28125-5.5-.875-38.808594-12.609375-65.625-52.511719-81.972657-121.996094-2.25-9.5625 3.679688-19.144531 13.246094-21.394531 9.554688-2.25 19.144532 3.679687 21.394532 13.246094 13.074218 55.574218 32.699218 87.976562 58.328124 96.300781 9.34375 3.035156 14.460938 13.074219 11.421876 22.421875-2.441407 7.515625-9.414063 12.296875-16.917969 12.296875zm0 0" fill="#efd176"/><path d="m44.039062 425.628906c-8.511718 0-16.039062-6.128906-17.515624-14.808594-1.652344-9.683593 4.863281-18.875 14.550781-20.527343 12.796875-2.179688 26.859375-16.824219 40.660156-42.359375 13.570313-25.105469 23.992187-55.164063 31.601563-77.109375 3.21875-9.285157 13.355468-14.203125 22.640624-10.984375 9.285157 3.21875 14.199219 13.355468 10.980469 22.640625-17.347656 50.035156-46.382812 133.777343-99.90625 142.894531-1.011719.171875-2.019531.253906-3.011719.253906zm0 0" fill="#efd176"/><path d="m219.460938 62.300781c20.308593 29 17.765624 68.128907 14.710937 87.898438-1.109375 7.1875-7.992187 12.007812-15.121094 10.589843-19.625-3.890624-57.261719-14.882812-77.570312-43.886718-20.304688-29-17.761719-68.125-14.710938-87.898438 1.109375-7.183594 7.996094-12.003906 15.125-10.589844 19.625 3.894532 57.261719 14.886719 77.566407 43.886719zm0 0" fill="#8ee2cf"/><path d="m192.65625 114.492188c-2.363281 0-4.691406-1.113282-6.148438-3.199219l-24.355468-34.78125c-2.378906-3.390625-1.554688-8.066407 1.839844-10.445313 3.394531-2.375 8.070312-1.550781 10.445312 1.84375l24.355469 34.78125c2.375 3.390625 1.550781 8.070313-1.84375 10.445313-1.308594.917969-2.808594 1.355469-4.292969 1.355469zm0 0" fill="#6fce91"/><path d="m315.808594 79.289062c-29.003906 20.308594-39.996094 57.941407-43.886719 77.566407-1.417969 7.132812 3.402344 14.015625 10.589844 15.125 19.769531 3.050781 58.898437 5.59375 87.898437-14.710938 29-20.308593 39.992188-57.945312 43.886719-77.566406 1.414063-7.132813-3.40625-14.015625-10.589844-15.125-19.773437-3.050781-58.898437-5.597656-87.898437 14.710937zm0 0" fill="#8ee2cf"/><path d="m325.722656 137.957031c-2.363281 0-4.691406-1.113281-6.148437-3.199219-2.375-3.394531-1.550781-8.070312 1.839843-10.445312l34.78125-24.355469c3.398438-2.375 8.070313-1.550781 10.445313 1.84375 2.378906 3.394531 1.554687 8.070313-1.839844 10.445313l-34.78125 24.355468c-1.308593.914063-2.808593 1.355469-4.296875 1.355469zm0 0" fill="#6fce91"/><path d="m312.304688 91.558594c-6.148438 34.863281-35.613282 60.734375-51.75 72.554687-5.867188 4.296875-14.140626 2.839844-18.183594-3.203125-11.121094-16.632812-29.960938-51.015625-23.8125-85.882812 6.144531-34.867188 35.613281-60.734375 51.75-72.558594 5.867187-4.296875 14.140625-2.835938 18.183594 3.207031 11.121093 16.628907 29.960937 51.015625 23.8125 85.882813zm0 0" fill="#8ee2cf"/><path d="m261.753906 111.699219c-.433594 0-.871094-.035157-1.3125-.113281-4.078125-.71875-6.804687-4.609376-6.082031-8.6875l7.371094-41.816407c.722656-4.078125 4.613281-6.800781 8.691406-6.082031s6.800781 4.609375 6.082031 8.6875l-7.375 41.816406c-.640625 3.636719-3.804687 6.195313-7.375 6.195313zm0 0" fill="#6fce91"/><path d="m256.488281 134.015625c72.324219 12.753906 113.980469 78.832031 105.703125 166.3125-8.613281 90.996094-54.167968 151.976563-158.582031 133.566406-104.410156-18.414062-126.363281-91.292969-103.332031-179.75 22.140625-85.035156 83.882812-132.878906 156.210937-120.128906zm0 0" fill="#f7ef87"/><g fill="#efd176"><path d="m211.925781 133.910156c-52.304687 9.46875-94.230469 53.339844-111.648437 120.234375-22.964844 88.210938-1.191406 160.925781 102.472656 179.589844-112.320312-99.234375-54.054688-232.265625 9.175781-299.824219zm0 0"/><path d="m251.109375 246.347656c-2.363281 0-4.6875-1.113281-6.148437-3.199218l-6.164063-8.800782-8.804687 6.164063c-3.394532 2.375-8.070313 1.550781-10.445313-1.84375-2.375-3.390625-1.550781-8.066407 1.84375-10.445313l14.945313-10.464844c3.394531-2.375 8.070312-1.550781 10.445312 1.84375l10.464844 14.945313c2.378906 3.394531 1.554687 8.070313-1.839844 10.445313-1.308594.917968-2.808594 1.355468-4.296875 1.355468zm0 0"/><path d="m323.761719 259.160156c-2.367188 0-4.691407-1.117187-6.152344-3.199218l-6.164063-8.804688-8.804687 6.164062c-3.394531 2.378907-8.070313 1.550782-10.445313-1.839843-2.375-3.394531-1.550781-8.070313 1.84375-10.445313l14.945313-10.46875c3.394531-2.375 8.070313-1.550781 10.445313 1.84375l10.46875 14.945313c2.375 3.394531 1.550781 8.070312-1.84375 10.445312-1.308594.917969-2.808594 1.359375-4.292969 1.359375zm0 0"/><path d="m178.464844 233.539062c-2.367188 0-4.691406-1.117187-6.152344-3.199218l-6.164062-8.804688-8.804688 6.164063c-3.394531 2.378906-8.070312 1.550781-10.445312-1.839844-2.375-3.394531-1.550782-8.070313 1.84375-10.445313l14.945312-10.464843c3.394531-2.378907 8.070312-1.554688 10.445312 1.839843l10.46875 14.949219c2.375 3.390625 1.550782 8.066407-1.84375 10.445313-1.308593.914062-2.808593 1.355468-4.292968 1.355468zm0 0"/><path d="m261.179688 401.855469c-2.367188 0-4.691407-1.113281-6.152344-3.199219l-6.171875-8.8125-8.8125 6.171875c-3.394531 2.375-8.070313 1.550781-10.445313-1.84375-2.375-3.390625-1.550781-8.066406 1.839844-10.441406l14.957031-10.476563c1.632813-1.140625 3.648438-1.585937 5.605469-1.242187 1.960938.347656 3.699219 1.457031 4.84375 3.085937l10.472656 14.957032c2.375 3.390624 1.550782 8.066406-1.84375 10.445312-1.308594.917969-2.808594 1.355469-4.292968 1.355469zm0 0"/><path d="m188.480469 389.039062c-2.363281 0-4.691407-1.117187-6.148438-3.199218l-6.171875-8.8125-8.8125 6.171875c-3.398437 2.375-8.070312 1.550781-10.445312-1.84375-2.378906-3.394531-1.550782-8.070313 1.839844-10.445313l14.957031-10.472656c3.394531-2.375 8.070312-1.550781 10.445312 1.84375l10.472657 14.957031c2.378906 3.390625 1.554687 8.070313-1.839844 10.445313-1.308594.914062-2.808594 1.355468-4.296875 1.355468zm0 0"/></g><path d="m169.375 317.148438c2.410156-13.675782-9.554688-27.21875-26.730469-30.246094-17.171875-3.027344-33.046875 5.605468-35.460937 19.28125-2.410156 13.675781 9.558594 27.21875 26.730468 30.246094 17.175782 3.027343 33.050782-5.605469 35.460938-19.28125zm0 0" fill="#eda1ab"/><path d="m275.707031 335.933594c-2.410156 13.675781 9.554688 27.214844 26.730469 30.242187 17.171875 3.027344 33.046875-5.605469 35.460938-19.28125 2.410156-13.675781-9.558594-27.214843-26.730469-30.242187-17.175781-3.027344-33.050781 5.605468-35.460938 19.28125zm0 0" fill="#eda1ab"/><path d="m163.539062 296.382812c-1.277343 0-2.558593-.109374-3.832031-.335937-6.285156-1.109375-11.777343-4.882813-15.078125-10.355469-2.136718-3.546875-.992187-8.15625 2.554688-10.296875 3.546875-2.132812 8.15625-.992187 10.292968 2.554688 1.0625 1.757812 2.824219 2.972656 4.835938 3.328125 2.015625.351562 4.085938-.183594 5.683594-1.472656 3.222656-2.601563 7.941406-2.101563 10.546875 1.121093 2.601562 3.222657 2.097656 7.945313-1.125 10.546875-3.964844 3.203125-8.867188 4.910156-13.878907 4.910156zm0 0" fill="#4e5660"/><path d="m295.84375 319.710938c-1.273438 0-2.558594-.109376-3.832031-.335938-6.285157-1.105469-11.78125-4.878906-15.078125-10.355469-2.136719-3.546875-.996094-8.15625 2.554687-10.292969 3.546875-2.136718 8.15625-.996093 10.292969 2.550782 1.0625 1.761718 2.824219 2.972656 4.835938 3.328125 2.015624.351562 4.082031-.183594 5.683593-1.472657 3.222657-2.601562 7.941407-2.097656 10.546875 1.121094 2.601563 3.222656 2.097656 7.945313-1.121094 10.550782-3.964843 3.199218-8.871093 4.90625-13.882812 4.90625zm0 0" fill="#4e5660"/><path d="m238.492188 317.472656c1.554687-8.808594-3.414063-17.050781-11.097657-18.40625-7.683593-1.351562-15.171875 4.691406-16.726562 13.503906-1.550781 8.808594 3.417969 17.050782 11.101562 18.40625 7.683594 1.351563 15.167969-4.691406 16.722657-13.503906zm0 0" fill="#4e5660"/><path d="m85.453125 229.5h-29.03125c-5.109375 0-9.527344-3.105469-11.253906-7.914062-1.726563-4.808594-.296875-10.015626 3.644531-13.269532l25.484375-21.015625h-20.566406c-4.144531 0-7.5-3.359375-7.5-7.5s3.355469-7.5 7.5-7.5h29.035156c5.105469 0 9.523437 3.105469 11.253906 7.914063 1.726563 4.808594.296875 10.015625-3.648437 13.269531l-25.480469 21.015625h20.5625c4.144531 0 7.5 3.359375 7.5 7.5 0 4.144531-3.355469 7.5-7.5 7.5zm-2.6875-42.199219h.007813zm0 0" fill="#a3defe"/><path d="m47.417969 158.402344h-34.152344c-5.449219 0-10.15625-3.308594-11.996094-8.4375-1.839843-5.125-.316406-10.675782 3.886719-14.140625l32.820312-27.066407h-27.878906c-4.144531 0-7.5-3.359374-7.5-7.5 0-4.140624 3.359375-7.5 7.5-7.5h34.15625c5.445313 0 10.152344 3.3125 11.992188 8.4375 1.84375 5.125.316406 10.671876-3.882813 14.136719l-32.820312 27.070313h27.875c4.144531 0 7.5 3.359375 7.5 7.5s-3.355469 7.5-7.5 7.5zm-3.164063-49.644532h.011719zm0 0" fill="#8eafe2"/><path d="m445.671875 272.117188c-10.90625-10.90625-14.855469-26.121094-11.867187-40.15625 1.1875-5.578126-4.578126-10.144532-9.714844-7.664063-18.128906 8.757813-30.398438 27.730469-29.324219 49.449219 1.304687 26.484375 22.792969 47.972656 49.277344 49.277344 21.71875 1.074218 40.691406-11.195313 49.449219-29.324219 2.480468-5.136719-2.085938-10.902344-7.664063-9.714844-14.039063 2.988281-29.253906-.964844-40.15625-11.867187zm0 0" fill="#a3defe"/></svg>