<svg height="512pt" viewBox="-7 0 512 512" width="512pt" xmlns="http://www.w3.org/2000/svg"><path d="m294.109375 380.796875c-35.511719-35.511719-22.972656-103.691406 28.546875-155.207031 51.519531-51.519532 119.691406-64.058594 155.207031-28.546875 35.515625 35.515625 22.976563 103.691406-28.542969 155.210937-51.519531 51.519532-119.695312 64.058594-155.210937 28.542969zm149.0625-149.0625c-13.519531-13.519531-53.097656-4.183594-85.828125 28.546875-32.730469 32.726562-42.0625 72.304688-28.542969 85.824219s53.097657 4.1875 85.828125-28.542969c32.730469-32.730469 42.0625-72.304688 28.542969-85.828125zm0 0" fill="#ffa93f"/><path d="m386.785156 149.289062h-301.101562s15.71875 193.074219-43.722656 291.820313h388.546874c-59.441406-98.746094-43.722656-291.820313-43.722656-291.820313zm0 0" fill="#ffbe73"/><path d="m152.933594 441.109375c17.773437-38.730469 24.351562-88.996094 26.628906-127.269531 1.761719-29.664063 25.050781-53.535156 54.664062-56.007813 81.1875-6.78125 99.703126-53.699219 99.703126-53.699219v-54.84375h-248.246094s15.71875 193.074219-43.722656 291.820313zm0 0" fill="#ffa93f"/><path d="m204 486.15625h-65.464844v-158.226562c0-18.074219 14.65625-32.730469 32.734375-32.730469 18.074219 0 32.730469 14.65625 32.730469 32.730469zm0 0" fill="#ff9000"/><path d="m333.933594 486.15625h-65.464844v-158.226562c0-18.074219 14.65625-32.730469 32.734375-32.730469 18.074219 0 32.730469 14.65625 32.730469 32.730469zm0 0" fill="#ff9000"/><path d="m430.464844 512h-388.460938c-23.199218 0-42.003906-18.804688-42.003906-42.003906 0-23.199219 18.804688-42.003906 42.003906-42.003906h388.460938c23.195312 0 42.003906 18.804687 42.003906 42.003906 0 23.199218-18.808594 42.003906-42.003906 42.003906zm0 0" fill="#ffd4a3"/><path d="m80.472656 469.996094c0-23.199219 18.804688-42.003906 42.003906-42.003906h-80.472656c-23.199218 0-42.003906 18.804687-42.003906 42.003906 0 23.199218 18.804688 42.003906 42.003906 42.003906h80.472656c-23.199218 0-42.003906-18.804688-42.003906-42.003906zm0 0" fill="#ffbe73"/><path d="m413.980469 75.742188c-11.816407-13.40625-27.566407-19.617188-43.03125-18.640626-10.796875.679688-20.730469-6.105468-25.570313-17.078124-10.460937-23.730469-32.070312-40.023438-57.042968-40.023438-13.972657 0-26.890626 5.105469-37.394532 13.757812-9.683594 7.980469-22.742187 7.980469-32.425781 0-10.5-8.652343-23.417969-13.757812-37.394531-13.757812-24.855469 0-46.390625 16.144531-56.90625 39.695312-4.785156 10.714844-14.429688 17.488282-25.015625 17.3125-14.710938-.242187-29.488281 5.996094-40.710938 18.734376-22.039062 25.007812-21.136719 64.78125 0 90.554687 19.246094 23.476563 77.464844 46.289063 177.746094 46.289063s157.902344-20.828126 177.746094-46.289063c20.492187-26.285156 22.039062-65.546875 0-90.554687zm0 0" fill="#f9ee80"/><g fill="#454545"><path d="m299.90625 264.414062c-4.269531 0-7.726562-3.460937-7.726562-7.726562v-12.828125c0-4.265625 3.457031-7.726563 7.726562-7.726563s7.726562 3.460938 7.726562 7.726563v12.828125c0 4.265625-3.460937 7.726562-7.726562 7.726562zm0 0"/><path d="m172.5625 264.414062c-4.269531 0-7.726562-3.460937-7.726562-7.726562v-12.828125c0-4.265625 3.457031-7.726563 7.726562-7.726563s7.726562 3.460938 7.726562 7.726563v12.828125c0 4.265625-3.460937 7.726562-7.726562 7.726562zm0 0"/><path d="m251.722656 259.308594c0-10.898438-6.933594-19.734375-15.488281-19.734375s-15.488281 8.835937-15.488281 19.734375c0 10.898437 6.933594 19.734375 15.488281 19.734375s15.488281-8.835938 15.488281-19.734375zm0 0"/></g><path d="m305.40625 81.136719c0 9.304687-7.542969 16.851562-16.851562 16.851562-9.304688 0-16.851563-7.546875-16.851563-16.851562 0-9.308594 7.546875-16.851563 16.851563-16.851563 9.308593 0 16.851562 7.542969 16.851562 16.851563zm0 0" fill="#eedb00"/><path d="m253.085938 143.199219c0 9.308593-7.546876 16.851562-16.851563 16.851562-9.308594 0-16.851563-7.542969-16.851563-16.851562 0-9.308594 7.542969-16.851563 16.851563-16.851563 9.304687 0 16.851563 7.542969 16.851563 16.851563zm0 0" fill="#eedb00"/><path d="m357.730469 143.199219c0 9.308593-7.542969 16.851562-16.851563 16.851562s-16.851562-7.542969-16.851562-16.851562c0-9.308594 7.542968-16.851563 16.851562-16.851563s16.851563 7.542969 16.851563 16.851563zm0 0" fill="#eedb00"/><path d="m147.742188 114.988281c-2.988282-90.964843 70.777343-101.230469 70.777343-101.230469-10.503906-8.652343-23.421875-13.757812-37.398437-13.757812-24.855469 0-46.390625 16.144531-56.90625 39.695312-4.785156 10.714844-14.429688 17.488282-25.015625 17.3125-14.710938-.242187-29.488281 5.996094-40.710938 18.734376-22.039062 25.007812-21.136719 64.78125 0 90.554687 17.082031 20.835937 64.863281 41.148437 145.492188 45.453125-.769531-.085938-53.277344-6.460938-56.238281-96.761719zm0 0" fill="#f4e74d"/></svg>