<svg height="511pt" viewBox="0 -17 511.99948 511" width="511pt" xmlns="http://www.w3.org/2000/svg"><path d="m2.277344 269.84375c-8.152344 25.710938 6.28125 53.125 32.09375 60.957031l343.019531 104.054688c34.929687 10.597656 67.5625-22.035157 56.964844-56.964844l-104.054688-343.019531c-7.832031-25.8125-35.246093-40.246094-60.957031-32.09375-127.144531 40.3125-226.753906 139.921875-267.066406 267.066406zm0 0" fill="#fcf2d0"/><path d="m108.105469 98.980469c-48.222657 46.644531-84.96875 105.066406-105.828125 170.863281-8.152344 25.710938 6.28125 53.125 32.09375 60.957031l114.90625 34.855469c-63.730469-67.558594-79.445313-181.300781-41.171875-266.675781zm0 0" fill="#f2d98d"/><path d="m67.464844 205.34375c0 4.125-3.34375 7.464844-7.464844 7.464844-4.125 0-7.464844-3.339844-7.464844-7.464844 0-4.121094 3.339844-7.464844 7.464844-7.464844 4.121094 0 7.464844 3.34375 7.464844 7.464844zm0 0" fill="#fcf2d0"/><path d="m204.84375 82.890625c0 4.121094-3.34375 7.464844-7.464844 7.464844-4.125 0-7.464844-3.34375-7.464844-7.464844 0-4.125 3.339844-7.464844 7.464844-7.464844 4.121094 0 7.464844 3.339844 7.464844 7.464844zm0 0" fill="#f2d98d"/><path d="m35.027344 307.480469c-8.300782 26.179687 6.398437 54.097656 32.679687 62.070312l349.292969 105.957031c35.570312 10.789063 68.796875-22.4375 58.007812-58.003906l-105.957031-349.296875c-7.972656-26.28125-35.890625-40.980469-62.070312-32.679687-129.472657 41.050781-230.902344 142.480468-271.953125 271.953125zm0 0" fill="#fcf2d0"/><path d="m230.273438 68.613281c-92.265626 51.289063-162.71875 136.269531-195.246094 238.867188-8.300782 26.179687 6.398437 54.097656 32.679687 62.070312l242.265625 73.492188c-107.753906-73.128907-108.875-303.835938-79.699218-374.429688zm0 0" fill="#f2d98d"/><path d="m332.457031 95.371094c0 4.121094-3.339843 7.464844-7.464843 7.464844-4.121094 0-7.464844-3.34375-7.464844-7.464844s3.34375-7.464844 7.464844-7.464844c4.125 0 7.464843 3.34375 7.464843 7.464844zm0 0" fill="#f2d98d"/><path d="m105.664062 326.722656c0 4.125-3.339843 7.464844-7.464843 7.464844-4.121094 0-7.464844-3.339844-7.464844-7.464844 0-4.121094 3.34375-7.464844 7.464844-7.464844 4.125 0 7.464843 3.34375 7.464843 7.464844zm0 0" fill="#fcf2d0"/><path d="m415.554688 339.332031c0 4.121094-3.34375 7.464844-7.464844 7.464844-4.125 0-7.464844-3.34375-7.464844-7.464844 0-4.121093 3.339844-7.464843 7.464844-7.464843 4.121094 0 7.464844 3.34375 7.464844 7.464843zm0 0" fill="#f2d98d"/><path d="m239.726562 364.160156c0 4.121094-3.34375 7.464844-7.464843 7.464844-4.121094 0-7.464844-3.34375-7.464844-7.464844 0-4.125 3.34375-7.46875 7.464844-7.46875 4.121093 0 7.464843 3.34375 7.464843 7.46875zm0 0" fill="#fcf2d0"/><path d="m434.65625 444.351562c0 4.125-3.34375 7.464844-7.464844 7.464844s-7.464844-3.339844-7.464844-7.464844c0-4.121093 3.34375-7.464843 7.464844-7.464843s7.464844 3.34375 7.464844 7.464843zm0 0" fill="#f2d98d"/><path d="m413.214844 409.839844c-3.183594 0-6.421875-.714844-9.472656-2.222656-13.984376-6.910157-30.515626-5.789063-48.011719-4.601563-25.300781 1.714844-56.789063 3.855469-75.46875-26.03125-16.835938-26.9375 1.796875-59.714844 19.816406-91.414063 13.730469-24.148437 30.816406-54.203124 22.554687-67.550781-.945312-1.519531-2.015624-3.246093-8.308593-2.351562-14.871094 2.109375-37.519531 17.132812-57.695313 38.269531-22.71875 23.800781-39.796875 51.9375-46.847656 77.195312-3.183594 11.394532-15 18.050782-26.394531 14.867188s-18.050781-14.996094-14.867188-26.394531c18.566407-66.480469 87.804688-138.976563 139.785157-146.351563 21.613281-3.074218 40.109374 5.027344 50.75 22.21875 21.644531 34.964844-1.398438 75.503906-21.734376 111.269532-6.910156 12.160156-13.4375 23.640624-17.375 33.433593-4.089843 10.164063-3.414062 13.746094-3.300781 14.183594 4.414063 6.972656 12.136719 7.550781 36.183594 5.914063 20.292969-1.375 45.550781-3.089844 69.894531 8.9375 10.605469 5.242187 14.953125 18.089843 9.710938 28.691406-3.730469 7.558594-11.324219 11.9375-19.21875 11.9375zm0 0" fill="#d2996f"/><path d="m209.78125 331.132812c5.1875-18.582031 15.8125-38.714843 30.105469-57.539062-1.34375-25.632812.625-49.464844 3.855469-66.296875-33.65625 28.882813-63.886719 71.71875-75.222657 112.3125-3.183593 11.394531 3.472657 23.210937 14.867188 26.394531s23.210937-3.476562 26.394531-14.871094zm0 0" fill="#c47b46"/><path d="m373.292969 284.160156c-1.96875 0-3.933594-.769531-5.40625-2.300781-2.871094-2.984375-2.777344-7.734375.207031-10.605469 11.09375-10.664062 19.628906-27.832031 24.039062-48.34375 4.199219-19.539062 4.292969-40.828125.253907-58.410156-.617188-2.683594.289062-5.492188 2.355469-7.3125 2.070312-1.816406 4.972656-2.355469 7.554687-1.398438 31.9375 11.804688 76.371094 73.15625 76.371094 117.386719 0 4.140625-3.359375 7.5-7.5 7.5-4.144531 0-7.5-3.359375-7.5-7.5 0-33.589843-29.984375-77.609375-54.039063-95.980469 1.605469 15.757813.660156 32.621094-2.832031 48.867188-5.03125 23.402344-15.082031 43.289062-28.304687 56.003906-1.457032 1.398438-3.328126 2.09375-5.199219 2.09375zm0 0" fill="#89d47f"/><path d="m512 287.683594c0 22.554687-18.28125 40.835937-40.832031 40.835937-22.554688 0-40.835938-18.28125-40.835938-40.835937 0-22.550782 18.28125-40.832032 40.835938-40.832032 22.550781 0 40.832031 18.28125 40.832031 40.832032zm0 0" fill="#e3748e"/><path d="m414.125 274.328125c0 22.550781-18.28125 40.832031-40.832031 40.832031s-40.832031-18.28125-40.832031-40.832031c0-22.554687 18.28125-40.835937 40.832031-40.835937s40.832031 18.28125 40.832031 40.835937zm0 0" fill="#e3748e"/><path d="m408.089844 295.691406c-44.511719 13.675782-62.09375-38.707031-46.109375-60.597656-17.046875 4.90625-29.519531 20.609375-29.519531 39.234375 0 22.550781 18.28125 40.832031 40.832031 40.832031 14.714843 0 27.609375-7.789062 34.796875-19.46875zm0 0" fill="#de5c6e"/><path d="m505.964844 309.050781c-44.511719 13.675781-62.09375-38.707031-46.109375-60.597656-17.046875 4.90625-29.519531 20.609375-29.519531 39.234375 0 22.550781 18.28125 40.832031 40.832031 40.832031 14.714843 0 27.609375-7.789062 34.796875-19.46875zm0 0" fill="#de5c6e"/><path d="m161.414062 244.199219c-10.578124-10.578125-29.925781-8.386719-43.210937 4.902343-13.289063 13.285157-15.480469 32.632813-4.902344 43.210938 10.582031 10.582031 29.929688 8.386719 43.214844-4.898438 13.285156-13.285156 15.480469-32.632812 4.898437-43.214843zm0 0" fill="#eda1ab"/><path d="m243.703125 161.917969c10.582031 10.582031 29.929687 8.386719 43.214844-4.898438 13.285156-13.285156 15.480469-32.632812 4.898437-43.214843-10.582031-10.578126-29.925781-8.386719-43.214844 4.898437-13.285156 13.289063-15.476562 32.632813-4.898437 43.214844zm0 0" fill="#eda1ab"/><g fill="#4e5660"><path d="m132.269531 242.628906c-1.917969 0-3.839843-.734375-5.304687-2.199218l-8.492188-8.496094c-2.929687-2.929688-2.929687-7.675782 0-10.605469 2.929688-2.929687 7.675782-2.929687 10.605469 0l8.496094 8.496094c2.929687 2.929687 2.925781 7.679687 0 10.609375-1.464844 1.460937-3.382813 2.195312-5.304688 2.195312zm0 0"/><path d="m234.625 140.269531c-1.917969 0-3.839844-.730469-5.300781-2.195312l-8.496094-8.492188c-2.929687-2.933593-2.929687-7.679687 0-10.609375 2.929687-2.925781 7.675781-2.925781 10.605469 0l8.496094 8.496094c2.929687 2.929688 2.929687 7.675781 0 10.605469-1.464844 1.464843-3.382813 2.195312-5.304688 2.195312zm0 0"/><path d="m172.074219 205.378906c-.75 0-1.5-.027344-2.253907-.078125-4.132812-.28125-7.253906-3.863281-6.96875-7.996093.28125-4.132813 3.878907-7.238282 7.996094-6.96875 5.148438.355468 10.1875-1.53125 13.820313-5.167969 3.636719-3.636719 5.523437-8.671875 5.167969-13.820313-.285157-4.132812 2.835937-7.710937 6.96875-7.996094 4.128906-.277343 7.710937 2.835938 7.996093 6.96875.652344 9.472657-2.820312 18.75-9.523437 25.457032-6.171875 6.167968-14.523438 9.601562-23.203125 9.601562zm0 0"/></g></svg>