<?xml version="1.0" encoding="iso-8859-1"?>
<!-- Generator: Adobe Illustrator 19.0.0, SVG Export Plug-In . SVG Version: 6.00 Build 0)  -->
<svg version="1.1" id="Capa_1" xmlns="http://www.w3.org/2000/svg" xmlns:xlink="http://www.w3.org/1999/xlink" x="0px" y="0px"
	 viewBox="0 0 512 512" style="enable-background:new 0 0 512 512;" xml:space="preserve">
<path style="fill:#95D4E9;" d="M430.62,322.902H53.931v-166.93c0-8.61,6.98-15.59,15.59-15.59h345.51c8.61,0,15.59,6.98,15.59,15.59
	v166.93H430.62z"/>
<path style="fill:#6CB6DE;" d="M193.334,37.354h-63.232c-6.288,0-11.385,5.097-11.385,11.385v91.643h86.002V48.739
	C204.719,42.451,199.621,37.354,193.334,37.354z"/>
<path style="fill:#5F75A1;" d="M193.334,37.354h-63.232c-6.288,0-11.385,5.097-11.385,11.385v29.952h86.002V48.739
	C204.719,42.451,199.621,37.354,193.334,37.354z"/>
<path style="opacity:0.1;enable-background:new    ;" d="M141.227,37.354h-11.126c-6.288,0-11.385,5.097-11.385,11.385v91.643
	h33.445C141.769,109.952,137.674,53.761,141.227,37.354z"/>
<path style="fill:#6CB6DE;" d="M291.217,37.354h63.232c6.288,0,11.385,5.097,11.385,11.385v91.643h-86.002V48.739
	C279.832,42.451,284.929,37.354,291.217,37.354z"/>
<path style="fill:#5F75A1;" d="M291.217,37.354h63.232c6.288,0,11.385,5.097,11.385,11.385v29.952h-86.002V48.739
	C279.832,42.451,284.929,37.354,291.217,37.354z"/>
<path style="opacity:0.1;enable-background:new    ;" d="M302.343,37.354h-11.126c-6.288,0-11.385,5.097-11.385,11.385v91.643
	h33.445C302.884,109.952,298.79,53.761,302.343,37.354z"/>
<g>
	<ellipse style="fill:#F284B9;" cx="265.08" cy="207.16" rx="22.808" ry="18.16"/>
	<ellipse style="fill:#F284B9;" cx="388.71" cy="207.16" rx="22.808" ry="18.16"/>
</g>
<g>
	<path style="fill:#4A5359;" d="M278.376,196.538c-4.143,0-7.5-3.358-7.5-7.5v-8.055c0-4.142,3.357-7.5,7.5-7.5s7.5,3.358,7.5,7.5
		v8.055C285.876,193.18,282.519,196.538,278.376,196.538z"/>
	<path style="fill:#4A5359;" d="M375.418,196.538c-4.143,0-7.5-3.358-7.5-7.5v-8.055c0-4.142,3.357-7.5,7.5-7.5
		c4.142,0,7.5,3.358,7.5,7.5v8.055C382.918,193.18,379.56,196.538,375.418,196.538z"/>
	<path style="fill:#4A5359;" d="M326.897,202.722c-7.071,0-13.795-3.062-18.447-8.4c-2.722-3.123-2.396-7.86,0.727-10.582
		c3.125-2.721,7.859-2.397,10.582,0.727c1.803,2.068,4.404,3.255,7.139,3.255c2.733,0,5.335-1.187,7.138-3.255
		c2.721-3.123,7.457-3.448,10.582-0.727c3.122,2.721,3.448,7.459,0.727,10.582C340.691,199.66,333.969,202.722,326.897,202.722z"/>
</g>
<g>
	<path style="fill:#FFFFFF;" d="M205.893,206.878h-107.4c-5.066,0-9.173-4.107-9.173-9.173v-17.5c0-5.066,4.107-9.173,9.173-9.173
		h107.4c5.066,0,9.173,4.107,9.173,9.173v17.5C215.066,202.771,210.959,206.878,205.893,206.878z"/>
	<path style="fill:#FFFFFF;" d="M205.893,270.007h-107.4c-5.066,0-9.173-4.107-9.173-9.173v-17.5c0-5.066,4.107-9.173,9.173-9.173
		h107.4c5.066,0,9.173,4.107,9.173,9.173v17.5C215.066,265.9,210.959,270.007,205.893,270.007z"/>
</g>
<path style="opacity:0.1;enable-background:new    ;" d="M130.749,140.383H69.52c-8.61,0-15.59,6.98-15.59,15.59v166.93h108.4
	C141.332,289.594,128.117,192.665,130.749,140.383z"/>
<path style="fill:#E8E9EA;" d="M255.946,267.723l-10.552,15.485c-8.9,13.06-23.681,20.875-39.486,20.875H37.267
	C16.685,304.084,0,320.769,0,341.351l0,0c0,73.617,59.678,133.295,133.295,133.295h245.41c73.617,0,133.295-59.678,133.295-133.295
	v-62.265c0-20.582-16.685-37.267-37.267-37.267h-169.79C285.331,241.819,266.989,251.517,255.946,267.723z"/>
<g>
	<path style="fill:#4A5359;" d="M295.564,398.297c-13.925,0-27.168-6.032-36.334-16.549c-2.721-3.122-2.396-7.86,0.727-10.582
		c3.122-2.722,7.859-2.397,10.582,0.726c6.316,7.247,15.438,11.404,25.025,11.404c9.588,0,18.709-4.157,25.025-11.404
		c2.722-3.123,7.459-3.449,10.582-0.726c3.123,2.721,3.448,7.459,0.727,10.582C322.732,392.266,309.489,398.297,295.564,398.297z"/>
	<path style="fill:#4A5359;" d="M295.564,398.297c-4.143,0-7.5-3.358-7.5-7.5v-59.55c0-4.142,3.357-7.5,7.5-7.5s7.5,3.358,7.5,7.5
		v59.55C303.065,394.94,299.707,398.297,295.564,398.297z"/>
	<path style="fill:#4A5359;" d="M295.564,338.748c-12.343,0-22.385-10.042-22.385-22.385s10.042-22.384,22.385-22.384
		c12.343,0,22.385,10.042,22.385,22.384S307.907,338.748,295.564,338.748z M295.564,308.978c-4.072,0-7.385,3.313-7.385,7.384
		s3.313,7.385,7.385,7.385c4.072,0,7.385-3.313,7.385-7.385S299.637,308.978,295.564,308.978z"/>
	<path style="fill:#4A5359;" d="M318.086,362.462h-45.043c-4.143,0-7.5-3.358-7.5-7.5s3.357-7.5,7.5-7.5h45.043
		c4.143,0,7.5,3.358,7.5,7.5S322.228,362.462,318.086,362.462z"/>
</g>
<path style="fill:#F284B9;" d="M26.761,421.469c24.325,32.294,62.989,53.177,106.534,53.177h245.41
	c43.545,0,82.208-20.883,106.534-53.177H26.761z"/>
<path style="opacity:0.1;enable-background:new    ;" d="M132.558,304.084H37.267C16.685,304.084,0,320.769,0,341.351l0,0
	c0,73.617,59.678,133.295,133.295,133.295h69.654C143.621,441.112,128.392,347.846,132.558,304.084z"/>
<g>
</g>
<g>
</g>
<g>
</g>
<g>
</g>
<g>
</g>
<g>
</g>
<g>
</g>
<g>
</g>
<g>
</g>
<g>
</g>
<g>
</g>
<g>
</g>
<g>
</g>
<g>
</g>
<g>
</g>
</svg>
