<svg height="512pt" viewBox="-67 0 512 512.00028" width="512pt" xmlns="http://www.w3.org/2000/svg"><path d="m270.855469 234.707031-53.777344-10.171875 39.425781-208.371094c2.035156-10.773437 12.421875-17.851562 23.195313-15.816406l14.765625 2.796875c10.773437 2.035157 17.851562 12.421875 15.816406 23.195313zm0 0" fill="#fad989"/><path d="m268.640625 243.925781-47.25-27.621093 107.027344-183.078126c5.53125-9.464843 17.6875-12.652343 27.15625-7.121093l12.972656 7.585937c9.464844 5.53125 12.652344 17.691406 7.121094 27.15625zm0 0" fill="#ffeab7"/><path d="m294.878906 175.144531c-13.042968 0-18.984375-3.59375-26.503906-8.148437-8.617188-5.214844-18.378906-11.125-37.175781-11.125-18.792969 0-28.558594 5.910156-37.171875 11.125-7.519532 4.554687-13.457032 8.148437-26.5 8.148437-6.15625 0-10.816406-.84375-14.25-2-1.359375 6.019531-2.054688 12.1875-2.054688 18.617188 0 46.726562 37.878906 84.605469 84.605469 84.605469s84.609375-37.878907 84.609375-84.605469c0-6.652344-.792969-13.117188-2.242188-19.324219-5.011718 1.238281-12.382812 2.707031-23.316406 2.707031zm0 0" fill="#f9ee80"/><path d="m194.027344 166.996094c-7.519532 4.554687-13.457032 8.148437-26.5 8.148437-6.164063 0-10.816406-.839843-14.25-2-1.359375 6.019531-2.058594 12.1875-2.058594 18.617188 0 46.726562 37.878906 84.605469 84.609375 84.605469 11.578125-46.457032 1.007813-87.722657-14.988281-119.824219-12.328125 1.691406-19.941406 6.296875-26.8125 10.453125zm0 0" fill="#eedb00"/><path d="m235.828125 107.152344c-43.90625 0-80 33.457031-84.199219 76.257812 4.351563 1.253906 9.476563 2.035156 15.898438 2.035156 31.835937 0 31.835937-19.273437 63.671875-19.273437 31.839843 0 31.839843 19.273437 63.679687 19.273437 9.675782 0 17.964844-1.210937 25.03125-3.171874-4.71875-42.261719-40.5625-75.121094-84.082031-75.121094zm0 0" fill="#dd6642"/><path d="m195.9375 117.128906c-24.289062 13.011719-41.492188 37.542969-44.308594 66.28125 4.351563 1.253906 9.472656 2.035156 15.898438 2.035156 29.785156 0 31.714844-16.871093 57.914062-19.042968-8.535156-19.613282-19.460937-36.300782-29.503906-49.273438zm0 0" fill="#b24e2f"/><path d="m167.527344 175.144531c-13.042969 0-18.980469-3.59375-26.5-8.148437-8.617188-5.214844-18.378906-11.125-37.171875-11.125s-28.558594 5.910156-37.171875 11.125c-7.519532 4.554687-13.457032 8.148437-26.5 8.148437-11.757813 0-18.738282-1.367187-23.34375-2.527343-1.425782 6.15625-2.203125 12.554687-2.203125 19.144531 0 46.726562 37.878906 84.605469 84.609375 84.605469 46.726562 0 84.605468-37.878907 84.605468-84.605469 0-6.09375-.65625-12.027344-1.878906-17.753907-4.085937.597657-9.152344 1.136719-14.445312 1.136719zm0 0" fill="#ffb3c2"/><path d="m99.246094 107.152344c-43.375 0-79.128906 32.640625-84.035156 74.703125 7.125 2.199219 15.40625 3.589843 24.972656 3.589843 31.835937 0 31.835937-19.273437 63.671875-19.273437 31.835937 0 31.835937 19.273437 63.671875 19.273437 6.433594 0 11.5625-.785156 15.917968-2.039062-4.199218-42.800781-40.296874-76.253906-84.199218-76.253906zm0 0" fill="#e7896e"/><path d="m232.9375 392.136719h-130.804688s15.914063 53.574219-12.726562 81.414062h156.261719c-28.640625-27.839843-12.730469-81.414062-12.730469-81.414062zm0 0" fill="#59c2e8"/><path d="m44.167969 223.507812h246.734375c21.191406 0 39.289062 15.519532 42.261718 36.5 7.816407 55.179688-1.320312 153.46875-165.628906 153.46875-164.304687 0-173.441406-98.289062-165.625-153.46875 2.972656-20.980468 21.070313-36.5 42.257813-36.5zm0 0" fill="#c2eafb"/><path d="m110.035156 223.507812h-65.867187c-21.1875 0-39.285157 15.519532-42.257813 36.5-7.816406 55.179688 1.320313 153.46875 165.625 153.46875 6.96875 0 13.644532-.179687 20.0625-.519531-29.902344-37.097656-104.65625-58.269531-116.8125-110.515625-14.160156-60.875 39.25-78.933594 39.25-78.933594zm0 0" fill="#91d4f2"/><path d="m258.179688 512h-181.285157c-16.695312 0-30.230469-13.535156-30.230469-30.230469 0-16.695312 13.53125-30.234375 30.230469-30.234375h181.285157c16.695312 0 30.230468 13.539063 30.230468 30.234375 0 16.695313-13.535156 30.230469-30.230468 30.230469zm0 0" fill="#c2eafb"/><path d="m110.335938 481.769531c0-16.695312 13.535156-30.234375 30.230468-30.234375h-63.671875c-16.695312 0-30.230469 13.535156-30.230469 30.234375 0 16.695313 13.535157 30.230469 30.230469 30.230469h63.671875c-16.695312 0-30.230468-13.535156-30.230468-30.230469zm0 0" fill="#91d4f2"/><path d="m110.035156 325.601562c0-9.351562-9.519531-16.933593-21.265625-16.933593-11.742187 0-21.261719 7.582031-21.261719 16.933593 0 9.351563 9.519532 16.933594 21.261719 16.933594 11.746094 0 21.265625-7.582031 21.265625-16.933594zm0 0" fill="#ffb3c2"/><path d="m267.566406 325.601562c0-9.351562-9.519531-16.933593-21.265625-16.933593-11.742187 0-21.261719 7.582031-21.261719 16.933593 0 9.351563 9.519532 16.933594 21.261719 16.933594 11.746094 0 21.265625-7.582031 21.265625-16.933594zm0 0" fill="#ffb3c2"/><g fill="#454545"><path d="m172.8125 307.300781c-1.730469 2.542969-4.25 2.847657-5.277344 2.847657-1.023437 0-3.585937-.277344-5.277344-2.847657-2.34375-3.566406-7.132812-4.558593-10.699218-2.214843s-4.558594 7.132812-2.214844 10.699218c4.039062 6.148438 10.839844 9.816406 18.191406 9.816406 7.355469 0 14.15625-3.667968 18.195313-9.816406 2.34375-3.566406 1.351562-8.355468-2.214844-10.699218-1.308594-.859376-7.089844-3.082032-10.703125 2.214843zm0 0"/><path d="m106.324219 310.921875c-.960938-.804687-1.921875-1.019531-2.460938-1.019531-.535156 0-1.570312.132812-2.457031 1.019531-3.019531 3.015625-7.910156 3.015625-10.925781 0-3.019531-3.019531-3.019531-7.910156-.003907-10.929687 3.578126-3.574219 8.332032-5.542969 13.386719-5.542969 5.058594 0 9.8125 1.96875 13.386719 5.542969 3.019531 3.019531 3.019531 7.910156 0 10.929687-1.507812 1.507813-6.046875 4.082031-10.925781 0zm0 0"/><path d="m233.667969 310.921875c-.960938-.804687-1.921875-1.019531-2.460938-1.019531-.535156 0-1.570312.132812-2.457031 1.019531-3.019531 3.015625-7.910156 3.015625-10.925781 0-3.019531-3.019531-3.019531-7.910156-.003907-10.929687 3.578126-3.574219 8.332032-5.542969 13.386719-5.542969 5.058594 0 9.8125 1.96875 13.386719 5.542969 3.019531 3.019531 3.019531 7.910156 0 10.929687-1.507812 1.507813-6.046875 4.082031-10.925781 0zm0 0"/></g></svg>