<svg height="512pt" viewBox="0 -5 512 512" width="512pt" xmlns="http://www.w3.org/2000/svg"><path d="m266.808594 25.125c-12.738282-6.746094-26.835938-7.5625-39.34375-3.582031-10.296875 3.273437-21.5625.347656-29.410156-7.082031-10.199219-9.65625-24.246094-15.289063-39.605469-14.3632818-26.253907 1.5898438-47.628907 22.7499998-49.460938 48.9882818-2.152343 30.917968 22.289063 56.671874 52.746094 56.671874 13.5625 0 49.046875 5.835938 60.558594 10.921876 26.847656 11.855468 58.421875-1.335938 68.542969-29.441407 8.507812-23.632812-1.832032-50.359375-24.027344-62.113281zm0 0" fill="#f6ca56"/><path d="m171.34375 60.570312c-10.886719-.476562-21.117188 2.183594-29.867188 7.148438-7.738281 4.386719-17.300781 4.4375-25.042968.0625-8.902344-5.035156-19.308594-7.71875-30.378906-7.203125-28.320313 1.320313-51.574219 23.996094-53.542969 52.277344-2.296875 32.960937 23.765625 60.414062 56.234375 60.414062 16.140625 0 64.832031-1.554687 80.09375-1.554687 32.019531 0 57.71875-27.066406 55.464844-59.566406-1.941407-27.953126-24.964844-50.347657-52.960938-51.578126zm0 0" fill="#fad989"/><path d="m329.78125 42.828125c-23.503906-.96875-44.5625 9.703125-57.890625 26.71875-6.230469 7.953125-15.605469 12.957031-25.703125 12.761719-16.113281-.316406-32.085938 7.152344-42.007812 21.355468-15.804688 22.632813-10.269532 53.796876 12.363281 69.601563 20.828125 14.546875 93.246093 8.988281 110.285156 8.988281 39.445313 0 71.242187-32.75 69.6875-72.542968-1.410156-36.039063-30.699219-65.394532-66.734375-66.882813zm0 0" fill="#ffeab7"/><path d="m459.582031 416.117188c0-19.441407 15.019531-35.941407 35.847657-41.761719 9.714843-2.714844 16.570312-11.363281 16.570312-21.449219v-.359375c0-12.238281-9.921875-22.160156-22.164062-22.160156h-247.050782v171.464843h247.050782c12.242187 0 22.164062-9.921874 22.164062-22.160156v-.359375c0-10.085937-6.855469-18.734375-16.570312-21.449219-20.828126-5.824218-35.847657-22.320312-35.847657-41.765624zm0 0" fill="#f9ee80"/><path d="m398.304688 465.761719c1.601562-11.75-2.226563-82.164063 0-99.285157 1.816406-14.007812 4.488281-26.238281 7.128906-36.089843h-162.648438v171.464843h146.234375c3.628907-8.984374 7.21875-20.941406 9.285157-36.089843zm0 0" fill="#f4e74d"/><path d="m398.304688 465.761719h-104.503907v-99.285157h104.503907c14.621093 0 26.472656 11.851563 26.472656 26.472657v46.339843c0 14.621094-11.851563 26.472657-26.472656 26.472657zm0 0" fill="#ffbe73"/><path d="m398.304688 366.476562h-104.503907v99.285157h104.503907c1.601562-11.75-2.222657-82.164063 0-99.285157zm0 0" fill="#ffa93f"/><path d="m32.371094 174.066406 36.574218 273.023438c4.203126 31.351562 30.953126 54.761718 62.589844 54.761718h166.910156c31.632813 0 58.386719-23.410156 62.585938-54.761718l36.578125-273.023438zm0 0" fill="#ff8a98"/><path d="m190.742188 248.773438c106.113281-8.636719 156.246093-39.902344 156.246093-39.902344v-34.808594h-314.617187l36.574218 273.023438c4.199219 31.355468 30.953126 54.765624 62.589844 54.765624h46.355469c-25.960937-16.753906-28.855469-44.007812-28.855469-44.007812s-8.339844-80.933594-14.417968-141.566406c-3.429688-34.226563 21.839843-64.714844 56.125-67.503906zm0 0" fill="#fd5c6f"/><path d="m395.171875 208.871094h-360.363281c-19.226563 0-34.808594-15.582032-34.808594-34.804688s15.582031-34.808594 34.808594-34.808594h360.363281c19.222656 0 34.808594 15.585938 34.808594 34.808594-.003907 19.222656-15.585938 34.804688-34.808594 34.804688zm0 0" fill="#c2eafb"/><path d="m75.363281 174.066406c0-19.222656 15.585938-34.808594 34.808594-34.808594h-75.363281c-19.226563 0-34.808594 15.585938-34.808594 34.808594s15.582031 34.804688 34.808594 34.804688h75.363281c-19.222656 0-34.808594-15.582032-34.808594-34.804688zm0 0" fill="#91d4f2"/><path d="m214.988281 350.34375c-15.988281 0-28.949219-12.960938-28.949219-28.945312v-21.046876c0-4.367187 3.539063-7.902343 7.902344-7.902343h42.09375c4.363282 0 7.902344 3.535156 7.902344 7.902343v21.046876c0 15.984374-12.960938 28.945312-28.949219 28.945312zm0 0" fill="#454545"/><path d="m149.035156 321.394531c0-13.578125-13.824218-24.589843-30.878906-24.589843s-30.878906 11.011718-30.878906 24.589843c0 13.582031 13.824218 24.589844 30.878906 24.589844s30.878906-11.007813 30.878906-24.589844zm0 0" fill="#ffdee4"/><path d="m342.699219 321.394531c0-13.578125-13.824219-24.589843-30.878907-24.589843-17.050781 0-30.875 11.011718-30.875 24.589843 0 13.582031 13.824219 24.589844 30.875 24.589844 17.054688 0 30.878907-11.007813 30.878907-24.589844zm0 0" fill="#ffdee4"/><g fill="#454545"><path d="m298.078125 307.898438c-4.265625 0-7.726563-3.460938-7.726563-7.726563v-12.828125c0-4.265625 3.460938-7.726562 7.726563-7.726562 4.269531 0 7.726563 3.460937 7.726563 7.726562v12.828125c0 4.265625-3.457032 7.726563-7.726563 7.726563zm0 0"/><path d="m131.898438 307.898438c-4.269532 0-7.726563-3.460938-7.726563-7.726563v-12.828125c0-4.265625 3.460937-7.726562 7.726563-7.726562 4.269531 0 7.726562 3.460937 7.726562 7.726562v12.828125c0 4.265625-3.460938 7.726563-7.726562 7.726563zm0 0"/></g></svg>