<svg height="511pt" viewBox="-70 0 511 511.99905" width="511pt" xmlns="http://www.w3.org/2000/svg"><path d="m84.5 253.019531v247.8125c0 8.085938 8.328125 13.480469 15.707031 10.179688l81.078125-36.277344c2.898438-1.296875 6.210938-1.296875 9.109375 0l81.078125 36.277344c7.378906 3.304687 15.707032-2.09375 15.707032-10.179688v-247.8125zm0 0" fill="#fb7073"/><path d="m287.179688 253.019531h-202.679688v110.628907c.148438.003906.300781.011718.453125.011718.519531 0 1.042969-.011718 1.570313-.03125l8.648437-.34375 4.808594 7.199219c7.339843 10.992187 19.609375 17.554687 32.824219 17.554687 4.679687 0 9.28125-.824218 13.671874-2.445312l8.121094-3 6.796875 5.363281c6.933594 5.46875 15.613281 8.480469 24.445313 8.480469 8.832031 0 17.511718-3.011719 24.445312-8.480469l6.796875-5.363281 8.121094 3c4.394531 1.621094 8.992187 2.445312 13.671875 2.445312 13.214844 0 25.488281-6.5625 32.824219-17.554687l4.808593-7.199219 8.648438.34375c.523438.019532 1.046875.03125 1.566406.03125h.003906c.152344 0 .300782-.007812.453126-.011718zm0 0" fill="#e16567"/><path d="m119 287.519531v171.34375c0 2.789063 2.878906 4.65625 5.425781 3.515625l42.769531-19.136718c6.363282-2.847657 13.160157-4.183594 20.167969-3.957032 6.164063.199219 12.207031 1.757813 17.839844 4.277344l42.050781 18.816406c2.546875 1.140625 5.421875-.722656 5.421875-3.515625v-171.34375zm0 0" fill="#efedee"/><path d="m119 385.542969c4.355469 1.621093 9.015625 2.496093 13.804688 2.496093 4.679687 0 9.28125-.824218 13.671874-2.445312l8.121094-3 6.796875 5.363281c6.933594 5.46875 15.613281 8.480469 24.445313 8.480469 8.832031 0 17.511718-3.011719 24.445312-8.480469l6.796875-5.363281 8.121094 3c4.394531 1.621094 8.992187 2.445312 13.671875 2.445312 4.789062 0 9.449219-.875 13.804688-2.496093v-98.019531h-133.679688zm0 0" fill="#d9d7d8"/><path d="m368.234375 176.847656-14.304687-18.128906 8.003906-21.664062c2.195312-5.949219.023437-12.632813-5.25-16.152344l-19.207032-12.824219.914063-23.074219c.253906-6.339844-3.875-12.023437-9.980469-13.742187l-22.230468-6.257813-6.257813-22.230468c-1.722656-6.105469-7.40625-10.234376-13.742187-9.984376l-23.078126.917969-12.820312-19.207031c-3.523438-5.277344-10.203125-7.449219-16.15625-5.25l-21.660156 8-18.132813-14.304688c-4.980469-3.925781-12.003906-3.925781-16.984375 0l-18.128906 14.304688-21.664062-8c-5.949219-2.199219-12.632813-.027344-16.15625 5.25l-12.820313 19.203125-23.074219-.914063c-6.339844-.25-12.023437 3.878907-13.742187 9.984376l-6.261719 22.226562-22.226562 6.261719c-6.105469 1.71875-10.238282 7.402343-9.984376 13.742187l.914063 23.074219-19.207031 12.824219c-5.273438 3.519531-7.445313 10.203125-5.246094 16.152344l8 21.664062-14.304688 18.128906c-3.929687 4.980469-3.929687 12.003906 0 16.984375l14.304688 18.132813-8 21.660156c-2.199219 5.953125-.027344 12.632812 5.246094 16.15625l19.207031 12.820312-.914063 23.078126c-.25 6.335937 3.878907 12.019531 9.984376 13.738281l22.226562 6.261719 6.261719 22.226562c1.71875 6.109375 7.402343 10.238281 13.742187 9.984375l23.074219-.914063 12.820313 19.207032c3.523437 5.273437 10.207031 7.445312 16.15625 5.246094l21.664062-8 18.128906 14.304687c4.980469 3.929687 12.003906 3.929687 16.984375 0l18.128907-14.304687 21.664062 8c5.949219 2.199218 12.632812.027343 16.15625-5.246094l12.820312-19.207032 23.074219.914063c6.339844.253906 12.023438-3.875 13.742188-9.984375l6.261719-22.226562 22.226562-6.261719c6.105469-1.71875 10.238281-7.402344 9.984375-13.738281l-.914063-23.078126 19.207032-12.820312c5.273437-3.523438 7.445312-10.203125 5.246094-16.15625l-8-21.660156 14.304687-18.132813c3.929687-4.980469 3.929687-12.003906 0-16.984375zm0 0" fill="#e5ca61"/><path d="m324.691406 185.339844c0 76.6875-62.164062 138.851562-138.851562 138.851562s-138.851563-62.164062-138.851563-138.851562c0-76.683594 62.164063-138.851563 138.851563-138.851563s138.851562 62.167969 138.851562 138.851563zm0 0" fill="#f9db69"/><g fill="#464c51"><path d="m112.484375 196.164062c-4.269531 0-7.726563-3.460937-7.726563-7.726562v-13.277344c0-4.265625 3.457032-7.726562 7.726563-7.726562 4.265625 0 7.726563 3.460937 7.726563 7.726562v13.277344c0 4.265625-3.460938 7.726562-7.726563 7.726562zm0 0"/><path d="m259.195312 196.164062c-4.265624 0-7.726562-3.460937-7.726562-7.726562v-13.277344c0-4.265625 3.460938-7.726562 7.726562-7.726562 4.269532 0 7.726563 3.460937 7.726563 7.726562v13.277344c0 4.265625-3.457031 7.726562-7.726563 7.726562zm0 0"/><path d="m185.839844 203.25c-9.285156 0-18.003906-3.882812-23.921875-10.652344-2.808594-3.210937-2.480469-8.09375.730469-10.902344 3.214843-2.808593 8.09375-2.480468 10.902343.730469 2.984375 3.414063 7.460938 5.371094 12.289063 5.371094s9.304687-1.957031 12.289062-5.371094c2.808594-3.210937 7.6875-3.539062 10.902344-.730469 3.210938 2.808594 3.539062 7.6875.730469 10.902344-5.917969 6.769532-14.636719 10.652344-23.921875 10.652344zm0 0"/></g></svg>