<svg id="Capa_1" enable-background="new 0 0 497 497" height="512" viewBox="0 0 497 497" width="512" xmlns="http://www.w3.org/2000/svg"><path d="m165.918 244.315h165.163v227.577c0 21.105-24.492 32.758-40.868 19.446l-25.906-21.059c-9.209-7.486-22.406-7.486-31.615 0l-25.906 21.059c-16.376 13.312-40.868 1.659-40.868-19.446z" fill="#2bcf69"/><path d="m165.918 354.671v-110.356h165.163v109.875c-59.869-23.181-107.817-23.793-165.163.481z" fill="#00c272"/><path d="m277.189 15.106 33.148 48.295c4.52 6.585 11.168 11.415 18.827 13.679l56.175 16.601c23.427 6.923 32.614 35.199 17.731 54.57l-35.689 46.449c-4.866 6.334-7.406 14.149-7.191 22.133l1.57 58.555c.655 24.42-23.398 41.895-46.42 33.726l-55.204-19.588c-7.527-2.671-15.745-2.671-23.272 0l-55.204 19.588c-23.022 8.169-47.075-9.306-46.42-33.726l1.57-58.555c.214-7.984-2.325-15.799-7.191-22.133l-35.689-46.449c-14.883-19.371-5.696-47.647 17.731-54.57l56.175-16.601c7.66-2.264 14.308-7.094 18.827-13.679l33.148-48.295c13.824-20.141 43.554-20.141 57.378 0z" fill="#fffddb"/><path d="m219.811 15.106-33.148 48.295c-4.52 6.585-11.168 11.415-18.827 13.679l-56.175 16.601c-23.427 6.923-32.614 35.199-17.731 54.57l35.689 46.449c4.866 6.334 7.406 14.149 7.191 22.133l-1.57 58.555c-.655 24.42 23.398 41.895 46.42 33.726l55.204-19.588c7.527-2.671 15.745-2.671 23.272 0l55.204 19.588c23.022 8.169 47.075-9.306 46.42-33.726l-1.125-41.938c-119.186-10.313-141.432-90.612-140.824-218.344z" fill="#fff3ac"/><ellipse cx="165.384" cy="171.189" fill="#ffa0ab" rx="18.376" ry="14.342"/><ellipse cx="331.082" cy="171.189" fill="#ffa0ab" rx="18.376" ry="14.342"/><g fill="#333942"><path d="m273.749 170.723c-.008-15.6-11.31-17.061-25.251-17.054s-25.242 1.479-25.234 17.079 11.316 28.241 25.257 28.234 25.236-12.659 25.228-28.259z"/><path d="m170.502 165.224c-4.141 0-7.498-3.355-7.5-7.496-.003-5.278 2.05-10.24 5.779-13.974 3.73-3.733 8.69-5.791 13.968-5.793h.011c10.889 0 19.751 8.856 19.757 19.747.002 4.142-3.354 7.502-7.496 7.504-.001 0-.003 0-.004 0-4.141 0-7.498-3.355-7.5-7.496-.002-2.623-2.136-4.755-4.758-4.755-.001 0-.001 0-.002 0-1.271 0-2.466.496-3.363 1.395-.898.899-1.393 2.093-1.392 3.364.002 4.142-3.354 7.502-7.496 7.504-.001 0-.003 0-.004 0z"/><path d="m301.983 165.169c-4.141 0-7.498-3.355-7.5-7.497-.005-10.894 8.854-19.762 19.747-19.767h.011c5.273 0 10.231 2.052 13.963 5.779 3.734 3.73 5.792 8.691 5.794 13.968.002 4.142-3.354 7.501-7.497 7.503-.001 0-.002 0-.003 0-4.141 0-7.498-3.355-7.5-7.497-.001-1.271-.496-2.465-1.395-3.363-.898-.897-2.093-1.392-3.363-1.392 0 0-.001 0-.002 0-2.623.001-4.756 2.137-4.755 4.76.002 4.142-3.354 7.501-7.497 7.503-.001.003-.002.003-.003.003z"/></g></svg>