<svg height="511pt" viewBox="-16 0 511 511.99974" width="511pt" xmlns="http://www.w3.org/2000/svg"><path d="m394.332031 512h-302.328125c-15.511718 0-28.089844-12.574219-28.089844-28.085938v-37.683593h358.503907v37.683593c0 15.511719-12.574219 28.085938-28.085938 28.085938zm0 0" fill="#516980"/><path d="m150.640625 483.914062v-37.683593h-86.722656v37.683593c0 15.511719 12.574219 28.085938 28.085937 28.085938h86.722656c-15.511718 0-28.085937-12.574219-28.085937-28.085938zm0 0" fill="#3e4f61"/><path d="m253.074219 138.519531-27.617188-19.777343 79.949219-111.644532c5.460938-7.628906 16.070312-9.382812 23.695312-3.921875 7.628907 5.460938 9.382813 16.070313 3.921876 23.695313zm0 0" fill="#516980"/><path d="m226.738281 138.519531 27.617188-19.777343-79.953125-111.644532c-5.460938-7.628906-16.070313-9.382812-23.695313-3.921875-7.625 5.460938-9.378906 16.070313-3.917969 23.695313zm0 0" fill="#516980"/><path d="m335.546875 152.097656h-191.28125v-17.867187c0-27.941407 22.648437-50.59375 50.589844-50.59375h90.101562c27.9375 0 50.589844 22.652343 50.589844 50.59375zm0 0" fill="#ff8a98"/><path d="m245.585938 83.636719h-50.730469c-27.941407 0-50.589844 22.652343-50.589844 50.589843v17.867188h50.730469v-17.867188c0-27.9375 22.648437-50.589843 50.589844-50.589843zm0 0" fill="#fd5c6f"/><path d="m434.375 462.527344h-388.941406c-24.816406 0-44.933594-20.117188-44.933594-44.933594v-245.460938c0-24.816406 20.117188-44.933593 44.933594-44.933593h388.941406c24.816406 0 44.933594 20.117187 44.933594 44.933593v245.460938c0 24.816406-20.117188 44.933594-44.933594 44.933594zm0 0" fill="#889cb0"/><path d="m105.707031 417.59375v-245.460938c0-24.816406 20.117188-44.933593 44.933594-44.933593h-105.207031c-24.816406 0-44.933594 20.117187-44.933594 44.933593v245.460938c0 24.816406 20.117188 44.933594 44.933594 44.933594h105.207031c-24.816406 0-44.933594-20.117188-44.933594-44.933594zm0 0" fill="#6a829a"/><path d="m434.375 127.199219h-82.527344v335.328125h82.527344c24.816406 0 44.933594-20.117188 44.933594-44.933594v-245.460938c0-24.816406-20.117188-44.933593-44.933594-44.933593zm0 0" fill="#a7b6c5"/><path d="m279.117188 410.792969h-198.976563c-18.179687 0-32.917969-14.734375-32.917969-32.914063v-168.867187c0-18.179688 14.738282-32.917969 32.917969-32.917969h198.976563c18.179687 0 32.914062 14.738281 32.914062 32.917969v168.867187c0 18.179688-14.734375 32.914063-32.914062 32.914063zm0 0" fill="#c2eafb"/><path d="m80.140625 176.09375c-18.179687 0-32.917969 14.738281-32.917969 32.914062v168.871094c0 18.179688 14.738282 32.914063 32.917969 32.914063h25.566406v-234.699219zm0 0" fill="#91d4f2"/><path d="m453.429688 226.011719c0 20.902343-16.945313 37.847656-37.851563 37.847656-20.902344 0-37.847656-16.945313-37.847656-37.847656 0-20.90625 16.945312-37.851563 37.847656-37.851563 20.90625 0 37.851563 16.945313 37.851563 37.851563zm0 0" fill="#f4e74d"/><path d="m381.636719 259.957031c-6.40625-6.402343-6.40625-16.785156 0-23.1875l44.703125-44.703125c6.402344-6.402344 16.78125-6.402344 23.183594 0 6.402343 6.402344 6.402343 16.78125 0 23.1875l-44.703126 44.703125c-6.402343 6.402344-16.78125 6.402344-23.183593 0zm0 0" fill="#fcf5af"/><g fill="#6a829a"><path d="m440.730469 373.582031h-50.304688c-4.664062 0-8.449219-3.78125-8.449219-8.449219 0-4.664062 3.785157-8.449218 8.449219-8.449218h50.304688c4.667969 0 8.449219 3.785156 8.449219 8.449218 0 4.667969-3.78125 8.449219-8.449219 8.449219zm0 0"/><path d="m440.730469 402.046875h-50.304688c-4.664062 0-8.449219-3.785156-8.449219-8.449219 0-4.667968 3.785157-8.449218 8.449219-8.449218h50.304688c4.667969 0 8.449219 3.78125 8.449219 8.449218 0 4.664063-3.78125 8.449219-8.449219 8.449219zm0 0"/><path d="m440.730469 430.507812h-50.304688c-4.664062 0-8.449219-3.78125-8.449219-8.449218 0-4.664063 3.785157-8.449219 8.449219-8.449219h50.304688c4.667969 0 8.449219 3.785156 8.449219 8.449219 0 4.667968-3.78125 8.449218-8.449219 8.449218zm0 0"/></g><path d="m434.484375 307.1875c0 10.441406-8.464844 18.90625-18.90625 18.90625s-18.902344-8.464844-18.902344-18.90625 8.460938-18.90625 18.902344-18.90625 18.90625 8.464844 18.90625 18.90625zm0 0" fill="#f4e74d"/><path d="m122.125 308.898438c0-9.351563-9.519531-16.933594-21.261719-16.933594-11.746093 0-21.265625 7.582031-21.265625 16.933594 0 9.351562 9.519532 16.933593 21.265625 16.933593 11.742188 0 21.261719-7.582031 21.261719-16.933593zm0 0" fill="#ffb3c2"/><path d="m279.65625 308.898438c0-9.351563-9.519531-16.933594-21.261719-16.933594-11.746093 0-21.265625 7.582031-21.265625 16.933594 0 9.351562 9.519532 16.933593 21.265625 16.933593 11.742188 0 21.261719-7.582031 21.261719-16.933593zm0 0" fill="#ffb3c2"/><path d="m184.90625 290.597656c-1.734375 2.542969-4.253906 2.847656-5.28125 2.847656-1.023438 0-3.585938-.277343-5.277344-2.847656-2.34375-3.566406-7.132812-4.558594-10.699218-2.214844-3.566407 2.339844-4.558594 7.132813-2.214844 10.699219 4.039062 6.144531 10.839844 9.816407 18.191406 9.816407 7.355469 0 14.15625-3.671876 18.195312-9.816407 2.34375-3.566406 1.351563-8.359375-2.214843-10.699219-1.308594-.859374-7.089844-3.085937-10.699219 2.214844zm0 0" fill="#454545"/><path d="m118.414062 294.214844c-.960937-.804688-1.921874-1.019532-2.457031-1.019532-.539062 0-1.574219.132813-2.460937 1.019532-3.019532 3.019531-7.910156 3.019531-10.925782 0-3.019531-3.015625-3.019531-7.910156 0-10.925782 3.574219-3.578124 8.328126-5.546874 13.386719-5.546874 5.054688 0 9.808594 1.972656 13.382813 5.546874 3.019531 3.015626 3.019531 7.910157 0 10.925782-1.507813 1.507812-6.046875 4.082031-10.925782 0zm0 0" fill="#454545"/><path d="m245.757812 294.214844c-.960937-.804688-1.917968-1.019532-2.457031-1.019532-.539062 0-1.574219.132813-2.460937 1.019532-3.019532 3.019531-7.910156 3.019531-10.925782 0-3.019531-3.015625-3.019531-7.910156 0-10.925782 3.574219-3.578124 8.328126-5.546874 13.386719-5.546874 5.054688 0 9.808594 1.972656 13.382813 5.546874 3.019531 3.015626 3.019531 7.910157 0 10.925782-1.507813 1.507812-6.046875 4.082031-10.925782 0zm0 0" fill="#454545"/></svg>