<svg height="511pt" viewBox="0 -54 511.99967 511" width="511pt" xmlns="http://www.w3.org/2000/svg"><path d="m256 153.085938c-10.425781 0-18.875-8.449219-18.875-18.871094v-63.335938c0-38.808594 31.574219-70.378906 70.382812-70.378906h34.351563c10.425781 0 18.875 8.449219 18.875 18.871094 0 10.425781-8.449219 18.875-18.875 18.875h-34.351563c-17.996093 0-32.636718 14.640625-32.636718 32.632812v63.335938c0 10.421875-8.449219 18.871094-18.871094 18.871094zm0 0" fill="#6a829a"/><path d="m237.125 70.878906v63.335938c0 10.421875 8.453125 18.871094 18.875 18.871094s18.871094-8.449219 18.871094-18.871094v-50.683594c-25.953125-3.628906-37.746094-12.652344-37.746094-12.652344zm0 0" fill="#516980"/><path d="m311.4375 174.910156h-110.875v-26.925781c0-18.453125 14.960938-33.414063 33.414062-33.414063h44.046876c18.453124 0 33.414062 14.960938 33.414062 33.414063zm0 0" fill="#889cb0"/><path d="m384 148.082031h-254.609375c-70.746094 0-129.144531 56.804688-129.390625 127.546875-.246094 70.898438 57.15625 128.453125 128 128.453125 39.796875 0 75.34375-18.164062 98.820312-46.652343 7.167969-8.699219 17.902344-13.671876 29.175782-13.671876 11.214844 0 21.953125 4.871094 29.074218 13.535157 23.753907 28.910156 59.933594 47.226562 100.375 46.78125 70.277344-.777344 127.230469-58.984375 126.546876-129.261719-.679688-70.109375-57.722657-126.730469-127.992188-126.730469zm0 0" fill="#a7b6c5"/><path d="m158.640625 148.082031h-29.25c-70.746094 0-129.144531 56.804688-129.390625 127.546875-.246094 70.898438 57.15625 128.453125 128 128.453125 34.0625 0 65.011719-13.308593 87.941406-35.003906-37.925781-22.371094-92.148437-25.507813-110.027344-96.386719-25.457031-100.910156 52.726563-124.609375 52.726563-124.609375zm0 0" fill="#889cb0"/><path d="m160.136719 258.152344h-23.707031v-23.703125c0-10.871094-8.8125-19.683594-19.679688-19.683594-10.871094 0-19.683594 8.8125-19.683594 19.683594v23.703125h-23.703125c-10.871093 0-19.683593 8.8125-19.683593 19.683594 0 10.867187 8.8125 19.679687 19.683593 19.679687h23.703125v23.707031c0 10.867188 8.8125 19.679688 19.683594 19.679688 10.867188 0 19.679688-8.808594 19.679688-19.679688v-23.707031h23.707031c10.867187 0 19.679687-8.8125 19.679687-19.679687 0-10.871094-8.8125-19.683594-19.679687-19.683594zm0 0" fill="#516980"/><path d="m418.125 231.429688c0 12.472656-10.109375 22.585937-22.582031 22.585937-12.472657 0-22.582031-10.113281-22.582031-22.585937 0-12.46875 10.109374-22.582032 22.582031-22.582032 12.472656 0 22.582031 10.113282 22.582031 22.582032zm0 0" fill="#ffbfc7"/><path d="m418.125 324.238281c0 12.472657-10.109375 22.582031-22.582031 22.582031-12.472657 0-22.582031-10.109374-22.582031-22.582031 0-12.472656 10.109374-22.582031 22.582031-22.582031 12.472656 0 22.582031 10.109375 22.582031 22.582031zm0 0" fill="#b9ecc2"/><path d="m464.527344 277.835938c0 12.472656-10.109375 22.582031-22.582032 22.582031-12.472656 0-22.582031-10.109375-22.582031-22.582031 0-12.472657 10.109375-22.582032 22.582031-22.582032 12.472657 0 22.582032 10.109375 22.582032 22.582032zm0 0" fill="#fcf5af"/><path d="m371.722656 277.835938c0 12.472656-10.113281 22.582031-22.585937 22.582031-12.46875 0-22.582031-10.109375-22.582031-22.582031 0-12.472657 10.113281-22.582032 22.582031-22.582032 12.472656 0 22.585937 10.109375 22.585937 22.582032zm0 0" fill="#c2eafb"/><g fill="#6a829a"><path d="m271.921875 234.597656h-31.84375c-8.535156 0-15.453125-6.917968-15.453125-15.449218 0-8.535157 6.917969-15.453126 15.453125-15.453126h31.84375c8.53125 0 15.449219 6.917969 15.449219 15.453126 0 8.53125-6.914063 15.449218-15.449219 15.449218zm0 0"/><path d="m271.921875 288.144531h-31.84375c-8.535156 0-15.453125-6.921875-15.453125-15.453125 0-8.535156 6.917969-15.453125 15.453125-15.453125h31.84375c8.53125 0 15.449219 6.917969 15.449219 15.453125s-6.914063 15.453125-15.449219 15.453125zm0 0"/></g></svg>