<svg height="512pt" viewBox="-77 0 512 512" width="512pt" xmlns="http://www.w3.org/2000/svg"><path d="m134.53125 39.992188h-77.125v-20.074219c0-11 8.917969-19.917969 19.921875-19.917969h37.285156c11 0 19.921875 8.917969 19.921875 19.917969v20.074219zm0 0" fill="#e7896e"/><path d="m134.53125 134.089844v-104.429688h-77.125v104.429688c0 24.746094-9.800781 48.480468-27.261719 66.011718 0 0-30.144531 28.421876-30.144531 72.988282v197.136718c0 23.070313 18.703125 41.773438 41.773438 41.773438h108.390624c23.070313 0 41.773438-18.703125 41.773438-41.773438v-197.136718c0-42.519532-30.140625-72.988282-30.140625-72.988282-17.460937-17.53125-27.265625-41.265624-27.265625-66.011718zm0 0" fill="#00c140"/><path d="m57.40625 29.660156v104.429688c0 24.746094-9.800781 48.480468-27.261719 66.011718 0 0-30.144531 28.421876-30.144531 72.988282v197.136718c0 23.070313 18.703125 41.773438 41.773438 41.773438h38.027343c-31.585937-73.984375-36.292969-226.507812-7-273.109375 23.808594-37.878906 23.617188-75.757813 19.90625-98.851563-1.789062-11.140624 4.347657-22.03125 14.710938-26.496093 17.011719-7.328125 27.117187-21.894531 27.117187-21.894531v-61.988282zm0 0" fill="#00a62c"/><path d="m0 288.121094h191.9375v148.953125h-191.9375zm0 0" fill="#f9ee80"/><path d="m57.5 288.121094h-57.5v148.953125h60.003906c-7.90625-50.121094-9.011718-106.808594-2.503906-148.953125zm0 0" fill="#f4e74d"/><path d="m134.625 70.75h-77.3125c-11.34375 0-20.542969-9.199219-20.542969-20.546875 0-11.34375 9.199219-20.542969 20.542969-20.542969h77.3125c11.347656 0 20.546875 9.199219 20.546875 20.542969 0 11.347656-9.199219 20.546875-20.546875 20.546875zm0 0" fill="#73da8c"/><path d="m211.34375 362.152344s35 21.726562 35 51.652344v98.195312h39.0625s0-68.269531 0-98.195312c0-29.925782 35.003906-51.652344 35.003906-51.652344zm0 0" fill="#91d4f2"/><path d="m287.089844 402.355469c6.996094-23.851563 33.316406-40.203125 33.316406-40.203125h-109.0625s35 21.726562 35 51.652344c17.453125-1.488282 31.097656-6.496094 40.746094-11.449219zm0 0" fill="#59c2e8"/><path d="m305.601562 512h-79.453124c-10.40625 0-18.84375-8.4375-18.84375-18.84375 0-10.410156 8.4375-18.847656 18.84375-18.847656h79.453124c10.410157 0 18.847657 8.4375 18.847657 18.847656 0 10.40625-8.4375 18.84375-18.847657 18.84375zm0 0" fill="#c2eafb"/><path d="m210.453125 231.90625c17.214844 0 34.09375 4.828125 50.167969 14.359375 15.316406 9.074219 32.617187 13.675781 51.425781 13.675781 19.582031 0 34.359375-5.277344 44.386719-8.726562-3.511719-23.132813-9.988282-44.617188-15.09375-59.242188-4.023438-11.523437-14.882813-19.246094-27.09375-19.246094h-96.742188c-12.210937 0-23.070312 7.71875-27.09375 19.246094-3.957031 11.339844-8.742187 26.804688-12.328125 43.964844 7.667969-1.667969 20.949219-4.03125 32.371094-4.03125zm0 0" fill="#c2eafb"/><path d="m354.785156 241.539062c-17.144531 6.464844-54.542968 16.230469-88.910156-4.136718-46.417969-27.511719-85.644531-10.738282-85.710938-10.707032-14.347656 59.632813-17.847656 147.355469 85.710938 147.355469 95.238281 0 99.929688-74.203125 88.910156-132.511719zm0 0" fill="#ff8a98"/><g fill="#454545"><path d="m144.808594 375.308594c-4.269532 0-7.726563-3.457032-7.726563-7.722656v-12.828126c0-4.265624 3.457031-7.726562 7.726563-7.726562 4.265625 0 7.726562 3.460938 7.726562 7.726562v12.828126c0 4.265624-3.460937 7.722656-7.726562 7.722656zm0 0"/><path d="m47.132812 375.308594c-4.269531 0-7.726562-3.457032-7.726562-7.722656v-12.828126c0-4.265624 3.457031-7.726562 7.726562-7.726562 4.265626 0 7.726563 3.460938 7.726563 7.726562v12.828126c0 4.265624-3.460937 7.722656-7.726563 7.722656zm0 0"/><path d="m101.246094 359.867188c-1.730469 2.539062-4.253906 2.847656-5.277344 2.847656s-3.589844-.28125-5.277344-2.847656c-2.34375-3.566407-7.132812-4.558594-10.699218-2.21875-3.566407 2.34375-4.558594 7.132812-2.214844 10.699218 4.035156 6.148438 10.835937 9.820313 18.191406 9.820313s14.15625-3.671875 18.195312-9.820313c2.339844-3.566406 1.347657-8.355468-2.21875-10.699218-1.304687-.859376-7.089843-3.082032-10.699218 2.21875zm0 0"/></g></svg>