<svg id="Capa_1" enable-background="new 0 0 497 497" height="512" viewBox="0 0 497 497" width="512" xmlns="http://www.w3.org/2000/svg"><path d="m325.982 425.834 127.52 69.222c12.752 6.922 27.199-5.84 21.904-19.348l-51.426-131.193-84.802-.387z" fill="#f8d071"/><path d="m493.328 217.99c5.793-10.684 3.08-23.985-6.436-31.546l-50.224-39.906c-4.61-3.663-7.782-8.833-8.959-14.602l-12.823-62.853c-2.429-11.908-13.058-20.353-25.207-20.029l-64.125 1.713c-5.886.157-11.639-1.764-16.248-5.427l-50.223-39.904c-9.515-7.561-23.086-7.198-32.184.86l-48.021 42.531c-4.408 3.904-10.05 6.13-15.935 6.287l-64.125 1.713c-12.149.325-22.311 9.325-24.101 21.346l-9.448 63.448c-.867 5.824-3.758 11.155-8.166 15.059l-48.021 42.532c-9.098 8.058-11.097 21.485-4.742 31.844l33.546 54.677c3.079 5.018 4.291 10.961 3.424 16.785l-9.448 63.448c-1.79 12.021 5.309 23.592 16.837 27.442l60.844 20.322c5.585 1.865 10.333 5.638 13.412 10.657l33.546 54.677c6.356 10.359 19.232 14.66 30.537 10.199l59.671-23.542c5.477-2.161 11.54-2.323 17.124-.458l60.844 20.322c11.527 3.85 24.155-1.132 29.949-11.816 0 0 13.802-25.518 23.227-42.943 4.373-8.084 15.169-9.92 21.97-3.739l71.974 65.419c4.156-4.047 6.14-10.338 3.607-16.8l-34.021-86.79 16.317-6.437c11.305-4.46 17.776-16.394 15.347-28.302l-12.823-62.853c-1.177-5.769-.284-11.768 2.523-16.944z" fill="#f8ee80"/><path d="m203.806 408.061c-22.577-33.695-41.594-70.453-56.267-108.262-16.186-41.711-24.144-86.232-26.98-130.772-2.4-37.693-.956-75.3 2.155-112.838l-23.896.638c-12.149.325-22.311 9.325-24.101 21.346l-9.448 63.448c-.867 5.823-3.758 11.155-8.166 15.059l-48.021 42.532c-9.098 8.058-11.097 21.485-4.742 31.844l33.546 54.677c3.079 5.019 4.291 10.961 3.424 16.785l-9.448 63.448c-1.79 12.021 5.309 23.592 16.837 27.442l60.844 20.322c5.585 1.865 10.333 5.638 13.412 10.657l33.546 54.677c6.356 10.359 19.232 14.66 30.537 10.199l59.671-23.542c.803-.317 1.622-.578 2.447-.808-16.904-17.389-31.877-36.744-45.35-56.852z" fill="#f8d071"/><ellipse cx="135.487" cy="210.711" fill="#ffa0ab" rx="29.355" ry="23.377"/><ellipse cx="294.6" cy="210.711" fill="#ffa0ab" rx="29.355" ry="23.377"/><g fill="#333942"><ellipse cx="215.043" cy="195.352" rx="20.332" ry="24.792"/><path d="m166.361 168.092-24.065-6.448c-3.996-1.067-8.113 1.302-9.186 5.304-1.072 4.001 1.302 8.113 5.303 9.186l6.684 1.791v12.858c0 4.142 3.358 7.5 7.5 7.5s7.5-3.358 7.5-7.5v-8.839s3.684.895 4.327.895c3.311 0 6.342-2.21 7.24-5.561 1.073-4.001-1.301-8.114-5.303-9.186z"/><path d="m296.982 166.947c-1.072-4-5.184-6.374-9.186-5.303l-24.064 6.448c-4.001 1.072-6.375 5.185-5.303 9.186.898 3.351 3.928 5.561 7.24 5.561.643 0 4.327-.895 4.327-.895v8.839c0 4.142 3.358 7.5 7.5 7.5s7.5-3.358 7.5-7.5v-12.859l6.684-1.791c4-1.072 6.374-5.185 5.302-9.186z"/></g></svg>