<svg id="Capa_1" enable-background="new 0 0 495.459 495.459" height="512" viewBox="0 0 495.459 495.459" width="512" xmlns="http://www.w3.org/2000/svg"><path d="m474.082 425c7.867 22.713 10.454 46.83-14.423 58.907-21.117 10.252-50.356 11.319-73.271 11.547-47.217.469-101.769-28.195-85.601-83.451 13.128-44.868 58.876-76.594 103.429-83.879 17.866-2.921 32.178-3.853 40.869 13.678 12.679 25.579 19.648 56.204 28.997 83.198z" fill="#5bd6ff"/><path d="m459.332 378.132c-1.823-5.615-1.343-11.75 1.52-16.913 42.07-75.888 40.505-171.408-5.165-245.951-83.606-136.46-280.418-155.331-388.541-37.445-134.286 146.412-40.136 388.154 155.413 407.831 51.058 5.138 101.805-6.268 145.253-30.888 6.986-3.958 15.695-2.404 21.038 3.589 14.981 16.807 40.094 26.333 64.695 28.188 2.103-.804 4.141-1.679 6.114-2.637 24.877-12.077 22.29-36.194 14.423-58.907-5.196-15.001-9.634-31.113-14.75-46.867z" fill="#a4e6ff"/><path d="m163.648 416.597c-25.141-38.19-43.467-81.146-55.846-125.083-6.152-21.836-10.785-44.102-13.93-66.568-3.305-23.609-6.039-47.677-5.416-71.556.997-38.221 9.516-75.19 20.28-111.577-14.875 10.126-28.849 22.119-41.59 36.01-134.17 146.286-40.297 387.734 154.91 407.776-22.047-20.595-41.672-43.579-58.408-69.002z" fill="#5bd6ff"/><ellipse cx="92.638" cy="176.571" fill="#fff" rx="29.355" ry="23.377"/><ellipse cx="251.751" cy="176.571" fill="#fff" rx="29.355" ry="23.377"/><g fill="#333942"><path d="m109.746 134.568c-4.142 0-7.5 3.358-7.5 7.5v12c0 4.142 3.358 7.5 7.5 7.5s7.5-3.358 7.5-7.5v-12c0-4.142-3.358-7.5-7.5-7.5z"/><path d="m234.643 134.568c-4.142 0-7.5 3.358-7.5 7.5v12c0 4.142 3.358 7.5 7.5 7.5s7.5-3.358 7.5-7.5v-12c0-4.142-3.358-7.5-7.5-7.5z"/><path d="m193.587 148.056c-3.123-2.721-7.861-2.396-10.582.727-2.729 3.132-6.669 4.928-10.81 4.928s-8.081-1.796-10.81-4.928c-2.722-3.123-7.459-3.447-10.582-.727-3.123 2.722-3.448 7.459-.727 10.582 5.579 6.401 13.641 10.073 22.119 10.073s16.54-3.671 22.119-10.073c2.72-3.123 2.395-7.86-.727-10.582z"/></g></svg>