<svg height="512pt" viewBox="0 -7 512 512" width="512pt" xmlns="http://www.w3.org/2000/svg"><path d="m327.167969 427.113281c0 39.308594-31.863281 71.167969-71.167969 71.167969s-71.167969-31.859375-71.167969-71.167969c0-39.304687 31.863281-71.167969 71.167969-71.167969s71.167969 31.863282 71.167969 71.167969zm0 0" fill="#ffde55"/><path d="m256 355.945312c-39.304688 0-71.167969 31.867188-71.167969 71.167969 0 27.1875 15.269531 50.785157 37.679688 62.769531 27.589843-30.90625 74.085937-34.894531 98.867187-34.601562 3.726563-8.640625 5.789063-18.160156 5.789063-28.167969 0-39.304687-31.863281-71.167969-71.167969-71.167969zm0 0" fill="#ffcd00"/><path d="m413.304688 198.644531s1.59375-198.644531-157.304688-198.644531-157.304688 198.644531-157.304688 198.644531 1.226563 121.390625-61.3125 196.191407h437.230469c-62.535156-74.800782-61.308593-196.191407-61.308593-196.191407zm0 0" fill="#ffde55"/><path d="m180.679688 394.835938c25.632812-70.886719 33.476562-143.082032 35.621093-188.488282 1.21875-25.738281 8.617188-50.753906 21.234375-73.222656 26.921875-47.929688 7.734375-104.503906-4.628906-131.625-135.644531 18.261719-134.210938 197.144531-134.210938 197.144531s1.226563 121.390625-61.3125 196.191407zm0 0" fill="#ffcd00"/><path d="m470.015625 439.914062h-428.03125c-23.09375 0-41.984375-18.890624-41.984375-41.984374 0-23.089844 18.890625-41.984376 41.984375-41.984376h428.03125c23.09375 0 41.984375 18.894532 41.984375 41.984376 0 23.09375-18.890625 41.984374-41.984375 41.984374zm0 0" fill="#ffeb99"/><path d="m121.957031 397.929688c0-23.089844 18.890625-41.984376 41.984375-41.984376h-121.957031c-23.09375 0-41.984375 18.894532-41.984375 41.984376 0 23.09375 18.890625 41.984374 41.984375 41.984374h121.957031c-23.09375 0-41.984375-18.890624-41.984375-41.984374zm0 0" fill="#ffde55"/><path d="m182.777344 78.480469c0 33.59375-27.230469 60.824219-60.820313 60.824219-33.589843 0-60.820312-27.230469-60.820312-60.824219 0-33.589844 27.230469-60.820313 60.820312-60.820313 33.589844 0 60.820313 27.230469 60.820313 60.820313zm0 0" fill="#ff929f"/><path d="m126.171875 111.3125c-4.265625 0-7.726563-3.457031-7.726563-7.726562v-34.320313l-12.417968 9.75c-3.355469 2.636719-8.214844 2.050781-10.847656-1.304687-2.636719-3.355469-2.050782-8.214844 1.304687-10.847657l24.917969-19.5625c2.328125-1.828125 5.492187-2.164062 8.148437-.871093 2.660157 1.292968 4.347657 3.992187 4.347657 6.945312v50.210938c0 4.269531-3.457032 7.726562-7.726563 7.726562zm0 0" fill="#fff"/><g fill="#57565c"><path d="m339.089844 271.289062c-4.265625 0-7.726563-3.457031-7.726563-7.722656v-12.828125c0-4.265625 3.460938-7.726562 7.726563-7.726562 4.269531 0 7.726562 3.460937 7.726562 7.726562v12.828125c0 4.265625-3.457031 7.722656-7.726562 7.722656zm0 0"/><path d="m172.910156 271.289062c-4.269531 0-7.726562-3.457031-7.726562-7.722656v-12.828125c0-4.265625 3.457031-7.726562 7.726562-7.726562 4.265625 0 7.726563 3.460937 7.726563 7.726562v12.828125c0 4.265625-3.460938 7.722656-7.726563 7.722656zm0 0"/><path d="m256 279.382812c-10 0-20-3.238281-28.34375-9.710937-3.371094-2.613281-3.984375-7.46875-1.371094-10.839844 2.613282-3.371093 7.46875-3.984375 10.839844-1.371093 11.113281 8.621093 26.636719 8.621093 37.746094 0 3.371094-2.613282 8.226562-2 10.839844 1.371093 2.617187 3.371094 2.003906 8.226563-1.367188 10.839844-8.34375 6.472656-18.34375 9.710937-28.34375 9.710937zm0 0"/></g></svg>