<svg height="512pt" viewBox="0 0 512 512" width="512pt" xmlns="http://www.w3.org/2000/svg"><path d="m338.15625 429.84375c0 45.375-36.78125 82.15625-82.15625 82.15625s-82.15625-36.78125-82.15625-82.15625 36.78125-82.15625 82.15625-82.15625 82.15625 36.78125 82.15625 82.15625zm0 0" fill="#85e7ff"/><path d="m235.652344 429.84375c0-34.441406 21.199218-63.910156 51.253906-76.125-9.542969-3.878906-19.96875-6.03125-30.90625-6.03125-45.371094 0-82.15625 36.78125-82.15625 82.15625s36.78125 82.15625 82.15625 82.15625c10.933594 0 21.363281-2.15625 30.90625-6.03125-30.054688-12.214844-51.253906-41.6875-51.253906-76.125zm0 0" fill="#57d0e6"/><path d="m444.40625 395.4375h-376.8125l27.183594-250.75c8.925781-82.316406 78.425781-144.6875 161.222656-144.6875s152.296875 62.371094 161.222656 144.6875zm0 0" fill="#85e7ff"/><path d="m286.90625 2.957031c-10.023438-1.9375-20.355469-2.957031-30.90625-2.957031-82.796875 0-152.296875 62.371094-161.222656 144.6875l-27.183594 250.75h61.808594l27.1875-250.75c7.785156-71.824219 61.695312-128.460938 130.316406-141.730469zm0 0" fill="#57d0e6"/><path d="m451.886719 429.199219h-391.773438c-33.199219 0-60.113281-26.914063-60.113281-60.113281 0-33.199219 26.914062-60.113282 60.113281-60.113282h391.773438c33.199219 0 60.113281 26.914063 60.113281 60.113282 0 33.199218-26.914062 60.113281-60.113281 60.113281zm0 0" fill="#b3f0ff"/><path d="m61.8125 369.085938c0-33.199219 26.914062-60.113282 60.113281-60.113282h-61.8125c-33.199219 0-60.113281 26.914063-60.113281 60.113282 0 33.199218 26.914062 60.113281 60.113281 60.113281h61.8125c-33.199219 0-60.113281-26.914063-60.113281-60.113281zm0 0" fill="#85e7ff"/><path d="m274.414062 108.34375c0 10.171875-8.242187 18.417969-18.414062 18.417969s-18.414062-8.246094-18.414062-18.417969c0-10.167969 8.242187-18.414062 18.414062-18.414062s18.414062 8.246093 18.414062 18.414062zm0 0" fill="#273435"/><path d="m476.914062 202.273438c0 42.730468-34.640624 77.371093-77.375 77.371093-42.730468 0-77.371093-34.640625-77.371093-77.371093 0-42.730469 34.640625-77.375 77.371093-77.375 42.734376 0 77.375 34.644531 77.375 77.375zm0 0" fill="#efedee"/><g fill="#273435"><path d="m373.835938 236.492188c0-1.523438.484374-3.078126 1.453124-4.671876l30.847657-55.667968h-26.277344c-1.316406 0-2.335937-.570313-3.0625-1.710938-.726563-1.144531-1.089844-2.546875-1.089844-4.207031 0-1.59375.34375-2.976563 1.039063-4.15625.691406-1.175781 1.726562-1.765625 3.113281-1.765625h39.464844c2.703125 0 4.050781 1.214844 4.050781 3.636719 0 1.523437-.519531 3.152343-1.558594 4.878906l-30.738281 55.5625h29.910156c1.246094 0 2.265625.609375 3.0625 1.820313.796875 1.210937 1.195313 2.578124 1.195313 4.101562s-.398438 2.890625-1.195313 4.101562c-.796875 1.210938-1.816406 1.816407-3.0625 1.816407h-43.101562c-2.699219 0-4.050781-1.246094-4.050781-3.738281zm0 0"/><path d="m190.390625 99.933594c-9.210937 0-17.78125-4.964844-22.371094-12.953125-2.066406-3.589844-.828125-8.175781 2.761719-10.238281 3.59375-2.0625 8.179688-.824219 10.242188 2.765624 1.921874 3.347657 5.511718 5.425782 9.367187 5.425782 3.851563 0 7.441406-2.078125 9.363281-5.425782 2.0625-3.589843 6.648438-4.828124 10.242188-2.765624 3.589844 2.066406 4.828125 6.648437 2.761718 10.242187-4.589843 7.988281-13.160156 12.949219-22.367187 12.949219zm0 0"/><path d="m321.613281 99.933594c-9.210937 0-17.78125-4.964844-22.371093-12.953125-2.066407-3.589844-.828126-8.175781 2.765624-10.238281 3.589844-2.0625 8.175782-.824219 10.238282 2.765624 1.921875 3.347657 5.511718 5.425782 9.367187 5.425782 3.851563 0 7.441407-2.078125 9.363281-5.425782 2.0625-3.589843 6.648438-4.828124 10.242188-2.765624 3.589844 2.066406 4.828125 6.648437 2.761719 10.242187-4.589844 7.988281-13.160157 12.949219-22.367188 12.949219zm0 0"/></g><path d="m327.460938 123.300781h-11.699219c-4.140625 0-7.5-3.355469-7.5-7.5s3.359375-7.5 7.5-7.5h11.699219c4.144531 0 7.5 3.355469 7.5 7.5s-3.355469 7.5-7.5 7.5zm0 0" fill="#fd6f71"/><path d="m196.238281 123.300781h-11.699219c-4.144531 0-7.5-3.355469-7.5-7.5s3.355469-7.5 7.5-7.5h11.699219c4.140625 0 7.5 3.355469 7.5 7.5s-3.359375 7.5-7.5 7.5zm0 0" fill="#fd6f71"/></svg>